<?xml version="1.0" encoding="utf-8"?>
<!-- Generator: Adobe Illustrator 25.2.1, SVG Export Plug-In . SVG Version: 6.00 Build 0)  -->
<svg version="1.1" id="图层_1" xmlns="http://www.w3.org/2000/svg" xmlns:xlink="http://www.w3.org/1999/xlink" x="0px" y="0px"
	 viewBox="0 0 363.6 155.1" style="enable-background:new 0 0 363.6 155.1;" xml:space="preserve">
<style type="text/css">
	.st0{opacity:0.36;fill:#FCD051;enable-background:new    ;}
	.st1{opacity:0.8;fill:#FCD051;enable-background:new    ;}
	.st2{opacity:0.79;fill:#FCD051;enable-background:new    ;}
	.st3{display:none;}
	.st4{display:inline;}
	.st5{fill:#FFFFFF;}
	.st6{fill:#EB0078;}
	.st7{fill:#3CAF32;}
	.st8{fill:#00A0EB;}
	.st9{fill:#F59600;}
	.st10{fill:#EB5096;}
	.st11{display:none;enable-background:new    ;}
	.st12{font-family:'xiaodanchunti';}
	.st13{font-size:74.0178px;}
	.st14{letter-spacing:-9;}
	.st15{fill:#8752FF;}
	.st16{fill:none;}
	.st17{fill:#F6F3FF;}
	.st18{display:inline;fill-rule:evenodd;clip-rule:evenodd;fill:#3CAF32;}
</style>
<g id="图层_2_1_">
</g>
<g id="图层_3_1_">
	<g>
		<polygon class="st0" points="89.4,48.1 78.9,32.5 97.7,33.6 109.3,18.8 114,37.1 131.6,43.5 115.8,53.6 115.1,72.4 100.6,60.4 
			82.5,65.6 		"/>
		<polygon class="st1" points="275.6,64.4 257.3,84.4 252.5,57.7 227.8,46.6 251.7,33.8 254.7,6.8 274.3,25.6 300.9,20.1 289,44.5 
			302.5,68.1 		"/>
		<polygon class="st2" points="158.1,109.2 150.3,111.8 153,104 148.1,97.4 156.4,97.6 161.1,90.9 163.5,98.7 171.4,101.2 
			164.6,105.9 164.7,114.1 		"/>
	</g>
</g>
<g id="图层_1_2_" class="st3">
	<g id="图层_1_1_">
		<g id="レイヤー_2" class="st4">
			<g id="UI">
				<path class="st5" d="M94.4,114.5c-6.2,0-12.5-0.8-18.5-2.4c-11.6-3.1-22.4-8.7-31.6-16.4c-4.1-3.7-4.4-9.9-0.7-14
					s9.9-4.4,14-0.7c1.6,1.4,37.1,32.2,77.8-3.9c4.1-3.6,10.3-3.3,14,0.8c3.6,4.1,3.3,10.3-0.8,14C129,109.3,110,114.5,94.4,114.5z"
					/>
				<path class="st5" d="M209,120.7c-5.9,0-11-4-12.4-9.7l-3.4-13.4c-1.7-6.8,2.5-13.7,9.3-15.4l79.7-19.9
					c6.8-1.7,13.7,2.5,15.5,9.3L301,85c1.7,6.8-2.5,13.7-9.3,15.5L212,120.4C211.1,120.6,210,120.7,209,120.7z M212.3,107.1
					L212.3,107.1z M209.7,97l1.7,6.9l73.2-18.2l-1.7-6.9L209.7,97z M285.5,88.9L285.5,88.9z M282.1,75.5L282.1,75.5z"/>
				<path class="st5" d="M209,121.9c-6.4,0-12-4.4-13.5-10.6l-3.4-13.4c-1.9-7.5,2.7-15,10.1-16.9L282,61.2c0.8-0.2,1.6-0.3,2.4-0.4
					c6.7-0.5,12.8,4,14.4,10.5l3.3,13.4c1.9,7.5-2.7,15-10.1,16.9l0,0l-79.7,19.9c-0.8,0.2-1.6,0.3-2.4,0.4
					C209.6,121.9,209.3,121.9,209,121.9z M211.2,97.9l1.1,4.6l70.9-17.7l-1.1-4.6L211.2,97.9z"/>
				<path class="st5" d="M242,109.3c-5.3,0-9.6-4.3-9.6-9.6c0-1.4,0.3-2.8,0.9-4l-1.9-7.4c-1.3-5.1,1.8-10.3,7-11.6
					c5.1-1.3,10.3,1.8,11.6,7l2.8,11.2c1.5,6.3-2.3,12.6-8.5,14.2l0,0C243.6,109.2,242.8,109.3,242,109.3z M243.8,106h-0.2H243.8z
					 M242.4,101.2L242.4,101.2z M234.2,99.4L234.2,99.4L234.2,99.4z M247.1,84.4L247.1,84.4z"/>
				<path class="st5" d="M234.6,100.3c-5.3,0-9.6-4.3-9.6-9.6c0-4.4,3-8.2,7.3-9.3l10.6-2.7c5.1-1.4,10.4,1.7,11.7,6.8
					c1.4,5.1-1.7,10.4-6.8,11.7c-0.1,0-0.2,0.1-0.3,0.1l-10.6,2.7C236.1,100.2,235.4,100.3,234.6,100.3z M239.1,86
					c-0.4,1.2-0.4,2.4-0.1,3.6c0.3,1.2,0.9,2.3,1.8,3.2C241.6,90.4,240.9,87.7,239.1,86z M233.1,84.4L233.1,84.4z"/>
				<path class="st5" d="M240.9,106.9c-6.5,0-11.7-5.3-11.7-11.8c0-2.1,0.6-4.2,1.7-6c1.6-2.7,4.2-4.6,7.2-5.3l2-0.5
					c5.1-1.3,10.3,1.8,11.6,7l0,0c0.1,0.3,0.2,0.7,0.2,1c0.1,0.3,0.2,0.7,0.3,1c1.6,6.3-2.3,12.6-8.5,14.2l0,0
					C242.8,106.8,241.9,106.9,240.9,106.9z M241.6,95l1,4.1h0.3c1.8-0.9,2.8-3,2.3-4.9L241.6,95z M241.8,98.7L241.8,98.7z
					 M240.7,94.3l0.8,0.1l0.1,0.6l3.5-0.9l-1.3-0.7l0.6-0.9c-1.1-1.4-2.8-2-4.5-1.6L240.7,94.3z M236.8,93.8l3.9,0.6l-0.9-3.4
					C238.4,91.3,237.2,92.4,236.8,93.8L236.8,93.8z"/>
				<path class="st5" d="M266.4,102.5c-3.9,0-7.4-2.4-8.9-6c-4.8-2.2-6.9-7.9-4.7-12.7c1.2-2.6,3.6-4.6,6.4-5.3l3.4-0.8
					c6.8-1.7,13.7,2.4,15.4,9.2c1.7,6.8-2.4,13.7-9.2,15.4l0,0C268,102.5,267.2,102.5,266.4,102.5z M264.9,86.6
					c-1.8,0.5-3,2.3-2.5,4.1c0.2,0.9,0.8,1.6,1.6,2.1c0.3,0.2,0.7,0.3,1.1,0.4c2.3-1.4,3.4-4.1,3-6.7
					C266.9,86.4,265.9,86.4,264.9,86.6L264.9,86.6z M266.5,93.3L266.5,93.3z M264.1,83.6L264.1,83.6z"/>
				<path class="st5" d="M231.6,111.8c-5,0-9.4-3.2-11.1-7.9l-0.5-0.3c-4.5-2.7-6-8.6-3.3-13.2c1.3-2.2,3.4-3.8,5.9-4.4l1-0.2
					c2.3-0.6,4.8-0.4,7,0.4c5-1.1,10,2.1,11.3,7.1l1,4c1.5,6.3-2.3,12.6-8.5,14.2l0,0C233.5,111.7,232.6,111.9,231.6,111.8z
					 M227.3,101.2L227.3,101.2z M227.3,99.3c0.4,0.6,0.9,1.1,1.4,1.5c0.8-0.5,1.4-1.2,1.9-2c0.2-0.3,0.3-0.6,0.4-0.9l-0.5-2
					C228.9,96.4,227.6,97.7,227.3,99.3z M230.6,95.9l0.5,2c0.3-0.7,0.4-1.4,0.4-2.1C231.2,95.8,230.9,95.8,230.6,95.9z M239,94.1
					L239,94.1z"/>
				<path class="st5" d="M224.9,113.6c-5,0-9.1-3.8-9.5-8.7l-1.2-13.7c-0.3-5.3,3.7-9.8,9-10.1c5-0.3,9.5,3.4,10.1,8.4l1.2,13.8
					c0.4,4.7-2.6,9-7.2,10.2c-0.4,0.1-0.8,0.2-1.3,0.2h-0.3C225.5,113.5,225.2,113.6,224.9,113.6z M231.4,103.4L231.4,103.4z"/>
				<path class="st5" d="M252.4,96.6c-4.4,0-8.2-3-9.3-7.3l-0.9-3.8c-1.3-5.1,1.9-10.3,7-11.6c5.1-1.3,10.3,1.8,11.6,7l0,0l0.9,3.7
					c1.3,5.1-1.9,10.3-7,11.6c-0.6,0.1-1.1,0.2-1.7,0.3L252.4,96.6z M245.9,86.6c1.4,2.3,4,3.5,6.7,3l-0.1-1.1l0.1,1.1l0.5-0.1
					c2.7-0.7,4.7-3.1,4.9-5.8c-1.3-2.1-3.6-3.3-6-3.1c-0.4,0-0.8,0.1-1.2,0.2C248,81.4,246.1,83.8,245.9,86.6L245.9,86.6z
					 M245.2,84.8L245.2,84.8z M252.1,80.5L252.1,80.5z"/>
				<path class="st5" d="M253.8,105.8c-6.2,0-11.5-4.2-13-10.2l-0.3-1.2c-1.8-7.2,2.6-14.5,9.8-16.3l4.5-1.1
					c5.1-1.3,10.3,1.8,11.6,7l0,0c0.5,1.8,0.4,3.7-0.2,5.4c3.2,4.3,2.3,10.3-2,13.4c-1,0.8-2.2,1.3-3.4,1.6l-3.7,0.9
					c-0.8,0.2-1.5,0.3-2.3,0.4l0,0C254.4,105.8,254.1,105.8,253.8,105.8z M260,101.5L260,101.5z M254.1,97.8L254.1,97.8z
					 M254.9,96.8L254.9,96.8z M253.7,92c0.6,0.3,1.2,0.6,1.9,0.7l0.1-0.1c0.3-0.4,0.4-0.9,0.4-1.4c-0.3-0.6-0.8-1.1-1.5-1.3
					c-0.4,0.3-0.7,0.5-1,0.9L253.7,92z M258.6,92.7L258.6,92.7L258.6,92.7z M253.1,91.5c0.2,0.2,0.4,0.3,0.6,0.4h0.1l-0.1-1.2
					C253.4,91,253.2,91.2,253.1,91.5L253.1,91.5z M256.1,90.6L256.1,90.6z M253.1,89.8L253.1,89.8z M256.8,88.9L256.8,88.9z
					 M255.4,80L255.4,80z"/>
				<path class="st5" d="M212,115.4c-5.6,0-10.4-3.8-11.8-9.2l-1.6-6.3c-1.7-6.5,2.2-13.1,8.7-14.7l4.1-1c6.9-1.7,13.8,2.5,15.6,9.3
					l1.7,6.7c1.2,4.7-0.4,9.6-4.1,12.8c-1.2,1-2.5,1.7-4,2.1c-1.7,0.4-3.4,0.4-5.1-0.1c-0.2,0.1-0.4,0.1-0.7,0.2
					C213.9,115.3,213,115.4,212,115.4z M222.6,110.5L222.6,110.5z"/>
				<path class="st5" d="M284.1,87.8c-6.1,0-11.1-5-11.1-11.1c0-5.1,3.5-9.5,8.4-10.7c0.6-0.2,1.3-0.3,1.9-0.3
					c6.1-0.4,11.4,4.2,11.8,10.3c0.4,5.4-3.2,10.3-8.4,11.5c-0.6,0.2-1.3,0.3-1.9,0.3L284.1,87.8z M284.2,77.5l0.3,4.2l0,0l-0.1-2
					l0.1,2l0,0c0.3,0,0.6-0.1,0.9-0.1c2.7-0.6,4.4-3.3,3.7-6c-0.4-1.7-1.6-3.1-3.3-3.6l-1.4,4.9l0.5,0.3l-0.5-0.3L284.2,77.5v-0.8
					l-4.3-2.6c-1.4,2.4-0.6,5.4,1.7,6.9c0.5,0.3,0.9,0.5,1.5,0.6L284.2,77.5z M279.9,74.1l4.3,2.6l-0.1-0.9v0.1l-0.3-4.2l0,0
					c-0.3,0-0.6,0.1-0.9,0.1C281.6,72.1,280.5,73,279.9,74.1L279.9,74.1z"/>
				<path class="st5" d="M277.2,91.9c-3.4,0-6.6-1.8-8.3-4.7c-4.7-2.5-6.4-8.3-3.9-13c0.6-1.1,1.4-2.1,2.4-2.9c2-1.6,4.5-2.3,7-2.1
					l6.2,0.6c5.3,0.5,9.1,5.2,8.6,10.5c-0.2,1.9-1,3.7-2.2,5.2l-2.5,3c-1.3,1.5-3,2.6-5,3.1l0,0C278.8,91.9,278,91.9,277.2,91.9z
					 M282.2,86.5L282.2,86.5z M279,85.9L279,85.9z M273.3,77.9l3.3,2.8l-0.4,4c0.5-0.2,0.9-0.5,1.3-0.8l-2-7.8
					c-0.7,0.2-1.3,0.5-1.9,0.8C273.5,77.2,273.4,77.5,273.3,77.9L273.3,77.9z M277.6,83.9L277.6,83.9z M277.2,75.9
					c-0.5,0-1,0.1-1.5,0.2l1.9,7.8l0,0c2.2-1.8,3-4.9,1.9-7.6C278.7,76,278,75.9,277.2,75.9L277.2,75.9z"/>
				<path class="st5" d="M277.5,99.9H277c-5.3-0.2-9.4-4.7-9.2-10l0,0c0-1.1,0.3-2.3,0.8-3.3c-1.8-3.7-1-8.2,2-11.1
					c1.8-1.8,4.3-2.7,6.8-2.7c2.6,0.1,5,1.1,6.8,3l2.5,2.6c4.9,5.1,4.7,13.1-0.3,18c-1.6,1.5-3.6,2.6-5.7,3.2l0,0
					C279.6,99.9,278.6,100,277.5,99.9z M278.6,91.7L278.6,91.7z M274.3,88.2c0.9,0.4,1.8,0.7,2.8,0.7c0.3,0,0.6,0,0.9,0l-1.2-4.9
					c-0.6,0.1-1.1,0.4-1.5,0.8C274.3,85.7,273.9,87,274.3,88.2z M277.5,83.8c-0.3,0-0.5,0-0.8,0.1l1.2,4.9c1.4-0.2,2.8-0.8,3.8-1.8
					c0.3-0.2,0.5-0.5,0.7-0.8c-0.1-0.1-0.2-0.2-0.3-0.3c-1.2-1.3-2.8-2-4.5-2.1C277.6,83.8,277.5,83.8,277.5,83.8z M272.5,86.9
					L272.5,86.9z M277.7,80.8L277.7,80.8z"/>
				<path class="st5" d="M273.5,98.6c-5,0-9.1-3.8-9.5-8.8l-0.3-3.8c-0.3-5.3,3.7-9.8,9-10.2c5.1-0.3,9.6,3.4,10.1,8.5l0.3,3.8
					c0.5,5.3-3.5,9.9-8.7,10.4l0,0C274,98.6,273.7,98.6,273.5,98.6z M267.1,87.7c1.1,2.7,3.7,4.3,6.6,4.1l0,0l-0.1-1.2l0.1,1.2
					c2.9-0.2,5.2-2.3,5.8-5.2c-1.1-2.7-3.7-4.3-6.6-4.1l0,0C270,82.8,267.7,84.8,267.1,87.7L267.1,87.7z M267,89.6L267,89.6z
					 M279.6,84.7L279.6,84.7z"/>
				<path class="st5" d="M285.7,95.5c-3.9,0-7.3-2.3-8.8-5.9l-1.5-3.5c-2.1-4.9,0.2-10.5,5.1-12.6c2.3-1,5-1,7.4-0.1
					s4.2,2.8,5.2,5.2l1.5,3.5c2.1,4.9-0.2,10.5-5.1,12.6l0,0C288.3,95.3,287,95.5,285.7,95.5z M279.2,86.6c0.7,0.8,1.6,1.5,2.6,1.9
					c3.3,1.3,7.1-0.3,8.5-3.6c0.4-1,0.6-2.1,0.4-3.1c-0.7-0.8-1.6-1.5-2.5-1.9c-1.6-0.7-3.4-0.7-5,0l3.1,7.4l-3.1-7.3
					C280.5,81.1,279,83.8,279.2,86.6z M278.2,85L278.2,85z M291.7,83.4L291.7,83.4z"/>
				<path class="st5" d="M256.1,88.4c-2.1,0-4.2-0.8-5.8-2.2l-14.4-12.7c-3.6-3.2-4-8.7-0.8-12.4c3.2-3.6,8.8-4,12.4-0.8l0,0
					L261.9,73c3.6,3.2,4,8.8,0.8,12.4c-1.5,1.7-3.7,2.8-6,2.9l0,0L256.1,88.4z M251.2,85.1L251.2,85.1z M256.1,80.4L256.1,80.4z"/>
				<path class="st5" d="M241.6,84.6c-10.4,0-18.9-8.5-18.9-18.9c0-7.1,4-13.6,10.3-16.8c-0.6-2.4-1.2-4.6-1.6-6.2l-0.7-2.4
					c0-0.1-0.1-0.3-0.1-0.4c-1.8-6.8,2.2-13.7,9-15.5c5.5-1.5,11.2,0.9,14.2,5.7c7-0.4,13,4.9,13.5,11.9c0.1,2.4-0.4,4.9-1.6,7
					c-0.4,0.7-0.8,1.3-1.3,1.9c6.1,3.4,8.4,11.1,5,17.2c-2.2,4-6.4,6.5-11,6.6l0,0c-3.3,6.1-9.6,10-16.6,10L241.6,84.6z M241.5,62.9
					L241.5,62.9c-1.6,0-2.8,1.3-2.8,2.8c0,1.6,1.3,2.8,2.8,2.8l0,0l0,0c1.5,0,2.7-1.2,2.8-2.7c0-1.1,0.1-2.2,0.5-3.3
					c-1,0.3-2,0.4-3.1,0.3L241.5,62.9v4.4V62.9L241.5,62.9z M258.8,58.5L258.8,58.5z M253.6,39.4L253.6,39.4z"/>
				<path class="st5" d="M268.4,58c-7,0-12.7-5.7-12.7-12.7c0-0.3,0-0.6,0-0.8l1-15.7c0.6-7,6.8-12.2,13.8-11.5
					c6.8,0.6,11.9,6.4,11.6,13.2l-0.1,2.1c0.9,0.4,1.7,0.9,2.5,1.5c2.7,2,4.5,5.1,4.9,8.4c0.9,6.9-3.9,13.3-10.9,14.3l-8.4,1.1
					c-0.5,0.1-1.1,0.1-1.6,0.1L268.4,58z"/>
				<path class="st5" d="M285.5,76c-7,0-12.7-5.7-12.7-12.7c0-2.9,1-5.7,2.8-8c3.5-4.2,3.9-10.5,3.9-13.9c0-2.1-0.2-4.3-0.5-6.4
					c-0.2-1.3-0.4-2.1-0.5-2.3s0,0,0-0.1l0,0c0-0.1,0-0.2-0.1-0.5c0-0.1,0-0.1,0-0.2c0-0.1,0-0.2,0-0.3c0-0.3-0.1-0.5-0.1-0.8
					s-0.1-0.9-0.1-1.3c0-6.9,5.5-12.6,12.5-12.7h0.4h0.8c0.8,0.1,1.6,0.2,2.4,0.4h0.1l0.4,0.1l0.3,0.1l0.3,0.1l0,0h0.1
					c0.9,0.4,1.8,0.8,2.7,1.4c0.6,0.4,1.2,0.9,1.7,1.4l0.3,0.3c0.6,0.7,1.2,1.5,1.7,2.3l0.2,0.3l0.1,0.2l0,0
					c0.5,0.9,0.8,1.9,1.1,2.9v0.2c0.1,0.3,0.1,0.6,0.2,0.9c0.2,1,0.4,2.1,0.6,3.2c0.5,3.4,0.8,6.9,0.8,10.4
					c0,12.1-3.2,22.2-9.6,30.1C293,74.3,289.4,76,285.5,76L285.5,76z M278.5,32.2c0,0.1,0,0.2,0.1,0.3v-0.1
					C278.6,32.3,278.5,32.3,278.5,32.2L278.5,32.2z"/>
				<path class="st5" d="M224.4,47c-3.9,0-7.5-2.1-9.5-5.4l0,0l-3.3-5.5c-3-5.4-1.2-12.2,4.2-15.2c5.2-2.9,11.7-1.3,14.9,3.7L234,30
					c3.2,5.3,1.5,12.1-3.8,15.3C228.4,46.4,226.4,47,224.4,47z M219.5,35.1c1.4,0.5,2.9,0.3,4.2-0.4c1.1-0.7,1.9-1.8,2.3-3
					c0-0.1,0.1-0.3,0.1-0.4c-0.5-0.2-1.1-0.3-1.6-0.3l0,0c-2.3,0-4.2,1.5-4.8,3.8C219.6,34.8,219.5,34.9,219.5,35.1L219.5,35.1z
					 M225.4,27.8L225.4,27.8z"/>
				<path class="st5" d="M231.4,43.7c-3.9,0-7.5-2.1-9.6-5.4l0,0l-3.3-5.4c-3.1-5.3-1.3-12.1,4-15.3c5.2-3.1,11.9-1.4,15.1,3.8
					l3.3,5.5c3.2,5.3,1.5,12.1-3.8,15.3l0,0C235.5,43.2,233.5,43.7,231.4,43.7L231.4,43.7z M227.2,35.1L227.2,35.1z M226.5,31.8
					c1.4,0.5,2.9,0.3,4.2-0.4c1.1-0.7,2-1.8,2.3-3c0-0.1,0.1-0.3,0.1-0.4c-0.5-0.2-1.1-0.3-1.6-0.3c-2.3,0-4.2,1.6-4.8,3.8
					C226.6,31.5,226.6,31.7,226.5,31.8L226.5,31.8z M235.7,30L235.7,30z"/>
				<path class="st5" d="M208.9,77.4c-1.1,0-2.1-0.1-3.2-0.2c-5.5-0.8-10.5-3.7-13.9-8.1c-3.1-4-4.8-9-4.8-14.1c0-0.6,0-1.1,0.1-1.6
					v-0.1c0.1-1.2,0.3-2.3,0.6-3.5c-6.4-2.9-9.2-10.5-6.2-16.9c1.4-3,3.9-5.4,7-6.6l13.6-5.1c6.6-2.5,13.9,0.8,16.4,7.4
					c0.4,1.2,0.7,2.4,0.8,3.6c0.7,0,1.5,0,2.2,0.1l9.6,1.4c6.9,1.2,11.6,7.7,10.4,14.6c-0.9,5.5-5.3,9.8-10.9,10.5
					C228.8,69.6,219.7,77.4,208.9,77.4L208.9,77.4z M207.7,36.4L207.7,36.4z"/>
				<path class="st5" d="M41.9,88.1c-7.1,0-13.8-3-18.5-8.3C18.7,74.1,16,67,16,59.5c-0.2-7.6,2.1-15,6.5-21.2
					c1.5-2.1,3.3-4.1,5.3-5.8c13.1-11.6,33.1-11.6,46.6,0c2.1,1.8,4,3.7,5.8,5.7c9.1,10.1,9.9,18.8,10,20.8
					c0.3,7.7-5.7,14.2-13.4,14.6l0,0c-4.1,0.2-8-1.5-10.8-4.6c-0.3,1.3-0.6,2.5-1.1,3.7c-1.3,3.6-3.5,6.8-6.3,9.4
					c-2.4,2.1-5.2,3.7-8.3,4.7C47.6,87.6,44.8,88.1,41.9,88.1z M76.4,65.5L76.4,65.5z M44.7,61.2L44.7,61.2z M48.3,40l0.2,0.2
					c0-0.1,0.1-0.2,0.2-0.2H48.3z"/>
				<path class="st5" d="M101.2,92.4h-0.3c-4.2-0.1-8.2-1.7-11.3-4.6c-5.3,4-12.8,2.9-16.8-2.4c-2.3-3-3-7-1.9-10.6v-0.1
					c0.3-0.9,0.7-1.9,1.1-2.9l8.4-22c2.2-6.2,9-9.5,15.2-7.3s9.5,9,7.3,15.2c-0.1,0.2-0.2,0.4-0.2,0.6l-0.4,1.1
					c0.6,0.5,1.2,1.1,1.8,1.7c6.4-1.7,12.9,2.1,14.6,8.5c0.5,1.7,0.5,3.5,0.2,5.3l-0.6,3C116.9,86.2,109.7,92.4,101.2,92.4z
					 M103,71.8L103,71.8z"/>
				<path class="st5" d="M125,82.3c-7.1,0-13.8-3-18.4-8.3c-4.8-5.6-7.5-12.8-7.5-20.2c-0.2-7.6,2.1-15,6.5-21.2
					c1.5-2.1,3.3-4.1,5.3-5.8C124,15,144,15,157.5,26.7c2.1,1.8,4,3.7,5.8,5.7c9.1,10.1,9.9,18.8,9.9,20.7
					c0.3,7.7-5.7,14.3-13.4,14.6l0,0c-4.1,0.2-8.1-1.4-10.8-4.5c-0.3,1.2-0.6,2.4-1,3.6c-1.3,3.6-3.5,6.8-6.3,9.4
					c-2.4,2.1-5.2,3.7-8.3,4.7C130.7,81.8,127.9,82.3,125,82.3z M159.4,59.7L159.4,59.7z M131.4,34.2l0.2,0.2
					c0.1-0.1,0.1-0.2,0.2-0.2H131.4z"/>
				<path class="st5" d="M184.3,86.6H184c-4.2-0.1-8.3-1.7-11.3-4.6c-5.3,4-12.8,2.9-16.8-2.4c-2.3-3-3-7-1.9-10.6l0.1-0.2
					c0.3-0.9,0.7-1.9,1.1-2.9l8.4-22c2.3-6.2,9.2-9.3,15.4-6.9s9.3,9.2,6.9,15.4l0,0l-0.4,1.1c0.6,0.5,1.2,1.1,1.8,1.7
					c6.4-1.7,12.9,2.1,14.6,8.5c0.5,1.7,0.5,3.5,0.2,5.3l-0.6,3C200,80.4,192.8,86.5,184.3,86.6z M186.1,66L186.1,66z"/>
				<path class="st5" d="M235,93.7c-4.9,0-8.8-4-8.8-8.8c0-1,0.2-2.1,0.6-3l6.7-18c2-4.4,7.2-6.4,11.6-4.4c4.1,1.8,6.1,6.4,4.8,10.6
					l-6.7,18c-1.2,3.2-4.2,5.4-7.6,5.7C235.4,93.7,235.2,93.7,235,93.7z"/>
				<path class="st5" d="M293.3,87c0.6,2.5-0.9,5.1-3.4,5.7l-79.7,19.9c-2.5,0.6-5.1-0.9-5.7-3.4l-3.4-13.4
					c-0.6-2.5,0.9-5.1,3.4-5.7l0,0l79.7-19.9c2.5-0.6,5.1,0.9,5.7,3.4L293.3,87z"/>
				<path class="st6" d="M209.4,113.8c-2.8,0.2-5.4-1.7-6.1-4.4L199.9,96c-0.8-3.1,1.1-6.3,4.3-7.1L283.9,69c0.3-0.1,0.7-0.1,1-0.2
					c2.8-0.2,5.4,1.7,6.1,4.4l3.3,13.4c0.8,3.1-1.1,6.3-4.3,7.1l-79.7,19.8C210.1,113.7,209.7,113.8,209.4,113.8z M285.1,71.2
					c-0.2,0-0.4,0.1-0.6,0.1l-79.7,19.9c-0.9,0.2-1.7,0.8-2.2,1.6c-0.5,0.8-0.6,1.8-0.4,2.7l3.4,13.4c0.4,1.7,2,2.8,3.7,2.7
					c0.2,0,0.4,0,0.6-0.1l79.7-19.9c0.9-0.2,1.7-0.8,2.2-1.6c0.5-0.8,0.6-1.8,0.4-2.7l-3.3-13.4C288.4,72.2,286.8,71,285.1,71.2z"/>
				<path class="st6" d="M242.4,101.2c-0.8,0.2-1.7-0.3-1.9-1.1s0.3-1.7,1.1-1.9c0.3-0.1,0.5-0.4,0.4-0.7l-2.8-11.2
					c-0.1-0.8,0.4-1.6,1.3-1.8c0.8-0.1,1.5,0.3,1.7,1l2.8,11.2C245.6,98.7,244.4,100.7,242.4,101.2z"/>
				<path class="st6" d="M245.6,89.5L235,92.2c-0.8,0.1-1.6-0.4-1.8-1.3c-0.1-0.8,0.3-1.5,1-1.7l10.6-2.7c0.8-0.2,1.7,0.3,1.9,1.1
					S246.5,89.3,245.6,89.5L245.6,89.5z"/>
				<path class="st6" d="M241.8,98.7c-2,0.5-4-0.7-4.5-2.7s0.7-4,2.7-4.5l2.1-0.5c0.8-0.2,1.7,0.2,1.9,1v0.1c0.1,0.4,0,0.8-0.1,1.1
					c0.3,0.2,0.6,0.5,0.7,0.9C245,96.3,243.8,98.3,241.8,98.7L241.8,98.7z M240.8,94.6c-0.3,0.1-0.5,0.4-0.4,0.8
					c0.1,0.3,0.4,0.4,0.6,0.4c0.3-0.1,0.5-0.4,0.4-0.7c0-0.2,0-0.4,0-0.6L240.8,94.6z"/>
				<path class="st6" d="M266.8,94.4c-0.8,0.2-1.7-0.3-1.9-1.1s0.3-1.7,1.1-1.9c0.8-0.2,1.3-1,1.1-1.9s-1-1.3-1.9-1.1l0,0l-3.4,0.8
					c-0.8,0.2-1.7-0.3-1.9-1.1s0.3-1.7,1.1-1.9l3.4-0.8c2.5-0.6,5,0.9,5.6,3.4S269.3,93.8,266.8,94.4L266.8,94.4z"/>
				<path class="st6" d="M232.5,103.7c-1.9,0.5-3.9-0.7-4.4-2.7l-1-4c-0.1-0.3-0.4-0.5-0.7-0.4l0,0l-1,0.2c-0.8,0.2-1.7-0.3-1.9-1.1
					s0.3-1.7,1.1-1.9l1-0.3c1.9-0.5,3.9,0.7,4.4,2.7l1,3.9c0.1,0.3,0.4,0.5,0.7,0.4s0.5-0.4,0.4-0.7l-1-3.9
					c-0.2-0.8,0.3-1.7,1.1-1.9s1.7,0.3,1.9,1.1l1,4C235.6,101.2,234.5,103.2,232.5,103.7L232.5,103.7z"/>
				<path class="st6" d="M225.3,105.5H225c-0.8,0.1-1.6-0.5-1.7-1.4l-1.2-13.7c-0.1-0.8,0.4-1.6,1.3-1.8c0.8-0.1,1.6,0.4,1.8,1.3
					c0,0.1,0,0.1,0,0.2l1.2,13.7C226.5,104.6,226,105.3,225.3,105.5z"/>
				<path class="st6" d="M252.6,88.6c-0.7,0.1-1.4-0.4-1.6-1.2l-0.9-3.7c-0.2-0.8,0.3-1.7,1.1-1.9l0,0c0.8-0.2,1.6,0.3,1.9,1.1l0,0
					l0.9,3.7c0.2,0.8-0.3,1.7-1.1,1.9L252.6,88.6z"/>
				<path class="st6" d="M254.1,97.8c-2.6,0.2-5-1.5-5.6-4.1l-0.3-1.2c-0.7-2.9,1.1-5.8,3.9-6.5l4.5-1.1c0.8-0.2,1.7,0.3,1.9,1.1
					s-0.3,1.7-1.1,1.9l-4.5,1.1c-0.6,0.1-1.1,0.5-1.4,1c-0.3,0.5-0.4,1.2-0.3,1.8l0.3,1.2c0.3,1.2,1.6,2,2.8,1.7l3.7-0.9
					c0.8-0.2,1.7,0.3,1.9,1.1s-0.3,1.7-1.1,1.9l0,0l-3.7,0.9C254.8,97.7,254.5,97.8,254.1,97.8z"/>
				<path class="st6" d="M218.7,107.1c-0.8,0.2-1.7-0.3-1.9-1.1c-0.1-0.6,0.1-1.1,0.5-1.5c0.5-0.4,0.7-1.1,0.6-1.7l-1.7-6.7
					c-0.2-0.9-1.1-1.5-2.1-1.2l0,0L214,95l1.8,7.3c0.8,2.1-0.2,4.4-2.2,5.2c-2.1,0.8-4.4-0.2-5.2-2.2c-0.1-0.3-0.2-0.7-0.3-1.1
					l-1.6-6.3c-0.6-2.2,0.7-4.4,2.8-5l0,0l4-1c2.6-0.6,5.1,0.9,5.8,3.5l1.7,6.7c0.4,1.7-0.1,3.6-1.5,4.8
					C219.2,107,218.9,107.1,218.7,107.1z M210.1,95.9c-0.5,0.2-0.8,0.7-0.6,1.2l1.6,6.3c0.1,0.5,0.5,0.9,1,0.8s0.9-0.5,0.8-1
					c0-0.1,0-0.2-0.1-0.2l-1.8-7.3L210.1,95.9z"/>
				<path class="st6" d="M284.4,79.7L284.4,79.7c-1.7,0.3-3.2-0.9-3.5-2.5s0.9-3.2,2.5-3.5c0.2,0,0.3-0.1,0.5-0.1
					c1.7-0.3,3.2,0.9,3.5,2.5s-0.9,3.2-2.5,3.5C284.7,79.7,284.5,79.7,284.4,79.7z M284.1,75.9H284c-0.4,0.1-0.7,0.6-0.6,1
					s0.5,0.6,0.8,0.6l0,0h0.1c0.4-0.1,0.7-0.6,0.6-1S284.5,75.8,284.1,75.9L284.1,75.9z"/>
				<path class="st6" d="M277.6,83.8c-0.8,0.2-1.7-0.3-1.9-1.1c-0.1-0.5,0-1,0.3-1.4l0.6-0.7l-3.3-0.3c-0.8-0.1-1.4-0.9-1.3-1.8
					c0.1-0.8,0.8-1.4,1.6-1.3l6.2,0.6c0.6,0.1,1.1,0.4,1.3,0.9c0.2,0.5,0.1,1.1-0.2,1.6l-2.5,3C278.1,83.6,277.9,83.8,277.6,83.8z"
					/>
				<path class="st6" d="M278.6,91.7c-0.4,0.1-0.9,0.2-1.3,0.1c-0.8-0.1-1.5-0.9-1.4-1.7c0.1-0.8,0.7-1.4,1.5-1.4
					c0.9,0,1.6-0.6,1.6-1.5c0-0.4-0.1-0.9-0.4-1.2l-2.6-2.7c-0.6-0.6-0.7-1.6-0.1-2.2s1.6-0.7,2.2-0.1l0.1,0.1l2.6,2.7
					c1.8,1.9,1.7,4.8-0.1,6.6C280.2,91.1,279.4,91.5,278.6,91.7z"/>
				<path class="st6" d="M273.6,90.5c-0.8,0.1-1.6-0.5-1.7-1.4l0,0l-0.3-3.8c-0.1-0.8,0.6-1.6,1.4-1.7s1.6,0.6,1.7,1.4l0.3,3.8
					C275.1,89.7,274.4,90.5,273.6,90.5L273.6,90.5z"/>
				<path class="st6" d="M286.3,87.4c-0.8,0.3-1.7,0-2-0.8l-1.5-3.5c-0.3-0.8,0.1-1.7,0.9-2s1.6,0.1,1.9,0.8l1.5,3.5
					C287.5,86.1,287.1,87,286.3,87.4z"/>
				<path class="st6" d="M256.1,80.4c-0.2,0-0.4-0.1-0.5-0.2l-14.4-12.7c-0.3-0.3-0.3-0.7-0.1-1c0.3-0.3,0.7-0.3,1-0.1l14.4,12.7
					c0.3,0.3,0.3,0.7,0.1,1C256.5,80.2,256.3,80.3,256.1,80.4z"/>
				<path class="st7" d="M259.1,57.3l-7-1.4c-0.3-2.4-0.8-4.9-1.4-7.3l5-1.4c2.5-0.7,3.9-3.3,3.2-5.8c-0.7-2.5-3.3-3.9-5.8-3.2
					l-4.8,1.3c-0.7-2.7-1.3-4.4-1.3-4.5c-0.7-2.5-3.3-3.8-5.8-3.1s-3.8,3.3-3.1,5.8l0,0c0,0,0.3,1,0.8,2.6c0.7,2.5,1.8,6.4,2.6,10.4
					c0.3,1.4,0.6,2.7,0.8,4.1c-0.3,0-0.7,0-1,0c-6,0-10.8,4.9-10.8,10.9s4.9,10.8,10.9,10.8s10.8-4.9,10.8-10.9c0-0.1,0-0.1,0-0.2
					l4.9,1c0.3,0.1,0.6,0.1,1,0.1c2.6,0,4.6-2.1,4.6-4.7C262.8,59.7,261.3,57.8,259.1,57.3L259.1,57.3z M241.6,67.2
					c-0.9,0-1.6-0.7-1.6-1.6s0.7-1.6,1.6-1.6c0.9,0,1.6,0.7,1.6,1.5C243.1,66.5,242.4,67.2,241.6,67.2L241.6,67.2z"/>
				<path class="st8" d="M265.2,48.7c-1-0.9-1.6-2.3-1.5-3.7l0,0l1-15.7c0.2-2.5,2.4-4.5,5-4.3l0,0c2.6,0.2,4.5,2.4,4.3,4.9l0,0l0,0
					l-0.6,10l2.8-0.4c2.5-0.3,4.9,1.4,5.2,4l0,0l0,0c0.3,2.5-1.5,4.9-4,5.2l0,0l-8.4,1.1c-0.2,0-0.4,0-0.6,0l0,0
					C267.2,49.9,266.1,49.4,265.2,48.7L265.2,48.7z"/>
				<path class="st8" d="M282.6,66.9c-2-1.6-2.3-4.5-0.7-6.5l0,0c4.5-5.4,5.7-12.8,5.7-19.1l0,0c0-2.6-0.2-5.1-0.6-7.6l0,0
					c-0.3-1.9-0.6-3-0.6-3l0,0c0,0,0,0,0-0.1l0,0c0-0.1,0-0.1,0-0.2l0,0c0-0.1,0-0.2,0-0.2l0,0c0-0.1,0-0.1,0-0.2l0,0
					c0-0.2,0-0.3,0-0.5l0,0c0-1.2,0.5-2.4,1.3-3.3l0,0c0.9-0.9,2-1.4,3.3-1.4l0,0c0.1,0,0.2,0,0.3,0l0,0c0.3,0,0.6,0.1,0.9,0.2l0,0
					h-0.3l0,0c0.3,0.1,0.6,0.2,0.9,0.3l0,0l-0.4-0.1l0,0c1,0.4,1.9,1.1,2.4,2.1l0,0c0-0.1-0.1-0.1-0.1-0.2l0,0
					c-0.4-0.6-0.9-1.1-1.5-1.5l0,0h-0.1l0,0c0.3,0.2,0.6,0.4,0.9,0.6l0,0c0.6,0.6,1,1.3,1.2,2.1l0,0c-0.1-0.3-0.2-0.7-0.4-1l0,0
					c0.2,0.4,0.3,0.7,0.4,1.1l0,0v0.1l0,0c0,0.2,0.1,0.5,0.2,0.8l0,0c0.1,0.7,0.3,1.6,0.5,2.7l0,0c0.5,3,0.8,6.1,0.8,9.1l0,0
					c0,7.4-1.3,17-7.8,25l0,0c-0.9,1.1-2.2,1.7-3.6,1.7l0,0C284.5,68,283.4,67.7,282.6,66.9L282.6,66.9z"/>
				<path class="st9" d="M221.7,37.4l-3.3-5.4c-0.9-1.5-0.4-3.4,1.1-4.2l0,0c1.5-0.9,3.4-0.4,4.2,1.1l0,0l3.3,5.4
					c0.9,1.5,0.4,3.3-1.1,4.2l0,0c-0.5,0.3-1,0.4-1.6,0.4l0,0C223.3,38.9,222.3,38.3,221.7,37.4L221.7,37.4z"/>
				<path class="st9" d="M228.8,34.2l-3.3-5.5c-0.9-1.5-0.4-3.4,1-4.2l0,0l0,0c1.5-0.9,3.4-0.4,4.2,1.1l0,0l3.3,5.5
					c0.9,1.5,0.4,3.4-1.1,4.2l0,0l0,0c-0.5,0.3-1,0.4-1.6,0.5l0,0C230.3,35.7,229.3,35.1,228.8,34.2L228.8,34.2z"/>
				<path class="st9" d="M206.9,69.2c-3.4-0.5-6.6-2.3-8.7-5l0,0c-2-2.6-3.1-5.9-3.1-9.2l0,0c0-0.4,0-0.7,0-1l0,0
					c0.2-1.7,0.6-3.4,1.1-5l0,0c0.6-1.8,1.3-3.9,2-6l0,0l0.7-1.9l0,0l-4.3,1.6l0,0c-2.4,0.9-5.1-0.3-6-2.7l0,0l0,0
					c-0.9-2.4,0.3-5.1,2.7-6l0,0l0,0l13.6-5.1c1.7-0.6,3.5-0.3,4.8,1l0,0c1.3,1.2,1.8,3,1.4,4.6l0,0c-1.2,4.1-4.2,11.7-5.7,16.7l0,0
					c-0.5,1.2-0.7,2.4-0.9,3.7l0,0c0,1.3,0.4,2.5,1.1,3.5l0,0c0.6,0.8,1.6,1.4,2.6,1.5l0,0c0.2,0,0.5,0,0.7,0l0,0
					c2.2,0,4.1-1.6,4.4-3.8l0,0l1.5-11.8c0.2-1.2,0.8-2.4,1.8-3.1l0,0c1-0.7,2.3-1.1,3.5-0.9l0,0l9.6,1.4c2.5,0.4,4.3,2.7,3.9,5.2
					l0,0l0,0c-0.3,2.5-2.7,4.3-5.2,4h-0.1l0,0l-4.9-0.7l-0.9,7.2v0.1c-1,6.8-6.8,11.8-13.6,11.9l0,0
					C208.3,69.4,207.6,69.3,206.9,69.2L206.9,69.2z"/>
				<path class="st10" d="M76.4,65.5c-3.3,0.2-5.6-2.4-6.3-5.7c-1-3-2.6-5.8-4.8-8.2l0,0c-1.2-1.4-2.6-2.6-4-3.8l0,0
					c-1.7-1.5-3.7-2.6-5.9-3.2l0,0c1.5,4.5,2.6,9.2,3.1,13.9l0,0c0.5,3.9,0.1,7.8-1.1,11.5l0,0c-0.8,2.3-2.2,4.4-4.1,6.1l0,0
					c-1.6,1.4-3.4,2.4-5.4,3l0,0c-3.3,1.1-6.9,1.3-10.3,0.4l0,0c-3.1-0.9-5.9-2.6-8-5l0,0c-3.5-4.2-5.5-9.6-5.5-15.1l0,0
					c-0.1-5.8,1.6-11.6,5-16.3l0,0c1.2-1.7,2.6-3.2,4.1-4.5l0,0c10.4-9.3,25.8-8.7,36,0.1l0,0c1.8,1.6,3.5,3.2,5.1,5l0,0
					c7.1,7.9,7.9,14.5,7.9,15.7l0,0c0.1,1.8-0.6,3.6-2,4.8l0,0C79.2,65,77.8,65.6,76.4,65.5L76.4,65.5z M41.2,47.5
					c-0.9,0.8-1.6,1.7-2.3,2.6l0,0c-1.8,2.6-2.8,5.8-2.7,9l0,0c0,2.6,0.8,5.2,2.4,7.3l0,0c1.7,1.9,4.6,2.2,6.7,0.6l0,0
					c0.5-0.4,1.1-1.4,1.3-3.8l0,0c0.1-2.8-0.2-5.7-0.8-8.5l0,0c-0.7-2.9-1.5-5.8-2.6-8.7l0,0C42.4,46.5,41.8,47,41.2,47.5L41.2,47.5
					L41.2,47.5z"/>
				<path class="st10" d="M100.1,84.2c-2.3-0.3-4.5-1.5-5.9-3.4l0,0c-1.4-1.8-2.1-4-2.1-6.2l0,0c0-0.2,0-0.3,0-0.4l0,0
					c0-0.8,0.1-1.4,0.1-1.9l0,0c0-0.3,0-0.5,0-0.8l0,0c-0.1,0-0.3-0.1-0.4-0.1l0,0c-0.5,0-1,0.2-1.3,0.6l0,0c-0.8,0.7-1.5,1.5-2,2.4
					l0,0c-0.6,1-1.2,2.1-1.6,3.2l0,0L86,79.7c-0.8,2-3,3-4.9,2.3l0,0c-2-0.7-3.1-2.8-2.4-4.8l0,0c0-0.1,0.3-1.1,0.9-2.4l0,0L88,52.7
					l0,0c0.8-2,3-3,5-2.2l0,0c2,0.8,3,3,2.2,5l0,0L92,63.7c0.8,0,1.6,0.2,2.3,0.4l0,0c2,0.6,3.7,1.9,4.7,3.8l0,0
					c0.7,1.4,1,3,0.9,4.5l0,0c0,0.9-0.1,1.7-0.1,2.3l0,0v0.1l0,0c0,0.4,0.1,0.9,0.4,1.2l0,0c0.2,0.3,0.5,0.4,0.8,0.5h0.2
					c0.7,0,1.3-0.5,1.4-1.2l0,0v-0.2l0.6-3.2c0.4-2.1,2.4-3.5,4.6-3.1l0,0c2.1,0.4,3.5,2.4,3.1,4.5l0,0l-0.6,3.2
					c-0.7,4.6-4.6,8-9.2,7.9l0,0C100.7,84.3,100.3,84.3,100.1,84.2L100.1,84.2z"/>
				<path class="st10" d="M159.4,59.7c-3.3,0.2-5.6-2.5-6.3-5.7c-1-3.1-2.6-5.9-4.8-8.2l0,0c-1.2-1.4-2.6-2.7-4-3.8l0,0
					c-1.7-1.5-3.7-2.6-5.9-3.2l0,0c1.5,4.5,2.6,9.2,3.1,13.9l0,0c0.5,3.9,0.1,7.8-1.1,11.5l0,0c-0.8,2.3-2.2,4.4-4.1,6.1l0,0
					c-1.6,1.4-3.4,2.4-5.4,3l0,0c-3.3,1.1-6.9,1.3-10.3,0.4l0,0c-3.1-0.8-5.9-2.6-8.1-5l0,0c-3.5-4.2-5.5-9.6-5.4-15.1l0,0
					c-0.1-5.8,1.6-11.6,5-16.3l0,0c1.2-1.7,2.6-3.2,4.1-4.5l0,0c10.4-9.3,25.8-8.7,36,0.1l0,0c1.8,1.5,3.5,3.2,5.1,5l0,0
					c7.1,7.9,7.9,14.5,7.9,15.7l0,0c0.1,1.8-0.6,3.6-2,4.8l0,0C162.1,59.2,160.8,59.7,159.4,59.7L159.4,59.7z M124.3,41.7
					c-0.9,0.8-1.7,1.6-2.3,2.6l0,0c-1.8,2.6-2.8,5.8-2.7,9l0,0c-0.1,2.6,0.8,5.2,2.4,7.3l0,0c1.7,1.9,4.6,2.2,6.7,0.6l0,0
					c0.4-0.4,1.1-1.4,1.3-3.8l0,0c0.1-2.8-0.2-5.7-0.9-8.5l0,0c-0.7-2.9-1.5-5.8-2.6-8.7l0,0C125.5,40.7,124.9,41.2,124.3,41.7
					L124.3,41.7L124.3,41.7L124.3,41.7z"/>
				<path class="st10" d="M183.1,78.4c-2.3-0.3-4.5-1.5-5.9-3.4l0,0c-1.4-1.8-2.1-4-2.1-6.2l0,0c0-0.2,0-0.3,0-0.4l0,0
					c0.1-0.8,0.1-1.4,0.1-1.9l0,0c0-0.3,0-0.5,0-0.8l0,0c-0.1,0-0.3-0.1-0.4-0.1l0,0c-0.5,0-1,0.2-1.3,0.6l0,0
					c-0.8,0.7-1.5,1.5-2,2.4l0,0c-0.6,1-1.2,2.1-1.6,3.2l0,0l-0.9,2.1c-0.7,2-2.9,3-4.9,2.3l0,0c-2-0.7-3.1-2.8-2.4-4.8l0,0
					c0-0.1,0.3-1.1,0.9-2.4l0,0l8.4-22.1l0,0c0.8-2,3-3,5-2.3l0,0c2,0.8,3,3,2.3,5l0,0l-3.2,8.3c0.8,0,1.6,0.2,2.4,0.4l0,0
					c2,0.6,3.7,1.9,4.7,3.8l0,0c0.7,1.4,1,3,0.9,4.5l0,0c0,0.9-0.1,1.7-0.1,2.3l0,0V69l0,0c0,0.4,0.1,0.9,0.4,1.2l0,0
					c0.2,0.3,0.5,0.4,0.8,0.5h0.2c0.7,0,1.3-0.5,1.4-1.2l0,0v-0.2l0.6-3.2c0.4-2.1,2.4-3.5,4.5-3.1l0,0l0,0c2.1,0.4,3.5,2.3,3.2,4.5
					v0.1l0,0l-0.6,3.1c-0.7,4.6-4.6,8-9.2,7.9l0,0C183.8,78.5,183.5,78.5,183.1,78.4L183.1,78.4z"/>
				<path class="st10" d="M57.2,89.6l0.7,3.5c0,0.2,0.1,0.4,0.2,0.6c0.2,0.1,0.3,0,0.6-0.3c0.2-0.2,0.4-0.5,0.5-0.8
					c0.1-0.2,0.1-0.3,0-0.5c-0.1-0.1-0.1-0.2-0.1-0.3c0-0.1,0.1-0.2,0.1-0.3c0.2-0.2,0.5-0.3,0.8-0.1c0.3,0.1,0.5,0.3,0.8,0.5
					s0.6,0.5,0.8,0.8c0.2,0.2,0.2,0.5,0,0.8c-0.2,0.2-0.4,0.3-0.7,0.2c-0.1,0-0.2,0-0.3,0s-0.1,0-0.2,0.1c-0.4,0.3-0.7,0.6-1,1
					L58.6,96l-0.7,0.9c-0.3,0.4-0.6,0.7-0.9,1c-0.3,0.2-0.5,0.2-0.8,0.1c-0.1-0.1-0.1-0.1-0.2-0.2c0-0.2-0.1-0.3-0.1-0.5L55.1,93
					c0-0.2-0.1-0.4-0.2-0.6c-0.2-0.1-0.5,0-0.8,0.5c-0.2,0.3-0.4,0.6-0.6,0.9c-0.1,0.2-0.1,0.4,0,0.5c0.1,0.2,0.1,0.4,0,0.6
					c-0.3,0.4-0.9,0.3-1.8-0.4c-0.3-0.2-0.6-0.5-0.8-0.8c-0.1-0.2-0.1-0.5,0.1-0.7c0.1-0.1,0.1-0.1,0.2-0.2c0.1,0,0.3,0,0.4,0
					c0.2,0,0.4-0.1,0.6-0.2c0.5-0.5,0.9-1,1.3-1.6c0.4-0.5,0.8-1.1,1.1-1.7c0.1-0.1,0.1-0.2,0.1-0.4c0-0.1,0-0.2-0.1-0.4
					c-0.1-0.1-0.1-0.3-0.1-0.4s0-0.2,0.1-0.3c0.2-0.3,0.6-0.3,1.1,0c0.3,0.2,0.6,0.4,0.9,0.6c0.2,0.1,0.3,0.3,0.5,0.4
					C57.1,89.2,57.2,89.4,57.2,89.6z"/>
				<path class="st10" d="M64.3,96.1c0.6,0.3,1,0.7,1.3,1.2c0.2,0.4,0.3,0.8,0.3,1.2c0,0.5-0.1,0.9-0.3,1.3
					c-0.4,0.7-1.1,1.2-1.8,1.3c-0.8,0.2-1.7,0.1-2.5-0.3c-0.7-0.3-1.3-0.9-1.6-1.6s-0.2-1.4,0.1-2c0.3-0.7,1-1.3,1.8-1.5
					C62.6,95.6,63.5,95.7,64.3,96.1z M63.4,97c-0.1,0-0.3,0-0.4,0c-0.2,0.1-0.3,0.2-0.3,0.4c-0.1,0.3-0.2,0.6-0.3,0.8
					c-0.1,0.3-0.1,0.7-0.2,1c-0.1,0.3,0.1,0.5,0.3,0.6c0.3,0.1,0.5,0,0.7-0.3c0.1-0.3,0.3-0.7,0.3-1c0.1-0.3,0.1-0.7,0.2-1
					C63.7,97.3,63.6,97.1,63.4,97z"/>
				<path class="st10" d="M73.3,101.7l-0.6,1.8c0,0.1,0,0.2,0,0.3c0.1,0.2,0.1,0.3,0.2,0.5c0,0.1,0,0.2,0,0.3
					c-0.1,0.2-0.3,0.4-0.6,0.3c-0.5,0-1-0.2-1.5-0.4c-0.4-0.1-0.7-0.3-1-0.5c-0.2-0.1-0.2-0.3-0.2-0.5c0-0.1,0-0.1,0.1-0.1l0.3-0.2
					c0.2-0.1,0.4-0.6,0.7-1.4c0.1-0.4,0.2-0.7,0.2-1.1c0-0.2-0.2-0.4-0.4-0.4c-0.2-0.1-0.4-0.1-0.6,0.1s-0.3,0.5-0.4,0.8l-0.3,1
					c-0.1,0.1-0.1,0.3-0.1,0.4c0,0.2,0,0.4,0.1,0.5c0,0.1,0,0.2,0,0.2c-0.1,0.2-0.3,0.3-0.6,0.3c-0.5,0-0.9-0.1-1.4-0.3
					c-0.9-0.3-1.4-0.7-1.2-1.1c0-0.1,0.1-0.1,0.1-0.2c0.1-0.1,0.2-0.1,0.3-0.1c0.1,0,0.2-0.1,0.2-0.2c0.1-0.2,0.2-0.4,0.3-0.6
					c0.2-0.4,0.3-0.8,0.5-1.2c0.1-0.2,0.1-0.3,0.1-0.5c0-0.1-0.1-0.3-0.2-0.4s-0.1-0.3-0.1-0.4s0.2-0.2,0.3-0.3
					c0.3-0.1,0.6-0.1,0.9-0.1c0.4,0,0.7,0,1,0c0.2,0,0.5,0,0.7,0.1c0.1,0,0.2,0.1,0.2,0.2s0,0.2,0,0.3v0.1c0,0,0,0,0,0.1
					c-0.1,0.2,0,0.3,0.1,0.3s0.2,0,0.3-0.1c0.4-0.3,1-0.4,1.5-0.2c0.4,0.1,0.8,0.4,1,0.7c0.2,0.2,0.2,0.5,0.3,0.7
					C73.5,101,73.4,101.4,73.3,101.7z"/>
				<path class="st10" d="M82,99.8l2.3,2.8c0.2,0.2,0.4,0.4,0.5,0.4s0.3-0.2,0.4-0.6c0-0.3,0-0.6,0-0.9c0-0.2-0.1-0.3-0.3-0.4
					c-0.1-0.1-0.2-0.2-0.3-0.3c0-0.1-0.1-0.2-0.1-0.3c0.1-0.3,0.3-0.5,0.7-0.5c0.3,0,0.6,0,0.9,0.1c0.4,0,0.8,0.1,1.1,0.3
					c0.3,0.1,0.5,0.4,0.4,0.7c0,0.2-0.2,0.4-0.5,0.5c-0.1,0-0.2,0-0.2,0.1c-0.1,0-0.1,0.1-0.1,0.2c-0.2,0.4-0.3,0.9-0.3,1.3
					l-0.3,1.8c0,0.3-0.1,0.6-0.2,1.1c0,0.5-0.2,0.9-0.3,1.3c-0.2,0.3-0.4,0.5-0.6,0.4c-0.1,0-0.2-0.1-0.3-0.1
					c-0.1-0.1-0.3-0.2-0.4-0.4l-2.8-3.3c-0.1-0.2-0.3-0.3-0.5-0.4c-0.2,0-0.4,0.2-0.5,0.9c-0.1,0.3-0.1,0.7-0.1,1
					c0,0.2,0.1,0.4,0.3,0.5c0.2,0.1,0.3,0.3,0.3,0.5c-0.1,0.5-0.7,0.7-1.7,0.5c-0.4,0-0.8-0.2-1.1-0.4c-0.2-0.1-0.4-0.4-0.3-0.6
					c0-0.1,0-0.2,0.1-0.3c0.1-0.1,0.2-0.1,0.4-0.2c0.2-0.1,0.3-0.3,0.4-0.5c0.2-0.7,0.3-1.3,0.4-2s0.2-1.4,0.1-2.1
					c0-0.1,0-0.2-0.1-0.4c-0.1-0.1-0.2-0.2-0.3-0.3c-0.1-0.1-0.2-0.2-0.3-0.3c0-0.1,0-0.2,0-0.3c0-0.3,0.4-0.5,1-0.5
					c0.4,0,0.7,0.1,1.1,0.1c0.2,0,0.4,0.1,0.6,0.2C81.8,99.5,81.9,99.7,82,99.8z"/>
				<path class="st10" d="M91.7,102.5c0.6,0,1.2,0.2,1.7,0.6c0.4,0.3,0.6,0.6,0.8,1c0.2,0.4,0.3,0.8,0.3,1.3c0,0.8-0.5,1.6-1.1,2
					c-0.7,0.5-1.5,0.8-2.4,0.7c-0.8,0-1.5-0.3-2.1-0.8c-0.5-0.5-0.8-1.2-0.7-1.9c0-0.8,0.4-1.6,1-2.1
					C90,102.7,90.8,102.4,91.7,102.5z M91.3,103.7c-0.1,0-0.3,0-0.4,0.2c-0.1,0.1-0.2,0.3-0.2,0.5c0,0.3,0,0.6,0.1,0.9
					s0.1,0.7,0.3,1c0.1,0.3,0.3,0.5,0.5,0.5s0.5-0.2,0.5-0.6c0-0.3,0-0.7-0.1-1s-0.2-0.7-0.3-1C91.7,103.9,91.5,103.8,91.3,103.7z"
					/>
				<path class="st10" d="M102.3,104l0.2,1.9c0,0.1,0,0.2,0.1,0.3c0.1,0.1,0.2,0.3,0.4,0.4c0.1,0.1,0.1,0.1,0.1,0.2
					c0,0.2-0.1,0.5-0.4,0.5c-0.5,0.2-1,0.3-1.5,0.3c-0.4,0.1-0.7,0.1-1.1,0c-0.2,0-0.3-0.2-0.3-0.4c0-0.1,0-0.1,0-0.2
					c0,0,0.1-0.1,0.2-0.3c0.2-0.5,0.2-1,0.1-1.5c0-0.4-0.1-0.8-0.3-1.1c-0.1-0.2-0.3-0.3-0.6-0.2c-0.2,0-0.4,0.1-0.5,0.3
					c-0.1,0.3-0.1,0.6-0.1,0.9l0.1,1.1c0,0.1,0,0.3,0.1,0.4c0.1,0.2,0.2,0.3,0.3,0.4c0,0.1,0.1,0.1,0.1,0.2c0,0.2-0.1,0.4-0.4,0.5
					c-0.4,0.2-0.9,0.2-1.4,0.3c-1,0.1-1.5-0.1-1.6-0.5c0-0.1,0-0.1,0-0.2c0.1-0.1,0.1-0.2,0.2-0.2c0.1-0.1,0.1-0.2,0.2-0.2
					c0-0.2,0-0.4,0-0.7c0-0.4,0-0.8-0.1-1.3c0-0.2,0-0.3-0.1-0.5c-0.1-0.1-0.2-0.2-0.3-0.3c-0.1-0.1-0.2-0.2-0.3-0.3
					c0-0.1,0-0.3,0.2-0.4c0.2-0.2,0.5-0.3,0.8-0.4c0.3-0.2,0.7-0.3,1-0.4c0.2-0.1,0.4-0.2,0.7-0.2c0.1,0,0.2,0,0.3,0.1
					c0.1,0.1,0.1,0.2,0.1,0.3v0.2c0,0.2,0.1,0.2,0.2,0.2s0.2-0.1,0.2-0.2c0.3-0.5,0.8-0.8,1.3-0.8c0.4-0.1,0.8,0,1.2,0.2
					c0.2,0.1,0.4,0.3,0.5,0.6C102.2,103.3,102.3,103.7,102.3,104z"/>
				<path class="st10" d="M111.3,105.6l-0.7,0.2c-0.5,0.1-0.8,0.2-1.1,0.3l-0.4,0.1c-0.2,0.1-0.4,0.1-0.6,0
					c-0.1-0.1-0.2-0.2-0.3-0.3c0-0.1,0-0.2,0-0.2c0.1-0.1,0.2-0.2,0.3-0.3c0.1-0.1,0.1-0.3,0.1-0.4c0-0.3-0.1-0.7-0.1-1
					c-0.1-0.8-0.4-1.7-0.7-2.8c-0.1-0.3-0.2-0.6-0.3-0.8c-0.1-0.1-0.3-0.2-0.5-0.2s-0.4-0.1-0.5-0.3c0-0.2,0-0.3,0.1-0.4
					s0.3-0.2,0.5-0.3l0.5-0.1l1-0.2l1.5-0.4l0.7-0.2c0.4-0.1,0.8-0.2,1.2-0.2c0.3,0,0.6,0,0.8,0.2c0.4,0.2,0.7,0.6,0.8,1
					c0.1,0.2,0.1,0.5,0,0.8c0,0.2-0.1,0.5-0.3,0.7c-0.1,0.1-0.1,0.2-0.1,0.3c0,0.1,0.1,0.1,0.3,0.2c0.3,0,0.7,0.2,0.9,0.4
					c0.3,0.2,0.6,0.6,0.7,1c0.1,0.5,0.1,1.1-0.2,1.5c-0.4,0.7-1.1,1.2-1.9,1.4l-1,0.2L111.3,105.6z M110.1,99.8l0.3,1.1
					c0,0.1,0.1,0.2,0.2,0.3c0.1,0,0.2,0,0.3,0c0.2,0,0.4-0.2,0.5-0.4c0.1-0.3,0.1-0.5,0-0.8s-0.2-0.5-0.4-0.7
					c-0.2-0.1-0.4-0.2-0.6-0.1c-0.1,0-0.2,0.1-0.2,0.2C110.1,99.5,110.1,99.7,110.1,99.8z M110.9,102.8l0.1,0.5
					c0.1,0.3,0.2,0.6,0.3,0.9c0.1,0.1,0.3,0.2,0.5,0.1c0.5-0.1,0.7-0.5,0.5-1.2c-0.2-0.8-0.6-1.1-1.2-0.9c-0.1,0-0.2,0.1-0.3,0.2
					C110.9,102.6,110.9,102.7,110.9,102.8L110.9,102.8z"/>
				<path class="st10" d="M116.4,96.2c0.2-0.1,0.5-0.1,0.8-0.1c0.2,0,0.4,0.2,0.4,0.3c0.1,0.3,0,0.6-0.2,0.8
					c-0.4,0.4-0.8,0.7-1.4,0.9c-0.2,0.1-0.4,0.1-0.7,0.1c-0.2,0-0.4-0.2-0.5-0.4c-0.1-0.3,0-0.6,0.4-0.9
					C115.6,96.6,116,96.4,116.4,96.2z M118.3,98.1l1.1,3c0.1,0.2,0.1,0.3,0.3,0.5c0.1,0.1,0.2,0.2,0.4,0.2c0.1,0,0.2,0.1,0.3,0.1
					c0.1,0,0.1,0.1,0.1,0.2c0.2,0.4-0.3,0.9-1.4,1.3c-0.5,0.2-1,0.3-1.5,0.4c-0.1,0-0.2,0-0.3-0.1c-0.1-0.1-0.2-0.1-0.2-0.2
					s0-0.2,0-0.2c0-0.1,0.1-0.2,0.2-0.3c0.1-0.1,0.1-0.3,0.1-0.5c0-0.3-0.1-0.6-0.2-0.8c0-0.1-0.1-0.3-0.3-0.6l-0.2-0.5
					c-0.1-0.1-0.2-0.2-0.4-0.2c-0.2,0-0.4-0.1-0.5-0.3c-0.1-0.2,0-0.5,0.2-0.6c0.3-0.3,0.7-0.6,1.1-0.8c0.3-0.2,0.6-0.4,1-0.5
					C118.1,97.8,118.2,97.9,118.3,98.1z"/>
				<path class="st10" d="M125.5,97.3l0.2,2.1c0,0.4,0,0.9,0,1.3c0,0.3-0.1,0.7-0.2,1c-0.2,0.6-0.7,1.1-1.2,1.3
					c-0.4,0.2-0.9,0.3-1.4,0.2c-0.3-0.1-0.6-0.3-0.7-0.6c-0.1-0.2-0.1-0.5-0.1-0.8c0.1-0.2,0.2-0.4,0.5-0.5c0.2-0.1,0.5-0.1,0.7,0
					c0.1,0,0.2,0.1,0.2,0.1l0.3,0.3c0.1,0.1,0.2,0.2,0.3,0.1l0,0c0.1,0,0.2-0.1,0.2-0.2s0-0.3-0.1-0.4c-0.2-0.3-0.4-0.5-0.6-0.7
					l-2.4-2c-0.2-0.1-0.3-0.3-0.5-0.4c-0.2,0-0.4,0-0.5,0s-0.2,0-0.2-0.1c-0.1,0-0.1-0.1-0.2-0.2c-0.1-0.3,0-0.6,0.6-1
					c0.4-0.3,0.8-0.5,1.3-0.7c0.3-0.1,0.6-0.2,0.9-0.3c0.3-0.1,0.5,0.1,0.6,0.3c0,0.1,0,0.2,0,0.3c0,0.1,0,0.2,0,0.3
					c0,0.1,0.1,0.2,0.2,0.2c0.1,0.1,0.2,0.2,0.4,0.3s0.4,0.2,0.5,0.2s0.2-0.2,0.2-0.5c0-0.2,0-0.4-0.1-0.7c-0.1-0.1-0.2-0.3-0.3-0.3
					c-0.2,0-0.3-0.1-0.4-0.3c-0.1-0.2,0-0.4,0.1-0.6c0.2-0.2,0.5-0.4,0.8-0.6c0.7-0.3,1.1-0.3,1.3,0c0,0.1,0,0.2,0,0.3
					c-0.1,0.2-0.2,0.3-0.3,0.4c-0.1,0.1-0.2,0.3-0.2,0.5C125.3,96.5,125.4,96.9,125.5,97.3z"/>
				<path class="st10" d="M128.9,92.2c0.5-0.3,1.1-0.5,1.8-0.5c0.4,0,0.9,0.1,1.2,0.4c0.4,0.2,0.8,0.5,1,0.9
					c0.4,0.7,0.5,1.5,0.1,2.3c-0.3,0.8-0.9,1.5-1.6,1.9c-0.6,0.4-1.4,0.6-2.2,0.5c-0.7-0.1-1.3-0.6-1.7-1.2
					c-0.4-0.7-0.6-1.5-0.3-2.3C127.6,93.4,128.2,92.7,128.9,92.2z M129.2,93.5c-0.1,0.1-0.2,0.2-0.2,0.4c0,0.2,0,0.3,0.1,0.5
					c0.2,0.3,0.4,0.5,0.6,0.7c0.2,0.3,0.5,0.5,0.8,0.7c0.2,0.2,0.5,0.2,0.7,0.1c0.3-0.2,0.3-0.4,0.1-0.8c-0.2-0.3-0.4-0.6-0.7-0.8
					c-0.2-0.2-0.5-0.5-0.8-0.6C129.7,93.5,129.4,93.4,129.2,93.5z"/>
				<path class="st10" d="M134,88.6c0.1-0.1,0.3-0.2,0.3-0.2c0.2,0.1,0.3,0.2,0.4,0.3c0.1,0.1,0.2,0.1,0.3,0.1s0.1-0.1,0.1-0.3
					c-0.1-0.5,0.1-0.9,0.4-1.2c0.2-0.2,0.5-0.3,0.8-0.3c0.2,0,0.3,0.1,0.4,0.2c0.1,0.1,0.3,0.2,0.4,0.3c0.5,0.5,0.4,1.4-0.1,1.8l0,0
					c-0.1,0.1-0.3,0.2-0.4,0.2c-0.2,0-0.4,0-0.6,0c-0.1,0-0.2,0-0.2,0c-0.1,0.1-0.1,0.2,0,0.3c0.1,0.2,0.3,0.4,0.4,0.6
					c0.2,0.3,0.5,0.6,0.8,0.8c0.1,0.1,0.1,0.1,0.2,0.1c0.1,0,0.2,0,0.3-0.1c0.3-0.1,0.6-0.1,0.7,0.1c0.1,0.1,0.1,0.3,0.1,0.4
					c0,0.2-0.1,0.3-0.2,0.4c-0.3,0.4-0.7,0.8-1.1,1.1c-0.4,0.3-0.8,0.6-1.2,0.8c-0.2,0.1-0.5,0.1-0.7-0.1c-0.1-0.2-0.2-0.4-0.1-0.6
					c0-0.1,0-0.2,0-0.3c0-0.1,0-0.2-0.1-0.2c-0.3-0.5-0.7-1-1.1-1.5c-0.1-0.1-0.2-0.2-0.3-0.2s-0.2,0-0.3,0
					c-0.2,0.1-0.4,0.1-0.6-0.1c-0.1-0.1-0.2-0.3-0.1-0.5c0.1-0.3,0.3-0.6,0.4-0.9C133.3,89.3,133.6,88.9,134,88.6z"/>
				<path class="st10" d="M136.4,83.4c0.2-0.2,0.4-0.4,0.6-0.4c0.2-0.1,0.4,0,0.6,0.1c0.2,0.2,0.3,0.5,0.2,0.7
					c-0.1,0.6-0.4,1.1-0.7,1.5c-0.1,0.2-0.3,0.3-0.5,0.4s-0.4,0-0.6-0.1c-0.2-0.2-0.3-0.5-0.1-1C135.9,84.2,136.1,83.8,136.4,83.4z
					 M138.9,84.1l2.4,2c0.1,0.1,0.3,0.2,0.5,0.3c0.1,0,0.3,0,0.4,0c0.1,0,0.2,0,0.3,0s0.1,0,0.2,0.1c0.4,0.3,0.2,0.9-0.6,1.8
					c-0.3,0.4-0.7,0.8-1.1,1.1c-0.1,0.1-0.2,0.1-0.3,0.1s-0.2,0-0.3-0.1c-0.1,0-0.1-0.1-0.1-0.2s0-0.3,0-0.4c0-0.2-0.1-0.3-0.2-0.4
					c-0.2-0.2-0.4-0.4-0.6-0.6l-0.5-0.4l-0.5-0.3c-0.1-0.1-0.3-0.1-0.4,0c-0.2,0.1-0.4,0.1-0.6,0c-0.2-0.2-0.2-0.4-0.1-0.7
					c0.2-0.4,0.3-0.9,0.5-1.3c0.2-0.3,0.3-0.6,0.6-0.9C138.5,84.1,138.7,84,138.9,84.1L138.9,84.1z"/>
				<path class="st6" d="M235,85.6c-0.1,0-0.2,0-0.3-0.1c-0.4-0.1-0.6-0.5-0.4-0.9l0,0l6.7-18c0.1-0.4,0.6-0.6,0.9-0.4
					c0.4,0.1,0.6,0.6,0.5,1l0,0l-6.7,18C235.5,85.4,235.3,85.6,235,85.6z"/>
				<circle class="st5" cx="185.5" cy="52.4" r="5.2"/>
				<circle class="st5" cx="270.8" cy="59.7" r="5.2"/>
			</g>
		</g>
	</g>
	<g id="图层_2_2_" class="st4">
		<text id="bf" transform="matrix(1 0 0 1 3.2051 70.41)" class="st11 st12 st13 st14">个人作品集</text>
		<g>
			<path class="st9" d="M42.1,86.4c-1.6,0-3.4-0.5-4.9-1.1c-0.2-9.6-0.5-17.6-0.7-27.2l0,0c-0.1-2.2-0.2-9.6-0.2-11.7
				c3.9-3,5.6-2.7,10.9-1.5L48.3,84C46.5,85.5,44.4,86.5,42.1,86.4L42.1,86.4z"/>
			<path class="st9" d="M19,55.1c-3.3-1.3-5.4-4-6.5-7.3c3.3-2,23.9-21.8,27.8-20.8c1.1-0.9,28.1,11.9,29.8,12.5
				c3.2,3.4-0.8,9.2-4.7,10.2L42.2,38.9l-1.6-0.4c-0.5,0.1-0.6,0.2-0.7,0.3L20.1,55.5L19,55.1z"/>
			<path class="st7" d="M85.6,62c-1.3,7.2-1.7,14.6-0.7,21.9l-4.2,9.5c-3.3,0.7-7.3-0.7-7.7-3.7L85.6,62z"/>
			<path class="st7" d="M112.4,90.6l-20.7-8.7c-2.3-8.9-2.2-19.5,1-32.3c2.1,0.1,4.4,1.2,6.2,4L90.4,72l25.9,11.1
				C117,86.4,115.4,89.9,112.4,90.6z"/>
			<path class="st8" d="M131.4,58.2c-0.2-0.1-0.9-0.3-1.2-0.5c-1.9-1.2-4.1-3.6-3.7-6c0.5-3.2,2.5-3,15.1-10.1c2.1-0.8,4,0.6,5.5,3
				c1.9,4,1.2,5.6-3.3,8C140.2,55,133.2,59.1,131.4,58.2z"/>
			<path class="st8" d="M141.3,88.7c-2.4,0-3.3-0.3-4.3-1.4c-0.1-7-0.9-19.6-0.3-26.5c2.6-1,7.4-1.8,9.2,0.4
				c0.1,2.8,1.2,20.1,0.9,25.5C145.9,87.9,142.6,88.6,141.3,88.7z"/>
			<path class="st8" d="M154.6,56c-2-0.1-6.3-1.4-7.1-2.8c1.5-6.6,9.4-16.9,13-23.1c6.3-2.6,10.4,4.4,5.9,9.2
				c8.8-0.6,18.6-0.6,23.3-1.2c2.8,2.2,3.3,6.7,1.6,10.1c-8.5,1.4-21.8,1.6-31.3,1.7C156.3,56.3,156.9,56,154.6,56z"/>
			<path class="st8" d="M165.3,89c-2.4,0-3.3-0.3-4.3-1.4c0.1-12-1.1-24.4-0.3-36c2.6-1,7.4-1.8,9.2,0.4c0.2,4.3,0.6,16.5,0.7,20.7
				c5.2-1,9.4-1.1,14.1-1.2c2.8,0.7,2.5,4.8,2.6,7.4c-4.7,1.2-11.2,1.4-16.5,2V87C169.3,88.6,167.8,89,165.3,89z"/>
			<path class="st8" d="M186.1,59.5c0.7,1.7,0,3.9-0.6,6.1l-13.9-1.2c-0.4-1.5-0.3-5.5,0.3-5.8L186.1,59.5z"/>
			<path class="st10" d="M191.3,85.9c-1.7-0.2-2.8-1.6-2.7-3.5c0.6-8,1-14.1,2.4-21c0.4-1.2,9.5-1.8,9.3,1.8l-1.6,14.6l5.8,0.2
				c1.5,1.1,1.1,4.6-0.1,9C204.3,87,191.3,85.9,191.3,85.9z"/>
			<path class="st10" d="M209.5,88.7c-1.9-0.3-2.7-0.7-3.5-1.9l1.6-14.9l-5.8-0.5c-1.9-2.6-1.1-4,0.1-8.9
				c22.1,0.9,15.3,1.3,13.4,25.3C214.1,88.9,212.7,89.1,209.5,88.7z"/>
			<path class="st10" d="M206.1,58.4c-5.8,0.5-0.4-22.1-0.2-25.4c0.6-1.3,9.2-1.7,9,1.8L213.2,50l13.2,1.1c0.9,0.9,0.7,4.4-0.3,9.2
				C226.2,60.3,206.1,58.4,206.1,58.4z"/>
			<path class="st10" d="M232.2,58.1c-1.9-0.3-2.8-0.7-3.5-1.9l1.8-16.1l-12.4-1.3c-1.9-2.5-1.1-4,0.1-8.6c29,2.6,22.6-1,19.9,27
				C236.8,58.4,235.4,58.5,232.2,58.1z"/>
			<path class="st10" d="M223.2,89.7c-5.7,0.5-0.4-21.4-0.3-24.5c0.4-1.2,9.5-1.8,9.3,1.8l-1.6,14.9l5.8,0.2
				c1.4,0.9,1.2,4.3-0.1,8.7C236.3,90.8,223.2,89.7,223.2,89.7z"/>
			<path class="st10" d="M242.3,91.6c-1.9-0.3-2.7-0.7-3.5-1.9l1.7-15.2L235,74c-1.9-2.5-1.1-3.9,0.1-8.6c21.7,0.8,15,1.5,13.1,25.2
				C246.9,91.8,245.5,92,242.3,91.6z"/>
			<path class="st15" d="M259.5,45.2l-0.4-0.4c-0.4-0.3-1.1-0.7-2.2-1.9c-1.3-1-2.1-2.3-2.4-3.7l-0.2-0.9l0.6-0.7
				c0.5-0.6,1.4-1.8,15.7-9.2l0.7-0.3l0.7,0.2c2.4,0.6,3.9,2.9,4.6,6.8l0.3,1.4l-9.6,5.3c-5.8,3.5-6.3,3.5-7,3.5L259.5,45.2
				L259.5,45.2z"/>
			<path class="st15" d="M288.4,95c-1.7,0-3-0.3-4.1-0.8l-1.1-0.5v-4.3c0-0.9-0.1-1.8-0.3-2.6v-0.1l-0.4-5.4l-1.3,0.1l-14.1,12.2
				h-2.7l-0.4-0.2c-2-1-3.5-2.8-4.4-5.4l-0.5-1.3l5.1-4.4l-2.2,0.1l-1.3-4.4c-0.3-1.2-0.2-2.6,0.3-4.1l0.4-1.3l20.8-1.1
				c0-0.1,0-0.2,0.1-0.2v-1.7l1.1-0.5c1.1-0.5,2.5-0.8,4.4-0.8c1.5,0,2.7,0.3,3.8,0.8l1.1,0.5v1.2l18.4-1.1l0.6,1
				c1.1,1.6,1.3,4,0.9,7.4l-0.2,1.6l-18.8,1.1c0.1,2.1,0.3,4,0.3,5.7c0.1,2.1,0.1,3.8,0.1,5.2v0.8l-0.6,0.6
				c-0.5,0.5-1.1,0.9-1.7,1.2l-0.1,0.1h-0.1C290.2,94.8,289.2,95,288.4,95z"/>
			<path class="st15" d="M269,68.6c-2.2,0-3.5-0.4-4.3-1.2l-0.6-0.6V63c0-0.9-0.1-1.8-0.3-2.7v-0.2l-0.3-10.6c0-1.3,0.1-2.2,0.3-2.9
				v-2.3l1.4-0.5c1.4-0.5,2.7-0.7,4.1-0.7c2,0,3.2,0.4,4,1.2l0.5,0.5l0.6,8.5c0.2,2.8,0.3,5.1,0.3,7.1v6.1l-2.4,1.2h-0.1
				C270.9,68.4,269.8,68.6,269,68.6z"/>
			<path class="st15" d="M277.8,67c-0.7-0.9-1-2-1-3.2c0-0.8,0.2-1.9,0.6-3.1l0.1-0.4l14-0.6c0-0.5-0.1-0.8-0.1-1.2l-10.7,0.3
				l-0.1-0.4c-0.4-1.2-0.6-2.3-0.6-3.4c0-1.1,0.4-2.1,1.3-3l0.2-0.2l9.5-0.3v-1.2L280.9,51l-0.2-0.2c-0.7-0.9-1-2-1-3.2
				c0-0.9,0.3-1.8,0.9-2.9l0.2-0.3l9.5-0.6c-0.1-0.5-0.1-1-0.2-1.5l-11.6,0.3l-0.2-0.2c-0.7-0.9-1-2.1-1-3.5c0-0.9,0.3-1.8,0.9-2.9
				l0.2-0.3l13.3-0.3l4.3-0.3l13.1-0.3l0.2,0.3c0.4,0.8,0.6,2,0.6,3.4c0,1.9-0.2,2.6-0.3,2.9l-0.2,0.3L297.6,42
				c0,0.4,0.1,0.8,0.1,1.2l9.5-0.6l0.2,0.3c0.4,0.9,0.6,2,0.6,3.4c0,1.9-0.2,2.6-0.3,2.9l-0.1,0.3l-9.3,0.6c0,0.2,0.1,0.3,0.1,0.5
				c0.1,0.3,0.1,0.7,0.2,1l8.8-0.3l0.1,0.4c0.4,1.1,0.5,2.2,0.3,3.5c0,1-0.2,1.9-0.6,2.8l-0.2,0.3l-8.1,0.3c0,0.1,0,0.2,0.1,0.3
				c0.1,0.2,0.1,0.4,0.1,0.6l11.4-0.3l0.2,0.3c0.4,0.8,0.6,2,0.6,3.4c0,2.1-0.2,2.5-0.5,2.7l-0.2,0.2L278,67.2L277.8,67z"/>
			<path class="st15" d="M295.5,20.5c2.1,1.2,3.5,2.5,4.3,3.8c0.8,1.4,0.2,3.1-1.8,4.7c-0.4,0.3-1,0.7-1.2,0.8
				c-0.8,0.4-1.6,0.5-2.2,0.5c-0.5,0-1.1-0.1-1.5-0.2c-0.8-0.2-2-0.9-2.7-1.4c-0.4-0.3-1-0.7-1.5-1.1L295.5,20.5z"/>
			<path class="st15" d="M298,88.7l0.2-1.1c0.6-2.8,1.7-4.9,3.3-6.5l0.7-0.7l15.9,8.1v1.2c0,1-0.4,2.3-1.3,3.9l-0.1,0.1
				c-0.9,1.3-1.7,2.2-2.4,2.7l-0.7,0.5L298,88.7z"/>
		</g>
		<line class="st16" x1="35.8" y1="51.9" x2="40.6" y2="51.7"/>
		<line class="st16" x1="36.1" y1="57.9" x2="40.8" y2="57.7"/>
		<line class="st16" x1="36.3" y1="63.9" x2="41" y2="63.7"/>
		<line class="st16" x1="36.6" y1="69.9" x2="41.3" y2="69.7"/>
		<line class="st16" x1="36.8" y1="75.9" x2="41.5" y2="75.7"/>
		<line class="st16" x1="37" y1="81.9" x2="41.8" y2="81.7"/>
		<g>
			<line class="st16" x1="35.7" y1="53.7" x2="39.2" y2="53.5"/>
			<line class="st16" x1="35.7" y1="55" x2="39.2" y2="54.8"/>
			<line class="st16" x1="35.7" y1="56.3" x2="39.2" y2="56.2"/>
		</g>
		<g>
			<line class="st16" x1="35.7" y1="59.7" x2="39.2" y2="59.5"/>
			<line class="st16" x1="35.7" y1="61" x2="39.2" y2="60.8"/>
			<line class="st16" x1="35.7" y1="62.3" x2="39.2" y2="62.2"/>
		</g>
		<g>
			<line class="st16" x1="35.7" y1="65.7" x2="39.2" y2="65.5"/>
			<line class="st16" x1="35.7" y1="67" x2="39.2" y2="66.8"/>
			<line class="st16" x1="35.7" y1="68.3" x2="39.2" y2="68.2"/>
		</g>
		<g>
			<line class="st16" x1="35.8" y1="71.7" x2="39.4" y2="71.5"/>
			<line class="st16" x1="35.8" y1="73" x2="39.4" y2="72.8"/>
			<line class="st16" x1="35.8" y1="74.3" x2="39.4" y2="74.2"/>
		</g>
		<g>
			<line class="st16" x1="35.9" y1="77.6" x2="39.4" y2="77.5"/>
			<line class="st16" x1="35.9" y1="79" x2="39.4" y2="78.8"/>
			<line class="st16" x1="35.9" y1="80.3" x2="39.4" y2="80.2"/>
		</g>
		<circle class="st5" cx="41.8" cy="46.7" r="1.2"/>
		<path class="st17" d="M295.1,20.3c-0.3-0.2-0.7-0.4-1-0.5c-0.2-0.1-0.5-0.2-0.8-0.2c-1,0-2.2,0.9-3.1,1.8c0.3,0.5,0.5,1.1,0.5,1.8
			c0,1.6-1.1,3-2.6,3.4c0,0,0,0.1,0.1,0.1c0.1,0.2,0.3,0.4,0.5,0.6c0.1,0.1,0.2,0.2,0.3,0.3l6.5-7.1
			C295.4,20.4,295.2,20.4,295.1,20.3z"/>
	</g>
	<path class="st18" d="M91.7,81.9l-5-2.1L84.8,84c-1-7.4-0.6-14.8,0.7-21.9l5.6-12.3c0.5-0.1,1-0.2,1.5-0.1
		C89.5,62.4,89.5,73,91.7,81.9z"/>
	<g id="图层_3" class="st4">
	</g>
	<path class="st15" d="M296.5,29.3L296.5,29.3c-1.9-1.1-4.3-0.4-5.4,1.4l-0.9,1.5c-1.1,1.9-0.4,4.3,1.4,5.4l0,0
		c1.9,1.1,4.3,0.4,5.4-1.4l0.9-1.5C299,32.8,298.3,30.4,296.5,29.3z"/>
</g>
<g id="图层_4">
</g>
<path class="st9" d="M61.4,66.3c1.3,0.3,2,2,2,5c0,2.4-0.5,4-1.5,5H47.8h-4c0,9.1,0,16.4,0,22c0,5.6,0.2,9.2,0.5,10.9
	c-0.3,0.3-1.5,0.8-3.5,1.5c-1,0.3-2.7,0.5-5,0.5c-1.3,0-2.7-0.5-4-1.5c-0.7-47.5-0.5-71.4,0.5-71.7c1-0.3,3-0.8,6.1-1.5
	c2.7,0,4.4,0.5,5,1.5c0.3,0.3,0.5,9.6,0.5,27.8h6.1c3.4,0.3,6,0.5,7.8,0.5C59.5,66.3,60.8,66.3,61.4,66.3z M74.6,38.1
	c1.7,2.4,2.5,8.4,2.5,18.2c0,9.8-0.3,16.3-1,19.7c-2,1-3.7,1.5-5,1.5c-1.7,0-3.7-0.5-6.1-1.5c0.3-1.3,0.8-6.4,1.5-15.1
	c0.3-8.4,0-13.5-1-15.1l-17.2,1c-1.7-4.4-2-7.2-1-8.6c7.4-1.7,13.1-2.5,17.2-2.5C68.5,35.6,71.9,36.4,74.6,38.1z"/>
<path class="st7" d="M81.2,103.3c-0.6-2.9-0.9-8.7-0.9-17.6l0.4-15.5c0.6-0.6,1.7-0.9,3.4-0.9c3.7,0,5.7,0.6,6,1.7v7.3
	c-0.3,1.7-0.4,3.3-0.4,4.7c0,1.4,0,2.9,0,4.3c0,6.9,0.4,10.9,1.3,12c0,0.3,0.6,0.4,1.7,0.4c1.7,0,2.9-0.1,3.4-0.4
	c1.4,0,2.6-0.1,3.4-0.4c1.7,2.3,2.2,5.3,1.3,9c-4,0.9-7.7,1.3-11.2,1.3c-2.6,0-4.2-0.1-4.7-0.4C82.8,108.3,81.5,106.5,81.2,103.3z
	 M108.3,108.1c-2.9,0-4.3-0.4-4.3-1.3l0.9-15.5c0.3-6.3,0.3-10.6,0-12.9c-2.6,0-4.6,0.1-6,0.4c-2,0.3-3.4,0.3-4.3,0
	c-1.1-1.7-1.4-4.6-0.9-8.6c2.6-0.6,5.5-0.9,8.8-1.1c3.3-0.1,6.9-0.1,11,0.2c0.6,0.6,0.9,2.7,0.9,6.5c0,4,0,7.7,0,11.2
	s-0.1,6.7-0.4,9.9l-0.9,10.3C113,107.8,111.4,108.1,108.3,108.1z"/>
<path class="st8" d="M151.6,75.2c0.6,2.9,0.3,4.4-0.9,4.7c-9.8,3.2-15.5,4.9-17.2,5.2v2.2c0,4.9,0,9,0,12.5s0.1,6,0.4,7.7
	c-0.3,0.3-1.3,0.7-3,1.3c-0.9,0.3-2.3,0.4-4.3,0.4c-1.1,0-2.3-0.4-3.4-1.3c-0.6-23.8-0.4-35.8,0.4-36.1c0.9-0.3,2.6-0.7,5.2-1.3
	c2.3,0,3.7,0.4,4.3,1.3V73c0,0.6,0.1,1,0.2,1.3c0.1,0.3,0.2,0.7,0.2,1.3l15.1-4.7C150.3,71.4,151.3,72.9,151.6,75.2z"/>
<path class="st10" d="M181.5,100.8c0.8,1.8,0.8,4.6,0,8.6c-4.9,0.9-12.1,0.7-21.5-0.7c-0.5-0.6-0.7-2.9-0.5-6.9
	c0-6.3,0.5-14.8,1.3-25.3l-7.8,0c-0.5-1.2-0.7-2.5-0.7-3.9c0-0.6,0.1-1.2,0.3-1.9c0.2-0.7,0.4-1.6,0.8-2.8l7.8,0l2.5-22.3
	c0-0.6,1.6-0.8,4.8-0.6c2.9,0.2,4.3,0.7,4.2,1.5l-2,21.9l10.3,0.1c1,2.6,1.1,5.5,0.4,8.6L170.3,77c-1.3,13.4-1.7,21-1.2,22.8
	c2.5,0.7,4.4,1,5.6,0.7L181.5,100.8z"/>
<path class="st15" d="M206.1,58.2c-0.3,0.9-0.4,6.5-0.4,16.8c4.9,0,7.9,0.3,9,0.9c0.6,0.6,0.9,1.6,0.9,3c0,2.6-0.1,4.3-0.4,5.2
	c-0.3,0.3-3.3,0.4-9,0.4h-0.4c0.3,2.3,0.4,4.7,0.4,7.3c0,2.6,0,5.5,0,8.6l0.9,11.2c0,0.9-1.4,1.3-4.3,1.3c-3.2,0-4.7-0.3-4.7-0.9
	l-1.3-10.3c0-3.2,0-6.2,0-9c0-2.9-0.1-5.7-0.4-8.6h-6.5c-1.1-1.1-1.7-3-1.7-5.6c0-2.3,0.6-3.6,1.7-3.9h6.5c0-4,0-7.6,0-10.8
	c0-3.2,0.1-5.9,0.4-8.2c0-4,0.3-6.3,0.9-6.9c9.7-0.6,16.9-0.4,21.5,0.4c0.6,4,0.4,6.9-0.4,8.6c-3.7,0-6-0.1-6.9-0.4
	c-0.9,0-1.7,0.1-2.6,0.2C208.2,57.7,207.2,57.9,206.1,58.2z"/>
<path class="st7" d="M225.4,107.7c-0.6-2.9-0.9-8.7-0.9-17.6l0.4-15.5c0.6-0.6,1.7-0.9,3.4-0.9c3.7,0,5.7,0.6,6,1.7v7.3
	c-0.3,1.7-0.4,3.3-0.4,4.7c0,1.4,0,2.9,0,4.3c0,6.9,0.4,10.9,1.3,12c0,0.3,0.6,0.4,1.7,0.4c1.7,0,2.9-0.1,3.4-0.4
	c1.4,0,2.6-0.1,3.4-0.4c1.7,2.3,2.2,5.3,1.3,9c-4,0.9-7.7,1.3-11.2,1.3c-2.6,0-4.2-0.1-4.7-0.4C227,112.7,225.7,110.9,225.4,107.7z
	 M252.5,112.5c-2.9,0-4.3-0.4-4.3-1.3l0.9-15.5c0.3-6.3,0.3-10.6,0-12.9c-2.6,0-4.6,0.1-6,0.4c-2,0.3-3.4,0.3-4.3,0
	c-1.1-1.7-1.4-4.6-0.9-8.6c2.6-0.6,5.5-0.9,8.8-1.1c3.3-0.1,6.9-0.1,11,0.2c0.6,0.6,0.9,2.7,0.9,6.5c0,4,0,7.7,0,11.2
	s-0.1,6.7-0.4,9.9l-0.9,10.3C257.2,112.2,255.7,112.5,252.5,112.5z"/>
<path class="st9" d="M268.9,51c0.9-0.3,2.6-0.7,5.2-1.3c2.3,0,3.7,0.4,4.3,1.3c0.3,0.3,0.4,9.8,0.4,28.4c0,9.2,0,16.6,0,22.2
	c0,5.6,0.1,9.2,0.4,11c-0.3,0.3-1.3,0.7-3,1.3c-0.9,0.3-2.3,0.4-4.3,0.4c-1.1,0-2.3-0.4-3.4-1.3C267.9,72,268,51.3,268.9,51z"/>
<path class="st10" d="M302.8,49.3c0.6,0.6,0.9,2.3,1,5.1c0.1,2.9-0.1,4.6-0.7,5.2l-9.5,0.3c-0.6-0.6-0.9-2.1-1-4.7
	c-0.1-2.9,0.1-4.6,0.7-5.2L302.8,49.3z M294.7,77.5c0.9-0.3,2.6-0.8,5.1-1.5c2.3-0.1,3.7,0.3,4.3,1.2c0.3,0.3,0.6,5.4,0.9,15.5
	c0.2,5.2,0.3,9.5,0.4,12.9c0.1,3.4,0.3,6,0.7,7.7c-0.3,0.3-1.3,0.8-3,1.4c-0.9,0.3-2.3,0.5-4.3,0.6c-1.1,0-2.3-0.4-3.5-1.2
	C294,90,293.8,77.9,294.7,77.5z"/>
<path class="st8" d="M313.2,109.8c-0.6-2.9-0.9-8.7-0.9-17.6l0.4-15.5c0.6-0.6,1.7-0.9,3.4-0.9c3.7,0,5.7,0.6,6,1.7v7.3
	c-0.3,1.7-0.4,3.3-0.4,4.7c0,1.4,0,2.9,0,4.3c0,6.9,0.4,10.9,1.3,12c0,0.3,0.6,0.4,1.7,0.4c1.7,0,2.9-0.1,3.4-0.4
	c1.4,0,2.6-0.1,3.4-0.4c1.7,2.3,2.2,5.3,1.3,9c-4,0.9-7.7,1.3-11.2,1.3c-2.6,0-4.2-0.1-4.7-0.4C314.8,114.8,313.5,113,313.2,109.8z
	 M340.3,114.5c-2.9,0-4.3-0.4-4.3-1.3l0.9-15.5c0.3-6.3,0.3-10.6,0-12.9c-2.6,0-4.6,0.1-6,0.4c-2,0.3-3.4,0.3-4.3,0
	c-1.1-1.7-1.4-4.6-0.9-8.6c2.6-0.6,5.5-0.9,8.8-1.1c3.3-0.1,6.9-0.1,11,0.2c0.6,0.6,0.9,2.7,0.9,6.5c0,4,0,7.7,0,11.2
	s-0.1,6.7-0.4,9.9l-0.9,10.3C345,114.2,343.4,114.5,340.3,114.5z"/>
</svg>
