<?xml version="1.0" encoding="utf-8"?>
<!-- Generator: Adobe Illustrator 25.2.1, SVG Export Plug-In . SVG Version: 6.00 Build 0)  -->
<svg version="1.1" xmlns="http://www.w3.org/2000/svg" xmlns:xlink="http://www.w3.org/1999/xlink" x="0px" y="0px"
	 viewBox="0 0 87 16.6" style="enable-background:new 0 0 87 16.6;" xml:space="preserve">
<style type="text/css">
	.st0{display:none;}
	.st1{display:inline;}
	.st2{fill:#5A3219;}
	.st3{enable-background:new    ;}
	.st4{display:inline;fill:#1B2D03;}
	.st5{display:inline;enable-background:new    ;}
	.st6{fill:#3271CC;}
	.st7{fill:#FFFFFF;}
	.st8{font-family:'ArialRoundedMTBold';}
	.st9{font-size:17.6044px;}
</style>
<g id="图层_1" class="st0">
	<g id="图层_1_1_">
		<g id="レイヤー_2" class="st1">
			<g id="UI">
				<path class="st2" d="M10,9.1c0.4,0,0.8,0.3,0.8,0.7l0,0c0,0.3,0,0.3-0.4,1.2c-0.2,0.5-0.3,0.9-0.5,1.8c-0.1,0.6-0.6,0.9-1.2,0.9
					c-0.7,0-1.3-0.5-1.4-1.2C6.9,11,6.8,9.4,6.8,7.8c0-2.1,0.2-4.1,0.6-6.1c0.1-0.6,0.7-0.9,1.2-0.9c0.6,0,1.4,0.3,1.4,1
					c0,0.3-0.3,1.8-0.3,2.1C9.4,5.3,9.3,6.8,9.3,8.3c0,0.4,0,0.7,0.1,1.4C9.6,9.2,9.7,9.1,10,9.1z M12.4,7.4c0.5,0,1.2,0.2,1.2,0.8
					c0,0.1,0,0.3-0.1,0.4c-0.2,0.3-0.2,0.5-0.3,0.7c0,0.4,0.3,0.8,2.3,0.8c0.6,0,1.2,0,1.8-0.1c0.2,0,0.9-0.1,1.1-0.1
					c0.6,0,1.1,0.4,1.1,1c0,0.1,0,0.1,0,0.2c0,1.2-0.6,1.5-3.7,1.5c-1.8,0-4.8-0.1-4.8-2.8C10.9,9.1,11.1,7.4,12.4,7.4z M12.6,2.1
					h1.7c0.3,0,1.1,0,2.2,0c0.2,0,0.9-0.1,1.1-0.1c0.3,0,0.6,0.1,0.9,0.3c0.3,0.3,0.4,0.6,0.4,1c0.1,0.6-0.4,1.2-1,1.2
					c-0.1,0-0.1,0-0.2,0c-1.1,0.2-2.2,0.2-3.3,0.2c-2.2,0-3.1,0-3.1-1.3c-0.1-0.6,0.3-1.2,0.9-1.3C12.4,2.1,12.5,2.1,12.6,2.1z"/>
				<path class="st2" d="M27.5,3.9c0-0.5-0.1-1.2,1.1-1.2s1.1,0.6,1.1,1.1v0.5c1.9,0.3,3.2,2,3.1,3.9c0.1,2.1-1.5,3.9-3.6,4.1
					c-0.1,0-0.2,0-0.3,0c-0.1,0.2-1,1.6-1.9,1.6c-0.6,0-1.1-0.5-1.2-1.1c0-0.2,0.1-0.4,0.4-0.7c0.2-0.2,0.4-0.4,0.5-0.6
					c-0.6-0.4-1.1-1.1-1.2-1.8c0-0.5,0.4-0.9,0.9-0.9c0,0,0,0,0.1,0c0.3,0,0.5,0.1,0.6,0.4c0.1,0.2,0.3,0.4,0.5,0.6
					c0.1-0.8,0.1-1.7,0.1-2.7V6.6c-1.8,0.9-2.7,3.1-3,4.9c-0.1,0.5-0.1,1-1,1c-0.4,0-0.8-0.2-1-0.6c-0.3-1.2-0.4-2.4-0.3-3.6
					c-0.1-1.3,0.1-2.7,0.4-4c0.2-0.4,0.6-0.6,1-0.5c0.6,0,1,0.3,1,0.8c0,0.1-0.2,1.1-0.2,1.3s-0.1,0.8-0.1,0.9c0.6-1.2,1.7-2,3-2.4
					V3.9z M30.8,8.3c0-1.4-0.7-1.7-0.9-1.8c0.1,1.3,0,2.5-0.2,3.8C30.4,9.9,30.9,9.1,30.8,8.3z"/>
				<path class="st2" d="M48.1,8.1c-0.9,0.6-1.9,1-3,1c-1,0-2-0.3-2.8-0.9c-0.8-0.6-1.8-1-2.9-1c-0.7,0-1.3,0.2-1.8,0.6
					c-0.4,0.3-0.5,0.4-0.9,0.4c-0.5,0-1-0.3-1-0.9V7.2c0-0.4,0.1-0.6,0.7-1c0.9-0.6,1.9-1,3-1s2.1,0.3,3,0.9c0.8,0.6,1.7,0.9,2.7,1
					c0.7,0,1.4-0.3,2-0.7c0.2-0.2,0.5-0.3,0.8-0.3c0.5,0,1,0.4,1,0.9C48.8,7.4,48.7,7.6,48.1,8.1z"/>
				<path class="st2" d="M59.8,8.3c0.1,1.3-0.2,2.6-1,3.6c-0.9,1.1-2.2,1.9-3.6,2.1c-0.7,0-1.2-0.6-1.2-1.3l0,0c0-0.7,0.5-0.9,1-1
					c0.6-0.2,1.2-0.6,1.6-1.1c-0.3,0.1-0.7,0.2-1,0.1c-1.6,0-2.8-1.3-2.8-2.8c0-0.1,0-0.1,0-0.2c0-1.7,1.3-3.1,3-3.1
					c0.1,0,0.2,0,0.3,0c0.4,0,0.7,0.1,1.1,0.2V4.2l-3.5,0.1c-0.3,0-1.7,0.1-2,0.1c-1.3,0-1.4-0.7-1.4-1.3c0-1.2,0.8-1.2,1.7-1.2h1.6
					l3.6-0.1V1.4c0-0.3,0-1.3,1.3-1.3s1.3,0.9,1.3,1.2v0.4h0.6c0.3,0,1.7-0.1,2-0.1c0.4,0,1.3,0,1.3,1.2s-0.9,1.4-1.5,1.4h-2.4V8.3z
					 M56.2,6.7c-0.6,0-1,0.4-1,1v0.1c0,0.6,0.4,1,0.9,1c0,0,0,0,0.1,0c0.5,0,0.9-0.4,0.9-1.1C57.2,7.2,56.8,6.7,56.2,6.7
					C56.3,6.7,56.3,6.7,56.2,6.7z"/>
			</g>
		</g>
	</g>
	<g class="st3">
		<path class="st4" d="M8.1,5.1V6H7.2V5.1H8.1z M8.1,10.1V11H7.2v-0.9H8.1z M9.1,2.1V3H8.2V2.1H9.1z M9.1,5.1V6H8.2V5.1H9.1z
			 M9.1,10.1V11H8.2v-0.9H9.1z M10.1,2.1V3H9.2V2.1H10.1z M10.1,5.1V6H9.2V5.1H10.1z M10.1,9.1V10H9.2V9.1H10.1z M10.1,12.1V13H9.2
			v-0.9H10.1z M11.1,1.1V2h-0.9V1.1C10.2,1.1,11.1,1.1,11.1,1.1z M11.1,2.1V3h-0.9V2.1H11.1z M11.1,3.1V4h-0.9V3.1H11.1z M11.1,4.1
			V5h-0.9V4.1H11.1z M11.1,5.1V6h-0.9V5.1H11.1z M11.1,6.1V7h-0.9V6.1H11.1z M11.1,7.1V8h-0.9V7.1H11.1z M11.1,8.1V9h-0.9V8.1H11.1z
			 M11.1,9.1V10h-0.9V9.1H11.1z M11.1,10.1V11h-0.9v-0.9H11.1z M11.1,11.1V12h-0.9v-0.9H11.1z M11.1,12.1V13h-0.9v-0.9H11.1z
			 M12.1,1.1V2h-0.9V1.1C11.2,1.1,12.1,1.1,12.1,1.1z M12.1,5.1V6h-0.9V5.1H12.1z M12.1,8.1V9h-0.9V8.1H12.1z M13.1,5.1V6h-0.9V5.1
			H13.1z M13.1,11.1V12h-0.9v-0.9H13.1z M14.1,1.1V2h-0.9V1.1C13.2,1.1,14.1,1.1,14.1,1.1z M14.1,2.1V3h-0.9V2.1H14.1z M14.1,3.1V4
			h-0.9V3.1H14.1z M14.1,4.1V5h-0.9V4.1H14.1z M14.1,5.1V6h-0.9V5.1H14.1z M14.1,6.1V7h-0.9V6.1H14.1z M14.1,7.1V8h-0.9V7.1H14.1z
			 M14.1,8.1V9h-0.9V8.1H14.1z M14.1,10.1V11h-0.9v-0.9H14.1z M15.1,5.1V6h-0.9V5.1H15.1z M15.1,9.1V10h-0.9V9.1H15.1z M15.1,10.1
			V11h-0.9v-0.9H15.1z M16.1,5.1V6h-0.9V5.1H16.1z M16.1,8.1V9h-0.9V8.1H16.1z M16.1,11.1V12h-0.9v-0.9H16.1z M17.1,2.1V3h-0.9V2.1
			H17.1z M17.1,5.1V6h-0.9V5.1H17.1z M17.1,7.1V8h-0.9V7.1H17.1z M17.1,12.1V13h-0.9v-0.9H17.1z M18.1,3.1V4h-0.9V3.1H18.1z
			 M18.1,5.1V6h-0.9V5.1H18.1z M18.1,10.1V11h-0.9v-0.9H18.1z M18.1,11.1V12h-0.9v-0.9H18.1z M18.1,12.1V13h-0.9v-0.9H18.1z"/>
		<path class="st4" d="M23.1,3.1V4h-0.9V3.1H23.1z M23.1,4.1V5h-0.9V4.1H23.1z M23.1,5.1V6h-0.9V5.1H23.1z M23.1,6.1V7h-0.9V6.1
			H23.1z M23.1,7.1V8h-0.9V7.1H23.1z M23.1,8.1V9h-0.9V8.1H23.1z M23.1,9.1V10h-0.9V9.1H23.1z M23.1,10.1V11h-0.9v-0.9H23.1z
			 M23.1,11.1V12h-0.9v-0.9H23.1z M23.1,12.1V13h-0.9v-0.9H23.1z M24.1,2.1V3h-0.9V2.1H24.1z M24.1,3.1V4h-0.9V3.1H24.1z M24.1,7.1
			V8h-0.9V7.1H24.1z M24.1,11.1V12h-0.9v-0.9H24.1z M25.1,1.1V2h-0.9V1.1C24.2,1.1,25.1,1.1,25.1,1.1z M25.1,3.1V4h-0.9V3.1H25.1z
			 M25.1,7.1V8h-0.9V7.1H25.1z M25.1,11.1V12h-0.9v-0.9H25.1z M26.1,3.1V4h-0.9V3.1H26.1z M26.1,7.1V8h-0.9V7.1H26.1z M26.1,11.1V12
			h-0.9v-0.9H26.1z M27.1,3.1V4h-0.9V3.1H27.1z M27.1,4.1V5h-0.9V4.1H27.1z M27.1,5.1V6h-0.9V5.1H27.1z M27.1,6.1V7h-0.9V6.1H27.1z
			 M27.1,7.1V8h-0.9V7.1H27.1z M27.1,8.1V9h-0.9V8.1H27.1z M27.1,9.1V10h-0.9V9.1H27.1z M27.1,10.1V11h-0.9v-0.9H27.1z M27.1,11.1
			V12h-0.9v-0.9H27.1z M27.1,12.1V13h-0.9v-0.9H27.1z M28.1,5.1V6h-0.9V5.1H28.1z M29.1,4.1V5h-0.9V4.1H29.1z M30.1,1.1V2h-0.9V1.1
			C29.2,1.1,30.1,1.1,30.1,1.1z M30.1,2.1V3h-0.9V2.1H30.1z M30.1,3.1V4h-0.9V3.1H30.1z M30.1,6.1V7h-0.9V6.1H30.1z M31.1,3.1V4
			h-0.9V3.1H31.1z M31.1,7.1V8h-0.9V7.1H31.1z M31.1,8.1V9h-0.9V8.1H31.1z M31.1,12.1V13h-0.9v-0.9H31.1z M32.1,3.1V4h-0.9V3.1H32.1
			z M32.1,12.1V13h-0.9v-0.9H32.1z M33.1,3.1V4h-0.9V3.1H33.1z M33.1,4.1V5h-0.9V4.1H33.1z M33.1,5.1V6h-0.9V5.1H33.1z M33.1,6.1V7
			h-0.9V6.1H33.1z M33.1,7.1V8h-0.9V7.1H33.1z M33.1,8.1V9h-0.9V8.1H33.1z M33.1,9.1V10h-0.9V9.1H33.1z M33.1,10.1V11h-0.9v-0.9
			H33.1z M33.1,11.1V12h-0.9v-0.9H33.1z"/>
		<path class="st4" d="M38.1,3.1V4h-0.9V3.1H38.1z M39.1,1.1V2h-0.9V1.1C38.2,1.1,39.1,1.1,39.1,1.1z M39.1,2.1V3h-0.9V2.1H39.1z
			 M39.1,4.1V5h-0.9V4.1H39.1z M39.1,7.1V8h-0.9V7.1H39.1z M39.1,8.1V9h-0.9V8.1H39.1z M39.1,9.1V10h-0.9V9.1H39.1z M39.1,10.1V11
			h-0.9v-0.9H39.1z M39.1,11.1V12h-0.9v-0.9H39.1z M39.1,12.1V13h-0.9v-0.9H39.1z M40.1,2.1V3h-0.9V2.1H40.1z M40.1,5.1V6h-0.9V5.1
			H40.1z M41.1,2.1V3h-0.9V2.1H41.1z M41.1,3.1V4h-0.9V3.1H41.1z M41.1,6.1V7h-0.9V6.1H41.1z M41.1,7.1V8h-0.9V7.1H41.1z M41.1,8.1
			V9h-0.9V8.1H41.1z M41.1,9.1V10h-0.9V9.1H41.1z M41.1,10.1V11h-0.9v-0.9H41.1z M42.1,2.1V3h-0.9V2.1H42.1z M42.1,4.1V5h-0.9V4.1
			H42.1z M42.1,6.1V7h-0.9V6.1H42.1z M42.1,8.1V9h-0.9V8.1H42.1z M42.1,10.1V11h-0.9v-0.9H42.1z M43.1,3.1V4h-0.9V3.1H43.1z
			 M43.1,4.1V5h-0.9V4.1H43.1z M43.1,6.1V7h-0.9V6.1H43.1z M43.1,8.1V9h-0.9V8.1H43.1z M43.1,10.1V11h-0.9v-0.9H43.1z M44.1,1.1V2
			h-0.9V1.1C43.2,1.1,44.1,1.1,44.1,1.1z M44.1,2.1V3h-0.9V2.1H44.1z M44.1,4.1V5h-0.9V4.1H44.1z M44.1,6.1V7h-0.9V6.1H44.1z
			 M44.1,8.1V9h-0.9V8.1H44.1z M44.1,10.1V11h-0.9v-0.9H44.1z M45.1,2.1V3h-0.9V2.1H45.1z M45.1,4.1V5h-0.9V4.1H45.1z M45.1,6.1V7
			h-0.9V6.1H45.1z M45.1,7.1V8h-0.9V7.1H45.1z M45.1,8.1V9h-0.9V8.1H45.1z M45.1,9.1V10h-0.9V9.1H45.1z M45.1,10.1V11h-0.9v-0.9
			H45.1z M45.1,12.1V13h-0.9v-0.9H45.1z M46.1,2.1V3h-0.9V2.1H46.1z M46.1,3.1V4h-0.9V3.1H46.1z M46.1,4.1V5h-0.9V4.1H46.1z
			 M46.1,12.1V13h-0.9v-0.9H46.1z M47.1,2.1V3h-0.9V2.1H47.1z M47.1,4.1V5h-0.9V4.1H47.1z M47.1,5.1V6h-0.9V5.1H47.1z M47.1,6.1V7
			h-0.9V6.1H47.1z M47.1,7.1V8h-0.9V7.1H47.1z M47.1,8.1V9h-0.9V8.1H47.1z M47.1,9.1V10h-0.9V9.1H47.1z M47.1,10.1V11h-0.9v-0.9
			H47.1z M47.1,11.1V12h-0.9v-0.9H47.1z M47.1,12.1V13h-0.9v-0.9H47.1z M48.1,2.1V3h-0.9V2.1H48.1z"/>
		<path class="st4" d="M53.1,12.1V13h-0.9v-0.9H53.1z M54.1,2.1V3h-0.9V2.1H54.1z M54.1,3.1V4h-0.9V3.1H54.1z M54.1,4.1V5h-0.9V4.1
			H54.1z M54.1,5.1V6h-0.9V5.1H54.1z M54.1,6.1V7h-0.9V6.1H54.1z M54.1,7.1V8h-0.9V7.1H54.1z M54.1,8.1V9h-0.9V8.1H54.1z M54.1,9.1
			V10h-0.9V9.1H54.1z M54.1,10.1V11h-0.9v-0.9H54.1z M54.1,11.1V12h-0.9v-0.9H54.1z M55.1,2.1V3h-0.9V2.1H55.1z M55.1,12.1V13h-0.9
			v-0.9H55.1z M56.1,2.1V3h-0.9V2.1H56.1z M56.1,5.1V6h-0.9V5.1H56.1z M56.1,11.1V12h-0.9v-0.9H56.1z M57.1,2.1V3h-0.9V2.1H57.1z
			 M57.1,5.1V6h-0.9V5.1H57.1z M57.1,9.1V10h-0.9V9.1H57.1z M57.1,10.1V11h-0.9v-0.9H57.1z M58.1,2.1V3h-0.9V2.1H58.1z M58.1,3.1V4
			h-0.9V3.1H58.1z M58.1,4.1V5h-0.9V4.1H58.1z M58.1,5.1V6h-0.9V5.1H58.1z M58.1,6.1V7h-0.9V6.1H58.1z M58.1,7.1V8h-0.9V7.1H58.1z
			 M58.1,8.1V9h-0.9V8.1H58.1z M59.1,2.1V3h-0.9V2.1H59.1z M59.1,5.1V6h-0.9V5.1H59.1z M59.1,12.1V13h-0.9v-0.9H59.1z M60.1,2.1V3
			h-0.9V2.1H60.1z M60.1,5.1V6h-0.9V5.1H60.1z M60.1,12.1V13h-0.9v-0.9H60.1z M61.1,2.1V3h-0.9V2.1H61.1z M61.1,5.1V6h-0.9V5.1H61.1
			z M61.1,12.1V13h-0.9v-0.9H61.1z M62.1,2.1V3h-0.9V2.1H62.1z M62.1,5.1V6h-0.9V5.1H62.1z M62.1,6.1V7h-0.9V6.1H62.1z M62.1,7.1V8
			h-0.9V7.1H62.1z M62.1,8.1V9h-0.9V8.1H62.1z M62.1,9.1V10h-0.9V9.1H62.1z M62.1,10.1V11h-0.9v-0.9H62.1z M62.1,11.1V12h-0.9v-0.9
			H62.1z M63.1,2.1V3h-0.9V2.1H63.1z"/>
	</g>
	<g id="efAhZj.tif">
	</g>
	<g class="st5">
		<path class="st6" d="M19,6.9c0.3,0,0.5,0.1,0.6,0.2c0.1,0.1,0.1,0.3,0.1,0.6s0,0.4-0.1,0.6c-0.1,0-0.3,0-0.6,0h-3.6
			c0.5,0.7,1,1.3,1.7,1.8c0.7,0.5,1.3,0.9,2,1.1l0,0c0.4,0.1,0.6,0.3,0.6,0.5c0.1,0.2,0.1,0.4,0,0.6c-0.1,0.3-0.2,0.4-0.4,0.5
			c-0.2,0.1-0.5,0-0.8-0.1c-0.9-0.4-1.7-0.9-2.5-1.5c-0.7-0.6-1.4-1.4-2-2.4c-0.4,0.9-0.9,1.6-1.6,2.3c-0.7,0.6-1.7,1.2-2.8,1.7
			c-0.3,0.1-0.5,0.1-0.7,0.1c-0.2,0-0.3-0.2-0.4-0.5c-0.1-0.3,0-0.5,0-0.6c0.1-0.1,0.3-0.3,0.5-0.4c0.5-0.2,0.9-0.4,1.3-0.7
			s0.7-0.5,1-0.7s0.5-0.4,0.7-0.7s0.4-0.6,0.6-1H9.1c-0.2,0-0.4,0-0.5-0.1C8.5,8.1,8.4,7.9,8.4,7.6s0-0.4,0.1-0.6
			c0.1-0.1,0.3-0.2,0.6-0.2h4c0.1-0.5,0.2-1.1,0.2-1.9H9.7c-0.3,0-0.5-0.1-0.6-0.2C9,4.6,9,4.5,9,4.3s0-0.4,0.1-0.5
			c0.1-0.1,0.3-0.2,0.6-0.2H11c-0.1-0.2-0.2-0.4-0.3-0.6c-0.1-0.2-0.2-0.3-0.3-0.4c-0.1-0.2-0.2-0.4-0.1-0.6c0-0.2,0.1-0.4,0.3-0.4
			c0.2-0.2,0.3-0.2,0.5-0.2c0.2,0.1,0.4,0.2,0.5,0.3c0.1,0.2,0.3,0.4,0.4,0.7c0.2,0.3,0.3,0.7,0.5,1.1h2.9c0.2-0.2,0.3-0.5,0.5-0.8
			s0.2-0.6,0.3-0.8c0.1-0.2,0.2-0.4,0.4-0.5c0.2-0.1,0.4-0.1,0.6,0c0.2,0.1,0.4,0.2,0.4,0.4c0.1,0.2,0.1,0.4,0,0.6
			c0,0.1-0.1,0.3-0.2,0.5c-0.1,0.2-0.2,0.5-0.3,0.7h1.6c0.3,0,0.5,0.1,0.6,0.2c0.1,0.1,0.1,0.3,0.1,0.5s0,0.4-0.1,0.6
			C19.2,5,19,5.1,18.7,5.1h-4c0,0.4,0,0.7-0.1,1s0,0.6,0,0.8H19z"/>
		<path class="st6" d="M23.7,3.7c-0.3,0-0.5-0.1-0.5-0.2c-0.1-0.1-0.1-0.3-0.1-0.5s0-0.4,0.1-0.5s0.2-0.2,0.5-0.2h8.8
			c0.3,0,0.5,0.1,0.6,0.2c0.1,0.1,0.1,0.3,0.1,0.5s0,0.4-0.1,0.5c-0.1,0.1-0.3,0.2-0.5,0.2h-3.4v2.8h4c0.3,0,0.5,0.1,0.6,0.2
			c0.1,0.1,0,0.3,0,0.5s0,0.4-0.1,0.5c-0.1,0.1-0.3,0.2-0.5,0.2h-4v3.4c0,0.5-0.1,0.9-0.4,1.1c-0.3,0.3-0.7,0.4-1.3,0.4
			c-0.6,0-1.4-0.1-2.4-0.4c-0.2-0.1-0.3-0.1-0.4-0.2s-0.2-0.1-0.2-0.2s-0.1-0.2-0.1-0.3s0-0.2,0-0.3c0.1-0.2,0.2-0.4,0.4-0.5
			c0.2-0.1,0.4-0.1,0.7,0c0.5,0.2,0.9,0.3,1.2,0.3c0.3,0.1,0.6,0.1,0.8,0.1c0.1,0,0.2,0,0.3-0.1s0.1-0.1,0.1-0.2V7.9h-4.7
			c-0.3,0-0.5-0.1-0.5-0.2s-0.1-0.3-0.1-0.5s0-0.4,0.1-0.5s0.3-0.2,0.6-0.2H28V3.7H23.7z"/>
		<path class="st6" d="M47.2,10.9c0,0.4-0.1,0.8-0.2,1.1c-0.1,0.3-0.3,0.5-0.6,0.7s-0.6,0.2-1,0.3c-0.4,0-0.9-0.1-1.5-0.2
			c-0.3-0.1-0.5-0.2-0.6-0.3s-0.1-0.3,0-0.6c0.1-0.5,0.5-0.6,1-0.4c0.3,0.1,0.6,0.2,0.8,0.2s0.4,0,0.5,0s0.2-0.1,0.2-0.2
			c0-0.2,0-0.4,0-0.5V3.8c0-0.2,0-0.3-0.1-0.3c0-0.1-0.2-0.1-0.4-0.1h-6.5c-0.1,0-0.2,0-0.3,0.1c-0.1,0.1-0.1,0.2-0.1,0.4v6.9
			c0-0.2,0.1-0.3,0.2-0.5c0.2-0.4,0.5-0.8,0.7-1.3c0.2-0.5,0.5-1,0.6-1.6c-0.1-0.4-0.3-0.8-0.5-1.1c-0.2-0.4-0.4-0.7-0.6-1.1
			c-0.2-0.3-0.2-0.5-0.2-0.7c0-0.2,0.1-0.3,0.2-0.4C39,3.9,39.2,3.9,39.3,4c0.2,0.1,0.3,0.2,0.5,0.5C40,5,40.2,5.4,40.4,5.8
			c0.1-0.5,0.2-1,0.3-1.4c0-0.3,0.1-0.5,0.2-0.7c0.1-0.1,0.2-0.1,0.5-0.1c0.2,0,0.4,0.1,0.5,0.2c0.1,0.1,0.1,0.4,0,0.6
			c-0.1,0.5-0.2,1-0.3,1.4c-0.1,0.5-0.2,1-0.4,1.4c0.1,0.3,0.3,0.7,0.4,1c0.1,0.3,0.3,0.7,0.4,1c0.1,0.2,0.1,0.4,0.1,0.6
			s-0.1,0.3-0.3,0.4c-0.2,0.1-0.4,0.1-0.5,0S41.1,9.9,41,9.6c0-0.1-0.1-0.3-0.2-0.4c0,0.1-0.1-0.1-0.1-0.2c-0.1,0.4-0.3,0.7-0.5,1.1
			c-0.2,0.3-0.4,0.7-0.6,1c-0.2,0.3-0.3,0.5-0.5,0.5c-0.1,0.1-0.3,0-0.5-0.1s-0.3-0.3-0.3-0.5v1.2c0,0.3-0.1,0.5-0.2,0.6
			S37.8,13,37.6,13s-0.4-0.1-0.5-0.2c-0.1-0.1-0.2-0.3-0.2-0.6V3.5c0-0.3,0-0.5,0.1-0.7c0-0.2,0.1-0.3,0.2-0.5
			c0.1-0.2,0.3-0.2,0.5-0.3c0.2-0.1,0.4-0.1,0.7-0.1h7c0.5,0,0.9,0.1,1.2,0.4S47,2.9,47,3.5v7.4H47.2z M45.4,4.7
			c-0.1,0.6-0.2,1.2-0.3,1.7s-0.3,1-0.4,1.5c0.2,0.4,0.3,0.7,0.4,1s0.3,0.7,0.4,1c0.1,0.3,0.1,0.5,0.1,0.7c-0.1,0.2-0.2,0.3-0.3,0.4
			c-0.2,0.1-0.4,0.1-0.5,0s-0.2-0.3-0.3-0.6c-0.1-0.2-0.1-0.3-0.2-0.5c-0.1-0.2-0.1-0.3-0.2-0.5c-0.2,0.4-0.4,0.8-0.7,1.2
			s-0.5,0.8-0.8,1.2c-0.2,0.3-0.4,0.5-0.6,0.5s-0.3,0-0.5-0.2s-0.2-0.3-0.2-0.5s0.1-0.4,0.3-0.6c0.4-0.5,0.8-1,1-1.5
			c0.3-0.5,0.5-1,0.8-1.5c-0.2-0.4-0.4-0.8-0.6-1.2c-0.2-0.4-0.4-0.7-0.5-1c-0.2-0.3-0.2-0.5-0.2-0.7c0-0.2,0.1-0.3,0.3-0.4
			c0.2-0.1,0.4-0.2,0.5-0.1c0.1,0.1,0.3,0.3,0.5,0.6C43.6,5.6,43.8,6,44,6.4c0.1-0.3,0.1-0.5,0.2-0.8c0-0.3,0.1-0.6,0.1-0.9
			c0-0.2,0.1-0.3,0.1-0.4c0-0.1,0.1-0.2,0.1-0.2C44.6,4,44.6,4,44.7,4c0.1,0,0.2,0,0.3,0c0.2,0,0.4,0.1,0.4,0.3
			C45.5,4.1,45.5,4.4,45.4,4.7z"/>
		<path class="st6" d="M54.9,10.5c-0.9,0.5-2.1,1-3.5,1.5c-0.3,0.1-0.5,0.1-0.7,0.1c-0.2-0.1-0.3-0.2-0.3-0.4
			c-0.1-0.4,0.1-0.7,0.6-0.9c0.3-0.1,0.6-0.2,0.9-0.3c0.3-0.2,0.6-0.3,0.9-0.4C53,9.4,53.1,8.7,53.2,8c0.1-0.7,0.2-1.4,0.2-2.1
			c0-0.3,0.1-0.5,0.2-0.6c0.1-0.1,0.3-0.2,0.5-0.2s0.3,0.1,0.4,0.2c0.1,0.1,0.1,0.3,0,0.7c-0.1,0.6-0.1,1.2-0.2,1.8
			c0,0.5-0.1,1-0.2,1.5c0,0,0,0,0.1,0c0,0,0,0,0.1,0c0.2-0.1,0.4-0.2,0.6-0.2c0.2,0,0.3,0.1,0.4,0.3c0.1,0.2,0.1,0.5,0.1,0.6
			S55.1,10.3,54.9,10.5z M53.5,3.1c0,0.1,0.1,0.2,0.1,0.2c0,0.1,0,0.1,0,0.2h1.2c0.2,0,0.4,0,0.5,0.1s0.2,0.3,0.2,0.5
			c0,0.4-0.2,0.7-0.7,0.7H51c-0.2,0-0.4,0-0.5-0.1s-0.2-0.3-0.2-0.5c0-0.2,0-0.4,0.1-0.5s0.3-0.2,0.5-0.2h1.3
			c-0.2-0.4-0.4-0.8-0.6-1.1c-0.1-0.2-0.1-0.3-0.1-0.5s0.1-0.3,0.3-0.4c0.2-0.1,0.3-0.1,0.5-0.1s0.3,0.1,0.4,0.3
			c0.1,0.1,0.1,0.2,0.2,0.2c0,0.1,0.1,0.2,0.2,0.3c0.1,0.1,0.1,0.2,0.2,0.3C53.4,2.8,53.5,2.9,53.5,3.1z M52.5,8.9
			c0,0.3,0,0.5,0,0.6c-0.1,0.1-0.2,0.2-0.4,0.3c-0.2,0-0.4,0-0.5-0.1s-0.2-0.3-0.2-0.6c0-0.5-0.1-1-0.2-1.5c-0.1-0.5-0.2-1-0.3-1.5
			c0-0.2,0-0.3-0.1-0.4c0-0.1,0-0.2,0-0.2c0-0.1,0.1-0.1,0.2-0.2c0.1-0.1,0.2-0.1,0.3-0.1c0.2,0,0.3,0,0.4,0
			c0.1,0.1,0.2,0.2,0.3,0.5c0,0.2,0.1,0.5,0.1,0.7s0.1,0.5,0.1,0.8s0.1,0.5,0.1,0.8C52.5,8.4,52.5,8.6,52.5,8.9z M60.2,6.5
			c0.4,0,0.8,0.1,1,0.3s0.3,0.5,0.3,0.9v3.8c0,0.2,0,0.4-0.1,0.6c0,0.2-0.1,0.3-0.2,0.4c-0.1,0.1-0.2,0.2-0.4,0.2s-0.4,0.1-0.6,0.1
			H57c-0.4,0-0.7-0.1-1-0.3s-0.3-0.5-0.3-0.9V7.7c0-0.5,0.1-0.8,0.3-0.9c0.2-0.2,0.5-0.3,1-0.3h0.7V2.1c0-0.3,0.1-0.5,0.2-0.6
			c0.1-0.1,0.3-0.1,0.5-0.1s0.4,0.1,0.5,0.2c0.1,0.1,0.2,0.3,0.2,0.5v1.1h2c0.2,0,0.4,0.1,0.5,0.2s0.2,0.3,0.2,0.5
			c0,0.2,0,0.4-0.1,0.5s-0.3,0.2-0.5,0.2h-2v1.9H60.2z M60.1,8.1c0-0.2-0.1-0.2-0.3-0.2h-2.6c-0.2,0-0.3,0.1-0.3,0.2v3
			c0,0.1,0,0.1,0,0.2c0,0,0.1,0.1,0.2,0.1h2.7c0.2,0,0.3-0.1,0.3-0.2V8.1z"/>
	</g>
</g>
<g id="图层_2">
	<g>
		<text transform="matrix(1 0 0 1 7.2012 12.9431)" class="st7 st8 st9">Concept</text>
	</g>
</g>
</svg>
