<?xml version="1.0" encoding="utf-8"?>
<!-- Generator: Adobe Illustrator 25.2.1, SVG Export Plug-In . SVG Version: 6.00 Build 0)  -->
<svg version="1.1" id="图层_1" xmlns="http://www.w3.org/2000/svg" xmlns:xlink="http://www.w3.org/1999/xlink" x="0px" y="0px"
	 viewBox="0 0 110.1 135.2" style="enable-background:new 0 0 110.1 135.2;" xml:space="preserve">
<style type="text/css">
	.st0{fill:#FFFFFF;}
</style>
<path class="st0" d="M69.7,0H8.3C3.7,0,0,3.7,0,8.2V127c0,4.5,3.7,8.2,8.2,8.2h93.6c4.5,0,8.2-3.7,8.2-8.2V40.4L69.7,0z M75.1,17.1
	L94,36H76.5c-0.8,0-1.4-0.7-1.4-1.4V17.1z M39.5,14.7c5.3,0,9.6,4.3,9.6,9.6c0,5.3-4.3,9.6-9.6,9.6S30,29.6,30,24.3
	C30,19,34.3,14.7,39.5,14.7z M39.5,36.4c4.6,0,9.2,1.7,12.5,4.6c2.9,2.5,6.4,7.1,6.4,14.8c0,3-2.5,5.5-5.5,5.5s-5.5-2.5-5.5-5.5
	c0-8.2-7.1-8.4-7.9-8.4c-1.6,0-7.8,1.5-7.8,8.5c0,3-2.5,5.5-5.5,5.5s-5.5-2.5-5.5-5.5C20.6,42.6,31.9,36.4,39.5,36.4z M89.1,118.3
	H21.5c-4.6,0-8.3-3.7-8.3-8.3c0-4.6,3.7-8.3,8.3-8.3h67.6c4.6,0,8.3,3.7,8.3,8.3C97.4,114.6,93.6,118.3,89.1,118.3z M89.1,93.3H21.5
	c-4.6,0-8.3-3.7-8.3-8.3c0-4.6,3.7-8.3,8.3-8.3h67.6c4.6,0,8.3,3.7,8.3,8.3C97.4,89.6,93.6,93.3,89.1,93.3z"/>
</svg>
