<?xml version="1.0" encoding="utf-8"?>
<!-- Generator: Adobe Illustrator 25.2.1, SVG Export Plug-In . SVG Version: 6.00 Build 0)  -->
<svg version="1.1" id="图层_1" xmlns="http://www.w3.org/2000/svg" xmlns:xlink="http://www.w3.org/1999/xlink" x="0px" y="0px"
	 viewBox="0 0 237.6 227.1" style="enable-background:new 0 0 237.6 227.1;" xml:space="preserve">
<style type="text/css">
	.st0{fill:#FDCD14;}
</style>
<g>
	<g>
		<path class="st0" d="M118.7,14.3L145.3,68c3.6,7.3,10.6,12.5,18.7,13.7l0.1,0l0.1,0l59.2,8.6l-42.9,41.8l-0.1,0.1l-0.1,0.1
			c-5.8,5.8-8.4,14-7,22l10.1,59l-53.1-27.9l0,0l0,0c-3.5-1.8-7.5-2.8-11.5-2.8c-4,0-8,1-11.5,2.8l0,0l0,0L54,213.3l10.3-59.1
			c1.5-8.2-1.2-16.5-7.1-22.2l-43-41.7l59.2-8.6l0.1,0l0.1,0c8.2-1.3,15.2-6.4,18.7-13.8L118.7,14.3 M118.8,0
			c-4.3,0-8.5,2.2-10.8,6.7L80.5,62.3c-1.7,3.6-5.1,6-9,6.6l-61.3,8.9C0.4,79.2-3.5,91.3,3.6,98.2l44.5,43.2
			c2.8,2.7,4.1,6.7,3.4,10.6l-10.7,61.2c-1.3,7.8,4.8,14,11.8,14c1.8,0,3.8-0.4,5.6-1.4l54.9-28.8c1.8-0.9,3.7-1.4,5.6-1.4
			c1.9,0,3.8,0.4,5.6,1.4l54.9,28.8c1.9,1,3.8,1.4,5.6,1.4c7,0,13.1-6.3,11.8-14l-10.5-61.1c-0.7-3.9,0.6-7.8,3.4-10.6l44.4-43.3
			c7.2-6.9,3.2-19-6.6-20.4L166,68.9c-3.9-0.6-7.3-3.1-9-6.6L129.5,6.7C127.3,2.3,123,0,118.8,0L118.8,0z"/>
	</g>
</g>
</svg>
