<?xml version="1.0" encoding="utf-8"?>
<!-- Generator: Adobe Illustrator 25.2.1, SVG Export Plug-In . SVG Version: 6.00 Build 0)  -->
<svg version="1.1" id="图层_1" xmlns="http://www.w3.org/2000/svg" xmlns:xlink="http://www.w3.org/1999/xlink" x="0px" y="0px"
	 viewBox="0 0 129 133.7" style="enable-background:new 0 0 129 133.7;" xml:space="preserve">
<style type="text/css">
	.st0{fill:#FFFFFF;enable-background:new    ;}
</style>
<path class="st0" d="M103.3,68.5l6.7,6.7L99.1,86.1c-1.2,1.2-1.2,3,0,4.2l0.6,0.6h0.6c1.2,0.6,3,0.6,4.2,0h0.6L116,80l6.7,6.7
	L110,97c-1.2,1.2-1.2,3,0,4.2s3,1.8,4.2,1.2h0.6l10.9-10.9l6.1,6.1c1.2,1.2,1.2,3.6,0,4.8v0.6l-29.7,29.7c-1.2,1.2-3.6,1.2-4.8,0
	h-0.6l-28.5-28.5L103.3,68.5L103.3,68.5z M23.3,81.3l61.8-61.8L113.6,48l-61.8,62.4l-40.6,17c-1.2,0.6-1.8,0.6-3,0
	c-1.8-0.6-2.4-2.4-2.4-4.2v-0.6L23.3,81.3z M35.5,0.7l6.7,6.7l-11,10.8c-1.2,1.2-0.6,3,0,4.2c1.2,1.8,3,1.8,4.2,0.6H36l11-10.8
	l6.7,6.7l-11,10.9v0.6c-1.2,1.8-0.6,3.6,0.6,4.8s3.6,0.6,4.8-0.6V34L59,23.1l6.7,6.7L30.6,64.9L0.9,36.4c-1.2-1.2-1.2-3.6,0-4.8V31
	L30.6,1.3C31.8,0.1,33.6-0.6,35.5,0.7z M95.5,9.1c8.5-7.3,21.2-6.7,28.5,1.8s6.7,20.6-1.2,27.9l-0.6,0.6L93.6,11L95.5,9.1z"/>
</svg>
