<?xml version="1.0" encoding="utf-8"?>
<!-- Generator: Adobe Illustrator 25.2.1, SVG Export Plug-In . SVG Version: 6.00 Build 0)  -->
<svg version="1.1" id="图层_1" xmlns="http://www.w3.org/2000/svg" xmlns:xlink="http://www.w3.org/1999/xlink" x="0px" y="0px"
	 viewBox="0 0 180.5 180.5" style="enable-background:new 0 0 180.5 180.5;" xml:space="preserve">
<style type="text/css">
	.st0{fill:#FFFFFF;enable-background:new    ;}
	.st1{display:none;fill:#FFFFFF;}
</style>
<path class="st0" d="M90.2,180.5C40.5,180.5,0,140.1,0,90.2S40.4,0,90.2,0c49.8,0,90.2,40.4,90.2,90.2S140.1,180.5,90.2,180.5z
	 M90.2,39.6c-6.1,0-11,5-11,11c0,6.1,5,11,11,11c6.1,0,11-5,11-11C101.3,44.6,96.3,39.6,90.2,39.6z M101.3,83.6
	c0-4.9-3.9-8.8-8.8-8.8h-4.4c-4.9,0-8.8,3.9-8.8,8.8v52.8c0,4.9,3.9,8.8,8.8,8.8h4.4c4.9,0,8.8-3.9,8.8-8.8V83.6z"/>
<rect x="-162.4" y="-7.7" class="st1" width="277.5" height="99.9"/>
</svg>
