<?xml version="1.0" encoding="utf-8"?>
<!-- Generator: Adobe Illustrator 25.2.0, SVG Export Plug-In . SVG Version: 6.00 Build 0)  -->
<svg version="1.1" id="图层_1" xmlns="http://www.w3.org/2000/svg" xmlns:xlink="http://www.w3.org/1999/xlink" x="0px" y="0px"
	 viewBox="0 0 56.9 11.6" style="enable-background:new 0 0 56.9 11.6;" xml:space="preserve">
<style type="text/css">
	.st0{display:none;}
	.st1{display:inline;}
	.st2{fill:#5A3219;}
	.st3{display:none;enable-background:new    ;}
	.st4{display:inline;fill:#1B2D03;}
	.st5{display:inline;fill:#1A1C18;}
	.st6{display:inline;fill:#FFFFFF;}
	.st7{fill:#DDB07F;}
</style>
<g id="图层_1_1_" class="st0">
	<g id="レイヤー_2" class="st1">
		<g id="UI">
			<path class="st2" d="M3.2,7.9C3.6,7.9,4,8.2,4,8.6l0,0c0,0.3,0,0.3-0.4,1.2c-0.2,0.5-0.3,0.9-0.5,1.8c-0.1,0.6-0.6,0.9-1.2,0.9
				c-0.7,0-1.3-0.5-1.4-1.2C0.1,9.8,0,8.2,0,6.6c0-2.1,0.2-4.1,0.6-6.1c0.1-0.6,0.7-0.9,1.2-0.9c0.6,0,1.4,0.3,1.4,1
				c0,0.3-0.3,1.8-0.3,2.1C2.6,4.1,2.5,5.6,2.5,7.1c0,0.4,0,0.7,0.1,1.4C2.8,8,2.9,7.9,3.2,7.9z M5.6,6.2c0.5,0,1.2,0.2,1.2,0.8
				c0,0.1,0,0.3-0.1,0.4C6.5,7.7,6.5,7.9,6.4,8.1c0,0.4,0.3,0.8,2.3,0.8c0.6,0,1.2,0,1.8-0.1c0.2,0,0.9-0.1,1.1-0.1
				c0.6,0,1.1,0.4,1.1,1c0,0.1,0,0.1,0,0.2c0,1.2-0.6,1.5-3.7,1.5c-1.8,0-4.8-0.1-4.8-2.8C4.1,7.9,4.3,6.2,5.6,6.2z M5.8,0.9h1.7
				c0.3,0,1.1,0,2.2,0c0.2,0,0.9-0.1,1.1-0.1c0.3,0,0.6,0.1,0.9,0.3c0.3,0.3,0.4,0.6,0.4,1c0.1,0.6-0.4,1.2-1,1.2
				c-0.1,0-0.1,0-0.2,0C9.8,3.5,8.7,3.5,7.6,3.5c-2.2,0-3.1,0-3.1-1.3C4.4,1.6,4.8,1,5.4,0.9C5.6,0.9,5.7,0.9,5.8,0.9z"/>
			<path class="st2" d="M20.7,2.7c0-0.5-0.1-1.2,1.1-1.2s1.1,0.6,1.1,1.1v0.5c1.9,0.3,3.2,2,3.1,3.9c0.1,2.1-1.5,3.9-3.6,4.1
				c-0.1,0-0.2,0-0.3,0c-0.1,0.2-1,1.6-1.9,1.6c-0.6,0-1.1-0.5-1.2-1.1c0-0.2,0.1-0.4,0.4-0.7c0.2-0.2,0.4-0.4,0.5-0.6
				c-0.6-0.4-1.1-1.1-1.2-1.8c0-0.5,0.4-0.9,0.9-0.9c0,0,0,0,0.1,0c0.3,0,0.5,0.1,0.6,0.4c0.1,0.2,0.3,0.4,0.5,0.6
				c0.1-0.8,0.1-1.7,0.1-2.7V5.4c-1.8,0.9-2.7,3.1-3,4.9c-0.1,0.5-0.1,1-1,1c-0.4,0-0.8-0.2-1-0.6c-0.3-1.2-0.4-2.4-0.3-3.6
				c-0.1-1.3,0.1-2.7,0.4-4c0.2-0.4,0.6-0.6,1-0.5c0.6,0,1,0.3,1,0.8c0,0.1-0.2,1.1-0.2,1.3s-0.1,0.8-0.1,0.9c0.6-1.2,1.7-2,3-2.4
				L20.7,2.7z M24,7.1c0-1.4-0.7-1.7-0.9-1.8c0.1,1.3,0,2.5-0.2,3.8C23.6,8.7,24.1,7.9,24,7.1z"/>
			<path class="st2" d="M41.3,6.9c-0.9,0.6-1.9,1-3,1c-1,0-2-0.3-2.8-0.9s-1.8-1-2.9-1c-0.7,0-1.3,0.2-1.8,0.6
				C30.4,6.9,30.3,7,29.9,7c-0.5,0-1-0.3-1-0.9V6c0-0.4,0.1-0.6,0.7-1c0.9-0.6,1.9-1,3-1s2.1,0.3,3,0.9c0.8,0.6,1.7,0.9,2.7,1
				c0.7,0,1.4-0.3,2-0.7c0.2-0.2,0.5-0.3,0.8-0.3c0.5,0,1,0.4,1,0.9C42,6.2,41.9,6.4,41.3,6.9z"/>
			<path class="st2" d="M53,7.1c0.1,1.3-0.2,2.6-1,3.6c-0.9,1.1-2.2,1.9-3.6,2.1c-0.7,0-1.2-0.6-1.2-1.3l0,0c0-0.7,0.5-0.9,1-1
				c0.6-0.2,1.2-0.6,1.6-1.1c-0.3,0.1-0.7,0.2-1,0.1c-1.6,0-2.8-1.3-2.8-2.8c0-0.1,0-0.1,0-0.2c0-1.7,1.3-3.1,3-3.1
				c0.1,0,0.2,0,0.3,0c0.4,0,0.7,0.1,1.1,0.2V3l-3.5,0.1c-0.3,0-1.7,0.1-2,0.1c-1.3,0-1.4-0.7-1.4-1.3c0-1.2,0.8-1.2,1.7-1.2h1.6
				l3.6-0.1V0.2c0-0.3,0-1.3,1.3-1.3S53-0.2,53,0.1v0.4h0.6c0.3,0,1.7-0.1,2-0.1c0.4,0,1.3,0,1.3,1.2S56,3,55.4,3H53V7.1z M49.4,5.5
				c-0.6,0-1,0.4-1,1v0.1c0,0.6,0.4,1,0.9,1c0,0,0,0,0.1,0c0.5,0,0.9-0.4,0.9-1.1C50.4,6,50,5.5,49.4,5.5
				C49.5,5.5,49.5,5.5,49.4,5.5z"/>
		</g>
	</g>
</g>
<g class="st3">
	<path class="st4" d="M1.3,3.9v0.9H0.4V3.9H1.3z M1.3,8.9v0.9H0.4V8.9H1.3z M2.3,0.9v0.9H1.4V0.9H2.3z M2.3,3.9v0.9H1.4V3.9H2.3z
		 M2.3,8.9v0.9H1.4V8.9H2.3z M3.3,0.9v0.9H2.4V0.9H3.3z M3.3,3.9v0.9H2.4V3.9H3.3z M3.3,7.9v0.9H2.4V7.9H3.3z M3.3,10.9v0.9H2.4
		v-0.9H3.3z M4.3-0.1v0.9H3.4v-0.9H4.3z M4.3,0.9v0.9H3.4V0.9H4.3z M4.3,1.9v0.9H3.4V1.9H4.3z M4.3,2.9v0.9H3.4V2.9H4.3z M4.3,3.9
		v0.9H3.4V3.9H4.3z M4.3,4.9v0.9H3.4V4.9H4.3z M4.3,5.9v0.9H3.4V5.9H4.3z M4.3,6.9v0.9H3.4V6.9H4.3z M4.3,7.9v0.9H3.4V7.9H4.3z
		 M4.3,8.9v0.9H3.4V8.9H4.3z M4.3,9.9v0.9H3.4V9.9H4.3z M4.3,10.9v0.9H3.4v-0.9H4.3z M5.3-0.1v0.9H4.4v-0.9H5.3z M5.3,3.9v0.9H4.4
		V3.9H5.3z M5.3,6.9v0.9H4.4V6.9H5.3z M6.3,3.9v0.9H5.4V3.9H6.3z M6.3,9.9v0.9H5.4V9.9H6.3z M7.3-0.1v0.9H6.4v-0.9H7.3z M7.3,0.9
		v0.9H6.4V0.9H7.3z M7.3,1.9v0.9H6.4V1.9H7.3z M7.3,2.9v0.9H6.4V2.9H7.3z M7.3,3.9v0.9H6.4V3.9H7.3z M7.3,4.9v0.9H6.4V4.9H7.3z
		 M7.3,5.9v0.9H6.4V5.9H7.3z M7.3,6.9v0.9H6.4V6.9H7.3z M7.3,8.9v0.9H6.4V8.9H7.3z M8.3,3.9v0.9H7.4V3.9H8.3z M8.3,7.9v0.9H7.4V7.9
		H8.3z M8.3,8.9v0.9H7.4V8.9H8.3z M9.3,3.9v0.9H8.4V3.9H9.3z M9.3,6.9v0.9H8.4V6.9H9.3z M9.3,9.9v0.9H8.4V9.9H9.3z M10.3,0.9v0.9
		H9.4V0.9H10.3z M10.3,3.9v0.9H9.4V3.9H10.3z M10.3,5.9v0.9H9.4V5.9H10.3z M10.3,10.9v0.9H9.4v-0.9H10.3z M11.3,1.9v0.9h-0.9V1.9
		H11.3z M11.3,3.9v0.9h-0.9V3.9H11.3z M11.3,8.9v0.9h-0.9V8.9H11.3z M11.3,9.9v0.9h-0.9V9.9H11.3z M11.3,10.9v0.9h-0.9v-0.9H11.3z"
		/>
	<path class="st4" d="M16.3,1.9v0.9h-0.9V1.9H16.3z M16.3,2.9v0.9h-0.9V2.9H16.3z M16.3,3.9v0.9h-0.9V3.9H16.3z M16.3,4.9v0.9h-0.9
		V4.9H16.3z M16.3,5.9v0.9h-0.9V5.9H16.3z M16.3,6.9v0.9h-0.9V6.9H16.3z M16.3,7.9v0.9h-0.9V7.9H16.3z M16.3,8.9v0.9h-0.9V8.9H16.3z
		 M16.3,9.9v0.9h-0.9V9.9H16.3z M16.3,10.9v0.9h-0.9v-0.9H16.3z M17.3,0.9v0.9h-0.9V0.9H17.3z M17.3,1.9v0.9h-0.9V1.9H17.3z
		 M17.3,5.9v0.9h-0.9V5.9H17.3z M17.3,9.9v0.9h-0.9V9.9H17.3z M18.3-0.1v0.9h-0.9v-0.9H18.3z M18.3,1.9v0.9h-0.9V1.9H18.3z
		 M18.3,5.9v0.9h-0.9V5.9H18.3z M18.3,9.9v0.9h-0.9V9.9H18.3z M19.3,1.9v0.9h-0.9V1.9H19.3z M19.3,5.9v0.9h-0.9V5.9H19.3z M19.3,9.9
		v0.9h-0.9V9.9H19.3z M20.3,1.9v0.9h-0.9V1.9H20.3z M20.3,2.9v0.9h-0.9V2.9H20.3z M20.3,3.9v0.9h-0.9V3.9H20.3z M20.3,4.9v0.9h-0.9
		V4.9H20.3z M20.3,5.9v0.9h-0.9V5.9H20.3z M20.3,6.9v0.9h-0.9V6.9H20.3z M20.3,7.9v0.9h-0.9V7.9H20.3z M20.3,8.9v0.9h-0.9V8.9H20.3z
		 M20.3,9.9v0.9h-0.9V9.9H20.3z M20.3,10.9v0.9h-0.9v-0.9H20.3z M21.3,3.9v0.9h-0.9V3.9H21.3z M22.3,2.9v0.9h-0.9V2.9H22.3z
		 M23.3-0.1v0.9h-0.9v-0.9H23.3z M23.3,0.9v0.9h-0.9V0.9H23.3z M23.3,1.9v0.9h-0.9V1.9H23.3z M23.3,4.9v0.9h-0.9V4.9H23.3z
		 M24.3,1.9v0.9h-0.9V1.9H24.3z M24.3,5.9v0.9h-0.9V5.9H24.3z M24.3,6.9v0.9h-0.9V6.9H24.3z M24.3,10.9v0.9h-0.9v-0.9H24.3z
		 M25.3,1.9v0.9h-0.9V1.9H25.3z M25.3,10.9v0.9h-0.9v-0.9H25.3z M26.3,1.9v0.9h-0.9V1.9H26.3z M26.3,2.9v0.9h-0.9V2.9H26.3z
		 M26.3,3.9v0.9h-0.9V3.9H26.3z M26.3,4.9v0.9h-0.9V4.9H26.3z M26.3,5.9v0.9h-0.9V5.9H26.3z M26.3,6.9v0.9h-0.9V6.9H26.3z M26.3,7.9
		v0.9h-0.9V7.9H26.3z M26.3,8.9v0.9h-0.9V8.9H26.3z M26.3,9.9v0.9h-0.9V9.9H26.3z"/>
	<path class="st4" d="M31.3,1.9v0.9h-0.9V1.9H31.3z M32.3-0.1v0.9h-0.9v-0.9H32.3z M32.3,0.9v0.9h-0.9V0.9H32.3z M32.3,2.9v0.9h-0.9
		V2.9H32.3z M32.3,5.9v0.9h-0.9V5.9H32.3z M32.3,6.9v0.9h-0.9V6.9H32.3z M32.3,7.9v0.9h-0.9V7.9H32.3z M32.3,8.9v0.9h-0.9V8.9H32.3z
		 M32.3,9.9v0.9h-0.9V9.9H32.3z M32.3,10.9v0.9h-0.9v-0.9H32.3z M33.3,0.9v0.9h-0.9V0.9H33.3z M33.3,3.9v0.9h-0.9V3.9H33.3z
		 M34.3,0.9v0.9h-0.9V0.9H34.3z M34.3,1.9v0.9h-0.9V1.9H34.3z M34.3,4.9v0.9h-0.9V4.9H34.3z M34.3,5.9v0.9h-0.9V5.9H34.3z M34.3,6.9
		v0.9h-0.9V6.9H34.3z M34.3,7.9v0.9h-0.9V7.9H34.3z M34.3,8.9v0.9h-0.9V8.9H34.3z M35.3,0.9v0.9h-0.9V0.9H35.3z M35.3,2.9v0.9h-0.9
		V2.9H35.3z M35.3,4.9v0.9h-0.9V4.9H35.3z M35.3,6.9v0.9h-0.9V6.9H35.3z M35.3,8.9v0.9h-0.9V8.9H35.3z M36.3,1.9v0.9h-0.9V1.9H36.3z
		 M36.3,2.9v0.9h-0.9V2.9H36.3z M36.3,4.9v0.9h-0.9V4.9H36.3z M36.3,6.9v0.9h-0.9V6.9H36.3z M36.3,8.9v0.9h-0.9V8.9H36.3z M37.3-0.1
		v0.9h-0.9v-0.9H37.3z M37.3,0.9v0.9h-0.9V0.9H37.3z M37.3,2.9v0.9h-0.9V2.9H37.3z M37.3,4.9v0.9h-0.9V4.9H37.3z M37.3,6.9v0.9h-0.9
		V6.9H37.3z M37.3,8.9v0.9h-0.9V8.9H37.3z M38.3,0.9v0.9h-0.9V0.9H38.3z M38.3,2.9v0.9h-0.9V2.9H38.3z M38.3,4.9v0.9h-0.9V4.9H38.3z
		 M38.3,5.9v0.9h-0.9V5.9H38.3z M38.3,6.9v0.9h-0.9V6.9H38.3z M38.3,7.9v0.9h-0.9V7.9H38.3z M38.3,8.9v0.9h-0.9V8.9H38.3z
		 M38.3,10.9v0.9h-0.9v-0.9H38.3z M39.3,0.9v0.9h-0.9V0.9H39.3z M39.3,1.9v0.9h-0.9V1.9H39.3z M39.3,2.9v0.9h-0.9V2.9H39.3z
		 M39.3,10.9v0.9h-0.9v-0.9H39.3z M40.3,0.9v0.9h-0.9V0.9H40.3z M40.3,2.9v0.9h-0.9V2.9H40.3z M40.3,3.9v0.9h-0.9V3.9H40.3z
		 M40.3,4.9v0.9h-0.9V4.9H40.3z M40.3,5.9v0.9h-0.9V5.9H40.3z M40.3,6.9v0.9h-0.9V6.9H40.3z M40.3,7.9v0.9h-0.9V7.9H40.3z M40.3,8.9
		v0.9h-0.9V8.9H40.3z M40.3,9.9v0.9h-0.9V9.9H40.3z M40.3,10.9v0.9h-0.9v-0.9H40.3z M41.3,0.9v0.9h-0.9V0.9H41.3z"/>
	<path class="st4" d="M46.3,10.9v0.9h-0.9v-0.9H46.3z M47.3,0.9v0.9h-0.9V0.9H47.3z M47.3,1.9v0.9h-0.9V1.9H47.3z M47.3,2.9v0.9
		h-0.9V2.9H47.3z M47.3,3.9v0.9h-0.9V3.9H47.3z M47.3,4.9v0.9h-0.9V4.9H47.3z M47.3,5.9v0.9h-0.9V5.9H47.3z M47.3,6.9v0.9h-0.9V6.9
		H47.3z M47.3,7.9v0.9h-0.9V7.9H47.3z M47.3,8.9v0.9h-0.9V8.9H47.3z M47.3,9.9v0.9h-0.9V9.9H47.3z M48.3,0.9v0.9h-0.9V0.9H48.3z
		 M48.3,10.9v0.9h-0.9v-0.9H48.3z M49.3,0.9v0.9h-0.9V0.9H49.3z M49.3,3.9v0.9h-0.9V3.9H49.3z M49.3,9.9v0.9h-0.9V9.9H49.3z
		 M50.3,0.9v0.9h-0.9V0.9H50.3z M50.3,3.9v0.9h-0.9V3.9H50.3z M50.3,7.9v0.9h-0.9V7.9H50.3z M50.3,8.9v0.9h-0.9V8.9H50.3z M51.3,0.9
		v0.9h-0.9V0.9H51.3z M51.3,1.9v0.9h-0.9V1.9H51.3z M51.3,2.9v0.9h-0.9V2.9H51.3z M51.3,3.9v0.9h-0.9V3.9H51.3z M51.3,4.9v0.9h-0.9
		V4.9H51.3z M51.3,5.9v0.9h-0.9V5.9H51.3z M51.3,6.9v0.9h-0.9V6.9H51.3z M52.3,0.9v0.9h-0.9V0.9H52.3z M52.3,3.9v0.9h-0.9V3.9H52.3z
		 M52.3,10.9v0.9h-0.9v-0.9H52.3z M53.3,0.9v0.9h-0.9V0.9H53.3z M53.3,3.9v0.9h-0.9V3.9H53.3z M53.3,10.9v0.9h-0.9v-0.9H53.3z
		 M54.3,0.9v0.9h-0.9V0.9H54.3z M54.3,3.9v0.9h-0.9V3.9H54.3z M54.3,10.9v0.9h-0.9v-0.9H54.3z M55.3,0.9v0.9h-0.9V0.9H55.3z
		 M55.3,3.9v0.9h-0.9V3.9H55.3z M55.3,4.9v0.9h-0.9V4.9H55.3z M55.3,5.9v0.9h-0.9V5.9H55.3z M55.3,6.9v0.9h-0.9V6.9H55.3z M55.3,7.9
		v0.9h-0.9V7.9H55.3z M55.3,8.9v0.9h-0.9V8.9H55.3z M55.3,9.9v0.9h-0.9V9.9H55.3z M56.3,0.9v0.9h-0.9V0.9H56.3z"/>
</g>
<g id="efAhZj.tif" class="st0">
	
		<image style="display:inline;overflow:visible;enable-background:new    ;" width="702" height="362" id="Layer_0" xlink:href="861DB3E7213C8A6C.png"  transform="matrix(1 0 0 1 -323 -175.1903)">
	</image>
</g>
<g class="st0">
	<path class="st5" d="M1.4,5.9v0.9H0.5V5.9H1.4z M1.4,10.9v0.9H0.5v-0.9H1.4z M2.4,2.9v0.9H1.5V2.9H2.4z M2.4,5.9v0.9H1.5V5.9H2.4z
		 M2.4,10.9v0.9H1.5v-0.9H2.4z M3.4-0.1v0.9H2.5v-0.9H3.4z M3.4,2.9v0.9H2.5V2.9H3.4z M3.4,5.9v0.9H2.5V5.9H3.4z M3.4,9.9v0.9H2.5
		V9.9H3.4z M4.4,0.9v0.9H3.5V0.9H4.4z M4.4,2.9v0.9H3.5V2.9H4.4z M4.4,5.9v0.9H3.5V5.9H4.4z M4.4,8.9v0.9H3.5V8.9H4.4z M5.4,2.9v0.9
		H4.5V2.9H5.4z M5.4,5.9v0.9H4.5V5.9H5.4z M5.4,7.9v0.9H4.5V7.9H5.4z M6.4,2.9v0.9H5.5V2.9H6.4z M6.4,3.9v0.9H5.5V3.9H6.4z M6.4,4.9
		v0.9H5.5V4.9H6.4z M6.4,5.9v0.9H5.5V5.9H6.4z M6.4,6.9v0.9H5.5V6.9H6.4z M7.4,2.9v0.9H6.5V2.9H7.4z M7.4,5.9v0.9H6.5V5.9H7.4z
		 M7.4,7.9v0.9H6.5V7.9H7.4z M8.4,0.9v0.9H7.5V0.9H8.4z M8.4,2.9v0.9H7.5V2.9H8.4z M8.4,5.9v0.9H7.5V5.9H8.4z M8.4,8.9v0.9H7.5V8.9
		H8.4z M9.4-0.1v0.9H8.5v-0.9H9.4z M9.4,2.9v0.9H8.5V2.9H9.4z M9.4,5.9v0.9H8.5V5.9H9.4z M9.4,9.9v0.9H8.5V9.9H9.4z M10.4,2.9v0.9
		H9.5V2.9H10.4z M10.4,5.9v0.9H9.5V5.9H10.4z M10.4,10.9v0.9H9.5v-0.9H10.4z M11.4,5.9v0.9h-0.9V5.9H11.4z M11.4,10.9v0.9h-0.9v-0.9
		H11.4z"/>
	<path class="st5" d="M16.1,4.9v0.9h-0.9V4.9H16.1z M17.1-0.1v0.9h-0.9v-0.9H17.1z M17.1,4.9v0.9h-0.9V4.9H17.1z M18.1-0.1v0.9h-0.9
		v-0.9H18.1z M18.1,4.9v0.9h-0.9V4.9H18.1z M19.1-0.1v0.9h-0.9v-0.9H19.1z M19.1,4.9v0.9h-0.9V4.9H19.1z M19.1,10.9v0.9h-0.9v-0.9
		H19.1z M20.1-0.1v0.9h-0.9v-0.9H20.1z M20.1,4.9v0.9h-0.9V4.9H20.1z M20.1,10.9v0.9h-0.9v-0.9H20.1z M21.1-0.1v0.9h-0.9v-0.9H21.1z
		 M21.1,0.9v0.9h-0.9V0.9H21.1z M21.1,1.9v0.9h-0.9V1.9H21.1z M21.1,2.9v0.9h-0.9V2.9H21.1z M21.1,3.9v0.9h-0.9V3.9H21.1z M21.1,4.9
		v0.9h-0.9V4.9H21.1z M21.1,5.9v0.9h-0.9V5.9H21.1z M21.1,6.9v0.9h-0.9V6.9H21.1z M21.1,7.9v0.9h-0.9V7.9H21.1z M21.1,8.9v0.9h-0.9
		V8.9H21.1z M21.1,9.9v0.9h-0.9V9.9H21.1z M21.1,10.9v0.9h-0.9v-0.9H21.1z M22.1-0.1v0.9h-0.9v-0.9H22.1z M22.1,4.9v0.9h-0.9V4.9
		H22.1z M23.1-0.1v0.9h-0.9v-0.9H23.1z M23.1,4.9v0.9h-0.9V4.9H23.1z M24.1-0.1v0.9h-0.9v-0.9H24.1z M24.1,4.9v0.9h-0.9V4.9H24.1z
		 M25.1-0.1v0.9h-0.9v-0.9H25.1z M25.1,4.9v0.9h-0.9V4.9H25.1z M26.1,4.9v0.9h-0.9V4.9H26.1z"/>
	<path class="st5" d="M30.9-0.1v0.9H30v-0.9H30.9z M30.9,0.9v0.9H30V0.9H30.9z M30.9,1.9v0.9H30V1.9H30.9z M30.9,2.9v0.9H30V2.9
		H30.9z M30.9,3.9v0.9H30V3.9H30.9z M30.9,4.9v0.9H30V4.9H30.9z M30.9,5.9v0.9H30V5.9H30.9z M30.9,6.9v0.9H30V6.9H30.9z M30.9,7.9
		v0.9H30V7.9H30.9z M30.9,8.9v0.9H30V8.9H30.9z M30.9,9.9v0.9H30V9.9H30.9z M30.9,10.9v0.9H30v-0.9H30.9z M31.9-0.1v0.9H31v-0.9
		H31.9z M31.9,2.9v0.9H31V2.9H31.9z M31.9,7.9v0.9H31V7.9H31.9z M32.9-0.1v0.9H32v-0.9H32.9z M32.9,3.9v0.9H32V3.9H32.9z M32.9,6.9
		v0.9H32V6.9H32.9z M33.9-0.1v0.9H33v-0.9H33.9z M33.9,4.9v0.9H33V4.9H33.9z M33.9,5.9v0.9H33V5.9H33.9z M34.9-0.1v0.9H34v-0.9H34.9
		z M34.9,3.9v0.9H34V3.9H34.9z M34.9,6.9v0.9H34V6.9H34.9z M35.9-0.1v0.9H35v-0.9H35.9z M35.9,2.9v0.9H35V2.9H35.9z M35.9,7.9v0.9
		H35V7.9H35.9z M36.9-0.1v0.9H36v-0.9H36.9z M36.9,3.9v0.9H36V3.9H36.9z M36.9,6.9v0.9H36V6.9H36.9z M37.9-0.1v0.9H37v-0.9H37.9z
		 M37.9,4.9v0.9H37V4.9H37.9z M37.9,5.9v0.9H37V5.9H37.9z M38.9-0.1v0.9H38v-0.9H38.9z M38.9,3.9v0.9H38V3.9H38.9z M38.9,6.9v0.9H38
		V6.9H38.9z M38.9,10.9v0.9H38v-0.9H38.9z M39.9-0.1v0.9H39v-0.9H39.9z M39.9,2.9v0.9H39V2.9H39.9z M39.9,7.9v0.9H39V7.9H39.9z
		 M39.9,10.9v0.9H39v-0.9H39.9z M40.9-0.1v0.9H40v-0.9H40.9z M40.9,0.9v0.9H40V0.9H40.9z M40.9,1.9v0.9H40V1.9H40.9z M40.9,2.9v0.9
		H40V2.9H40.9z M40.9,3.9v0.9H40V3.9H40.9z M40.9,4.9v0.9H40V4.9H40.9z M40.9,5.9v0.9H40V5.9H40.9z M40.9,6.9v0.9H40V6.9H40.9z
		 M40.9,7.9v0.9H40V7.9H40.9z M40.9,8.9v0.9H40V8.9H40.9z M40.9,9.9v0.9H40V9.9H40.9z M40.9,10.9v0.9H40v-0.9H40.9z"/>
	<path class="st5" d="M45.6,2.9v0.9h-0.9V2.9H45.6z M45.6,4.9v0.9h-0.9V4.9H45.6z M45.6,9.9v0.9h-0.9V9.9H45.6z M46.6-0.1v0.9h-0.9
		v-0.9H46.6z M46.6,2.9v0.9h-0.9V2.9H46.6z M46.6,5.9v0.9h-0.9V5.9H46.6z M46.6,6.9v0.9h-0.9V6.9H46.6z M46.6,9.9v0.9h-0.9V9.9H46.6
		z M47.6,0.9v0.9h-0.9V0.9H47.6z M47.6,2.9v0.9h-0.9V2.9H47.6z M47.6,7.9v0.9h-0.9V7.9H47.6z M47.6,8.9v0.9h-0.9V8.9H47.6z
		 M48.6,2.9v0.9h-0.9V2.9H48.6z M48.6,4.9v0.9h-0.9V4.9H48.6z M48.6,5.9v0.9h-0.9V5.9H48.6z M48.6,6.9v0.9h-0.9V6.9H48.6z M48.6,8.9
		v0.9h-0.9V8.9H48.6z M49.6,2.9v0.9h-0.9V2.9H49.6z M50.6,5.9v0.9h-0.9V5.9H50.6z M50.6,6.9v0.9h-0.9V6.9H50.6z M50.6,7.9v0.9h-0.9
		V7.9H50.6z M50.6,8.9v0.9h-0.9V8.9H50.6z M50.6,9.9v0.9h-0.9V9.9H50.6z M50.6,10.9v0.9h-0.9v-0.9H50.6z M51.6,5.9v0.9h-0.9V5.9
		H51.6z M51.6,9.9v0.9h-0.9V9.9H51.6z M52.6-0.1v0.9h-0.9v-0.9H52.6z M52.6,0.9v0.9h-0.9V0.9H52.6z M52.6,1.9v0.9h-0.9V1.9H52.6z
		 M52.6,2.9v0.9h-0.9V2.9H52.6z M52.6,3.9v0.9h-0.9V3.9H52.6z M52.6,4.9v0.9h-0.9V4.9H52.6z M52.6,5.9v0.9h-0.9V5.9H52.6z M52.6,9.9
		v0.9h-0.9V9.9H52.6z M53.6,2.9v0.9h-0.9V2.9H53.6z M53.6,5.9v0.9h-0.9V5.9H53.6z M53.6,9.9v0.9h-0.9V9.9H53.6z M54.6,2.9v0.9h-0.9
		V2.9H54.6z M54.6,5.9v0.9h-0.9V5.9H54.6z M54.6,9.9v0.9h-0.9V9.9H54.6z M55.6,2.9v0.9h-0.9V2.9H55.6z M55.6,5.9v0.9h-0.9V5.9H55.6z
		 M55.6,6.9v0.9h-0.9V6.9H55.6z M55.6,7.9v0.9h-0.9V7.9H55.6z M55.6,8.9v0.9h-0.9V8.9H55.6z M55.6,9.9v0.9h-0.9V9.9H55.6z
		 M55.6,10.9v0.9h-0.9v-0.9H55.6z"/>
</g>
<g class="st0">
	<path class="st6" d="M1.7,1.9v0.9H0.8V1.9H1.7z M1.7,10.9v0.9H0.8v-0.9H1.7z M2.7,1.9v0.9H1.8V1.9H2.7z M2.7,5.9v0.9H1.8V5.9H2.7z
		 M2.7,10.9v0.9H1.8v-0.9H2.7z M3.7,1.9v0.9H2.8V1.9H3.7z M3.7,4.9v0.9H2.8V4.9H3.7z M3.7,9.9v0.9H2.8V9.9H3.7z M4.7,1.9v0.9H3.8
		V1.9H4.7z M4.7,3.9v0.9H3.8V3.9H4.7z M4.7,5.9v0.9H3.8V5.9H4.7z M4.7,9.9v0.9H3.8V9.9H4.7z M5.7-0.1v0.9H4.8v-0.9H5.7z M5.7,1.9
		v0.9H4.8V1.9H5.7z M5.7,6.9v0.9H4.8V6.9H5.7z M5.7,8.9v0.9H4.8V8.9H5.7z M6.7,0.9v0.9H5.8V0.9H6.7z M6.7,1.9v0.9H5.8V1.9H6.7z
		 M6.7,7.9v0.9H5.8V7.9H6.7z M7.7,1.9v0.9H6.8V1.9H7.7z M7.7,6.9v0.9H6.8V6.9H7.7z M7.7,8.9v0.9H6.8V8.9H7.7z M8.7,1.9v0.9H7.8V1.9
		H8.7z M8.7,3.9v0.9H7.8V3.9H8.7z M8.7,5.9v0.9H7.8V5.9H8.7z M8.7,9.9v0.9H7.8V9.9H8.7z M9.7,1.9v0.9H8.8V1.9H9.7z M9.7,4.9v0.9H8.8
		V4.9H9.7z M9.7,9.9v0.9H8.8V9.9H9.7z M10.7,1.9v0.9H9.8V1.9H10.7z M10.7,5.9v0.9H9.8V5.9H10.7z M10.7,10.9v0.9H9.8v-0.9H10.7z
		 M11.7,1.9v0.9h-0.9V1.9H11.7z M11.7,10.9v0.9h-0.9v-0.9H11.7z"/>
	<path class="st6" d="M16.5,0.9v0.9h-0.9V0.9H16.5z M16.5,10.9v0.9h-0.9v-0.9H16.5z M17.5,0.9v0.9h-0.9V0.9H17.5z M17.5,5.9v0.9
		h-0.9V5.9H17.5z M17.5,6.9v0.9h-0.9V6.9H17.5z M17.5,7.9v0.9h-0.9V7.9H17.5z M17.5,10.9v0.9h-0.9v-0.9H17.5z M18.5,0.9v0.9h-0.9
		V0.9H18.5z M18.5,1.9v0.9h-0.9V1.9H18.5z M18.5,2.9v0.9h-0.9V2.9H18.5z M18.5,3.9v0.9h-0.9V3.9H18.5z M18.5,4.9v0.9h-0.9V4.9H18.5z
		 M18.5,7.9v0.9h-0.9V7.9H18.5z M18.5,10.9v0.9h-0.9v-0.9H18.5z M19.5,0.9v0.9h-0.9V0.9H19.5z M19.5,3.9v0.9h-0.9V3.9H19.5z
		 M19.5,7.9v0.9h-0.9V7.9H19.5z M19.5,10.9v0.9h-0.9v-0.9H19.5z M20.5,0.9v0.9h-0.9V0.9H20.5z M20.5,3.9v0.9h-0.9V3.9H20.5z
		 M20.5,7.9v0.9h-0.9V7.9H20.5z M20.5,10.9v0.9h-0.9v-0.9H20.5z M21.5,0.9v0.9h-0.9V0.9H21.5z M21.5,3.9v0.9h-0.9V3.9H21.5z
		 M21.5,7.9v0.9h-0.9V7.9H21.5z M21.5,10.9v0.9h-0.9v-0.9H21.5z M22.5,0.9v0.9h-0.9V0.9H22.5z M22.5,3.9v0.9h-0.9V3.9H22.5z
		 M22.5,7.9v0.9h-0.9V7.9H22.5z M22.5,10.9v0.9h-0.9v-0.9H22.5z M23.5,0.9v0.9h-0.9V0.9H23.5z M23.5,3.9v0.9h-0.9V3.9H23.5z
		 M23.5,7.9v0.9h-0.9V7.9H23.5z M23.5,8.9v0.9h-0.9V8.9H23.5z M23.5,9.9v0.9h-0.9V9.9H23.5z M23.5,10.9v0.9h-0.9v-0.9H23.5z
		 M24.5,0.9v0.9h-0.9V0.9H24.5z M24.5,3.9v0.9h-0.9V3.9H24.5z M24.5,4.9v0.9h-0.9V4.9H24.5z M24.5,5.9v0.9h-0.9V5.9H24.5z M24.5,6.9
		v0.9h-0.9V6.9H24.5z M24.5,10.9v0.9h-0.9v-0.9H24.5z M25.5,0.9v0.9h-0.9V0.9H25.5z M25.5,10.9v0.9h-0.9v-0.9H25.5z M26.5,0.9v0.9
		h-0.9V0.9H26.5z M26.5,10.9v0.9h-0.9v-0.9H26.5z"/>
	<path class="st6" d="M31.3,4.9v0.9h-0.9V4.9H31.3z M32.3,3.9v0.9h-0.9V3.9H32.3z M33.3,1.9v0.9h-0.9V1.9H33.3z M33.3,2.9v0.9h-0.9
		V2.9H33.3z M33.3,3.9v0.9h-0.9V3.9H33.3z M33.3,4.9v0.9h-0.9V4.9H33.3z M33.3,5.9v0.9h-0.9V5.9H33.3z M33.3,6.9v0.9h-0.9V6.9H33.3z
		 M33.3,7.9v0.9h-0.9V7.9H33.3z M33.3,8.9v0.9h-0.9V8.9H33.3z M33.3,9.9v0.9h-0.9V9.9H33.3z M33.3,10.9v0.9h-0.9v-0.9H33.3z
		 M34.3-0.1v0.9h-0.9v-0.9H34.3z M34.3,0.9v0.9h-0.9V0.9H34.3z M35.3,2.9v0.9h-0.9V2.9H35.3z M36.3-0.1v0.9h-0.9v-0.9H36.3z
		 M36.3,0.9v0.9h-0.9V0.9H36.3z M36.3,1.9v0.9h-0.9V1.9H36.3z M37.3,1.9v0.9h-0.9V1.9H37.3z M37.3,2.9v0.9h-0.9V2.9H37.3z M37.3,3.9
		v0.9h-0.9V3.9H37.3z M37.3,4.9v0.9h-0.9V4.9H37.3z M37.3,5.9v0.9h-0.9V5.9H37.3z M37.3,6.9v0.9h-0.9V6.9H37.3z M37.3,7.9v0.9h-0.9
		V7.9H37.3z M37.3,8.9v0.9h-0.9V8.9H37.3z M37.3,9.9v0.9h-0.9V9.9H37.3z M37.3,10.9v0.9h-0.9v-0.9H37.3z M38.3,1.9v0.9h-0.9V1.9
		H38.3z M38.3,4.9v0.9h-0.9V4.9H38.3z M38.3,7.9v0.9h-0.9V7.9H38.3z M39.3,1.9v0.9h-0.9V1.9H39.3z M39.3,4.9v0.9h-0.9V4.9H39.3z
		 M39.3,7.9v0.9h-0.9V7.9H39.3z M40.3,1.9v0.9h-0.9V1.9H40.3z M40.3,4.9v0.9h-0.9V4.9H40.3z M40.3,7.9v0.9h-0.9V7.9H40.3z M41.3,1.9
		v0.9h-0.9V1.9H41.3z M41.3,7.9v0.9h-0.9V7.9H41.3z"/>
	<path class="st6" d="M46,5.9v0.9h-0.9V5.9H46z M46,6.9v0.9h-0.9V6.9H46z M46,7.9v0.9h-0.9V7.9H46z M46,8.9v0.9h-0.9V8.9H46z
		 M46,9.9v0.9h-0.9V9.9H46z M46,10.9v0.9h-0.9v-0.9H46z M47,5.9v0.9h-0.9V5.9H47z M47,9.9v0.9h-0.9V9.9H47z M48-0.1v0.9h-0.9v-0.9
		H48z M48,0.9v0.9h-0.9V0.9H48z M48,1.9v0.9h-0.9V1.9H48z M48,2.9v0.9h-0.9V2.9H48z M48,3.9v0.9h-0.9V3.9H48z M48,5.9v0.9h-0.9V5.9
		H48z M48,9.9v0.9h-0.9V9.9H48z M49-0.1v0.9h-0.9v-0.9H49z M49,3.9v0.9h-0.9V3.9H49z M49,5.9v0.9h-0.9V5.9H49z M49,9.9v0.9h-0.9V9.9
		H49z M50-0.1v0.9h-0.9v-0.9H50z M50,3.9v0.9h-0.9V3.9H50z M50,5.9v0.9h-0.9V5.9H50z M50,6.9v0.9h-0.9V6.9H50z M50,7.9v0.9h-0.9V7.9
		H50z M50,8.9v0.9h-0.9V8.9H50z M50,9.9v0.9h-0.9V9.9H50z M50,10.9v0.9h-0.9v-0.9H50z M51-0.1v0.9h-0.9v-0.9H51z M51,3.9v0.9h-0.9
		V3.9H51z M52-0.1v0.9h-0.9v-0.9H52z M52,3.9v0.9h-0.9V3.9H52z M52,5.9v0.9h-0.9V5.9H52z M52,6.9v0.9h-0.9V6.9H52z M52,7.9v0.9h-0.9
		V7.9H52z M52,8.9v0.9h-0.9V8.9H52z M52,9.9v0.9h-0.9V9.9H52z M52,10.9v0.9h-0.9v-0.9H52z M53-0.1v0.9h-0.9v-0.9H53z M53,3.9v0.9
		h-0.9V3.9H53z M53,5.9v0.9h-0.9V5.9H53z M53,9.9v0.9h-0.9V9.9H53z M54-0.1v0.9h-0.9v-0.9H54z M54,0.9v0.9h-0.9V0.9H54z M54,1.9v0.9
		h-0.9V1.9H54z M54,2.9v0.9h-0.9V2.9H54z M54,3.9v0.9h-0.9V3.9H54z M54,5.9v0.9h-0.9V5.9H54z M54,9.9v0.9h-0.9V9.9H54z M55,5.9v0.9
		h-0.9V5.9H55z M55,9.9v0.9h-0.9V9.9H55z M56,5.9v0.9h-0.9V5.9H56z M56,6.9v0.9h-0.9V6.9H56z M56,7.9v0.9h-0.9V7.9H56z M56,8.9v0.9
		h-0.9V8.9H56z M56,9.9v0.9h-0.9V9.9H56z M56,10.9v0.9h-0.9v-0.9H56z"/>
</g>
<g class="st0">
	<path class="st1" d="M1.6,1.9v0.9H0.7V1.9H1.6z M1.6,7.9v0.9H0.7V7.9H1.6z M2.6,1.9v0.9H1.7V1.9H2.6z M2.6,7.9v0.9H1.7V7.9H2.6z
		 M2.6,10.9v0.9H1.7v-0.9H2.6z M3.6-0.1v0.9H2.7v-0.9H3.6z M3.6,0.9v0.9H2.7V0.9H3.6z M3.6,1.9v0.9H2.7V1.9H3.6z M3.6,2.9v0.9H2.7
		V2.9H3.6z M3.6,3.9v0.9H2.7V3.9H3.6z M3.6,4.9v0.9H2.7V4.9H3.6z M3.6,5.9v0.9H2.7V5.9H3.6z M3.6,6.9v0.9H2.7V6.9H3.6z M3.6,7.9v0.9
		H2.7V7.9H3.6z M3.6,9.9v0.9H2.7V9.9H3.6z M4.6,1.9v0.9H3.7V1.9H4.6z M4.6,3.9v0.9H3.7V3.9H4.6z M4.6,5.9v0.9H3.7V5.9H4.6z M4.6,7.9
		v0.9H3.7V7.9H4.6z M5.6,1.9v0.9H4.7V1.9H5.6z M5.6,3.9v0.9H4.7V3.9H5.6z M5.6,5.9v0.9H4.7V5.9H5.6z M5.6,7.9v0.9H4.7V7.9H5.6z
		 M6.6,1.9v0.9H5.7V1.9H6.6z M6.6,3.9v0.9H5.7V3.9H6.6z M6.6,5.9v0.9H5.7V5.9H6.6z M6.6,7.9v0.9H5.7V7.9H6.6z M7.6,1.9v0.9H6.7V1.9
		H7.6z M7.6,3.9v0.9H6.7V3.9H7.6z M7.6,5.9v0.9H6.7V5.9H7.6z M7.6,7.9v0.9H6.7V7.9H7.6z M8.6,1.9v0.9H7.7V1.9H8.6z M8.6,3.9v0.9H7.7
		V3.9H8.6z M8.6,5.9v0.9H7.7V5.9H8.6z M8.6,7.9v0.9H7.7V7.9H8.6z M9.6-0.1v0.9H8.7v-0.9H9.6z M9.6,0.9v0.9H8.7V0.9H9.6z M9.6,1.9
		v0.9H8.7V1.9H9.6z M9.6,2.9v0.9H8.7V2.9H9.6z M9.6,3.9v0.9H8.7V3.9H9.6z M9.6,4.9v0.9H8.7V4.9H9.6z M9.6,5.9v0.9H8.7V5.9H9.6z
		 M9.6,6.9v0.9H8.7V6.9H9.6z M9.6,7.9v0.9H8.7V7.9H9.6z M9.6,9.9v0.9H8.7V9.9H9.6z M10.6,1.9v0.9H9.7V1.9H10.6z M10.6,7.9v0.9H9.7
		V7.9H10.6z M10.6,10.9v0.9H9.7v-0.9H10.6z M11.6,1.9v0.9h-0.9V1.9H11.6z M11.6,7.9v0.9h-0.9V7.9H11.6z"/>
	<path class="st1" d="M16.4,4.9v0.9h-0.9V4.9H16.4z M17.4,3.9v0.9h-0.9V3.9H17.4z M18.4,1.9v0.9h-0.9V1.9H18.4z M18.4,2.9v0.9h-0.9
		V2.9H18.4z M18.4,3.9v0.9h-0.9V3.9H18.4z M18.4,4.9v0.9h-0.9V4.9H18.4z M18.4,5.9v0.9h-0.9V5.9H18.4z M18.4,6.9v0.9h-0.9V6.9H18.4z
		 M18.4,7.9v0.9h-0.9V7.9H18.4z M18.4,8.9v0.9h-0.9V8.9H18.4z M18.4,9.9v0.9h-0.9V9.9H18.4z M18.4,10.9v0.9h-0.9v-0.9H18.4z
		 M19.4-0.1v0.9h-0.9v-0.9H19.4z M19.4,0.9v0.9h-0.9V0.9H19.4z M20.4,4.9v0.9h-0.9V4.9H20.4z M21.4,1.9v0.9h-0.9V1.9H21.4z
		 M21.4,2.9v0.9h-0.9V2.9H21.4z M21.4,3.9v0.9h-0.9V3.9H21.4z M21.4,4.9v0.9h-0.9V4.9H21.4z M21.4,5.9v0.9h-0.9V5.9H21.4z M21.4,6.9
		v0.9h-0.9V6.9H21.4z M21.4,7.9v0.9h-0.9V7.9H21.4z M21.4,8.9v0.9h-0.9V8.9H21.4z M21.4,9.9v0.9h-0.9V9.9H21.4z M22.4,3.9v0.9h-0.9
		V3.9H22.4z M22.4,10.9v0.9h-0.9v-0.9H22.4z M23.4-0.1v0.9h-0.9v-0.9H23.4z M23.4,0.9v0.9h-0.9V0.9H23.4z M23.4,1.9v0.9h-0.9V1.9
		H23.4z M23.4,2.9v0.9h-0.9V2.9H23.4z M23.4,3.9v0.9h-0.9V3.9H23.4z M23.4,4.9v0.9h-0.9V4.9H23.4z M23.4,5.9v0.9h-0.9V5.9H23.4z
		 M23.4,6.9v0.9h-0.9V6.9H23.4z M23.4,7.9v0.9h-0.9V7.9H23.4z M23.4,10.9v0.9h-0.9v-0.9H23.4z M24.4,2.9v0.9h-0.9V2.9H24.4z
		 M24.4,10.9v0.9h-0.9v-0.9H24.4z M25.4,1.9v0.9h-0.9V1.9H25.4z M25.4,6.9v0.9h-0.9V6.9H25.4z M25.4,10.9v0.9h-0.9v-0.9H25.4z
		 M26.4,1.9v0.9h-0.9V1.9H26.4z M26.4,2.9v0.9h-0.9V2.9H26.4z M26.4,3.9v0.9h-0.9V3.9H26.4z M26.4,4.9v0.9h-0.9V4.9H26.4z M26.4,5.9
		v0.9h-0.9V5.9H26.4z M26.4,6.9v0.9h-0.9V6.9H26.4z M26.4,8.9v0.9h-0.9V8.9H26.4z M26.4,9.9v0.9h-0.9V9.9H26.4z M26.4,10.9v0.9h-0.9
		v-0.9H26.4z"/>
	<path class="st1" d="M31.2,4.9v0.9h-0.9V4.9H31.2z M32.2,3.9v0.9h-0.9V3.9H32.2z M33.2,1.9v0.9h-0.9V1.9H33.2z M33.2,2.9v0.9h-0.9
		V2.9H33.2z M33.2,3.9v0.9h-0.9V3.9H33.2z M33.2,4.9v0.9h-0.9V4.9H33.2z M33.2,5.9v0.9h-0.9V5.9H33.2z M33.2,6.9v0.9h-0.9V6.9H33.2z
		 M33.2,7.9v0.9h-0.9V7.9H33.2z M33.2,8.9v0.9h-0.9V8.9H33.2z M33.2,9.9v0.9h-0.9V9.9H33.2z M33.2,10.9v0.9h-0.9v-0.9H33.2z
		 M34.2-0.1v0.9h-0.9v-0.9H34.2z M34.2,0.9v0.9h-0.9V0.9H34.2z M35.2,2.9v0.9h-0.9V2.9H35.2z M36.2-0.1v0.9h-0.9v-0.9H36.2z
		 M36.2,0.9v0.9h-0.9V0.9H36.2z M36.2,1.9v0.9h-0.9V1.9H36.2z M37.2,1.9v0.9h-0.9V1.9H37.2z M37.2,2.9v0.9h-0.9V2.9H37.2z M37.2,3.9
		v0.9h-0.9V3.9H37.2z M37.2,4.9v0.9h-0.9V4.9H37.2z M37.2,5.9v0.9h-0.9V5.9H37.2z M37.2,6.9v0.9h-0.9V6.9H37.2z M37.2,7.9v0.9h-0.9
		V7.9H37.2z M37.2,8.9v0.9h-0.9V8.9H37.2z M37.2,9.9v0.9h-0.9V9.9H37.2z M37.2,10.9v0.9h-0.9v-0.9H37.2z M38.2,1.9v0.9h-0.9V1.9
		H38.2z M38.2,4.9v0.9h-0.9V4.9H38.2z M38.2,7.9v0.9h-0.9V7.9H38.2z M39.2,1.9v0.9h-0.9V1.9H39.2z M39.2,4.9v0.9h-0.9V4.9H39.2z
		 M39.2,7.9v0.9h-0.9V7.9H39.2z M40.2,1.9v0.9h-0.9V1.9H40.2z M40.2,4.9v0.9h-0.9V4.9H40.2z M40.2,7.9v0.9h-0.9V7.9H40.2z M41.2,1.9
		v0.9h-0.9V1.9H41.2z M41.2,7.9v0.9h-0.9V7.9H41.2z"/>
	<path class="st1" d="M45.9,5.9v0.9H45V5.9H45.9z M45.9,6.9v0.9H45V6.9H45.9z M45.9,7.9v0.9H45V7.9H45.9z M45.9,8.9v0.9H45V8.9H45.9
		z M45.9,9.9v0.9H45V9.9H45.9z M45.9,10.9v0.9H45v-0.9H45.9z M46.9,5.9v0.9H46V5.9H46.9z M46.9,9.9v0.9H46V9.9H46.9z M47.9-0.1v0.9
		H47v-0.9H47.9z M47.9,0.9v0.9H47V0.9H47.9z M47.9,1.9v0.9H47V1.9H47.9z M47.9,2.9v0.9H47V2.9H47.9z M47.9,3.9v0.9H47V3.9H47.9z
		 M47.9,5.9v0.9H47V5.9H47.9z M47.9,9.9v0.9H47V9.9H47.9z M48.9-0.1v0.9H48v-0.9H48.9z M48.9,3.9v0.9H48V3.9H48.9z M48.9,5.9v0.9H48
		V5.9H48.9z M48.9,9.9v0.9H48V9.9H48.9z M49.9-0.1v0.9H49v-0.9H49.9z M49.9,3.9v0.9H49V3.9H49.9z M49.9,5.9v0.9H49V5.9H49.9z
		 M49.9,6.9v0.9H49V6.9H49.9z M49.9,7.9v0.9H49V7.9H49.9z M49.9,8.9v0.9H49V8.9H49.9z M49.9,9.9v0.9H49V9.9H49.9z M49.9,10.9v0.9H49
		v-0.9H49.9z M50.9-0.1v0.9H50v-0.9H50.9z M50.9,3.9v0.9H50V3.9H50.9z M51.9-0.1v0.9H51v-0.9H51.9z M51.9,3.9v0.9H51V3.9H51.9z
		 M51.9,5.9v0.9H51V5.9H51.9z M51.9,6.9v0.9H51V6.9H51.9z M51.9,7.9v0.9H51V7.9H51.9z M51.9,8.9v0.9H51V8.9H51.9z M51.9,9.9v0.9H51
		V9.9H51.9z M51.9,10.9v0.9H51v-0.9H51.9z M52.9-0.1v0.9H52v-0.9H52.9z M52.9,3.9v0.9H52V3.9H52.9z M52.9,5.9v0.9H52V5.9H52.9z
		 M52.9,9.9v0.9H52V9.9H52.9z M53.9-0.1v0.9H53v-0.9H53.9z M53.9,0.9v0.9H53V0.9H53.9z M53.9,1.9v0.9H53V1.9H53.9z M53.9,2.9v0.9H53
		V2.9H53.9z M53.9,3.9v0.9H53V3.9H53.9z M53.9,5.9v0.9H53V5.9H53.9z M53.9,9.9v0.9H53V9.9H53.9z M54.9,5.9v0.9H54V5.9H54.9z
		 M54.9,9.9v0.9H54V9.9H54.9z M55.9,5.9v0.9H55V5.9H55.9z M55.9,6.9v0.9H55V6.9H55.9z M55.9,7.9v0.9H55V7.9H55.9z M55.9,8.9v0.9H55
		V8.9H55.9z M55.9,9.9v0.9H55V9.9H55.9z M55.9,10.9v0.9H55v-0.9H55.9z"/>
</g>
<g>
	<path class="st7" d="M12.2,7.8c0.3,0,0.4,0.1,0.5,0.2c0.1,0.1,0.1,0.3,0.1,0.5c0,0.2,0,0.4-0.1,0.5C12.7,9,12.5,9,12.2,9H10
		c0.4,0.2,0.9,0.4,1.3,0.6c0.4,0.2,0.8,0.4,1.2,0.7c0.2,0.1,0.3,0.3,0.4,0.4c0,0.2,0,0.3-0.1,0.5c-0.1,0.2-0.3,0.3-0.5,0.3
		s-0.4-0.1-0.6-0.2c-0.4-0.3-0.8-0.5-1.2-0.7s-0.8-0.4-1.2-0.5C8.9,10,8.8,9.9,8.8,9.8s0-0.3,0.1-0.5C8.9,9.2,8.9,9.1,9,9H5.3
		c0.1,0.1,0.1,0.1,0.2,0.2c0,0.1,0.1,0.2,0.1,0.3s0,0.2-0.1,0.3c0,0.1-0.1,0.2-0.2,0.3c-0.4,0.2-0.8,0.5-1.2,0.7
		c-0.4,0.2-0.9,0.5-1.4,0.7c-0.2,0.1-0.4,0.2-0.6,0.1c-0.2,0-0.4-0.1-0.5-0.3c-0.1-0.2-0.2-0.4-0.1-0.6c0.1-0.2,0.2-0.3,0.5-0.4
		c0.2-0.1,0.4-0.2,0.7-0.3s0.4-0.2,0.6-0.3c0.2-0.1,0.4-0.2,0.6-0.3C4,9.2,4.1,9.1,4.2,9H2.1C1.8,9,1.6,9,1.5,8.9
		C1.4,8.8,1.4,8.6,1.4,8.4c0-0.2,0.1-0.4,0.2-0.5s0.3-0.2,0.5-0.2h1.6V2.7H2.3c-0.3,0-0.5,0-0.6-0.1C1.7,2.5,1.6,2.3,1.6,2.1
		c0-0.3,0-0.4,0.1-0.5c0.1-0.1,0.3-0.1,0.6-0.1h1.4V0.7c0-0.3,0.1-0.5,0.2-0.6C4,0.1,4.2,0,4.4,0c0.2,0,0.4,0.1,0.5,0.2
		C5,0.3,5.1,0.5,5.1,0.7v0.7h4.2V0.7c0-0.3,0.1-0.5,0.2-0.6C9.5,0,9.7,0,9.9,0c0.2,0,0.4,0.1,0.5,0.2s0.2,0.3,0.2,0.6v0.7H12
		c0.3,0,0.4,0,0.5,0.1c0.1,0.1,0.2,0.3,0.2,0.5c0,0.2,0,0.4-0.1,0.5c-0.1,0.1-0.3,0.1-0.6,0.1h-1.4v5.1H12.2z M5.1,3.6h4.2V2.7H5.1
		V3.6z M5.1,5.7h4.2V4.9H5.1V5.7z M5.1,7.8h4.2V7H5.1V7.8z"/>
	<path class="st7" d="M18.5,10.8c0,0.3-0.1,0.4-0.2,0.6c-0.1,0.1-0.3,0.2-0.5,0.2c-0.3,0-0.4-0.1-0.5-0.2c-0.1-0.1-0.1-0.3-0.1-0.6
		V6.3c-0.2,0.3-0.4,0.4-0.6,0.5c-0.2,0-0.3,0-0.5-0.2c-0.2-0.1-0.3-0.3-0.3-0.5c0-0.2,0.1-0.5,0.4-0.8c0.5-0.7,0.9-1.4,1.2-2.1
		s0.6-1.5,0.8-2.3c0.1-0.3,0.2-0.6,0.3-0.7C18.4,0.1,18.6,0,18.9,0c0.5,0.1,0.7,0.5,0.5,1.2c-0.1,0.5-0.3,1-0.4,1.4
		s-0.3,0.8-0.5,1.2V10.8z M20,3.8V1.7c0-0.2,0.1-0.4,0.2-0.5C20.4,1,20.5,1,20.7,1C21,1,21.2,1,21.3,1.1c0.1,0.1,0.2,0.3,0.2,0.5
		v1.6l1.1-0.4V0.6c0-0.2,0.1-0.4,0.2-0.5C22.8,0,23,0,23.2,0c0.2,0,0.4,0,0.5,0.1c0.1,0.1,0.2,0.3,0.2,0.5v1.7l0.9-0.4
		c0.7-0.3,1.2-0.3,1.5-0.1c0.3,0.2,0.4,0.7,0.4,1.5c0,0.5,0,0.9,0,1.4c0,0.5,0,0.9,0,1.4c0,0.8-0.2,1.4-0.4,1.8
		c-0.2,0.4-0.6,0.5-1.1,0.5c-0.3,0-0.7-0.1-1.1-0.2l-0.1,0v0.4c0,0.2-0.1,0.4-0.2,0.5c-0.1,0.1-0.3,0.2-0.5,0.2
		c-0.2,0-0.4-0.1-0.5-0.2c-0.1-0.1-0.1-0.3-0.1-0.5V4.3l-1.1,0.5v4.1c0,0.2,0,0.4,0,0.5s0.1,0.2,0.2,0.3c0.1,0.1,0.2,0.1,0.4,0.2
		c0.2,0,0.4,0,0.7,0h1.8c0.3,0,0.5,0,0.7,0c0.2,0,0.3-0.1,0.4-0.2c0.1-0.1,0.2-0.2,0.2-0.3C26,9.2,26,9,26,8.8c0-0.3,0-0.5,0.1-0.6
		C26.2,8.1,26.4,8,26.6,8c0.3,0,0.4,0.1,0.5,0.2c0.1,0.1,0.1,0.3,0.1,0.6c0,0.5,0,0.9-0.1,1.2c-0.1,0.3-0.3,0.6-0.5,0.8
		c-0.2,0.2-0.5,0.3-0.9,0.4c-0.4,0.1-0.8,0.1-1.3,0.1h-1.9c-0.5,0-0.9,0-1.3-0.1c-0.3-0.1-0.6-0.2-0.8-0.4s-0.3-0.4-0.4-0.7
		C20.1,9.7,20,9.3,20,8.8V5.3l-0.1,0.1c-0.3,0.1-0.5,0.2-0.6,0.1S19,5.3,18.9,5.1c-0.1-0.2-0.1-0.4,0-0.6s0.2-0.3,0.5-0.4L20,3.8z
		 M23.8,3.7v3.2c0.1,0,0.1-0.1,0.2-0.1c0.1,0,0.2,0,0.3,0c0.2,0,0.3,0.1,0.4,0.1S25,7,25,6.9c0.1-0.1,0.1-0.1,0.1-0.3s0-0.3,0.1-0.5
		c0-0.4,0.1-0.9,0.1-1.3c0-0.4,0-0.8,0-1.3c0-0.2,0-0.3-0.1-0.3c0,0-0.1,0-0.2,0L23.8,3.7z"/>
	<path class="st7" d="M33,10.8c0,0.5-0.2,0.7-0.7,0.7c-0.3,0-0.5-0.1-0.6-0.2c-0.1-0.1-0.1-0.3-0.1-0.6V6.3
		c-0.2,0.3-0.4,0.4-0.6,0.5c-0.2,0-0.4,0-0.6-0.2c-0.2-0.1-0.3-0.3-0.3-0.5s0.1-0.5,0.4-0.8c0.5-0.7,0.9-1.4,1.3-2.2
		c0.3-0.7,0.6-1.5,0.8-2.3c0.1-0.3,0.2-0.5,0.3-0.7S33.1,0,33.4,0c0.3,0,0.5,0.1,0.6,0.3C34,0.5,34,0.8,34,1.1v0
		c-0.1,0.5-0.3,1-0.4,1.4C33.4,3,33.2,3.4,33,3.9V10.8z M36.8,1.1c0,0.1,0,0.1,0,0.2c0,0.1,0,0.1,0,0.2H41c0.3,0,0.5,0.1,0.6,0.2
		c0.1,0.1,0.2,0.3,0.2,0.6c0,0.3-0.1,0.4-0.2,0.6c-0.1,0.1-0.3,0.2-0.6,0.2h-3.1v1.6h2.8c0.3,0,0.4,0.1,0.5,0.2s0.1,0.3,0.1,0.5
		c0,0.2,0,0.4-0.1,0.5S41,5.9,40.7,5.9h-2.8v1.8h3c0.3,0,0.4,0,0.5,0.1c0.1,0.1,0.1,0.3,0.1,0.5c0,0.3,0,0.4-0.1,0.6
		c-0.1,0.1-0.3,0.2-0.5,0.2h-3v1.8c0,0.3-0.1,0.5-0.2,0.6c-0.1,0.1-0.3,0.1-0.5,0.1c-0.2,0-0.4,0-0.5-0.1c-0.1-0.1-0.2-0.3-0.2-0.6
		v-8h-0.3c-0.2,0.4-0.4,0.9-0.6,1.3S35.2,5,35,5.4c-0.2,0.3-0.4,0.5-0.6,0.5c-0.2,0-0.4,0-0.6-0.1c-0.2-0.2-0.3-0.3-0.3-0.5
		c0-0.2,0.1-0.4,0.3-0.7C34,4.3,34.2,4,34.4,3.7s0.3-0.6,0.5-0.9c0.1-0.3,0.3-0.6,0.4-0.9c0.1-0.3,0.2-0.7,0.3-1
		c0.1-0.3,0.1-0.5,0.3-0.6c0.1-0.1,0.3-0.2,0.6-0.1c0.3,0.1,0.5,0.2,0.6,0.3S36.9,0.8,36.8,1.1L36.8,1.1z"/>
	<path class="st7" d="M49.8,9.9c0,0.3,0,0.5-0.1,0.6c0,0.2-0.1,0.3-0.2,0.4c-0.1,0.1-0.2,0.1-0.4,0.2c-0.2,0-0.4,0-0.7,0h-2
		c-0.3,0-0.5,0-0.7,0c-0.2,0-0.3-0.1-0.4-0.2c-0.1-0.1-0.2-0.2-0.2-0.4c0-0.2,0-0.4,0-0.6v-3c0-0.3,0-0.5,0.1-0.6
		c0-0.2,0.1-0.3,0.2-0.4c0.1-0.1,0.2-0.2,0.4-0.2c0.2,0,0.4,0,0.7,0h2c0.3,0,0.5,0,0.7,0c0.2,0,0.3,0.1,0.4,0.2
		c0.1,0.1,0.2,0.2,0.2,0.4c0,0.2,0.1,0.4,0.1,0.6V9.9z M54.5,3.5c0,0.3,0,0.5,0,0.6s-0.1,0.3-0.2,0.4c-0.1,0.1-0.2,0.2-0.4,0.2
		c-0.2,0-0.4,0.1-0.7,0.1h-5.6c-0.3,0-0.5,0-0.7,0c-0.2,0-0.3-0.1-0.4-0.2c-0.1-0.1-0.2-0.2-0.2-0.4c0-0.2-0.1-0.4-0.1-0.7V2
		c0-0.3,0-0.5,0.1-0.7c0-0.2,0.1-0.3,0.2-0.4c0.1-0.1,0.2-0.2,0.4-0.2c0.2,0,0.4,0,0.7,0h5.6c0.3,0,0.5,0,0.7,0.1
		c0.2,0,0.3,0.1,0.4,0.2c0.1,0.1,0.2,0.2,0.2,0.4c0,0.2,0.1,0.4,0.1,0.7V3.5z M48.4,7.2c0-0.1-0.1-0.2-0.3-0.2h-1.5
		c-0.2,0-0.2,0.1-0.2,0.2v2.3c0,0.1,0,0.1,0,0.1c0,0,0.1,0,0.2,0h1.5c0.2,0,0.3-0.1,0.3-0.2V7.2z M53,2.2C53,2.1,52.9,2,52.8,2h-4.9
		c-0.2,0-0.2,0.1-0.2,0.2v1.1c0,0.1,0,0.1,0,0.1c0,0,0.1,0,0.2,0h4.9c0.2,0,0.3-0.1,0.3-0.2V2.2z M55.6,9.9c0,0.2,0,0.4,0,0.6
		s-0.1,0.3-0.2,0.4C55.3,11,55.1,11,55,11.1c-0.2,0-0.4,0.1-0.7,0.1h-2.4c-0.3,0-0.5,0-0.7,0c-0.2,0-0.3-0.1-0.4-0.2
		c-0.1-0.1-0.2-0.2-0.2-0.4s0-0.4,0-0.6V7c0-0.3,0-0.5,0.1-0.6c0-0.2,0.1-0.3,0.2-0.4s0.2-0.1,0.4-0.2s0.4,0,0.6,0h2.4
		c0.3,0,0.5,0,0.7,0.1c0.2,0,0.3,0.1,0.4,0.2c0.1,0.1,0.2,0.2,0.2,0.4s0,0.4,0,0.6V9.9z M54.2,7.4c0-0.1-0.1-0.2-0.3-0.2h-1.8
		c-0.2,0-0.2,0.1-0.2,0.2v2.2c0,0.1,0,0.1,0,0.1c0,0,0.1,0,0.2,0H54c0.2,0,0.3-0.1,0.3-0.2V7.4z"/>
</g>
</svg>
