<?xml version="1.0" encoding="utf-8"?>
<!-- Generator: Adobe Illustrator 25.2.1, SVG Export Plug-In . SVG Version: 6.00 Build 0)  -->
<svg version="1.1" id="图层_1" xmlns="http://www.w3.org/2000/svg" xmlns:xlink="http://www.w3.org/1999/xlink" x="0px" y="0px"
	 viewBox="0 0 56.9 11.6" style="enable-background:new 0 0 56.9 11.6;" xml:space="preserve">
<style type="text/css">
	.st0{display:none;}
	.st1{display:inline;}
	.st2{fill:#5A3219;}
	.st3{display:none;enable-background:new    ;}
	.st4{display:inline;fill:#1B2D03;}
	.st5{enable-background:new    ;}
	.st6{fill:#FFFFFF;}
</style>
<g id="图层_1_1_" class="st0">
	<g id="レイヤー_2" class="st1">
		<g id="UI">
			<path class="st2" d="M3.2,7.8C3.6,7.8,4,8.1,4,8.5l0,0c0,0.3,0,0.3-0.4,1.2c-0.2,0.5-0.3,0.9-0.5,1.8c-0.1,0.6-0.6,0.9-1.2,0.9
				c-0.7,0-1.3-0.5-1.4-1.2C0.1,9.7,0,8.1,0,6.5c0-2.1,0.2-4.1,0.6-6.1c0.1-0.6,0.7-0.9,1.2-0.9c0.6,0,1.4,0.3,1.4,1
				c0,0.3-0.3,1.8-0.3,2.1C2.6,4,2.5,5.5,2.5,7c0,0.4,0,0.7,0.1,1.4C2.8,7.9,2.9,7.8,3.2,7.8z M5.6,6.1c0.5,0,1.2,0.2,1.2,0.8
				c0,0.1,0,0.3-0.1,0.4C6.5,7.6,6.5,7.8,6.4,8c0,0.4,0.3,0.8,2.3,0.8c0.6,0,1.2,0,1.8-0.1c0.2,0,0.9-0.1,1.1-0.1
				c0.6,0,1.1,0.4,1.1,1c0,0.1,0,0.1,0,0.2c0,1.2-0.6,1.5-3.7,1.5c-1.8,0-4.8-0.1-4.8-2.8C4.1,7.8,4.3,6.1,5.6,6.1z M5.8,0.8h1.7
				c0.3,0,1.1,0,2.2,0c0.2,0,0.9-0.1,1.1-0.1c0.3,0,0.6,0.1,0.9,0.3c0.3,0.3,0.4,0.6,0.4,1c0.1,0.6-0.4,1.2-1,1.2
				c-0.1,0-0.1,0-0.2,0C9.8,3.4,8.7,3.4,7.6,3.4c-2.2,0-3.1,0-3.1-1.3C4.4,1.5,4.8,0.9,5.4,0.8C5.6,0.8,5.7,0.8,5.8,0.8z"/>
			<path class="st2" d="M20.7,2.6c0-0.5-0.1-1.2,1.1-1.2s1.1,0.6,1.1,1.1V3c1.9,0.3,3.2,2,3.1,3.9c0.1,2.1-1.5,3.9-3.6,4.1
				c-0.1,0-0.2,0-0.3,0c-0.1,0.2-1,1.6-1.9,1.6c-0.6,0-1.1-0.5-1.2-1.1c0-0.2,0.1-0.4,0.4-0.7c0.2-0.2,0.4-0.4,0.5-0.6
				c-0.6-0.4-1.1-1.1-1.2-1.8c0-0.5,0.4-0.9,0.9-0.9c0,0,0,0,0.1,0c0.3,0,0.5,0.1,0.6,0.4c0.1,0.2,0.3,0.4,0.5,0.6
				c0.1-0.8,0.1-1.7,0.1-2.7V5.3c-1.8,0.9-2.7,3.1-3,4.9c-0.1,0.5-0.1,1-1,1c-0.4,0-0.8-0.2-1-0.6c-0.3-1.2-0.4-2.4-0.3-3.6
				c-0.1-1.3,0.1-2.7,0.4-4c0.2-0.4,0.6-0.6,1-0.5c0.6,0,1,0.3,1,0.8c0,0.1-0.2,1.1-0.2,1.3s-0.1,0.8-0.1,0.9c0.6-1.2,1.7-2,3-2.4
				V2.6z M24,7c0-1.4-0.7-1.7-0.9-1.8c0.1,1.3,0,2.5-0.2,3.8C23.6,8.6,24.1,7.8,24,7z"/>
			<path class="st2" d="M41.3,6.8c-0.9,0.6-1.9,1-3,1c-1,0-2-0.3-2.8-0.9s-1.8-1-2.9-1c-0.7,0-1.3,0.2-1.8,0.6
				c-0.4,0.3-0.5,0.4-0.9,0.4c-0.5,0-1-0.3-1-0.9V5.9c0-0.4,0.1-0.6,0.7-1c0.9-0.6,1.9-1,3-1s2.1,0.3,3,0.9c0.8,0.6,1.7,0.9,2.7,1
				c0.7,0,1.4-0.3,2-0.7c0.2-0.2,0.5-0.3,0.8-0.3c0.5,0,1,0.4,1,0.9C42,6.1,41.9,6.3,41.3,6.8z"/>
			<path class="st2" d="M53,7c0.1,1.3-0.2,2.6-1,3.6c-0.9,1.1-2.2,1.9-3.6,2.1c-0.7,0-1.2-0.6-1.2-1.3l0,0c0-0.7,0.5-0.9,1-1
				c0.6-0.2,1.2-0.6,1.6-1.1c-0.3,0.1-0.7,0.2-1,0.1c-1.6,0-2.8-1.3-2.8-2.8c0-0.1,0-0.1,0-0.2c0-1.7,1.3-3.1,3-3.1
				c0.1,0,0.2,0,0.3,0c0.4,0,0.7,0.1,1.1,0.2V2.9L46.9,3c-0.3,0-1.7,0.1-2,0.1c-1.3,0-1.4-0.7-1.4-1.3c0-1.2,0.8-1.2,1.7-1.2h1.6
				l3.6-0.1V0.1c0-0.3,0-1.3,1.3-1.3S53-0.3,53,0v0.4h0.6c0.3,0,1.7-0.1,2-0.1c0.4,0,1.3,0,1.3,1.2S56,2.9,55.4,2.9H53V7z M49.4,5.4
				c-0.6,0-1,0.4-1,1v0.1c0,0.6,0.4,1,0.9,1c0,0,0,0,0.1,0c0.5,0,0.9-0.4,0.9-1.1C50.4,5.9,50,5.4,49.4,5.4
				C49.5,5.4,49.5,5.4,49.4,5.4z"/>
		</g>
	</g>
</g>
<g class="st3">
	<path class="st4" d="M1.3,3.8v0.9H0.4V3.8H1.3z M1.3,8.8v0.9H0.4V8.8H1.3z M2.3,0.8v0.9H1.4V0.8H2.3z M2.3,3.8v0.9H1.4V3.8H2.3z
		 M2.3,8.8v0.9H1.4V8.8H2.3z M3.3,0.8v0.9H2.4V0.8H3.3z M3.3,3.8v0.9H2.4V3.8H3.3z M3.3,7.8v0.9H2.4V7.8H3.3z M3.3,10.8v0.9H2.4
		v-0.9H3.3z M4.3-0.2v0.9H3.4v-0.9C3.4-0.2,4.3-0.2,4.3-0.2z M4.3,0.8v0.9H3.4V0.8H4.3z M4.3,1.8v0.9H3.4V1.8H4.3z M4.3,2.8v0.9H3.4
		V2.8H4.3z M4.3,3.8v0.9H3.4V3.8H4.3z M4.3,4.8v0.9H3.4V4.8H4.3z M4.3,5.8v0.9H3.4V5.8H4.3z M4.3,6.8v0.9H3.4V6.8H4.3z M4.3,7.8v0.9
		H3.4V7.8H4.3z M4.3,8.8v0.9H3.4V8.8H4.3z M4.3,9.8v0.9H3.4V9.8H4.3z M4.3,10.8v0.9H3.4v-0.9H4.3z M5.3-0.2v0.9H4.4v-0.9
		C4.4-0.2,5.3-0.2,5.3-0.2z M5.3,3.8v0.9H4.4V3.8H5.3z M5.3,6.8v0.9H4.4V6.8H5.3z M6.3,3.8v0.9H5.4V3.8H6.3z M6.3,9.8v0.9H5.4V9.8
		H6.3z M7.3-0.2v0.9H6.4v-0.9C6.4-0.2,7.3-0.2,7.3-0.2z M7.3,0.8v0.9H6.4V0.8H7.3z M7.3,1.8v0.9H6.4V1.8H7.3z M7.3,2.8v0.9H6.4V2.8
		H7.3z M7.3,3.8v0.9H6.4V3.8H7.3z M7.3,4.8v0.9H6.4V4.8H7.3z M7.3,5.8v0.9H6.4V5.8H7.3z M7.3,6.8v0.9H6.4V6.8H7.3z M7.3,8.8v0.9H6.4
		V8.8H7.3z M8.3,3.8v0.9H7.4V3.8H8.3z M8.3,7.8v0.9H7.4V7.8H8.3z M8.3,8.8v0.9H7.4V8.8H8.3z M9.3,3.8v0.9H8.4V3.8H9.3z M9.3,6.8v0.9
		H8.4V6.8H9.3z M9.3,9.8v0.9H8.4V9.8H9.3z M10.3,0.8v0.9H9.4V0.8H10.3z M10.3,3.8v0.9H9.4V3.8H10.3z M10.3,5.8v0.9H9.4V5.8H10.3z
		 M10.3,10.8v0.9H9.4v-0.9H10.3z M11.3,1.8v0.9h-0.9V1.8H11.3z M11.3,3.8v0.9h-0.9V3.8H11.3z M11.3,8.8v0.9h-0.9V8.8H11.3z
		 M11.3,9.8v0.9h-0.9V9.8H11.3z M11.3,10.8v0.9h-0.9v-0.9H11.3z"/>
	<path class="st4" d="M16.3,1.8v0.9h-0.9V1.8H16.3z M16.3,2.8v0.9h-0.9V2.8H16.3z M16.3,3.8v0.9h-0.9V3.8H16.3z M16.3,4.8v0.9h-0.9
		V4.8H16.3z M16.3,5.8v0.9h-0.9V5.8H16.3z M16.3,6.8v0.9h-0.9V6.8H16.3z M16.3,7.8v0.9h-0.9V7.8H16.3z M16.3,8.8v0.9h-0.9V8.8H16.3z
		 M16.3,9.8v0.9h-0.9V9.8H16.3z M16.3,10.8v0.9h-0.9v-0.9H16.3z M17.3,0.8v0.9h-0.9V0.8H17.3z M17.3,1.8v0.9h-0.9V1.8H17.3z
		 M17.3,5.8v0.9h-0.9V5.8H17.3z M17.3,9.8v0.9h-0.9V9.8H17.3z M18.3-0.2v0.9h-0.9v-0.9C17.4-0.2,18.3-0.2,18.3-0.2z M18.3,1.8v0.9
		h-0.9V1.8H18.3z M18.3,5.8v0.9h-0.9V5.8H18.3z M18.3,9.8v0.9h-0.9V9.8H18.3z M19.3,1.8v0.9h-0.9V1.8H19.3z M19.3,5.8v0.9h-0.9V5.8
		H19.3z M19.3,9.8v0.9h-0.9V9.8H19.3z M20.3,1.8v0.9h-0.9V1.8H20.3z M20.3,2.8v0.9h-0.9V2.8H20.3z M20.3,3.8v0.9h-0.9V3.8H20.3z
		 M20.3,4.8v0.9h-0.9V4.8H20.3z M20.3,5.8v0.9h-0.9V5.8H20.3z M20.3,6.8v0.9h-0.9V6.8H20.3z M20.3,7.8v0.9h-0.9V7.8H20.3z M20.3,8.8
		v0.9h-0.9V8.8H20.3z M20.3,9.8v0.9h-0.9V9.8H20.3z M20.3,10.8v0.9h-0.9v-0.9H20.3z M21.3,3.8v0.9h-0.9V3.8H21.3z M22.3,2.8v0.9
		h-0.9V2.8H22.3z M23.3-0.2v0.9h-0.9v-0.9C22.4-0.2,23.3-0.2,23.3-0.2z M23.3,0.8v0.9h-0.9V0.8H23.3z M23.3,1.8v0.9h-0.9V1.8H23.3z
		 M23.3,4.8v0.9h-0.9V4.8H23.3z M24.3,1.8v0.9h-0.9V1.8H24.3z M24.3,5.8v0.9h-0.9V5.8H24.3z M24.3,6.8v0.9h-0.9V6.8H24.3z
		 M24.3,10.8v0.9h-0.9v-0.9H24.3z M25.3,1.8v0.9h-0.9V1.8H25.3z M25.3,10.8v0.9h-0.9v-0.9H25.3z M26.3,1.8v0.9h-0.9V1.8H26.3z
		 M26.3,2.8v0.9h-0.9V2.8H26.3z M26.3,3.8v0.9h-0.9V3.8H26.3z M26.3,4.8v0.9h-0.9V4.8H26.3z M26.3,5.8v0.9h-0.9V5.8H26.3z M26.3,6.8
		v0.9h-0.9V6.8H26.3z M26.3,7.8v0.9h-0.9V7.8H26.3z M26.3,8.8v0.9h-0.9V8.8H26.3z M26.3,9.8v0.9h-0.9V9.8H26.3z"/>
	<path class="st4" d="M31.3,1.8v0.9h-0.9V1.8H31.3z M32.3-0.2v0.9h-0.9v-0.9C31.4-0.2,32.3-0.2,32.3-0.2z M32.3,0.8v0.9h-0.9V0.8
		H32.3z M32.3,2.8v0.9h-0.9V2.8H32.3z M32.3,5.8v0.9h-0.9V5.8H32.3z M32.3,6.8v0.9h-0.9V6.8H32.3z M32.3,7.8v0.9h-0.9V7.8H32.3z
		 M32.3,8.8v0.9h-0.9V8.8H32.3z M32.3,9.8v0.9h-0.9V9.8H32.3z M32.3,10.8v0.9h-0.9v-0.9H32.3z M33.3,0.8v0.9h-0.9V0.8H33.3z
		 M33.3,3.8v0.9h-0.9V3.8H33.3z M34.3,0.8v0.9h-0.9V0.8H34.3z M34.3,1.8v0.9h-0.9V1.8H34.3z M34.3,4.8v0.9h-0.9V4.8H34.3z M34.3,5.8
		v0.9h-0.9V5.8H34.3z M34.3,6.8v0.9h-0.9V6.8H34.3z M34.3,7.8v0.9h-0.9V7.8H34.3z M34.3,8.8v0.9h-0.9V8.8H34.3z M35.3,0.8v0.9h-0.9
		V0.8H35.3z M35.3,2.8v0.9h-0.9V2.8H35.3z M35.3,4.8v0.9h-0.9V4.8H35.3z M35.3,6.8v0.9h-0.9V6.8H35.3z M35.3,8.8v0.9h-0.9V8.8H35.3z
		 M36.3,1.8v0.9h-0.9V1.8H36.3z M36.3,2.8v0.9h-0.9V2.8H36.3z M36.3,4.8v0.9h-0.9V4.8H36.3z M36.3,6.8v0.9h-0.9V6.8H36.3z M36.3,8.8
		v0.9h-0.9V8.8H36.3z M37.3-0.2v0.9h-0.9v-0.9C36.4-0.2,37.3-0.2,37.3-0.2z M37.3,0.8v0.9h-0.9V0.8H37.3z M37.3,2.8v0.9h-0.9V2.8
		H37.3z M37.3,4.8v0.9h-0.9V4.8H37.3z M37.3,6.8v0.9h-0.9V6.8H37.3z M37.3,8.8v0.9h-0.9V8.8H37.3z M38.3,0.8v0.9h-0.9V0.8H38.3z
		 M38.3,2.8v0.9h-0.9V2.8H38.3z M38.3,4.8v0.9h-0.9V4.8H38.3z M38.3,5.8v0.9h-0.9V5.8H38.3z M38.3,6.8v0.9h-0.9V6.8H38.3z M38.3,7.8
		v0.9h-0.9V7.8H38.3z M38.3,8.8v0.9h-0.9V8.8H38.3z M38.3,10.8v0.9h-0.9v-0.9H38.3z M39.3,0.8v0.9h-0.9V0.8H39.3z M39.3,1.8v0.9
		h-0.9V1.8H39.3z M39.3,2.8v0.9h-0.9V2.8H39.3z M39.3,10.8v0.9h-0.9v-0.9H39.3z M40.3,0.8v0.9h-0.9V0.8H40.3z M40.3,2.8v0.9h-0.9
		V2.8H40.3z M40.3,3.8v0.9h-0.9V3.8H40.3z M40.3,4.8v0.9h-0.9V4.8H40.3z M40.3,5.8v0.9h-0.9V5.8H40.3z M40.3,6.8v0.9h-0.9V6.8H40.3z
		 M40.3,7.8v0.9h-0.9V7.8H40.3z M40.3,8.8v0.9h-0.9V8.8H40.3z M40.3,9.8v0.9h-0.9V9.8H40.3z M40.3,10.8v0.9h-0.9v-0.9H40.3z
		 M41.3,0.8v0.9h-0.9V0.8H41.3z"/>
	<path class="st4" d="M46.3,10.8v0.9h-0.9v-0.9H46.3z M47.3,0.8v0.9h-0.9V0.8H47.3z M47.3,1.8v0.9h-0.9V1.8H47.3z M47.3,2.8v0.9
		h-0.9V2.8H47.3z M47.3,3.8v0.9h-0.9V3.8H47.3z M47.3,4.8v0.9h-0.9V4.8H47.3z M47.3,5.8v0.9h-0.9V5.8H47.3z M47.3,6.8v0.9h-0.9V6.8
		H47.3z M47.3,7.8v0.9h-0.9V7.8H47.3z M47.3,8.8v0.9h-0.9V8.8H47.3z M47.3,9.8v0.9h-0.9V9.8H47.3z M48.3,0.8v0.9h-0.9V0.8H48.3z
		 M48.3,10.8v0.9h-0.9v-0.9H48.3z M49.3,0.8v0.9h-0.9V0.8H49.3z M49.3,3.8v0.9h-0.9V3.8H49.3z M49.3,9.8v0.9h-0.9V9.8H49.3z
		 M50.3,0.8v0.9h-0.9V0.8H50.3z M50.3,3.8v0.9h-0.9V3.8H50.3z M50.3,7.8v0.9h-0.9V7.8H50.3z M50.3,8.8v0.9h-0.9V8.8H50.3z M51.3,0.8
		v0.9h-0.9V0.8H51.3z M51.3,1.8v0.9h-0.9V1.8H51.3z M51.3,2.8v0.9h-0.9V2.8H51.3z M51.3,3.8v0.9h-0.9V3.8H51.3z M51.3,4.8v0.9h-0.9
		V4.8H51.3z M51.3,5.8v0.9h-0.9V5.8H51.3z M51.3,6.8v0.9h-0.9V6.8H51.3z M52.3,0.8v0.9h-0.9V0.8H52.3z M52.3,3.8v0.9h-0.9V3.8H52.3z
		 M52.3,10.8v0.9h-0.9v-0.9H52.3z M53.3,0.8v0.9h-0.9V0.8H53.3z M53.3,3.8v0.9h-0.9V3.8H53.3z M53.3,10.8v0.9h-0.9v-0.9H53.3z
		 M54.3,0.8v0.9h-0.9V0.8H54.3z M54.3,3.8v0.9h-0.9V3.8H54.3z M54.3,10.8v0.9h-0.9v-0.9H54.3z M55.3,0.8v0.9h-0.9V0.8H55.3z
		 M55.3,3.8v0.9h-0.9V3.8H55.3z M55.3,4.8v0.9h-0.9V4.8H55.3z M55.3,5.8v0.9h-0.9V5.8H55.3z M55.3,6.8v0.9h-0.9V6.8H55.3z M55.3,7.8
		v0.9h-0.9V7.8H55.3z M55.3,8.8v0.9h-0.9V8.8H55.3z M55.3,9.8v0.9h-0.9V9.8H55.3z M56.3,0.8v0.9h-0.9V0.8H56.3z"/>
</g>
<g id="efAhZj.tif" class="st0">
	
		<image style="display:inline;overflow:visible;enable-background:new    ;" width="702" height="362" id="Layer_0" xlink:href="861DB3E7213C8A6C.png"  transform="matrix(1 0 0 1 -323 -175.2551)">
	</image>
</g>
<g class="st5">
	<path class="st6" d="M12.2,5.6c0.3,0,0.5,0.1,0.6,0.2s0.1,0.3,0.1,0.6s0,0.4-0.1,0.6c-0.1,0-0.3,0-0.6,0H8.6c0.5,0.7,1,1.3,1.7,1.8
		s1.3,0.9,2,1.1l0,0c0.4,0.1,0.6,0.3,0.6,0.5c0.1,0.2,0.1,0.4,0,0.6c-0.1,0.3-0.2,0.4-0.4,0.5s-0.5,0-0.8-0.1
		C10.8,11,10,10.5,9.2,9.9c-0.7-0.6-1.4-1.4-2-2.4C6.8,8.4,6.3,9.1,5.6,9.8c-0.7,0.6-1.7,1.2-2.8,1.7c-0.3,0.1-0.5,0.1-0.7,0.1
		s-0.3-0.2-0.4-0.5s0-0.5,0-0.6c0.1-0.1,0.3-0.3,0.5-0.4c0.5-0.2,0.9-0.4,1.3-0.7s0.7-0.5,1-0.7S5,8.3,5.2,8c0.2-0.3,0.4-0.6,0.6-1
		H2.3C2.1,7,1.9,7,1.8,6.9C1.7,6.8,1.6,6.6,1.6,6.3s0-0.4,0.1-0.6C1.8,5.6,2,5.5,2.3,5.5h4C6.4,5,6.5,4.4,6.5,3.6H2.9
		c-0.3,0-0.5-0.1-0.6-0.2S2.2,3.2,2.2,3s0-0.4,0.1-0.5s0.3-0.2,0.6-0.2h1.3C4.1,2.1,4,1.9,3.9,1.7C3.8,1.5,3.7,1.4,3.6,1.3
		C3.5,1.1,3.4,0.9,3.5,0.7c0-0.2,0.1-0.4,0.3-0.4C4,0.1,4.1,0.1,4.3,0.1c0.2,0.1,0.4,0.2,0.5,0.3c0.1,0.2,0.3,0.4,0.4,0.7
		c0.2,0.3,0.3,0.7,0.5,1.1h2.9C8.8,2,8.9,1.7,9.1,1.4s0.2-0.6,0.3-0.8s0.2-0.4,0.4-0.5s0.4-0.1,0.6,0c0.2,0.1,0.4,0.2,0.4,0.4
		c0.1,0.2,0.1,0.4,0,0.6c0,0.1-0.1,0.3-0.2,0.5c-0.1,0.2-0.2,0.5-0.3,0.7h1.6c0.3,0,0.5,0.1,0.6,0.2c0.1,0.1,0.1,0.3,0.1,0.5
		s0,0.4-0.1,0.6c-0.1,0.1-0.3,0.2-0.6,0.2h-4c0,0.4,0,0.7-0.1,1s0,0.6,0,0.8H12.2z"/>
	<path class="st6" d="M16.9,2.4c-0.3,0-0.5-0.1-0.5-0.2c-0.1-0.1-0.1-0.3-0.1-0.5s0-0.4,0.1-0.5S16.6,1,16.9,1h8.8
		c0.3,0,0.5,0.1,0.6,0.2s0.1,0.3,0.1,0.5s0,0.4-0.1,0.5S26,2.4,25.8,2.4h-3.4v2.8h4c0.3,0,0.5,0.1,0.6,0.2s0,0.3,0,0.5
		s0,0.4-0.1,0.5s-0.3,0.2-0.5,0.2h-4V10c0,0.5-0.1,0.9-0.4,1.1c-0.3,0.3-0.7,0.4-1.3,0.4c-0.6,0-1.4-0.1-2.4-0.4
		C18.1,11,18,11,17.9,10.9s-0.2-0.1-0.2-0.2s-0.1-0.2-0.1-0.3s0-0.2,0-0.3c0.1-0.2,0.2-0.4,0.4-0.5c0.2-0.1,0.4-0.1,0.7,0
		c0.5,0.2,0.9,0.3,1.2,0.3c0.3,0.1,0.6,0.1,0.8,0.1c0.1,0,0.2,0,0.3-0.1s0.1-0.1,0.1-0.2V6.6h-4.7c-0.3,0-0.5-0.1-0.5-0.2
		s-0.1-0.3-0.1-0.5s0-0.4,0.1-0.5s0.3-0.2,0.6-0.2h4.7V2.4H16.9z"/>
	<path class="st6" d="M40.4,9.6c0,0.4-0.1,0.8-0.2,1.1c-0.1,0.3-0.3,0.5-0.6,0.7s-0.6,0.2-1,0.3c-0.4,0-0.9-0.1-1.5-0.2
		c-0.3-0.1-0.5-0.2-0.6-0.3s-0.1-0.3,0-0.6c0.1-0.5,0.5-0.6,1-0.4c0.3,0.1,0.6,0.2,0.8,0.2s0.4,0,0.5,0s0.2-0.1,0.2-0.2
		c0-0.2,0-0.4,0-0.5V2.5c0-0.2,0-0.3-0.1-0.3c0-0.1-0.2-0.1-0.4-0.1H32c-0.1,0-0.2,0-0.3,0.1c-0.1,0.1-0.1,0.2-0.1,0.4v6.9
		c0-0.2,0.1-0.3,0.2-0.5c0.2-0.4,0.5-0.8,0.7-1.3c0.2-0.5,0.5-1,0.6-1.6C33,5.7,32.8,5.3,32.6,5c-0.2-0.4-0.4-0.7-0.6-1.1
		c-0.2-0.3-0.2-0.5-0.2-0.7s0.1-0.3,0.2-0.4c0.2-0.2,0.4-0.2,0.5-0.1c0.2,0.1,0.3,0.2,0.5,0.5c0.2,0.5,0.4,0.9,0.6,1.3
		c0.1-0.5,0.2-1,0.3-1.4c0-0.3,0.1-0.5,0.2-0.7c0.1-0.1,0.2-0.1,0.5-0.1c0.2,0,0.4,0.1,0.5,0.2c0.1,0.1,0.1,0.4,0,0.6
		c-0.1,0.5-0.2,1-0.3,1.4c-0.1,0.5-0.2,1-0.4,1.4c0.1,0.3,0.3,0.7,0.4,1c0.1,0.3,0.3,0.7,0.4,1c0.1,0.2,0.1,0.4,0.1,0.6
		S35.2,8.8,35,8.9c-0.2,0.1-0.4,0.1-0.5,0s-0.2-0.3-0.3-0.6c0-0.1-0.1-0.3-0.2-0.4c0,0.1-0.1-0.1-0.1-0.2c-0.1,0.4-0.3,0.7-0.5,1.1
		c-0.2,0.3-0.4,0.7-0.6,1c-0.2,0.3-0.3,0.5-0.5,0.5c-0.1,0.1-0.3,0-0.5-0.1s-0.3-0.3-0.3-0.5v1.2c0,0.3-0.1,0.5-0.2,0.6
		s-0.3,0.2-0.5,0.2s-0.4-0.1-0.5-0.2c-0.1-0.1-0.2-0.3-0.2-0.6V2.2c0-0.3,0-0.5,0.1-0.7c0-0.2,0.1-0.3,0.2-0.5s0.3-0.2,0.5-0.3
		s0.4-0.1,0.7-0.1h7c0.5,0,0.9,0.1,1.2,0.4s0.4,0.6,0.4,1.2v7.4H40.4z M38.6,3.4c-0.1,0.6-0.2,1.2-0.3,1.7s-0.3,1-0.4,1.5
		c0.2,0.4,0.3,0.7,0.4,1s0.3,0.7,0.4,1c0.1,0.3,0.1,0.5,0.1,0.7c-0.1,0.2-0.2,0.3-0.3,0.4c-0.2,0.1-0.4,0.1-0.5,0s-0.2-0.3-0.3-0.6
		c-0.1-0.2-0.1-0.3-0.2-0.5c-0.1-0.2-0.1-0.3-0.2-0.5c-0.2,0.4-0.4,0.8-0.7,1.2s-0.5,0.8-0.8,1.2c-0.2,0.3-0.4,0.5-0.6,0.5
		s-0.3,0-0.5-0.2s-0.2-0.3-0.2-0.5s0.1-0.4,0.3-0.6c0.4-0.5,0.8-1,1-1.5c0.3-0.5,0.5-1,0.8-1.5c-0.2-0.4-0.4-0.8-0.6-1.2
		c-0.2-0.4-0.4-0.7-0.5-1c-0.2-0.3-0.2-0.5-0.2-0.7s0.1-0.3,0.3-0.4c0.2-0.1,0.4-0.2,0.5-0.1c0.1,0.1,0.3,0.3,0.5,0.6
		c0.2,0.4,0.4,0.8,0.6,1.2c0.1-0.3,0.1-0.5,0.2-0.8c0-0.3,0.1-0.6,0.1-0.9c0-0.2,0.1-0.3,0.1-0.4c0-0.1,0.1-0.2,0.1-0.2
		c0.1-0.1,0.1-0.1,0.2-0.1c0.1,0,0.2,0,0.3,0c0.2,0,0.4,0.1,0.4,0.3C38.7,2.8,38.7,3.1,38.6,3.4z"/>
	<path class="st6" d="M48.1,9.2c-0.9,0.5-2.1,1-3.5,1.5c-0.3,0.1-0.5,0.1-0.7,0.1c-0.2-0.1-0.3-0.2-0.3-0.4
		c-0.1-0.4,0.1-0.7,0.6-0.9c0.3-0.1,0.6-0.2,0.9-0.3C45.4,9,45.7,8.9,46,8.8c0.2-0.7,0.3-1.4,0.4-2.1c0.1-0.7,0.2-1.4,0.2-2.1
		c0-0.3,0.1-0.5,0.2-0.6c0.1-0.1,0.3-0.2,0.5-0.2s0.3,0.1,0.4,0.2c0.1,0.1,0.1,0.3,0,0.7c-0.1,0.6-0.1,1.2-0.2,1.8
		c0,0.5-0.1,1-0.2,1.5c0,0,0,0,0.1,0c0,0,0,0,0.1,0c0.2-0.1,0.4-0.2,0.6-0.2c0.2,0,0.3,0.1,0.4,0.3c0.1,0.2,0.1,0.5,0.1,0.6
		S48.3,9,48.1,9.2z M46.7,1.8c0,0.1,0.1,0.2,0.1,0.2c0,0.1,0,0.1,0,0.2H48c0.2,0,0.4,0,0.5,0.1s0.2,0.3,0.2,0.5
		c0,0.4-0.2,0.7-0.7,0.7h-3.8c-0.2,0-0.4,0-0.5-0.1s-0.2-0.3-0.2-0.5s0-0.4,0.1-0.5s0.3-0.2,0.5-0.2h1.3c-0.2-0.4-0.4-0.8-0.6-1.1
		c-0.1-0.2-0.1-0.3-0.1-0.5s0.1-0.3,0.3-0.4s0.3-0.1,0.5-0.1s0.3,0.1,0.4,0.3C46,0.5,46,0.6,46.1,0.6c0,0.1,0.1,0.2,0.2,0.3
		c0.1,0.1,0.1,0.2,0.2,0.3C46.6,1.5,46.7,1.6,46.7,1.8z M45.7,7.6c0,0.3,0,0.5,0,0.6c-0.1,0.1-0.2,0.2-0.4,0.3c-0.2,0-0.4,0-0.5-0.1
		s-0.2-0.3-0.2-0.6c0-0.5-0.1-1-0.2-1.5c-0.1-0.5-0.2-1-0.3-1.5c0-0.2,0-0.3-0.1-0.4c0-0.1,0-0.2,0-0.2c0-0.1,0.1-0.1,0.2-0.2
		s0.2-0.1,0.3-0.1c0.2,0,0.3,0,0.4,0C45,4,45.1,4.1,45.2,4.4c0,0.2,0.1,0.5,0.1,0.7s0.1,0.5,0.1,0.8s0.1,0.5,0.1,0.8
		C45.7,7.1,45.7,7.3,45.7,7.6z M53.4,5.2c0.4,0,0.8,0.1,1,0.3s0.3,0.5,0.3,0.9v3.8c0,0.2,0,0.4-0.1,0.6c0,0.2-0.1,0.3-0.2,0.4
		c-0.1,0.1-0.2,0.2-0.4,0.2s-0.4,0.1-0.6,0.1h-3.2c-0.4,0-0.7-0.1-1-0.3s-0.3-0.5-0.3-0.9V6.4c0-0.5,0.1-0.8,0.3-0.9
		c0.2-0.2,0.5-0.3,1-0.3h0.7V0.8c0-0.3,0.1-0.5,0.2-0.6c0.1-0.1,0.3-0.1,0.5-0.1s0.4,0.1,0.5,0.2s0.2,0.3,0.2,0.5v1.1h2
		c0.2,0,0.4,0.1,0.5,0.2S55,2.4,55,2.6s0,0.4-0.1,0.5s-0.3,0.2-0.5,0.2h-2v1.9H53.4z M53.3,6.8c0-0.2-0.1-0.2-0.3-0.2h-2.6
		c-0.2,0-0.3,0.1-0.3,0.2v3c0,0.1,0,0.1,0,0.2c0,0,0.1,0.1,0.2,0.1H53c0.2,0,0.3-0.1,0.3-0.2V6.8z"/>
</g>
</svg>
