<svg id="图层_1" data-name="图层 1" xmlns="http://www.w3.org/2000/svg" viewBox="0 0 56.9 11.7">
  <defs>
    <style>
      .cls-1 {
        fill: #fff;
      }
    </style>
  </defs>
  <g>
    <path class="cls-1" d="M8.8,4.2c-.5-.3-.6-.6-.3-1A.66.66,0,0,1,9,2.8a.73.73,0,0,1,.6.2l.9.6a4.35,4.35,0,0,1,.7.6,4.35,4.35,0,0,0,.7.6c.1.2.4.4.6.6a.75.75,0,0,1,.4.7.86.86,0,0,1-.3.6c-.1.1-.2.2-.3.2s-.2.1-.2,0-.2-.1-.3-.1-.2-.2-.4-.3h0l-.6-.6c-.2-.2-.4-.3-.5-.5A5.07,5.07,0,0,1,9.4,7,7.89,7.89,0,0,1,8.2,8.5a10.08,10.08,0,0,0,1.8.9c.7.2,1.3.5,2.1.7h0a1.63,1.63,0,0,1,.6.3.47.47,0,0,1,.1.6c0,.1-.1.2-.1.3s-.2.1-.3.2-.2.1-.3.1h-.3q-1.5-.45-2.7-.9A8.78,8.78,0,0,1,7,9.5c-.6.4-1.3.8-2,1.2a8.81,8.81,0,0,1-2.6.9h0a.85.85,0,0,1-.7,0,.46.46,0,0,1-.3-.5.66.66,0,0,1,.1-.6.55.55,0,0,1,.5-.3c.8-.2,1.5-.5,2.2-.7A7.68,7.68,0,0,0,6,8.5,10.59,10.59,0,0,1,5,7.3,13,13,0,0,1,4,5.8l-.5.5c-.2.1-.4.3-.7.5h0a1.85,1.85,0,0,1-.7.2c-.2,0-.3-.2-.5-.4h0a.75.75,0,0,1-.1-.5,1,1,0,0,1,.4-.5h0a3.51,3.51,0,0,1,.8-.5c.2-.2.4-.3.6-.5s.3-.4.5-.6a4.23,4.23,0,0,0,.5-.7,1,1,0,0,1,.5-.4.47.47,0,0,1,.6.1h0a.45.45,0,0,1,.3.4,1.33,1.33,0,0,1-.3.7h0c0,.1-.1.2-.1.3s-.2.1-.2.2l.1.1a.1.1,0,0,0,.1.1A9.28,9.28,0,0,0,7.2,7.5,4.73,4.73,0,0,0,8.3,6.2c.3-.5.6-1,.9-1.6h0a.1.1,0,0,1,.1-.1A.77.77,0,0,1,9,4.3c-.1,0-.1-.1-.2-.1Zm3.4-2.9a.85.85,0,0,1,.6.2.75.75,0,0,1,.1.5.75.75,0,0,1-.1.5.85.85,0,0,1-.6.2H2.3c-.3,0-.5,0-.6-.2s-.1-.2-.1-.5,0-.4.1-.5a.85.85,0,0,1,.6-.2H6.2a.1.1,0,0,0-.1-.1A.1.1,0,0,0,6,1.1C6,.9,5.9.7,6,.5s.3-.3.6-.5a1.27,1.27,0,0,1,.6.1,1,1,0,0,1,.5.6c0,.1.1.2.1.3s.1.2.1.4h4.3Z"/>
    <path class="cls-1" d="M16.7,2.2a.59.59,0,0,1-.5-.2.76.76,0,0,1-.2-.5.76.76,0,0,1,.2-.5.76.76,0,0,1,.5-.2h9.4c.5,0,.7.2.7.7s-.2.7-.7.7H20.3L20,3.5h3.6c1.4,0,1.9.7,1.6,2-.2.8-.3,1.5-.5,2.2s-.3,1.5-.5,2.2h2.4a1.07,1.07,0,0,1,.6.2.73.73,0,0,1,0,1,.85.85,0,0,1-.6.2H16.5a.59.59,0,0,1-.5-.2.7.7,0,0,1,.5-1.2h6.3l.3-1.4h-4a2.22,2.22,0,0,1-.9-.1,1,1,0,0,1-.5-.4.66.66,0,0,1-.1-.6,2.49,2.49,0,0,1,.1-.8l1.2-4.4Zm2.4,4.5c0,.2,0,.3.1.3h4.2l.4-1.8c0-.1,0-.2-.1-.2H19.6Z"/>
    <path class="cls-1" d="M33,11c0,.5-.2.7-.7.7a.85.85,0,0,1-.6-.2c-.1-.1-.1-.3-.1-.6V6.4a1.33,1.33,0,0,1-.6.5.73.73,0,0,1-.6-.2.51.51,0,0,1-.4-.5,1.2,1.2,0,0,1,.4-.8,15.92,15.92,0,0,0,1.3-2.2A14.27,14.27,0,0,0,32.5,1a4.88,4.88,0,0,1,.3-.7c.1-.2.3-.2.5-.1a.6.6,0,0,1,.6.3,1.07,1.07,0,0,1,0,.8h0c-.1.5-.3,1-.4,1.4s-.3.9-.5,1.3Zm3.8-9.7v.4H41a.85.85,0,0,1,.6.2.85.85,0,0,1,.2.6,1.07,1.07,0,0,1-.2.6A1.27,1.27,0,0,0,41,3H37.9V4.6h2.8a.59.59,0,0,1,.5.2.75.75,0,0,1,.1.5.75.75,0,0,1-.1.5.76.76,0,0,1-.5.2H37.9V7.8h3c.3,0,.4,0,.5.1a.75.75,0,0,1,.1.5,1.08,1.08,0,0,1-.1.6.76.76,0,0,1-.5.2h-3V11a.85.85,0,0,1-.2.6,1.3,1.3,0,0,1-1,0,.85.85,0,0,1-.2-.6V3h-.3c-.2.4-.4.9-.6,1.3s-.4.8-.7,1.3c-.2.3-.4.5-.6.5a1.27,1.27,0,0,1-.6-.1c-.2-.2-.3-.3-.3-.5a1.33,1.33,0,0,1,.3-.7l.6-.9c.2-.3.3-.6.5-.9s.2-.7.3-1,.2-.7.3-1,.1-.5.3-.6a.56.56,0,0,1,.6-.1,1.63,1.63,0,0,1,.6.3c.1.1,0,.4-.1.7Z"/>
    <path class="cls-1" d="M49.8,10.1c0,.3,0,.5-.1.6a.52.52,0,0,1-.2.4c-.1.1-.2.1-.4.2H45.7a.71.71,0,0,1-.6-.6V7.1c0-.3,0-.5.1-.6a.52.52,0,0,1,.2-.4.52.52,0,0,1,.4-.2h3.4a.52.52,0,0,1,.4.2.52.52,0,0,1,.2.4c0,.2.1.4.1.6v3Zm4.7-6.5v.6a.76.76,0,0,1-.2.4.52.52,0,0,1-.4.2c-.2,0-.4.1-.7.1H46.9a.52.52,0,0,1-.4-.2.52.52,0,0,1-.2-.4c0-.2-.1-.4-.1-.7V2.1a1.48,1.48,0,0,1,.1-.7.52.52,0,0,1,.2-.4.52.52,0,0,1,.4-.2h6.3a1.48,1.48,0,0,1,.7.1.52.52,0,0,1,.4.2.52.52,0,0,1,.2.4c0,.2.1.4.1.7V3.6ZM48.4,7.4c0-.1-.1-.2-.3-.2H46.6c-.2,0-.2.1-.2.2V9.8h1.7c.2,0,.3-.1.3-.2ZM53,2.3c0-.1-.1-.2-.3-.2H47.8c-.2,0-.2.1-.2.2V3.5h5.1c.2,0,.3-.1.3-.2ZM55.6,10v.6a.71.71,0,0,1-.6.6c-.2,0-.4.1-.7.1H51.2a.71.71,0,0,1-.6-.6V7.1c0-.3,0-.5.1-.6a.52.52,0,0,1,.2-.4c.1-.1.1-.1.3-.1h3a1.48,1.48,0,0,1,.7.1.52.52,0,0,1,.4.2.52.52,0,0,1,.2.4V10ZM54.2,7.5c0-.1-.1-.2-.3-.2H52.1c-.2,0-.2.1-.2.2V9.8h2c.2,0,.3-.1.3-.2Z"/>
  </g>
</svg>
