<?xml version="1.0" encoding="utf-8"?>
<!-- Generator: Adobe Illustrator 25.2.0, SVG Export Plug-In . SVG Version: 6.00 Build 0)  -->
<svg version="1.1" id="图层_1" xmlns="http://www.w3.org/2000/svg" xmlns:xlink="http://www.w3.org/1999/xlink" x="0px" y="0px"
	 viewBox="0 0 56.9 13.9" style="enable-background:new 0 0 56.9 13.9;" xml:space="preserve">
<style type="text/css">
	.st0{display:none;}
	.st1{display:inline;}
	.st2{fill:#5A3219;}
	.st3{enable-background:new    ;}
	.st4{fill:#FFFFFF;}
</style>
<g id="图层_1_1_" class="st0">
	<g id="レイヤー_2" class="st1">
		<g id="UI">
			<path class="st2" d="M3.2,9C3.6,9,4,9.3,4,9.7l0,0C4,10,4,10,3.6,10.9c-0.2,0.5-0.3,0.9-0.5,1.8c-0.1,0.6-0.6,0.9-1.2,0.9
				c-0.7,0-1.3-0.5-1.4-1.2C0.1,10.9,0,9.3,0,7.7c0-2.1,0.2-4.1,0.6-6.1C0.7,1,1.3,0.7,1.8,0.7c0.6,0,1.4,0.3,1.4,1
				c0,0.3-0.3,1.8-0.3,2.1C2.6,5.2,2.5,6.7,2.5,8.2c0,0.4,0,0.7,0.1,1.4C2.8,9.1,2.9,9,3.2,9z M5.6,7.3c0.5,0,1.2,0.2,1.2,0.8
				c0,0.1,0,0.3-0.1,0.4C6.5,8.8,6.5,9,6.4,9.2c0,0.4,0.3,0.8,2.3,0.8c0.6,0,1.2,0,1.8-0.1c0.2,0,0.9-0.1,1.1-0.1
				c0.6,0,1.1,0.4,1.1,1c0,0.1,0,0.1,0,0.2c0,1.2-0.6,1.5-3.7,1.5c-1.8,0-4.8-0.1-4.8-2.8C4.1,9,4.3,7.3,5.6,7.3z M5.8,2h1.7
				c0.3,0,1.1,0,2.2,0c0.2,0,0.9-0.1,1.1-0.1c0.3,0,0.6,0.1,0.9,0.3c0.3,0.3,0.4,0.6,0.4,1c0.1,0.6-0.4,1.2-1,1.2
				c-0.1,0-0.1,0-0.2,0C9.8,4.6,8.7,4.6,7.6,4.6c-2.2,0-3.1,0-3.1-1.3C4.4,2.7,4.8,2.1,5.4,2C5.6,2,5.7,2,5.8,2z"/>
			<path class="st2" d="M20.7,3.8c0-0.5-0.1-1.2,1.1-1.2s1.1,0.6,1.1,1.1v0.5c1.9,0.3,3.2,2,3.1,3.9c0.1,2.1-1.5,3.9-3.6,4.1
				c-0.1,0-0.2,0-0.3,0c-0.1,0.2-1,1.6-1.9,1.6c-0.6,0-1.1-0.5-1.2-1.1c0-0.2,0.1-0.4,0.4-0.7c0.2-0.2,0.4-0.4,0.5-0.6
				c-0.6-0.4-1.1-1.1-1.2-1.8c0-0.5,0.4-0.9,0.9-0.9c0,0,0,0,0.1,0c0.3,0,0.5,0.1,0.6,0.4c0.1,0.2,0.3,0.4,0.5,0.6
				C20.9,8.9,20.9,8,20.9,7V6.5c-1.8,0.9-2.7,3.1-3,4.9c-0.1,0.5-0.1,1-1,1c-0.4,0-0.8-0.2-1-0.6c-0.3-1.2-0.4-2.4-0.3-3.6
				c-0.1-1.3,0.1-2.7,0.4-4c0.2-0.4,0.6-0.6,1-0.5c0.6,0,1,0.3,1,0.8c0,0.1-0.2,1.1-0.2,1.3s-0.1,0.8-0.1,0.9c0.6-1.2,1.7-2,3-2.4
				L20.7,3.8z M24,8.2c0-1.4-0.7-1.7-0.9-1.8c0.1,1.3,0,2.5-0.2,3.8C23.6,9.8,24.1,9,24,8.2z"/>
			<path class="st2" d="M41.3,8c-0.9,0.6-1.9,1-3,1c-1,0-2-0.3-2.8-0.9s-1.8-1-2.9-1c-0.7,0-1.3,0.2-1.8,0.6
				c-0.4,0.3-0.5,0.4-0.9,0.4c-0.5,0-1-0.3-1-0.9V7.1c0-0.4,0.1-0.6,0.7-1c0.9-0.6,1.9-1,3-1s2.1,0.3,3,0.9c0.8,0.6,1.7,0.9,2.7,1
				c0.7,0,1.4-0.3,2-0.7C40.5,6.1,40.8,6,41.1,6c0.5,0,1,0.4,1,0.9C42,7.3,41.9,7.5,41.3,8z"/>
			<path class="st2" d="M53,8.2c0.1,1.3-0.2,2.6-1,3.6c-0.9,1.1-2.2,1.9-3.6,2.1c-0.7,0-1.2-0.6-1.2-1.3l0,0c0-0.7,0.5-0.9,1-1
				c0.6-0.2,1.2-0.6,1.6-1.1c-0.3,0.1-0.7,0.2-1,0.1c-1.6,0-2.8-1.3-2.8-2.8c0-0.1,0-0.1,0-0.2c0-1.7,1.3-3.1,3-3.1
				c0.1,0,0.2,0,0.3,0c0.4,0,0.7,0.1,1.1,0.2V4.1l-3.5,0.1c-0.3,0-1.7,0.1-2,0.1c-1.3,0-1.4-0.7-1.4-1.3c0-1.2,0.8-1.2,1.7-1.2h1.6
				l3.6-0.1V1.3c0-0.3,0-1.3,1.3-1.3S53,0.9,53,1.2v0.4h0.6c0.3,0,1.7-0.1,2-0.1c0.4,0,1.3,0,1.3,1.2S56,4.1,55.4,4.1H53V8.2z
				 M49.4,6.6c-0.6,0-1,0.4-1,1v0.1c0,0.6,0.4,1,0.9,1c0,0,0,0,0.1,0c0.5,0,0.9-0.4,0.9-1.1C50.4,7.1,50,6.6,49.4,6.6
				C49.5,6.6,49.5,6.6,49.4,6.6z"/>
		</g>
	</g>
</g>
<g class="st3">
	<path class="st4" d="M1.3,5v0.9H0.4V5H1.3z M1.3,10v0.9H0.4V10H1.3z M2.3,2v0.9H1.4V2H2.3z M2.3,5v0.9H1.4V5H2.3z M2.3,10v0.9H1.4
		V10H2.3z M3.3,2v0.9H2.4V2H3.3z M3.3,5v0.9H2.4V5H3.3z M3.3,9v0.9H2.4V9H3.3z M3.3,12v0.9H2.4V12H3.3z M4.3,1v0.9H3.4V1H4.3z
		 M4.3,2v0.9H3.4V2H4.3z M4.3,3v0.9H3.4V3H4.3z M4.3,4v0.9H3.4V4H4.3z M4.3,5v0.9H3.4V5H4.3z M4.3,6v0.9H3.4V6H4.3z M4.3,7v0.9H3.4
		V7H4.3z M4.3,8v0.9H3.4V8H4.3z M4.3,9v0.9H3.4V9H4.3z M4.3,10v0.9H3.4V10H4.3z M4.3,11v0.9H3.4V11H4.3z M4.3,12v0.9H3.4V12H4.3z
		 M5.3,1v0.9H4.4V1H5.3z M5.3,5v0.9H4.4V5H5.3z M5.3,8v0.9H4.4V8H5.3z M6.3,5v0.9H5.4V5H6.3z M6.3,11v0.9H5.4V11H6.3z M7.3,1v0.9
		H6.4V1H7.3z M7.3,2v0.9H6.4V2H7.3z M7.3,3v0.9H6.4V3H7.3z M7.3,4v0.9H6.4V4H7.3z M7.3,5v0.9H6.4V5H7.3z M7.3,6v0.9H6.4V6H7.3z
		 M7.3,7v0.9H6.4V7H7.3z M7.3,8v0.9H6.4V8H7.3z M7.3,10v0.9H6.4V10H7.3z M8.3,5v0.9H7.4V5H8.3z M8.3,9v0.9H7.4V9H8.3z M8.3,10v0.9
		H7.4V10H8.3z M9.3,5v0.9H8.4V5H9.3z M9.3,8v0.9H8.4V8H9.3z M9.3,11v0.9H8.4V11H9.3z M10.3,2v0.9H9.4V2H10.3z M10.3,5v0.9H9.4V5
		H10.3z M10.3,7v0.9H9.4V7H10.3z M10.3,12v0.9H9.4V12H10.3z M11.3,3v0.9h-0.9V3H11.3z M11.3,5v0.9h-0.9V5H11.3z M11.3,10v0.9h-0.9
		V10H11.3z M11.3,11v0.9h-0.9V11H11.3z M11.3,12v0.9h-0.9V12H11.3z"/>
	<path class="st4" d="M16.3,3v0.9h-0.9V3H16.3z M16.3,4v0.9h-0.9V4H16.3z M16.3,5v0.9h-0.9V5H16.3z M16.3,6v0.9h-0.9V6H16.3z
		 M16.3,7v0.9h-0.9V7H16.3z M16.3,8v0.9h-0.9V8H16.3z M16.3,9v0.9h-0.9V9H16.3z M16.3,10v0.9h-0.9V10H16.3z M16.3,11v0.9h-0.9V11
		H16.3z M16.3,12v0.9h-0.9V12H16.3z M17.3,2v0.9h-0.9V2H17.3z M17.3,3v0.9h-0.9V3H17.3z M17.3,7v0.9h-0.9V7H17.3z M17.3,11v0.9h-0.9
		V11H17.3z M18.3,1v0.9h-0.9V1H18.3z M18.3,3v0.9h-0.9V3H18.3z M18.3,7v0.9h-0.9V7H18.3z M18.3,11v0.9h-0.9V11H18.3z M19.3,3v0.9
		h-0.9V3H19.3z M19.3,7v0.9h-0.9V7H19.3z M19.3,11v0.9h-0.9V11H19.3z M20.3,3v0.9h-0.9V3H20.3z M20.3,4v0.9h-0.9V4H20.3z M20.3,5
		v0.9h-0.9V5H20.3z M20.3,6v0.9h-0.9V6H20.3z M20.3,7v0.9h-0.9V7H20.3z M20.3,8v0.9h-0.9V8H20.3z M20.3,9v0.9h-0.9V9H20.3z M20.3,10
		v0.9h-0.9V10H20.3z M20.3,11v0.9h-0.9V11H20.3z M20.3,12v0.9h-0.9V12H20.3z M21.3,5v0.9h-0.9V5H21.3z M22.3,4v0.9h-0.9V4H22.3z
		 M23.3,1v0.9h-0.9V1H23.3z M23.3,2v0.9h-0.9V2H23.3z M23.3,3v0.9h-0.9V3H23.3z M23.3,6v0.9h-0.9V6H23.3z M24.3,3v0.9h-0.9V3H24.3z
		 M24.3,7v0.9h-0.9V7H24.3z M24.3,8v0.9h-0.9V8H24.3z M24.3,12v0.9h-0.9V12H24.3z M25.3,3v0.9h-0.9V3H25.3z M25.3,12v0.9h-0.9V12
		H25.3z M26.3,3v0.9h-0.9V3H26.3z M26.3,4v0.9h-0.9V4H26.3z M26.3,5v0.9h-0.9V5H26.3z M26.3,6v0.9h-0.9V6H26.3z M26.3,7v0.9h-0.9V7
		H26.3z M26.3,8v0.9h-0.9V8H26.3z M26.3,9v0.9h-0.9V9H26.3z M26.3,10v0.9h-0.9V10H26.3z M26.3,11v0.9h-0.9V11H26.3z"/>
	<path class="st4" d="M31.3,3v0.9h-0.9V3H31.3z M32.3,1v0.9h-0.9V1H32.3z M32.3,2v0.9h-0.9V2H32.3z M32.3,4v0.9h-0.9V4H32.3z
		 M32.3,7v0.9h-0.9V7H32.3z M32.3,8v0.9h-0.9V8H32.3z M32.3,9v0.9h-0.9V9H32.3z M32.3,10v0.9h-0.9V10H32.3z M32.3,11v0.9h-0.9V11
		H32.3z M32.3,12v0.9h-0.9V12H32.3z M33.3,2v0.9h-0.9V2H33.3z M33.3,5v0.9h-0.9V5H33.3z M34.3,2v0.9h-0.9V2H34.3z M34.3,3v0.9h-0.9
		V3H34.3z M34.3,6v0.9h-0.9V6H34.3z M34.3,7v0.9h-0.9V7H34.3z M34.3,8v0.9h-0.9V8H34.3z M34.3,9v0.9h-0.9V9H34.3z M34.3,10v0.9h-0.9
		V10H34.3z M35.3,2v0.9h-0.9V2H35.3z M35.3,4v0.9h-0.9V4H35.3z M35.3,6v0.9h-0.9V6H35.3z M35.3,8v0.9h-0.9V8H35.3z M35.3,10v0.9
		h-0.9V10H35.3z M36.3,3v0.9h-0.9V3H36.3z M36.3,4v0.9h-0.9V4H36.3z M36.3,6v0.9h-0.9V6H36.3z M36.3,8v0.9h-0.9V8H36.3z M36.3,10
		v0.9h-0.9V10H36.3z M37.3,1v0.9h-0.9V1H37.3z M37.3,2v0.9h-0.9V2H37.3z M37.3,4v0.9h-0.9V4H37.3z M37.3,6v0.9h-0.9V6H37.3z M37.3,8
		v0.9h-0.9V8H37.3z M37.3,10v0.9h-0.9V10H37.3z M38.3,2v0.9h-0.9V2H38.3z M38.3,4v0.9h-0.9V4H38.3z M38.3,6v0.9h-0.9V6H38.3z
		 M38.3,7v0.9h-0.9V7H38.3z M38.3,8v0.9h-0.9V8H38.3z M38.3,9v0.9h-0.9V9H38.3z M38.3,10v0.9h-0.9V10H38.3z M38.3,12v0.9h-0.9V12
		H38.3z M39.3,2v0.9h-0.9V2H39.3z M39.3,3v0.9h-0.9V3H39.3z M39.3,4v0.9h-0.9V4H39.3z M39.3,12v0.9h-0.9V12H39.3z M40.3,2v0.9h-0.9
		V2H40.3z M40.3,4v0.9h-0.9V4H40.3z M40.3,5v0.9h-0.9V5H40.3z M40.3,6v0.9h-0.9V6H40.3z M40.3,7v0.9h-0.9V7H40.3z M40.3,8v0.9h-0.9
		V8H40.3z M40.3,9v0.9h-0.9V9H40.3z M40.3,10v0.9h-0.9V10H40.3z M40.3,11v0.9h-0.9V11H40.3z M40.3,12v0.9h-0.9V12H40.3z M41.3,2v0.9
		h-0.9V2H41.3z"/>
	<path class="st4" d="M46.3,12v0.9h-0.9V12H46.3z M47.3,2v0.9h-0.9V2H47.3z M47.3,3v0.9h-0.9V3H47.3z M47.3,4v0.9h-0.9V4H47.3z
		 M47.3,5v0.9h-0.9V5H47.3z M47.3,6v0.9h-0.9V6H47.3z M47.3,7v0.9h-0.9V7H47.3z M47.3,8v0.9h-0.9V8H47.3z M47.3,9v0.9h-0.9V9H47.3z
		 M47.3,10v0.9h-0.9V10H47.3z M47.3,11v0.9h-0.9V11H47.3z M48.3,2v0.9h-0.9V2H48.3z M48.3,12v0.9h-0.9V12H48.3z M49.3,2v0.9h-0.9V2
		H49.3z M49.3,5v0.9h-0.9V5H49.3z M49.3,11v0.9h-0.9V11H49.3z M50.3,2v0.9h-0.9V2H50.3z M50.3,5v0.9h-0.9V5H50.3z M50.3,9v0.9h-0.9
		V9H50.3z M50.3,10v0.9h-0.9V10H50.3z M51.3,2v0.9h-0.9V2H51.3z M51.3,3v0.9h-0.9V3H51.3z M51.3,4v0.9h-0.9V4H51.3z M51.3,5v0.9
		h-0.9V5H51.3z M51.3,6v0.9h-0.9V6H51.3z M51.3,7v0.9h-0.9V7H51.3z M51.3,8v0.9h-0.9V8H51.3z M52.3,2v0.9h-0.9V2H52.3z M52.3,5v0.9
		h-0.9V5H52.3z M52.3,12v0.9h-0.9V12H52.3z M53.3,2v0.9h-0.9V2H53.3z M53.3,5v0.9h-0.9V5H53.3z M53.3,12v0.9h-0.9V12H53.3z M54.3,2
		v0.9h-0.9V2H54.3z M54.3,5v0.9h-0.9V5H54.3z M54.3,12v0.9h-0.9V12H54.3z M55.3,2v0.9h-0.9V2H55.3z M55.3,5v0.9h-0.9V5H55.3z
		 M55.3,6v0.9h-0.9V6H55.3z M55.3,7v0.9h-0.9V7H55.3z M55.3,8v0.9h-0.9V8H55.3z M55.3,9v0.9h-0.9V9H55.3z M55.3,10v0.9h-0.9V10H55.3
		z M55.3,11v0.9h-0.9V11H55.3z M56.3,2v0.9h-0.9V2H56.3z"/>
</g>
<g id="efAhZj.tif" class="st0">
	
		<image style="display:inline;overflow:visible;enable-background:new    ;" width="702" height="362" id="Layer_0" xlink:href="861DB3E7213C8A6C.png"  transform="matrix(1 0 0 1 -323 -174.1)">
	</image>
</g>
</svg>
