<?xml version="1.0" encoding="utf-8"?>
<!-- Generator: Adobe Illustrator 25.2.0, SVG Export Plug-In . SVG Version: 6.00 Build 0)  -->
<svg version="1.1" id="图层_1" xmlns="http://www.w3.org/2000/svg" xmlns:xlink="http://www.w3.org/1999/xlink" x="0px" y="0px"
	 viewBox="0 0 56.9 11.7" style="enable-background:new 0 0 56.9 11.7;" xml:space="preserve">
<style type="text/css">
	.st0{display:none;}
	.st1{display:inline;}
	.st2{fill:#5A3219;}
	.st3{display:none;enable-background:new    ;}
	.st4{display:inline;fill:#1B2D03;}
	.st5{display:inline;fill:#1A1C18;}
	.st6{fill:#994278;}
</style>
<g id="图层_1_1_" class="st0">
	<g id="レイヤー_2" class="st1">
		<g id="UI">
			<path class="st2" d="M3.2,8C3.6,8,4,8.3,4,8.7l0,0C4,9,4,9,3.6,9.9c-0.2,0.5-0.3,0.9-0.5,1.8c-0.1,0.6-0.6,0.9-1.2,0.9
				c-0.7,0-1.3-0.5-1.4-1.2C0.1,9.9,0,8.3,0,6.7c0-2.1,0.2-4.1,0.6-6.1C0.7,0,1.3-0.3,1.8-0.3c0.6,0,1.4,0.3,1.4,1
				c0,0.3-0.3,1.8-0.3,2.1C2.6,4.2,2.5,5.7,2.5,7.2c0,0.4,0,0.7,0.1,1.4C2.8,8.1,2.9,8,3.2,8z M5.6,6.3c0.5,0,1.2,0.2,1.2,0.8
				c0,0.1,0,0.3-0.1,0.4C6.5,7.8,6.5,8,6.4,8.2C6.4,8.6,6.7,9,8.7,9c0.6,0,1.2,0,1.8-0.1c0.2,0,0.9-0.1,1.1-0.1c0.6,0,1.1,0.4,1.1,1
				c0,0.1,0,0.1,0,0.2c0,1.2-0.6,1.5-3.7,1.5c-1.8,0-4.8-0.1-4.8-2.8C4.1,8,4.3,6.3,5.6,6.3z M5.8,1h1.7c0.3,0,1.1,0,2.2,0
				c0.2,0,0.9-0.1,1.1-0.1c0.3,0,0.6,0.1,0.9,0.3c0.3,0.3,0.4,0.6,0.4,1c0.1,0.6-0.4,1.2-1,1.2c-0.1,0-0.1,0-0.2,0
				C9.8,3.6,8.7,3.6,7.6,3.6c-2.2,0-3.1,0-3.1-1.3C4.4,1.7,4.8,1.1,5.4,1C5.6,1,5.7,1,5.8,1z"/>
			<path class="st2" d="M20.7,2.8c0-0.5-0.1-1.2,1.1-1.2s1.1,0.6,1.1,1.1v0.5c1.9,0.3,3.2,2,3.1,3.9c0.1,2.1-1.5,3.9-3.6,4.1
				c-0.1,0-0.2,0-0.3,0c-0.1,0.2-1,1.6-1.9,1.6c-0.6,0-1.1-0.5-1.2-1.1c0-0.2,0.1-0.4,0.4-0.7c0.2-0.2,0.4-0.4,0.5-0.6
				c-0.6-0.4-1.1-1.1-1.2-1.8c0-0.5,0.4-0.9,0.9-0.9c0,0,0,0,0.1,0c0.3,0,0.5,0.1,0.6,0.4c0.1,0.2,0.3,0.4,0.5,0.6
				C20.9,7.9,20.9,7,20.9,6V5.5c-1.8,0.9-2.7,3.1-3,4.9c-0.1,0.5-0.1,1-1,1c-0.4,0-0.8-0.2-1-0.6c-0.3-1.2-0.4-2.4-0.3-3.6
				c-0.1-1.3,0.1-2.7,0.4-4c0.2-0.4,0.6-0.6,1-0.5c0.6,0,1,0.3,1,0.8c0,0.1-0.2,1.1-0.2,1.3s-0.1,0.8-0.1,0.9c0.6-1.2,1.7-2,3-2.4
				L20.7,2.8z M24,7.2c0-1.4-0.7-1.7-0.9-1.8c0.1,1.3,0,2.5-0.2,3.8C23.6,8.8,24.1,8,24,7.2z"/>
			<path class="st2" d="M41.3,7c-0.9,0.6-1.9,1-3,1c-1,0-2-0.3-2.8-0.9s-1.8-1-2.9-1c-0.7,0-1.3,0.2-1.8,0.6
				c-0.4,0.3-0.5,0.4-0.9,0.4c-0.5,0-1-0.3-1-0.9V6.1c0-0.4,0.1-0.6,0.7-1c0.9-0.6,1.9-1,3-1s2.1,0.3,3,0.9c0.8,0.6,1.7,0.9,2.7,1
				c0.7,0,1.4-0.3,2-0.7C40.5,5.1,40.8,5,41.1,5c0.5,0,1,0.4,1,0.9C42,6.3,41.9,6.5,41.3,7z"/>
			<path class="st2" d="M53,7.2c0.1,1.3-0.2,2.6-1,3.6c-0.9,1.1-2.2,1.9-3.6,2.1c-0.7,0-1.2-0.6-1.2-1.3l0,0c0-0.7,0.5-0.9,1-1
				c0.6-0.2,1.2-0.6,1.6-1.1c-0.3,0.1-0.7,0.2-1,0.1c-1.6,0-2.8-1.3-2.8-2.8c0-0.1,0-0.1,0-0.2c0-1.7,1.3-3.1,3-3.1
				c0.1,0,0.2,0,0.3,0c0.4,0,0.7,0.1,1.1,0.2V3.1l-3.5,0.1c-0.3,0-1.7,0.1-2,0.1c-1.3,0-1.4-0.7-1.4-1.3c0-1.2,0.8-1.2,1.7-1.2h1.6
				l3.6-0.1V0.3c0-0.3,0-1.3,1.3-1.3S53-0.1,53,0.2v0.4h0.6c0.3,0,1.7-0.1,2-0.1c0.4,0,1.3,0,1.3,1.2S56,3.1,55.4,3.1H53V7.2z
				 M49.4,5.6c-0.6,0-1,0.4-1,1v0.1c0,0.6,0.4,1,0.9,1c0,0,0,0,0.1,0c0.5,0,0.9-0.4,0.9-1.1C50.4,6.1,50,5.6,49.4,5.6
				C49.5,5.6,49.5,5.6,49.4,5.6z"/>
		</g>
	</g>
</g>
<g class="st3">
	<path class="st4" d="M1.3,4v0.9H0.4V4H1.3z M1.3,9v0.9H0.4V9H1.3z M2.3,1v0.9H1.4V1H2.3z M2.3,4v0.9H1.4V4H2.3z M2.3,9v0.9H1.4V9
		H2.3z M3.3,1v0.9H2.4V1H3.3z M3.3,4v0.9H2.4V4H3.3z M3.3,8v0.9H2.4V8H3.3z M3.3,11v0.9H2.4V11H3.3z M4.3,0v0.9H3.4V0H4.3z M4.3,1
		v0.9H3.4V1H4.3z M4.3,2v0.9H3.4V2H4.3z M4.3,3v0.9H3.4V3H4.3z M4.3,4v0.9H3.4V4H4.3z M4.3,5v0.9H3.4V5H4.3z M4.3,6v0.9H3.4V6H4.3z
		 M4.3,7v0.9H3.4V7H4.3z M4.3,8v0.9H3.4V8H4.3z M4.3,9v0.9H3.4V9H4.3z M4.3,10v0.9H3.4V10H4.3z M4.3,11v0.9H3.4V11H4.3z M5.3,0v0.9
		H4.4V0H5.3z M5.3,4v0.9H4.4V4H5.3z M5.3,7v0.9H4.4V7H5.3z M6.3,4v0.9H5.4V4H6.3z M6.3,10v0.9H5.4V10H6.3z M7.3,0v0.9H6.4V0H7.3z
		 M7.3,1v0.9H6.4V1H7.3z M7.3,2v0.9H6.4V2H7.3z M7.3,3v0.9H6.4V3H7.3z M7.3,4v0.9H6.4V4H7.3z M7.3,5v0.9H6.4V5H7.3z M7.3,6v0.9H6.4
		V6H7.3z M7.3,7v0.9H6.4V7H7.3z M7.3,9v0.9H6.4V9H7.3z M8.3,4v0.9H7.4V4H8.3z M8.3,8v0.9H7.4V8H8.3z M8.3,9v0.9H7.4V9H8.3z M9.3,4
		v0.9H8.4V4H9.3z M9.3,7v0.9H8.4V7H9.3z M9.3,10v0.9H8.4V10H9.3z M10.3,1v0.9H9.4V1H10.3z M10.3,4v0.9H9.4V4H10.3z M10.3,6v0.9H9.4
		V6H10.3z M10.3,11v0.9H9.4V11H10.3z M11.3,2v0.9h-0.9V2H11.3z M11.3,4v0.9h-0.9V4H11.3z M11.3,9v0.9h-0.9V9H11.3z M11.3,10v0.9
		h-0.9V10H11.3z M11.3,11v0.9h-0.9V11H11.3z"/>
	<path class="st4" d="M16.3,2v0.9h-0.9V2H16.3z M16.3,3v0.9h-0.9V3H16.3z M16.3,4v0.9h-0.9V4H16.3z M16.3,5v0.9h-0.9V5H16.3z
		 M16.3,6v0.9h-0.9V6H16.3z M16.3,7v0.9h-0.9V7H16.3z M16.3,8v0.9h-0.9V8H16.3z M16.3,9v0.9h-0.9V9H16.3z M16.3,10v0.9h-0.9V10H16.3
		z M16.3,11v0.9h-0.9V11H16.3z M17.3,1v0.9h-0.9V1H17.3z M17.3,2v0.9h-0.9V2H17.3z M17.3,6v0.9h-0.9V6H17.3z M17.3,10v0.9h-0.9V10
		H17.3z M18.3,0v0.9h-0.9V0H18.3z M18.3,2v0.9h-0.9V2H18.3z M18.3,6v0.9h-0.9V6H18.3z M18.3,10v0.9h-0.9V10H18.3z M19.3,2v0.9h-0.9
		V2H19.3z M19.3,6v0.9h-0.9V6H19.3z M19.3,10v0.9h-0.9V10H19.3z M20.3,2v0.9h-0.9V2H20.3z M20.3,3v0.9h-0.9V3H20.3z M20.3,4v0.9
		h-0.9V4H20.3z M20.3,5v0.9h-0.9V5H20.3z M20.3,6v0.9h-0.9V6H20.3z M20.3,7v0.9h-0.9V7H20.3z M20.3,8v0.9h-0.9V8H20.3z M20.3,9v0.9
		h-0.9V9H20.3z M20.3,10v0.9h-0.9V10H20.3z M20.3,11v0.9h-0.9V11H20.3z M21.3,4v0.9h-0.9V4H21.3z M22.3,3v0.9h-0.9V3H22.3z M23.3,0
		v0.9h-0.9V0H23.3z M23.3,1v0.9h-0.9V1H23.3z M23.3,2v0.9h-0.9V2H23.3z M23.3,5v0.9h-0.9V5H23.3z M24.3,2v0.9h-0.9V2H24.3z M24.3,6
		v0.9h-0.9V6H24.3z M24.3,7v0.9h-0.9V7H24.3z M24.3,11v0.9h-0.9V11H24.3z M25.3,2v0.9h-0.9V2H25.3z M25.3,11v0.9h-0.9V11H25.3z
		 M26.3,2v0.9h-0.9V2H26.3z M26.3,3v0.9h-0.9V3H26.3z M26.3,4v0.9h-0.9V4H26.3z M26.3,5v0.9h-0.9V5H26.3z M26.3,6v0.9h-0.9V6H26.3z
		 M26.3,7v0.9h-0.9V7H26.3z M26.3,8v0.9h-0.9V8H26.3z M26.3,9v0.9h-0.9V9H26.3z M26.3,10v0.9h-0.9V10H26.3z"/>
	<path class="st4" d="M31.3,2v0.9h-0.9V2H31.3z M32.3,0v0.9h-0.9V0H32.3z M32.3,1v0.9h-0.9V1H32.3z M32.3,3v0.9h-0.9V3H32.3z
		 M32.3,6v0.9h-0.9V6H32.3z M32.3,7v0.9h-0.9V7H32.3z M32.3,8v0.9h-0.9V8H32.3z M32.3,9v0.9h-0.9V9H32.3z M32.3,10v0.9h-0.9V10H32.3
		z M32.3,11v0.9h-0.9V11H32.3z M33.3,1v0.9h-0.9V1H33.3z M33.3,4v0.9h-0.9V4H33.3z M34.3,1v0.9h-0.9V1H34.3z M34.3,2v0.9h-0.9V2
		H34.3z M34.3,5v0.9h-0.9V5H34.3z M34.3,6v0.9h-0.9V6H34.3z M34.3,7v0.9h-0.9V7H34.3z M34.3,8v0.9h-0.9V8H34.3z M34.3,9v0.9h-0.9V9
		H34.3z M35.3,1v0.9h-0.9V1H35.3z M35.3,3v0.9h-0.9V3H35.3z M35.3,5v0.9h-0.9V5H35.3z M35.3,7v0.9h-0.9V7H35.3z M35.3,9v0.9h-0.9V9
		H35.3z M36.3,2v0.9h-0.9V2H36.3z M36.3,3v0.9h-0.9V3H36.3z M36.3,5v0.9h-0.9V5H36.3z M36.3,7v0.9h-0.9V7H36.3z M36.3,9v0.9h-0.9V9
		H36.3z M37.3,0v0.9h-0.9V0H37.3z M37.3,1v0.9h-0.9V1H37.3z M37.3,3v0.9h-0.9V3H37.3z M37.3,5v0.9h-0.9V5H37.3z M37.3,7v0.9h-0.9V7
		H37.3z M37.3,9v0.9h-0.9V9H37.3z M38.3,1v0.9h-0.9V1H38.3z M38.3,3v0.9h-0.9V3H38.3z M38.3,5v0.9h-0.9V5H38.3z M38.3,6v0.9h-0.9V6
		H38.3z M38.3,7v0.9h-0.9V7H38.3z M38.3,8v0.9h-0.9V8H38.3z M38.3,9v0.9h-0.9V9H38.3z M38.3,11v0.9h-0.9V11H38.3z M39.3,1v0.9h-0.9
		V1H39.3z M39.3,2v0.9h-0.9V2H39.3z M39.3,3v0.9h-0.9V3H39.3z M39.3,11v0.9h-0.9V11H39.3z M40.3,1v0.9h-0.9V1H40.3z M40.3,3v0.9
		h-0.9V3H40.3z M40.3,4v0.9h-0.9V4H40.3z M40.3,5v0.9h-0.9V5H40.3z M40.3,6v0.9h-0.9V6H40.3z M40.3,7v0.9h-0.9V7H40.3z M40.3,8v0.9
		h-0.9V8H40.3z M40.3,9v0.9h-0.9V9H40.3z M40.3,10v0.9h-0.9V10H40.3z M40.3,11v0.9h-0.9V11H40.3z M41.3,1v0.9h-0.9V1H41.3z"/>
	<path class="st4" d="M46.3,11v0.9h-0.9V11H46.3z M47.3,1v0.9h-0.9V1H47.3z M47.3,2v0.9h-0.9V2H47.3z M47.3,3v0.9h-0.9V3H47.3z
		 M47.3,4v0.9h-0.9V4H47.3z M47.3,5v0.9h-0.9V5H47.3z M47.3,6v0.9h-0.9V6H47.3z M47.3,7v0.9h-0.9V7H47.3z M47.3,8v0.9h-0.9V8H47.3z
		 M47.3,9v0.9h-0.9V9H47.3z M47.3,10v0.9h-0.9V10H47.3z M48.3,1v0.9h-0.9V1H48.3z M48.3,11v0.9h-0.9V11H48.3z M49.3,1v0.9h-0.9V1
		H49.3z M49.3,4v0.9h-0.9V4H49.3z M49.3,10v0.9h-0.9V10H49.3z M50.3,1v0.9h-0.9V1H50.3z M50.3,4v0.9h-0.9V4H50.3z M50.3,8v0.9h-0.9
		V8H50.3z M50.3,9v0.9h-0.9V9H50.3z M51.3,1v0.9h-0.9V1H51.3z M51.3,2v0.9h-0.9V2H51.3z M51.3,3v0.9h-0.9V3H51.3z M51.3,4v0.9h-0.9
		V4H51.3z M51.3,5v0.9h-0.9V5H51.3z M51.3,6v0.9h-0.9V6H51.3z M51.3,7v0.9h-0.9V7H51.3z M52.3,1v0.9h-0.9V1H52.3z M52.3,4v0.9h-0.9
		V4H52.3z M52.3,11v0.9h-0.9V11H52.3z M53.3,1v0.9h-0.9V1H53.3z M53.3,4v0.9h-0.9V4H53.3z M53.3,11v0.9h-0.9V11H53.3z M54.3,1v0.9
		h-0.9V1H54.3z M54.3,4v0.9h-0.9V4H54.3z M54.3,11v0.9h-0.9V11H54.3z M55.3,1v0.9h-0.9V1H55.3z M55.3,4v0.9h-0.9V4H55.3z M55.3,5
		v0.9h-0.9V5H55.3z M55.3,6v0.9h-0.9V6H55.3z M55.3,7v0.9h-0.9V7H55.3z M55.3,8v0.9h-0.9V8H55.3z M55.3,9v0.9h-0.9V9H55.3z M55.3,10
		v0.9h-0.9V10H55.3z M56.3,1v0.9h-0.9V1H56.3z"/>
</g>
<g id="efAhZj.tif" class="st0">
	
		<image style="display:inline;overflow:visible;enable-background:new    ;" width="702" height="362" id="Layer_0" xlink:href="861DB3E7213C8A6C.png"  transform="matrix(1 0 0 1 -323 -175.0593)">
	</image>
</g>
<g class="st0">
	<path class="st5" d="M1.4,6v0.9H0.5V6H1.4z M1.4,11v0.9H0.5V11H1.4z M2.4,3v0.9H1.5V3H2.4z M2.4,6v0.9H1.5V6H2.4z M2.4,11v0.9H1.5
		V11H2.4z M3.4,0v0.9H2.5V0H3.4z M3.4,3v0.9H2.5V3H3.4z M3.4,6v0.9H2.5V6H3.4z M3.4,10v0.9H2.5V10H3.4z M4.4,1v0.9H3.5V1H4.4z
		 M4.4,3v0.9H3.5V3H4.4z M4.4,6v0.9H3.5V6H4.4z M4.4,9v0.9H3.5V9H4.4z M5.4,3v0.9H4.5V3H5.4z M5.4,6v0.9H4.5V6H5.4z M5.4,8v0.9H4.5
		V8H5.4z M6.4,3v0.9H5.5V3H6.4z M6.4,4v0.9H5.5V4H6.4z M6.4,5v0.9H5.5V5H6.4z M6.4,6v0.9H5.5V6H6.4z M6.4,7v0.9H5.5V7H6.4z M7.4,3
		v0.9H6.5V3H7.4z M7.4,6v0.9H6.5V6H7.4z M7.4,8v0.9H6.5V8H7.4z M8.4,1v0.9H7.5V1H8.4z M8.4,3v0.9H7.5V3H8.4z M8.4,6v0.9H7.5V6H8.4z
		 M8.4,9v0.9H7.5V9H8.4z M9.4,0v0.9H8.5V0H9.4z M9.4,3v0.9H8.5V3H9.4z M9.4,6v0.9H8.5V6H9.4z M9.4,10v0.9H8.5V10H9.4z M10.4,3v0.9
		H9.5V3H10.4z M10.4,6v0.9H9.5V6H10.4z M10.4,11v0.9H9.5V11H10.4z M11.4,6v0.9h-0.9V6H11.4z M11.4,11v0.9h-0.9V11H11.4z"/>
	<path class="st5" d="M16.1,5v0.9h-0.9V5H16.1z M17.1,0v0.9h-0.9V0H17.1z M17.1,5v0.9h-0.9V5H17.1z M18.1,0v0.9h-0.9V0H18.1z
		 M18.1,5v0.9h-0.9V5H18.1z M19.1,0v0.9h-0.9V0H19.1z M19.1,5v0.9h-0.9V5H19.1z M19.1,11v0.9h-0.9V11H19.1z M20.1,0v0.9h-0.9V0H20.1
		z M20.1,5v0.9h-0.9V5H20.1z M20.1,11v0.9h-0.9V11H20.1z M21.1,0v0.9h-0.9V0H21.1z M21.1,1v0.9h-0.9V1H21.1z M21.1,2v0.9h-0.9V2
		H21.1z M21.1,3v0.9h-0.9V3H21.1z M21.1,4v0.9h-0.9V4H21.1z M21.1,5v0.9h-0.9V5H21.1z M21.1,6v0.9h-0.9V6H21.1z M21.1,7v0.9h-0.9V7
		H21.1z M21.1,8v0.9h-0.9V8H21.1z M21.1,9v0.9h-0.9V9H21.1z M21.1,10v0.9h-0.9V10H21.1z M21.1,11v0.9h-0.9V11H21.1z M22.1,0v0.9
		h-0.9V0H22.1z M22.1,5v0.9h-0.9V5H22.1z M23.1,0v0.9h-0.9V0H23.1z M23.1,5v0.9h-0.9V5H23.1z M24.1,0v0.9h-0.9V0H24.1z M24.1,5v0.9
		h-0.9V5H24.1z M25.1,0v0.9h-0.9V0H25.1z M25.1,5v0.9h-0.9V5H25.1z M26.1,5v0.9h-0.9V5H26.1z"/>
	<path class="st5" d="M30.9,0v0.9H30V0H30.9z M30.9,1v0.9H30V1H30.9z M30.9,2v0.9H30V2H30.9z M30.9,3v0.9H30V3H30.9z M30.9,4v0.9H30
		V4H30.9z M30.9,5v0.9H30V5H30.9z M30.9,6v0.9H30V6H30.9z M30.9,7v0.9H30V7H30.9z M30.9,8v0.9H30V8H30.9z M30.9,9v0.9H30V9H30.9z
		 M30.9,10v0.9H30V10H30.9z M30.9,11v0.9H30V11H30.9z M31.9,0v0.9H31V0H31.9z M31.9,3v0.9H31V3H31.9z M31.9,8v0.9H31V8H31.9z
		 M32.9,0v0.9H32V0H32.9z M32.9,4v0.9H32V4H32.9z M32.9,7v0.9H32V7H32.9z M33.9,0v0.9H33V0H33.9z M33.9,5v0.9H33V5H33.9z M33.9,6
		v0.9H33V6H33.9z M34.9,0v0.9H34V0H34.9z M34.9,4v0.9H34V4H34.9z M34.9,7v0.9H34V7H34.9z M35.9,0v0.9H35V0H35.9z M35.9,3v0.9H35V3
		H35.9z M35.9,8v0.9H35V8H35.9z M36.9,0v0.9H36V0H36.9z M36.9,4v0.9H36V4H36.9z M36.9,7v0.9H36V7H36.9z M37.9,0v0.9H37V0H37.9z
		 M37.9,5v0.9H37V5H37.9z M37.9,6v0.9H37V6H37.9z M38.9,0v0.9H38V0H38.9z M38.9,4v0.9H38V4H38.9z M38.9,7v0.9H38V7H38.9z M38.9,11
		v0.9H38V11H38.9z M39.9,0v0.9H39V0H39.9z M39.9,3v0.9H39V3H39.9z M39.9,8v0.9H39V8H39.9z M39.9,11v0.9H39V11H39.9z M40.9,0v0.9H40
		V0H40.9z M40.9,1v0.9H40V1H40.9z M40.9,2v0.9H40V2H40.9z M40.9,3v0.9H40V3H40.9z M40.9,4v0.9H40V4H40.9z M40.9,5v0.9H40V5H40.9z
		 M40.9,6v0.9H40V6H40.9z M40.9,7v0.9H40V7H40.9z M40.9,8v0.9H40V8H40.9z M40.9,9v0.9H40V9H40.9z M40.9,10v0.9H40V10H40.9z M40.9,11
		v0.9H40V11H40.9z"/>
	<path class="st5" d="M45.6,3v0.9h-0.9V3H45.6z M45.6,5v0.9h-0.9V5H45.6z M45.6,10v0.9h-0.9V10H45.6z M46.6,0v0.9h-0.9V0H46.6z
		 M46.6,3v0.9h-0.9V3H46.6z M46.6,6v0.9h-0.9V6H46.6z M46.6,7v0.9h-0.9V7H46.6z M46.6,10v0.9h-0.9V10H46.6z M47.6,1v0.9h-0.9V1H47.6
		z M47.6,3v0.9h-0.9V3H47.6z M47.6,8v0.9h-0.9V8H47.6z M47.6,9v0.9h-0.9V9H47.6z M48.6,3v0.9h-0.9V3H48.6z M48.6,5v0.9h-0.9V5H48.6z
		 M48.6,6v0.9h-0.9V6H48.6z M48.6,7v0.9h-0.9V7H48.6z M48.6,9v0.9h-0.9V9H48.6z M49.6,3v0.9h-0.9V3H49.6z M50.6,6v0.9h-0.9V6H50.6z
		 M50.6,7v0.9h-0.9V7H50.6z M50.6,8v0.9h-0.9V8H50.6z M50.6,9v0.9h-0.9V9H50.6z M50.6,10v0.9h-0.9V10H50.6z M50.6,11v0.9h-0.9V11
		H50.6z M51.6,6v0.9h-0.9V6H51.6z M51.6,10v0.9h-0.9V10H51.6z M52.6,0v0.9h-0.9V0H52.6z M52.6,1v0.9h-0.9V1H52.6z M52.6,2v0.9h-0.9
		V2H52.6z M52.6,3v0.9h-0.9V3H52.6z M52.6,4v0.9h-0.9V4H52.6z M52.6,5v0.9h-0.9V5H52.6z M52.6,6v0.9h-0.9V6H52.6z M52.6,10v0.9h-0.9
		V10H52.6z M53.6,3v0.9h-0.9V3H53.6z M53.6,6v0.9h-0.9V6H53.6z M53.6,10v0.9h-0.9V10H53.6z M54.6,3v0.9h-0.9V3H54.6z M54.6,6v0.9
		h-0.9V6H54.6z M54.6,10v0.9h-0.9V10H54.6z M55.6,3v0.9h-0.9V3H55.6z M55.6,6v0.9h-0.9V6H55.6z M55.6,7v0.9h-0.9V7H55.6z M55.6,8
		v0.9h-0.9V8H55.6z M55.6,9v0.9h-0.9V9H55.6z M55.6,10v0.9h-0.9V10H55.6z M55.6,11v0.9h-0.9V11H55.6z"/>
</g>
<g class="st0">
	<path class="st1" d="M1.7,2v0.9H0.8V2H1.7z M1.7,11v0.9H0.8V11H1.7z M2.7,2v0.9H1.8V2H2.7z M2.7,6v0.9H1.8V6H2.7z M2.7,11v0.9H1.8
		V11H2.7z M3.7,2v0.9H2.8V2H3.7z M3.7,5v0.9H2.8V5H3.7z M3.7,10v0.9H2.8V10H3.7z M4.7,2v0.9H3.8V2H4.7z M4.7,4v0.9H3.8V4H4.7z
		 M4.7,6v0.9H3.8V6H4.7z M4.7,10v0.9H3.8V10H4.7z M5.7,0v0.9H4.8V0H5.7z M5.7,2v0.9H4.8V2H5.7z M5.7,7v0.9H4.8V7H5.7z M5.7,9v0.9
		H4.8V9H5.7z M6.7,1v0.9H5.8V1H6.7z M6.7,2v0.9H5.8V2H6.7z M6.7,8v0.9H5.8V8H6.7z M7.7,2v0.9H6.8V2H7.7z M7.7,7v0.9H6.8V7H7.7z
		 M7.7,9v0.9H6.8V9H7.7z M8.7,2v0.9H7.8V2H8.7z M8.7,4v0.9H7.8V4H8.7z M8.7,6v0.9H7.8V6H8.7z M8.7,10v0.9H7.8V10H8.7z M9.7,2v0.9
		H8.8V2H9.7z M9.7,5v0.9H8.8V5H9.7z M9.7,10v0.9H8.8V10H9.7z M10.7,2v0.9H9.8V2H10.7z M10.7,6v0.9H9.8V6H10.7z M10.7,11v0.9H9.8V11
		H10.7z M11.7,2v0.9h-0.9V2H11.7z M11.7,11v0.9h-0.9V11H11.7z"/>
	<path class="st1" d="M16.5,1v0.9h-0.9V1H16.5z M16.5,11v0.9h-0.9V11H16.5z M17.5,1v0.9h-0.9V1H17.5z M17.5,6v0.9h-0.9V6H17.5z
		 M17.5,7v0.9h-0.9V7H17.5z M17.5,8v0.9h-0.9V8H17.5z M17.5,11v0.9h-0.9V11H17.5z M18.5,1v0.9h-0.9V1H18.5z M18.5,2v0.9h-0.9V2H18.5
		z M18.5,3v0.9h-0.9V3H18.5z M18.5,4v0.9h-0.9V4H18.5z M18.5,5v0.9h-0.9V5H18.5z M18.5,8v0.9h-0.9V8H18.5z M18.5,11v0.9h-0.9V11
		H18.5z M19.5,1v0.9h-0.9V1H19.5z M19.5,4v0.9h-0.9V4H19.5z M19.5,8v0.9h-0.9V8H19.5z M19.5,11v0.9h-0.9V11H19.5z M20.5,1v0.9h-0.9
		V1H20.5z M20.5,4v0.9h-0.9V4H20.5z M20.5,8v0.9h-0.9V8H20.5z M20.5,11v0.9h-0.9V11H20.5z M21.5,1v0.9h-0.9V1H21.5z M21.5,4v0.9
		h-0.9V4H21.5z M21.5,8v0.9h-0.9V8H21.5z M21.5,11v0.9h-0.9V11H21.5z M22.5,1v0.9h-0.9V1H22.5z M22.5,4v0.9h-0.9V4H22.5z M22.5,8
		v0.9h-0.9V8H22.5z M22.5,11v0.9h-0.9V11H22.5z M23.5,1v0.9h-0.9V1H23.5z M23.5,4v0.9h-0.9V4H23.5z M23.5,8v0.9h-0.9V8H23.5z
		 M23.5,9v0.9h-0.9V9H23.5z M23.5,10v0.9h-0.9V10H23.5z M23.5,11v0.9h-0.9V11H23.5z M24.5,1v0.9h-0.9V1H24.5z M24.5,4v0.9h-0.9V4
		H24.5z M24.5,5v0.9h-0.9V5H24.5z M24.5,6v0.9h-0.9V6H24.5z M24.5,7v0.9h-0.9V7H24.5z M24.5,11v0.9h-0.9V11H24.5z M25.5,1v0.9h-0.9
		V1H25.5z M25.5,11v0.9h-0.9V11H25.5z M26.5,1v0.9h-0.9V1H26.5z M26.5,11v0.9h-0.9V11H26.5z"/>
	<path class="st1" d="M31.3,5v0.9h-0.9V5H31.3z M32.3,4v0.9h-0.9V4H32.3z M33.3,2v0.9h-0.9V2H33.3z M33.3,3v0.9h-0.9V3H33.3z
		 M33.3,4v0.9h-0.9V4H33.3z M33.3,5v0.9h-0.9V5H33.3z M33.3,6v0.9h-0.9V6H33.3z M33.3,7v0.9h-0.9V7H33.3z M33.3,8v0.9h-0.9V8H33.3z
		 M33.3,9v0.9h-0.9V9H33.3z M33.3,10v0.9h-0.9V10H33.3z M33.3,11v0.9h-0.9V11H33.3z M34.3,0v0.9h-0.9V0H34.3z M34.3,1v0.9h-0.9V1
		H34.3z M35.3,3v0.9h-0.9V3H35.3z M36.3,0v0.9h-0.9V0H36.3z M36.3,1v0.9h-0.9V1H36.3z M36.3,2v0.9h-0.9V2H36.3z M37.3,2v0.9h-0.9V2
		H37.3z M37.3,3v0.9h-0.9V3H37.3z M37.3,4v0.9h-0.9V4H37.3z M37.3,5v0.9h-0.9V5H37.3z M37.3,6v0.9h-0.9V6H37.3z M37.3,7v0.9h-0.9V7
		H37.3z M37.3,8v0.9h-0.9V8H37.3z M37.3,9v0.9h-0.9V9H37.3z M37.3,10v0.9h-0.9V10H37.3z M37.3,11v0.9h-0.9V11H37.3z M38.3,2v0.9
		h-0.9V2H38.3z M38.3,5v0.9h-0.9V5H38.3z M38.3,8v0.9h-0.9V8H38.3z M39.3,2v0.9h-0.9V2H39.3z M39.3,5v0.9h-0.9V5H39.3z M39.3,8v0.9
		h-0.9V8H39.3z M40.3,2v0.9h-0.9V2H40.3z M40.3,5v0.9h-0.9V5H40.3z M40.3,8v0.9h-0.9V8H40.3z M41.3,2v0.9h-0.9V2H41.3z M41.3,8v0.9
		h-0.9V8H41.3z"/>
	<path class="st1" d="M46,6v0.9h-0.9V6H46z M46,7v0.9h-0.9V7H46z M46,8v0.9h-0.9V8H46z M46,9v0.9h-0.9V9H46z M46,10v0.9h-0.9V10H46z
		 M46,11v0.9h-0.9V11H46z M47,6v0.9h-0.9V6H47z M47,10v0.9h-0.9V10H47z M48,0v0.9h-0.9V0H48z M48,1v0.9h-0.9V1H48z M48,2v0.9h-0.9V2
		H48z M48,3v0.9h-0.9V3H48z M48,4v0.9h-0.9V4H48z M48,6v0.9h-0.9V6H48z M48,10v0.9h-0.9V10H48z M49,0v0.9h-0.9V0H49z M49,4v0.9h-0.9
		V4H49z M49,6v0.9h-0.9V6H49z M49,10v0.9h-0.9V10H49z M50,0v0.9h-0.9V0H50z M50,4v0.9h-0.9V4H50z M50,6v0.9h-0.9V6H50z M50,7v0.9
		h-0.9V7H50z M50,8v0.9h-0.9V8H50z M50,9v0.9h-0.9V9H50z M50,10v0.9h-0.9V10H50z M50,11v0.9h-0.9V11H50z M51,0v0.9h-0.9V0H51z M51,4
		v0.9h-0.9V4H51z M52,0v0.9h-0.9V0H52z M52,4v0.9h-0.9V4H52z M52,6v0.9h-0.9V6H52z M52,7v0.9h-0.9V7H52z M52,8v0.9h-0.9V8H52z M52,9
		v0.9h-0.9V9H52z M52,10v0.9h-0.9V10H52z M52,11v0.9h-0.9V11H52z M53,0v0.9h-0.9V0H53z M53,4v0.9h-0.9V4H53z M53,6v0.9h-0.9V6H53z
		 M53,10v0.9h-0.9V10H53z M54,0v0.9h-0.9V0H54z M54,1v0.9h-0.9V1H54z M54,2v0.9h-0.9V2H54z M54,3v0.9h-0.9V3H54z M54,4v0.9h-0.9V4
		H54z M54,6v0.9h-0.9V6H54z M54,10v0.9h-0.9V10H54z M55,6v0.9h-0.9V6H55z M55,10v0.9h-0.9V10H55z M56,6v0.9h-0.9V6H56z M56,7v0.9
		h-0.9V7H56z M56,8v0.9h-0.9V8H56z M56,9v0.9h-0.9V9H56z M56,10v0.9h-0.9V10H56z M56,11v0.9h-0.9V11H56z"/>
</g>
<g>
	<path class="st6" d="M8.8,4.2c-0.5-0.3-0.6-0.6-0.3-1C8.6,3,8.8,2.8,9,2.8c0.2,0,0.4,0,0.6,0.2c0.3,0.2,0.6,0.4,0.9,0.6
		s0.5,0.4,0.7,0.6c0.2,0.2,0.4,0.4,0.7,0.6C12,5,12.3,5.2,12.5,5.4c0.3,0.2,0.4,0.4,0.4,0.7c0,0.2-0.1,0.4-0.3,0.6
		c-0.1,0.1-0.2,0.2-0.3,0.2s-0.2,0.1-0.2,0c-0.1,0-0.2-0.1-0.3-0.1s-0.2-0.2-0.4-0.3h0c-0.2-0.2-0.4-0.4-0.6-0.6
		c-0.2-0.2-0.4-0.3-0.5-0.5C10.1,6,9.8,6.5,9.4,7C9.1,7.5,8.7,8,8.2,8.5C8.8,8.8,9.3,9.2,10,9.4s1.3,0.5,2.1,0.7h0
		c0.3,0.1,0.5,0.2,0.6,0.3c0.2,0.2,0.2,0.4,0.1,0.6c0,0.1-0.1,0.2-0.1,0.3c-0.1,0.1-0.2,0.1-0.3,0.2c-0.1,0-0.2,0.1-0.3,0.1
		c-0.1,0-0.2,0-0.3,0c-1-0.3-1.9-0.6-2.7-0.9c-0.8-0.3-1.4-0.7-2.1-1.2c-0.6,0.4-1.3,0.8-2,1.2s-1.6,0.7-2.6,0.9v0
		c-0.3,0.1-0.5,0.1-0.7,0c-0.2-0.1-0.3-0.2-0.3-0.5c-0.1-0.2,0-0.4,0.1-0.6c0.1-0.2,0.3-0.3,0.5-0.3c0.8-0.2,1.5-0.5,2.2-0.7
		C4.9,9.2,5.5,8.9,6,8.5C5.6,8.1,5.3,7.7,5,7.3C4.6,6.8,4.3,6.3,4,5.8C3.9,5.9,3.7,6.1,3.5,6.3C3.3,6.4,3.1,6.6,2.8,6.8v0
		C2.6,6.9,2.3,7,2.1,7C1.9,7,1.8,6.8,1.6,6.6l0,0C1.5,6.5,1.5,6.3,1.5,6.1c0.1-0.2,0.2-0.4,0.4-0.5l0,0c0.3-0.2,0.5-0.4,0.8-0.5
		c0.2-0.2,0.4-0.3,0.6-0.5C3.5,4.4,3.6,4.2,3.8,4c0.2-0.2,0.3-0.4,0.5-0.7c0.1-0.2,0.3-0.3,0.5-0.4c0.2-0.1,0.4-0.1,0.6,0.1h0
		C5.5,3,5.7,3.2,5.7,3.4c0,0.2-0.1,0.4-0.3,0.7h0C5.4,4.2,5.3,4.3,5.3,4.4S5.1,4.5,5.1,4.6c0,0,0.1,0.1,0.1,0.1s0,0.1,0.1,0.1
		c0.5,1.1,1.2,2,1.9,2.7C7.6,7.2,8,6.7,8.3,6.2c0.3-0.5,0.6-1,0.9-1.6h0c0,0,0-0.1,0.1-0.1C9.1,4.4,9.1,4.4,9,4.3
		C8.9,4.3,8.9,4.2,8.8,4.2L8.8,4.2z M12.2,1.3c0.3,0,0.5,0.1,0.6,0.2c0.1,0.1,0.1,0.3,0.1,0.5c0,0.2,0,0.4-0.1,0.5
		c-0.1,0.1-0.3,0.2-0.6,0.2H2.3C2,2.7,1.8,2.7,1.7,2.5C1.6,2.4,1.6,2.3,1.6,2s0-0.4,0.1-0.5C1.8,1.4,2,1.3,2.3,1.3h3.9
		c0,0,0-0.1-0.1-0.1c0,0,0-0.1-0.1-0.1C6,0.9,5.9,0.7,6,0.5c0.1-0.2,0.3-0.3,0.6-0.5C6.8,0,7,0,7.2,0.1s0.4,0.3,0.5,0.6
		c0,0.1,0.1,0.2,0.1,0.3c0,0.1,0.1,0.2,0.1,0.4H12.2z"/>
	<path class="st6" d="M16.7,2.2c-0.3,0-0.4-0.1-0.5-0.2C16.1,1.9,16,1.7,16,1.5s0.1-0.4,0.2-0.5c0.1-0.1,0.3-0.2,0.5-0.2h9.4
		c0.5,0,0.7,0.2,0.7,0.7s-0.2,0.7-0.7,0.7h-5.8L20,3.5h3.6c1.4,0,1.9,0.7,1.6,2c-0.2,0.8-0.3,1.5-0.5,2.2c-0.2,0.7-0.3,1.5-0.5,2.2
		h2.4c0.3,0,0.4,0.1,0.6,0.2c0.1,0.1,0.2,0.3,0.2,0.5s-0.1,0.4-0.2,0.5c-0.1,0.1-0.3,0.2-0.6,0.2H16.5c-0.3,0-0.4-0.1-0.5-0.2
		c-0.1-0.1-0.2-0.3-0.2-0.5s0.1-0.4,0.2-0.5s0.3-0.2,0.5-0.2h6.3l0.3-1.4h-4c-0.4,0-0.7,0-0.9-0.1S17.8,8.2,17.7,8s-0.2-0.4-0.1-0.6
		c0-0.2,0-0.5,0.1-0.8l1.2-4.4H16.7z M19.1,6.7c0,0.2,0,0.3,0.1,0.3s0.1,0,0.2,0h4l0.4-1.8c0-0.1,0-0.2-0.1-0.2
		C23.6,5,23.6,5,23.5,5h-3.9L19.1,6.7z"/>
	<path class="st6" d="M33,11c0,0.5-0.2,0.7-0.7,0.7c-0.3,0-0.5-0.1-0.6-0.2c-0.1-0.1-0.1-0.3-0.1-0.6V6.4c-0.2,0.3-0.4,0.4-0.6,0.5
		c-0.2,0-0.4,0-0.6-0.2C30.1,6.6,30,6.4,30,6.2s0.1-0.5,0.4-0.8c0.5-0.7,0.9-1.4,1.3-2.2C32,2.5,32.3,1.8,32.5,1
		c0.1-0.3,0.2-0.5,0.3-0.7s0.3-0.2,0.5-0.1c0.3,0,0.5,0.1,0.6,0.3c0.1,0.2,0.1,0.4,0,0.8v0c-0.1,0.5-0.3,1-0.4,1.4
		C33.3,3.2,33.2,3.6,33,4V11z M36.8,1.3c0,0.1,0,0.1,0,0.2c0,0.1,0,0.1,0,0.2H41c0.3,0,0.5,0.1,0.6,0.2c0.1,0.1,0.2,0.3,0.2,0.6
		c0,0.3-0.1,0.4-0.2,0.6C41.4,3,41.2,3,41,3h-3.1v1.6h2.8c0.3,0,0.4,0.1,0.5,0.2s0.1,0.3,0.1,0.5c0,0.2,0,0.4-0.1,0.5
		s-0.3,0.2-0.5,0.2h-2.8v1.8h3c0.3,0,0.4,0,0.5,0.1c0.1,0.1,0.1,0.3,0.1,0.5c0,0.3,0,0.4-0.1,0.6c-0.1,0.1-0.3,0.2-0.5,0.2h-3V11
		c0,0.3-0.1,0.5-0.2,0.6c-0.1,0.1-0.3,0.1-0.5,0.1c-0.2,0-0.4,0-0.5-0.1c-0.1-0.1-0.2-0.3-0.2-0.6V3h-0.3c-0.2,0.4-0.4,0.9-0.6,1.3
		s-0.4,0.8-0.7,1.3c-0.2,0.3-0.4,0.5-0.6,0.5c-0.2,0-0.4,0-0.6-0.1c-0.2-0.2-0.3-0.3-0.3-0.5c0-0.2,0.1-0.4,0.3-0.7
		c0.2-0.3,0.4-0.6,0.6-0.9s0.3-0.6,0.5-0.9C34.9,2.6,35,2.3,35.1,2c0.1-0.3,0.2-0.7,0.3-1c0.1-0.3,0.1-0.5,0.3-0.6
		c0.1-0.1,0.3-0.2,0.6-0.1c0.3,0.1,0.5,0.2,0.6,0.3S36.9,1,36.8,1.3L36.8,1.3z"/>
	<path class="st6" d="M49.8,10.1c0,0.3,0,0.5-0.1,0.6c0,0.2-0.1,0.3-0.2,0.4c-0.1,0.1-0.2,0.1-0.4,0.2c-0.2,0-0.4,0-0.7,0h-2
		c-0.3,0-0.5,0-0.7,0c-0.2,0-0.3-0.1-0.4-0.2c-0.1-0.1-0.2-0.2-0.2-0.4c0-0.2,0-0.4,0-0.6v-3c0-0.3,0-0.5,0.1-0.6
		c0-0.2,0.1-0.3,0.2-0.4c0.1-0.1,0.2-0.2,0.4-0.2c0.2,0,0.4,0,0.7,0h2c0.3,0,0.5,0,0.7,0c0.2,0,0.3,0.1,0.4,0.2
		c0.1,0.1,0.2,0.2,0.2,0.4c0,0.2,0.1,0.4,0.1,0.6V10.1z M54.5,3.6c0,0.3,0,0.5,0,0.6s-0.1,0.3-0.2,0.4c-0.1,0.1-0.2,0.2-0.4,0.2
		c-0.2,0-0.4,0.1-0.7,0.1h-5.6c-0.3,0-0.5,0-0.7,0c-0.2,0-0.3-0.1-0.4-0.2c-0.1-0.1-0.2-0.2-0.2-0.4c0-0.2-0.1-0.4-0.1-0.7V2.1
		c0-0.3,0-0.5,0.1-0.7c0-0.2,0.1-0.3,0.2-0.4c0.1-0.1,0.2-0.2,0.4-0.2c0.2,0,0.4,0,0.7,0h5.6c0.3,0,0.5,0,0.7,0.1
		c0.2,0,0.3,0.1,0.4,0.2c0.1,0.1,0.2,0.2,0.2,0.4c0,0.2,0.1,0.4,0.1,0.7V3.6z M48.4,7.4c0-0.1-0.1-0.2-0.3-0.2h-1.5
		c-0.2,0-0.2,0.1-0.2,0.2v2.3c0,0.1,0,0.1,0,0.1c0,0,0.1,0,0.2,0h1.5c0.2,0,0.3-0.1,0.3-0.2V7.4z M53,2.3c0-0.1-0.1-0.2-0.3-0.2
		h-4.9c-0.2,0-0.2,0.1-0.2,0.2v1.1c0,0.1,0,0.1,0,0.1c0,0,0.1,0,0.2,0h4.9c0.2,0,0.3-0.1,0.3-0.2V2.3z M55.6,10c0,0.2,0,0.4,0,0.6
		s-0.1,0.3-0.2,0.4c-0.1,0.1-0.2,0.2-0.4,0.2c-0.2,0-0.4,0.1-0.7,0.1h-2.4c-0.3,0-0.5,0-0.7,0c-0.2,0-0.3-0.1-0.4-0.2
		c-0.1-0.1-0.2-0.2-0.2-0.4s0-0.4,0-0.6V7.1c0-0.3,0-0.5,0.1-0.6c0-0.2,0.1-0.3,0.2-0.4S51,6,51.2,6s0.4,0,0.6,0h2.4
		c0.3,0,0.5,0,0.7,0.1c0.2,0,0.3,0.1,0.4,0.2c0.1,0.1,0.2,0.2,0.2,0.4s0,0.4,0,0.6V10z M54.2,7.5c0-0.1-0.1-0.2-0.3-0.2h-1.8
		c-0.2,0-0.2,0.1-0.2,0.2v2.2c0,0.1,0,0.1,0,0.1c0,0,0.1,0,0.2,0h1.8c0.2,0,0.3-0.1,0.3-0.2V7.5z"/>
</g>
</svg>
