<?xml version="1.0" encoding="utf-8"?>
<!-- Generator: Adobe Illustrator 25.2.0, SVG Export Plug-In . SVG Version: 6.00 Build 0)  -->
<svg version="1.1" id="图层_1" xmlns="http://www.w3.org/2000/svg" xmlns:xlink="http://www.w3.org/1999/xlink" x="0px" y="0px"
	 viewBox="0 0 56.9 11.7" style="enable-background:new 0 0 56.9 11.7;" xml:space="preserve">
<style type="text/css">
	.st0{display:none;}
	.st1{display:inline;}
	.st2{fill:#5A3219;}
	.st3{display:none;enable-background:new    ;}
	.st4{display:inline;fill:#1B2D03;}
	.st5{fill:#899960;}
</style>
<g id="图层_1_1_" class="st0">
	<g id="レイヤー_2" class="st1">
		<g id="UI">
			<path class="st2" d="M3.2,7.9C3.6,7.9,4,8.2,4,8.6l0,0c0,0.3,0,0.3-0.4,1.2c-0.2,0.5-0.3,0.9-0.5,1.8c-0.1,0.6-0.6,0.9-1.2,0.9
				c-0.7,0-1.3-0.5-1.4-1.2C0.1,9.8,0,8.2,0,6.6c0-2.1,0.2-4.1,0.6-6.1c0.1-0.6,0.7-0.9,1.2-0.9c0.6,0,1.4,0.3,1.4,1
				c0,0.3-0.3,1.8-0.3,2.1C2.6,4.1,2.5,5.6,2.5,7.1c0,0.4,0,0.7,0.1,1.4C2.8,8,2.9,7.9,3.2,7.9z M5.6,6.2c0.5,0,1.2,0.2,1.2,0.8
				c0,0.1,0,0.3-0.1,0.4C6.5,7.7,6.5,7.9,6.4,8.1c0,0.4,0.3,0.8,2.3,0.8c0.6,0,1.2,0,1.8-0.1c0.2,0,0.9-0.1,1.1-0.1
				c0.6,0,1.1,0.4,1.1,1c0,0.1,0,0.1,0,0.2c0,1.2-0.6,1.5-3.7,1.5c-1.8,0-4.8-0.1-4.8-2.8C4.1,7.9,4.3,6.2,5.6,6.2z M5.8,0.9h1.7
				c0.3,0,1.1,0,2.2,0c0.2,0,0.9-0.1,1.1-0.1c0.3,0,0.6,0.1,0.9,0.3c0.3,0.3,0.4,0.6,0.4,1c0.1,0.6-0.4,1.2-1,1.2
				c-0.1,0-0.1,0-0.2,0C9.8,3.5,8.7,3.5,7.6,3.5c-2.2,0-3.1,0-3.1-1.3C4.4,1.6,4.8,1,5.4,0.9C5.6,0.9,5.7,0.9,5.8,0.9z"/>
			<path class="st2" d="M20.7,2.7c0-0.5-0.1-1.2,1.1-1.2s1.1,0.6,1.1,1.1v0.5c1.9,0.3,3.2,2,3.1,3.9c0.1,2.1-1.5,3.9-3.6,4.1
				c-0.1,0-0.2,0-0.3,0c-0.1,0.2-1,1.6-1.9,1.6c-0.6,0-1.1-0.5-1.2-1.1c0-0.2,0.1-0.4,0.4-0.7c0.2-0.2,0.4-0.4,0.5-0.6
				c-0.6-0.4-1.1-1.1-1.2-1.8c0-0.5,0.4-0.9,0.9-0.9c0,0,0,0,0.1,0c0.3,0,0.5,0.1,0.6,0.4c0.1,0.2,0.3,0.4,0.5,0.6
				c0.1-0.8,0.1-1.7,0.1-2.7V5.4c-1.8,0.9-2.7,3.1-3,4.9c-0.1,0.5-0.1,1-1,1c-0.4,0-0.8-0.2-1-0.6c-0.3-1.2-0.4-2.4-0.3-3.6
				c-0.1-1.3,0.1-2.7,0.4-4c0.2-0.4,0.6-0.6,1-0.5c0.6,0,1,0.3,1,0.8c0,0.1-0.2,1.1-0.2,1.3s-0.1,0.8-0.1,0.9c0.6-1.2,1.7-2,3-2.4
				L20.7,2.7z M24,7.1c0-1.4-0.7-1.7-0.9-1.8c0.1,1.3,0,2.5-0.2,3.8C23.6,8.7,24.1,7.9,24,7.1z"/>
			<path class="st2" d="M41.3,6.9c-0.9,0.6-1.9,1-3,1c-1,0-2-0.3-2.8-0.9s-1.8-1-2.9-1c-0.7,0-1.3,0.2-1.8,0.6
				C30.4,6.9,30.3,7,29.9,7c-0.5,0-1-0.3-1-0.9V6c0-0.4,0.1-0.6,0.7-1c0.9-0.6,1.9-1,3-1s2.1,0.3,3,0.9c0.8,0.6,1.7,0.9,2.7,1
				c0.7,0,1.4-0.3,2-0.7c0.2-0.2,0.5-0.3,0.8-0.3c0.5,0,1,0.4,1,0.9C42,6.2,41.9,6.4,41.3,6.9z"/>
			<path class="st2" d="M53,7.1c0.1,1.3-0.2,2.6-1,3.6c-0.9,1.1-2.2,1.9-3.6,2.1c-0.7,0-1.2-0.6-1.2-1.3l0,0c0-0.7,0.5-0.9,1-1
				c0.6-0.2,1.2-0.6,1.6-1.1c-0.3,0.1-0.7,0.2-1,0.1c-1.6,0-2.8-1.3-2.8-2.8c0-0.1,0-0.1,0-0.2c0-1.7,1.3-3.1,3-3.1
				c0.1,0,0.2,0,0.3,0c0.4,0,0.7,0.1,1.1,0.2V3l-3.5,0.1c-0.3,0-1.7,0.1-2,0.1c-1.3,0-1.4-0.7-1.4-1.3c0-1.2,0.8-1.2,1.7-1.2h1.6
				l3.6-0.1V0.2c0-0.3,0-1.3,1.3-1.3S53-0.2,53,0.1v0.4h0.6c0.3,0,1.7-0.1,2-0.1c0.4,0,1.3,0,1.3,1.2S56,3,55.4,3H53V7.1z M49.4,5.5
				c-0.6,0-1,0.4-1,1v0.1c0,0.6,0.4,1,0.9,1c0,0,0,0,0.1,0c0.5,0,0.9-0.4,0.9-1.1C50.4,6,50,5.5,49.4,5.5
				C49.5,5.5,49.5,5.5,49.4,5.5z"/>
		</g>
	</g>
</g>
<g class="st3">
	<path class="st4" d="M1.3,3.9v0.9H0.4V3.9H1.3z M1.3,8.9v0.9H0.4V8.9H1.3z M2.3,0.9v0.9H1.4V0.9H2.3z M2.3,3.9v0.9H1.4V3.9H2.3z
		 M2.3,8.9v0.9H1.4V8.9H2.3z M3.3,0.9v0.9H2.4V0.9H3.3z M3.3,3.9v0.9H2.4V3.9H3.3z M3.3,7.9v0.9H2.4V7.9H3.3z M3.3,10.9v0.9H2.4
		v-0.9H3.3z M4.3-0.1v0.9H3.4v-0.9H4.3z M4.3,0.9v0.9H3.4V0.9H4.3z M4.3,1.9v0.9H3.4V1.9H4.3z M4.3,2.9v0.9H3.4V2.9H4.3z M4.3,3.9
		v0.9H3.4V3.9H4.3z M4.3,4.9v0.9H3.4V4.9H4.3z M4.3,5.9v0.9H3.4V5.9H4.3z M4.3,6.9v0.9H3.4V6.9H4.3z M4.3,7.9v0.9H3.4V7.9H4.3z
		 M4.3,8.9v0.9H3.4V8.9H4.3z M4.3,9.9v0.9H3.4V9.9H4.3z M4.3,10.9v0.9H3.4v-0.9H4.3z M5.3-0.1v0.9H4.4v-0.9H5.3z M5.3,3.9v0.9H4.4
		V3.9H5.3z M5.3,6.9v0.9H4.4V6.9H5.3z M6.3,3.9v0.9H5.4V3.9H6.3z M6.3,9.9v0.9H5.4V9.9H6.3z M7.3-0.1v0.9H6.4v-0.9H7.3z M7.3,0.9
		v0.9H6.4V0.9H7.3z M7.3,1.9v0.9H6.4V1.9H7.3z M7.3,2.9v0.9H6.4V2.9H7.3z M7.3,3.9v0.9H6.4V3.9H7.3z M7.3,4.9v0.9H6.4V4.9H7.3z
		 M7.3,5.9v0.9H6.4V5.9H7.3z M7.3,6.9v0.9H6.4V6.9H7.3z M7.3,8.9v0.9H6.4V8.9H7.3z M8.3,3.9v0.9H7.4V3.9H8.3z M8.3,7.9v0.9H7.4V7.9
		H8.3z M8.3,8.9v0.9H7.4V8.9H8.3z M9.3,3.9v0.9H8.4V3.9H9.3z M9.3,6.9v0.9H8.4V6.9H9.3z M9.3,9.9v0.9H8.4V9.9H9.3z M10.3,0.9v0.9
		H9.4V0.9H10.3z M10.3,3.9v0.9H9.4V3.9H10.3z M10.3,5.9v0.9H9.4V5.9H10.3z M10.3,10.9v0.9H9.4v-0.9H10.3z M11.3,1.9v0.9h-0.9V1.9
		H11.3z M11.3,3.9v0.9h-0.9V3.9H11.3z M11.3,8.9v0.9h-0.9V8.9H11.3z M11.3,9.9v0.9h-0.9V9.9H11.3z M11.3,10.9v0.9h-0.9v-0.9H11.3z"
		/>
	<path class="st4" d="M16.3,1.9v0.9h-0.9V1.9H16.3z M16.3,2.9v0.9h-0.9V2.9H16.3z M16.3,3.9v0.9h-0.9V3.9H16.3z M16.3,4.9v0.9h-0.9
		V4.9H16.3z M16.3,5.9v0.9h-0.9V5.9H16.3z M16.3,6.9v0.9h-0.9V6.9H16.3z M16.3,7.9v0.9h-0.9V7.9H16.3z M16.3,8.9v0.9h-0.9V8.9H16.3z
		 M16.3,9.9v0.9h-0.9V9.9H16.3z M16.3,10.9v0.9h-0.9v-0.9H16.3z M17.3,0.9v0.9h-0.9V0.9H17.3z M17.3,1.9v0.9h-0.9V1.9H17.3z
		 M17.3,5.9v0.9h-0.9V5.9H17.3z M17.3,9.9v0.9h-0.9V9.9H17.3z M18.3-0.1v0.9h-0.9v-0.9H18.3z M18.3,1.9v0.9h-0.9V1.9H18.3z
		 M18.3,5.9v0.9h-0.9V5.9H18.3z M18.3,9.9v0.9h-0.9V9.9H18.3z M19.3,1.9v0.9h-0.9V1.9H19.3z M19.3,5.9v0.9h-0.9V5.9H19.3z M19.3,9.9
		v0.9h-0.9V9.9H19.3z M20.3,1.9v0.9h-0.9V1.9H20.3z M20.3,2.9v0.9h-0.9V2.9H20.3z M20.3,3.9v0.9h-0.9V3.9H20.3z M20.3,4.9v0.9h-0.9
		V4.9H20.3z M20.3,5.9v0.9h-0.9V5.9H20.3z M20.3,6.9v0.9h-0.9V6.9H20.3z M20.3,7.9v0.9h-0.9V7.9H20.3z M20.3,8.9v0.9h-0.9V8.9H20.3z
		 M20.3,9.9v0.9h-0.9V9.9H20.3z M20.3,10.9v0.9h-0.9v-0.9H20.3z M21.3,3.9v0.9h-0.9V3.9H21.3z M22.3,2.9v0.9h-0.9V2.9H22.3z
		 M23.3-0.1v0.9h-0.9v-0.9H23.3z M23.3,0.9v0.9h-0.9V0.9H23.3z M23.3,1.9v0.9h-0.9V1.9H23.3z M23.3,4.9v0.9h-0.9V4.9H23.3z
		 M24.3,1.9v0.9h-0.9V1.9H24.3z M24.3,5.9v0.9h-0.9V5.9H24.3z M24.3,6.9v0.9h-0.9V6.9H24.3z M24.3,10.9v0.9h-0.9v-0.9H24.3z
		 M25.3,1.9v0.9h-0.9V1.9H25.3z M25.3,10.9v0.9h-0.9v-0.9H25.3z M26.3,1.9v0.9h-0.9V1.9H26.3z M26.3,2.9v0.9h-0.9V2.9H26.3z
		 M26.3,3.9v0.9h-0.9V3.9H26.3z M26.3,4.9v0.9h-0.9V4.9H26.3z M26.3,5.9v0.9h-0.9V5.9H26.3z M26.3,6.9v0.9h-0.9V6.9H26.3z M26.3,7.9
		v0.9h-0.9V7.9H26.3z M26.3,8.9v0.9h-0.9V8.9H26.3z M26.3,9.9v0.9h-0.9V9.9H26.3z"/>
	<path class="st4" d="M31.3,1.9v0.9h-0.9V1.9H31.3z M32.3-0.1v0.9h-0.9v-0.9H32.3z M32.3,0.9v0.9h-0.9V0.9H32.3z M32.3,2.9v0.9h-0.9
		V2.9H32.3z M32.3,5.9v0.9h-0.9V5.9H32.3z M32.3,6.9v0.9h-0.9V6.9H32.3z M32.3,7.9v0.9h-0.9V7.9H32.3z M32.3,8.9v0.9h-0.9V8.9H32.3z
		 M32.3,9.9v0.9h-0.9V9.9H32.3z M32.3,10.9v0.9h-0.9v-0.9H32.3z M33.3,0.9v0.9h-0.9V0.9H33.3z M33.3,3.9v0.9h-0.9V3.9H33.3z
		 M34.3,0.9v0.9h-0.9V0.9H34.3z M34.3,1.9v0.9h-0.9V1.9H34.3z M34.3,4.9v0.9h-0.9V4.9H34.3z M34.3,5.9v0.9h-0.9V5.9H34.3z M34.3,6.9
		v0.9h-0.9V6.9H34.3z M34.3,7.9v0.9h-0.9V7.9H34.3z M34.3,8.9v0.9h-0.9V8.9H34.3z M35.3,0.9v0.9h-0.9V0.9H35.3z M35.3,2.9v0.9h-0.9
		V2.9H35.3z M35.3,4.9v0.9h-0.9V4.9H35.3z M35.3,6.9v0.9h-0.9V6.9H35.3z M35.3,8.9v0.9h-0.9V8.9H35.3z M36.3,1.9v0.9h-0.9V1.9H36.3z
		 M36.3,2.9v0.9h-0.9V2.9H36.3z M36.3,4.9v0.9h-0.9V4.9H36.3z M36.3,6.9v0.9h-0.9V6.9H36.3z M36.3,8.9v0.9h-0.9V8.9H36.3z M37.3-0.1
		v0.9h-0.9v-0.9H37.3z M37.3,0.9v0.9h-0.9V0.9H37.3z M37.3,2.9v0.9h-0.9V2.9H37.3z M37.3,4.9v0.9h-0.9V4.9H37.3z M37.3,6.9v0.9h-0.9
		V6.9H37.3z M37.3,8.9v0.9h-0.9V8.9H37.3z M38.3,0.9v0.9h-0.9V0.9H38.3z M38.3,2.9v0.9h-0.9V2.9H38.3z M38.3,4.9v0.9h-0.9V4.9H38.3z
		 M38.3,5.9v0.9h-0.9V5.9H38.3z M38.3,6.9v0.9h-0.9V6.9H38.3z M38.3,7.9v0.9h-0.9V7.9H38.3z M38.3,8.9v0.9h-0.9V8.9H38.3z
		 M38.3,10.9v0.9h-0.9v-0.9H38.3z M39.3,0.9v0.9h-0.9V0.9H39.3z M39.3,1.9v0.9h-0.9V1.9H39.3z M39.3,2.9v0.9h-0.9V2.9H39.3z
		 M39.3,10.9v0.9h-0.9v-0.9H39.3z M40.3,0.9v0.9h-0.9V0.9H40.3z M40.3,2.9v0.9h-0.9V2.9H40.3z M40.3,3.9v0.9h-0.9V3.9H40.3z
		 M40.3,4.9v0.9h-0.9V4.9H40.3z M40.3,5.9v0.9h-0.9V5.9H40.3z M40.3,6.9v0.9h-0.9V6.9H40.3z M40.3,7.9v0.9h-0.9V7.9H40.3z M40.3,8.9
		v0.9h-0.9V8.9H40.3z M40.3,9.9v0.9h-0.9V9.9H40.3z M40.3,10.9v0.9h-0.9v-0.9H40.3z M41.3,0.9v0.9h-0.9V0.9H41.3z"/>
	<path class="st4" d="M46.3,10.9v0.9h-0.9v-0.9H46.3z M47.3,0.9v0.9h-0.9V0.9H47.3z M47.3,1.9v0.9h-0.9V1.9H47.3z M47.3,2.9v0.9
		h-0.9V2.9H47.3z M47.3,3.9v0.9h-0.9V3.9H47.3z M47.3,4.9v0.9h-0.9V4.9H47.3z M47.3,5.9v0.9h-0.9V5.9H47.3z M47.3,6.9v0.9h-0.9V6.9
		H47.3z M47.3,7.9v0.9h-0.9V7.9H47.3z M47.3,8.9v0.9h-0.9V8.9H47.3z M47.3,9.9v0.9h-0.9V9.9H47.3z M48.3,0.9v0.9h-0.9V0.9H48.3z
		 M48.3,10.9v0.9h-0.9v-0.9H48.3z M49.3,0.9v0.9h-0.9V0.9H49.3z M49.3,3.9v0.9h-0.9V3.9H49.3z M49.3,9.9v0.9h-0.9V9.9H49.3z
		 M50.3,0.9v0.9h-0.9V0.9H50.3z M50.3,3.9v0.9h-0.9V3.9H50.3z M50.3,7.9v0.9h-0.9V7.9H50.3z M50.3,8.9v0.9h-0.9V8.9H50.3z M51.3,0.9
		v0.9h-0.9V0.9H51.3z M51.3,1.9v0.9h-0.9V1.9H51.3z M51.3,2.9v0.9h-0.9V2.9H51.3z M51.3,3.9v0.9h-0.9V3.9H51.3z M51.3,4.9v0.9h-0.9
		V4.9H51.3z M51.3,5.9v0.9h-0.9V5.9H51.3z M51.3,6.9v0.9h-0.9V6.9H51.3z M52.3,0.9v0.9h-0.9V0.9H52.3z M52.3,3.9v0.9h-0.9V3.9H52.3z
		 M52.3,10.9v0.9h-0.9v-0.9H52.3z M53.3,0.9v0.9h-0.9V0.9H53.3z M53.3,3.9v0.9h-0.9V3.9H53.3z M53.3,10.9v0.9h-0.9v-0.9H53.3z
		 M54.3,0.9v0.9h-0.9V0.9H54.3z M54.3,3.9v0.9h-0.9V3.9H54.3z M54.3,10.9v0.9h-0.9v-0.9H54.3z M55.3,0.9v0.9h-0.9V0.9H55.3z
		 M55.3,3.9v0.9h-0.9V3.9H55.3z M55.3,4.9v0.9h-0.9V4.9H55.3z M55.3,5.9v0.9h-0.9V5.9H55.3z M55.3,6.9v0.9h-0.9V6.9H55.3z M55.3,7.9
		v0.9h-0.9V7.9H55.3z M55.3,8.9v0.9h-0.9V8.9H55.3z M55.3,9.9v0.9h-0.9V9.9H55.3z M56.3,0.9v0.9h-0.9V0.9H56.3z"/>
</g>
<g id="efAhZj.tif" class="st0">
	
		<image style="display:inline;overflow:visible;enable-background:new    ;" width="702" height="362" id="Layer_0" xlink:href="861DB3E7213C8A6C.png"  transform="matrix(1 0 0 1 -323 -175.1647)">
	</image>
</g>
<g>
	<path class="st5" d="M6.8,0.9c0-0.2,0-0.3,0-0.4c0-0.1,0.1-0.2,0.1-0.2C7,0.2,7,0.1,7.1,0.1c0.1,0,0.2,0,0.3,0
		c0.3,0,0.4,0.1,0.5,0.2c0.1,0.1,0.2,0.3,0.2,0.6c0,0.4,0,0.8,0,1.3c0,0.4,0.1,0.9,0.1,1.4h1.9c0,0-0.1-0.1-0.1-0.1S10,3.3,10,3.3
		C9.8,3.1,9.6,2.9,9.4,2.7C9.2,2.5,9,2.2,8.7,2C8.5,1.8,8.4,1.6,8.4,1.4c0-0.2,0-0.3,0.2-0.5s0.3-0.3,0.5-0.3c0.2,0,0.3,0.1,0.6,0.3
		c0.3,0.2,0.5,0.5,0.8,0.7c0.3,0.3,0.5,0.5,0.7,0.8c0.2,0.2,0.3,0.4,0.3,0.6s-0.1,0.3-0.3,0.5h0.5c0.3,0,0.4,0.1,0.5,0.2
		c0.1,0.1,0.1,0.3,0.1,0.5c0,0.2,0,0.4-0.1,0.5c-0.1,0.1-0.3,0.2-0.5,0.2h-0.7c0,0.1,0,0.3-0.1,0.6c-0.3,1-0.8,1.8-1.3,2.6
		c0.3,0.6,0.6,1.1,0.9,1.5c0.1,0.1,0.1,0.1,0.1,0.1c0,0,0-0.1,0.1-0.1c0-0.1,0.1-0.3,0.1-0.5c0-0.2,0-0.3,0.1-0.5
		c0-0.3,0.1-0.5,0.2-0.6C11.1,8,11.3,8,11.5,8c0.2,0,0.4,0.1,0.5,0.2s0.1,0.3,0.1,0.5c0,0.6-0.1,1-0.2,1.4c-0.1,0.4-0.2,0.7-0.4,1
		c-0.1,0.2-0.2,0.3-0.3,0.4c-0.1,0.1-0.3,0.1-0.4,0.1c-0.2,0-0.3,0-0.5-0.1c-0.2-0.1-0.3-0.1-0.4-0.3c-0.3-0.3-0.5-0.6-0.7-0.9
		c-0.2-0.3-0.5-0.7-0.7-1.1c-0.3,0.3-0.6,0.5-1,0.8c-0.3,0.2-0.7,0.5-1.1,0.7C6,10.9,5.8,11,5.7,11c-0.2,0-0.3-0.1-0.4-0.3
		c-0.1-0.2-0.2-0.4-0.1-0.6c0.1-0.2,0.2-0.3,0.5-0.5C6.1,9.3,6.5,9,6.9,8.8s0.7-0.5,1-0.8c-0.2-0.5-0.4-1-0.5-1.5s-0.2-1-0.3-1.5H5
		v1.4c0.2-0.1,0.5-0.1,0.7-0.2C5.9,6,6.1,5.9,6.4,5.9c0.2-0.1,0.4-0.1,0.5,0C7,6,7.1,6.1,7.2,6.3s0.1,0.4,0,0.5
		C7.1,7,6.9,7.1,6.7,7.2C6.4,7.3,6.1,7.4,5.8,7.4C5.5,7.5,5.3,7.6,5,7.7V10c0,0.5-0.1,0.9-0.4,1.2c-0.3,0.3-0.7,0.4-1.2,0.4
		c-0.2,0-0.5,0-0.8-0.1c-0.3-0.1-0.6-0.2-0.9-0.3l0,0c-0.2-0.1-0.4-0.2-0.4-0.4c-0.1-0.2,0-0.4,0.1-0.6c0.1-0.2,0.2-0.3,0.4-0.4
		c0.2,0,0.4,0,0.6,0.1c0.5,0.2,0.8,0.3,1.1,0.3c0.1,0,0.2-0.1,0.2-0.2V8.1C3.3,8.2,3,8.3,2.7,8.3C2.4,8.4,2.1,8.5,1.8,8.5
		c-0.3,0.1-0.4,0.1-0.6,0C1.1,8.5,1,8.3,0.9,8.1C0.9,7.9,0.9,7.7,1,7.5C1,7.4,1.2,7.2,1.5,7.2c0.4-0.1,0.7-0.2,1-0.2s0.7-0.2,1-0.2
		V4.9H1.3C1,4.9,0.8,4.9,0.7,4.7C0.6,4.6,0.6,4.5,0.6,4.2c0-0.2,0-0.4,0.1-0.5C0.8,3.6,1,3.5,1.3,3.5h2.3v-1c-0.2,0-0.4,0.1-0.7,0.1
		c-0.2,0-0.5,0.1-0.8,0.1c-0.3,0-0.5,0-0.6-0.1C1.3,2.6,1.3,2.4,1.2,2.1c0-0.3,0-0.5,0.1-0.6C1.5,1.4,1.7,1.3,2,1.3
		c0.4,0,0.8-0.1,1.1-0.1C3.4,1.1,3.7,1,4,1c0.3-0.1,0.5-0.1,0.8-0.2c0.2-0.1,0.5-0.2,0.8-0.3C5.8,0.3,6,0.3,6.1,0.3s0.3,0.2,0.4,0.4
		c0.1,0.2,0.1,0.4,0,0.6S6.3,1.6,6.1,1.7C5.8,1.8,5.7,1.9,5.5,1.9C5.3,2,5.1,2,5,2.1v1.4h1.9c0-0.4-0.1-0.9-0.1-1.3
		C6.8,1.8,6.8,1.3,6.8,0.9z M9.5,5.1c0-0.1,0-0.1,0.1-0.2h-1c0.1,0.3,0.1,0.6,0.2,0.8C8.7,6,8.8,6.2,8.9,6.5C9,6.3,9.1,6.1,9.2,5.8
		C9.3,5.6,9.4,5.3,9.5,5.1z"/>
	<path class="st5" d="M21.4,4.3c-0.2,0.4-0.5,0.5-0.8,0.4v4.7c0,0.5-0.1,0.8-0.3,1c-0.2,0.2-0.5,0.3-1,0.3H17c-0.5,0-0.8-0.1-1-0.3
		c-0.2-0.2-0.3-0.5-0.3-1V2.8c0-0.4,0.1-0.8,0.3-1s0.5-0.3,1-0.3h0.6c0-0.1,0-0.2,0.1-0.3s0-0.2,0.1-0.3c0-0.3,0.1-0.5,0.3-0.6
		s0.3-0.2,0.6-0.1c0.3,0,0.5,0.1,0.5,0.3c0.1,0.2,0.1,0.4,0,0.7c0,0.1,0,0.1,0,0.2c0,0.1,0,0.1,0,0.2h0.4c0.5,0,0.8,0.1,1,0.3
		s0.3,0.5,0.3,1v0.1c0.2-0.3,0.4-0.6,0.6-1c0.2-0.3,0.3-0.8,0.5-1.2c0.1-0.3,0.2-0.5,0.3-0.6C22.2,0,22.4,0,22.6,0
		c0.2,0,0.4,0.2,0.5,0.3c0.1,0.2,0.1,0.4,0,0.7c0,0.1-0.1,0.2-0.1,0.4h2c0.3,0,0.5,0,0.7,0.1c0.2,0.1,0.3,0.2,0.5,0.3
		c0.1,0.1,0.2,0.3,0.3,0.5s0.1,0.4,0.1,0.7c0,0.4,0,0.9,0,1.4c0,0.5,0,1,0,1.5s0,1-0.1,1.4c0,0.4-0.1,0.8-0.1,1.1
		c-0.1,0.6-0.2,1-0.3,1.4c-0.1,0.4-0.3,0.7-0.4,0.9s-0.4,0.4-0.7,0.4c-0.3,0.1-0.6,0.1-0.9,0.1c-0.2,0-0.5-0.1-0.8-0.1
		c-0.3-0.1-0.7-0.2-1.1-0.3c-0.3-0.1-0.5-0.3-0.6-0.4c-0.1-0.2-0.1-0.4,0-0.6c0.1-0.2,0.2-0.4,0.4-0.4c0.2-0.1,0.4,0,0.7,0.1
		c0.4,0.2,0.7,0.3,1,0.3c0.3,0.1,0.5,0,0.7-0.1c0.2-0.1,0.3-0.3,0.4-0.6c0.1-0.3,0.2-0.7,0.2-1.3C24.9,7.5,25,6.9,25,6.1
		c0-0.8,0-1.7,0-2.9c0-0.1,0-0.2-0.1-0.3c-0.1-0.1-0.2-0.1-0.4-0.1h-2.1c-0.1,0.2-0.3,0.5-0.4,0.7C21.7,3.8,21.6,4.1,21.4,4.3z
		 M19.3,3.3c0-0.1,0-0.2-0.1-0.3C19.1,3,19,2.9,18.8,2.9h-1.4c-0.1,0-0.2,0-0.2,0.1c0,0.1-0.1,0.2-0.1,0.3v2.1h2.1V3.3z M19.3,6.8
		h-2.1v2.1c0,0.2,0,0.3,0.1,0.3c0.1,0.1,0.2,0.1,0.3,0.1h1.4c0.2,0,0.3,0,0.3-0.1c0-0.1,0-0.2,0-0.3V6.8z M24.1,7.3
		c0.2,0.3,0.2,0.6,0.1,0.7c-0.1,0.2-0.2,0.3-0.4,0.4c-0.2,0.1-0.5,0.1-0.6,0c-0.2-0.1-0.3-0.3-0.4-0.6c-0.2-0.4-0.4-0.8-0.6-1.2
		s-0.4-0.7-0.6-1.1c-0.1-0.2-0.2-0.4-0.2-0.6s0.1-0.4,0.3-0.5c0.2-0.1,0.4-0.2,0.6-0.1c0.2,0,0.3,0.2,0.5,0.5
		C23,5.2,23.3,5.6,23.5,6C23.7,6.4,23.9,6.8,24.1,7.3z"/>
	<path class="st5" d="M31.3,3.3c-0.2,0.2-0.4,0.3-0.6,0.4c-0.2,0-0.4,0-0.6-0.2C30,3.3,29.9,3.2,30,3c0.1-0.2,0.2-0.4,0.4-0.6
		c0.1-0.1,0.2-0.3,0.3-0.4C30.8,1.8,31,1.6,31,1.5s0.2-0.3,0.3-0.5c0.1-0.2,0.1-0.3,0.2-0.4c0.1-0.3,0.2-0.4,0.4-0.5
		C32,0,32.2,0,32.4,0.1c0.4,0.1,0.5,0.4,0.3,0.9c0,0,0.8,0,2.4,0c0.3,0,0.4,0,0.6,0.1s0.2,0.2,0.2,0.4S35.9,1.9,35.7,2
		c-0.1,0.1-0.3,0.1-0.6,0.1h-0.7c0,0.1,0,0.1,0,0.1c0,0,0,0.1,0,0.1c0,0.3,0,0.6,0,0.7c-0.1,0.1-0.2,0.2-0.5,0.3
		c-0.2,0-0.4,0-0.5-0.1s-0.2-0.3-0.3-0.6c0-0.2-0.1-0.3-0.1-0.5h-0.9c-0.1,0.2-0.3,0.5-0.4,0.7C31.6,3,31.4,3.2,31.3,3.3z M32.1,11
		c0,0.2-0.1,0.3-0.2,0.5c-0.1,0.1-0.3,0.2-0.5,0.2c-0.2,0-0.4-0.1-0.5-0.2s-0.2-0.3-0.2-0.5V5.1c0-0.2,0.1-0.3,0.2-0.5
		c0.1-0.1,0.3-0.2,0.5-0.2c0.2,0,0.4,0.1,0.5,0.2c0.1,0.1,0.2,0.3,0.2,0.5V11z M34,4.4c-0.1,0.2-0.2,0.3-0.4,0.4
		c-0.1,0-0.3,0-0.6-0.1c-0.3-0.1-0.5-0.2-0.6-0.3c-0.2-0.1-0.3-0.1-0.5-0.2c-0.3-0.1-0.4-0.2-0.5-0.3c-0.1-0.2,0-0.3,0.1-0.5
		c0.1-0.2,0.2-0.3,0.4-0.3c0.1,0,0.3,0,0.6,0.1c0.1,0,0.2,0.1,0.3,0.1c0.1,0,0.2,0.1,0.3,0.1c0.1,0,0.2,0.1,0.3,0.1
		c0.1,0,0.2,0.1,0.3,0.1C34.1,3.8,34.2,4.1,34,4.4z M38.4,9c0,0.2,0,0.4,0,0.5c0,0.1-0.1,0.3-0.1,0.4c-0.1,0.1-0.2,0.2-0.4,0.2
		c-0.2,0-0.4,0.1-0.7,0.1h-3.1c-0.3,0-0.5,0-0.6-0.1c-0.2,0-0.3-0.1-0.3-0.2S33,9.7,33,9.5c0-0.1,0-0.3,0-0.5V6.3
		c0-0.2,0-0.4,0.1-0.5c0-0.1,0.1-0.3,0.2-0.3s0.2-0.2,0.4-0.2s0.4-0.1,0.6-0.1h2.9c0.5,0,0.8,0.1,1,0.3c0.2,0.2,0.3,0.5,0.3,0.9V9z
		 M37.2,6.5c0-0.1,0-0.1,0-0.1c0,0-0.1,0-0.2,0h-2.4c-0.1,0-0.2,0-0.2,0c0,0-0.1,0.1-0.1,0.2v0.6h2.9V6.5z M34.3,8.8
		c0,0.1,0,0.1,0,0.1c0,0,0.1,0,0.2,0h2.4c0.1,0,0.2,0,0.2,0c0,0,0-0.1,0-0.1V8.1h-2.9V8.8z M40.7,10.1c0,0.5-0.1,0.9-0.3,1.1
		s-0.5,0.3-0.9,0.3c-0.2,0-0.4,0-0.6,0c-0.2,0-0.5-0.1-0.8-0.1c-0.2,0-0.4-0.1-0.4-0.2s-0.1-0.3,0-0.5c0-0.2,0.1-0.4,0.3-0.4
		c0.2-0.1,0.4-0.1,0.7,0c0.1,0,0.2,0,0.3,0s0.1,0,0.2,0c0,0,0.1-0.1,0.1-0.1c0,0,0-0.1,0-0.2V4.9c0-0.1,0-0.2-0.1-0.2
		c-0.1,0-0.2-0.1-0.3-0.1h-3.7c-0.3,0-0.5-0.1-0.6-0.2c-0.1-0.1-0.2-0.3-0.2-0.4c0-0.2,0.1-0.3,0.2-0.4c0.1-0.1,0.3-0.2,0.6-0.2h4.2
		c0.5,0,0.8,0.1,1,0.3c0.2,0.2,0.3,0.5,0.3,0.9V10.1z M36.8,2.9c-0.4,0.4-0.8,0.5-1.1,0.2c-0.2-0.1-0.2-0.3-0.2-0.4
		c0-0.2,0.1-0.4,0.3-0.6c0.2-0.3,0.4-0.5,0.5-0.8c0.1-0.2,0.2-0.5,0.3-0.7c0.1-0.3,0.2-0.5,0.3-0.5c0.1-0.1,0.3-0.1,0.5,0
		c0.2,0.1,0.4,0.2,0.4,0.3c0.1,0.1,0,0.4,0,0.6c0,0,0.9,0,2.8,0c0.2,0,0.4,0,0.5,0.1c0.1,0.1,0.2,0.2,0.2,0.5S41.3,2,41.2,2
		c-0.1,0.1-0.3,0.1-0.5,0.1h-0.9c0,0.1,0,0.1,0,0.2c0,0.2,0,0.3,0,0.4c0,0.1,0,0.2-0.1,0.3c0,0.1-0.1,0.1-0.2,0.2s-0.2,0.1-0.3,0.1
		c-0.2,0-0.4,0-0.5-0.1c-0.1-0.1-0.2-0.3-0.3-0.6c0-0.1,0-0.1,0-0.2c0-0.1,0-0.1,0-0.2h-1.1c-0.1,0.1-0.1,0.3-0.2,0.4
		C37,2.7,36.9,2.8,36.8,2.9z"/>
	<path class="st5" d="M55.9,1.3c0,0.2-0.1,0.3-0.2,0.5C55.7,1.9,55.5,2,55.3,2h-8.5c-0.1,0-0.2,0-0.2,0.1s-0.1,0.1-0.1,0.2v3.3
		c0,0.6,0,1.2,0,1.7c0,0.5-0.1,1-0.1,1.4c-0.1,0.4-0.1,0.8-0.2,1.2s-0.2,0.7-0.3,1.1c-0.1,0.2-0.2,0.4-0.4,0.5
		c-0.2,0.1-0.3,0.1-0.5,0c-0.2-0.1-0.3-0.2-0.4-0.4s0-0.4,0.1-0.6c0.1-0.3,0.2-0.6,0.3-0.9c0.1-0.3,0.1-0.7,0.2-1
		c0.1-0.4,0.1-0.8,0.1-1.2c0-0.5,0-1,0-1.6V2c0-0.5,0.1-0.8,0.3-1c0.2-0.2,0.5-0.3,1-0.3h8.8C55.7,0.7,55.9,0.9,55.9,1.3z M51.2,3.9
		H54c0.3,0,0.5,0,0.7,0.1c0.2,0,0.3,0.1,0.4,0.2c0.1,0.1,0.2,0.3,0.2,0.5s0.1,0.4,0.1,0.7v0.4c0,0.4,0,0.7,0,1.1s0,0.7,0,1.1
		c0,0.4,0,0.7-0.1,1c0,0.3-0.1,0.6-0.1,0.8c-0.1,0.4-0.2,0.7-0.3,0.9c-0.1,0.2-0.3,0.4-0.5,0.6c-0.2,0.1-0.4,0.2-0.7,0.3
		s-0.6,0.1-1,0.1c-0.2,0-0.3,0-0.5,0c-0.2,0-0.3,0-0.5-0.1s-0.3-0.1-0.5-0.1s-0.4-0.1-0.6-0.2c-0.3-0.1-0.5-0.3-0.5-0.5
		c0-0.2,0-0.4,0.1-0.6c0.1-0.2,0.2-0.3,0.4-0.4c0.2-0.1,0.4,0,0.7,0.1c0.2,0.1,0.4,0.2,0.6,0.2c0.2,0,0.4,0,0.6,0c0.2,0,0.3,0,0.5,0
		c0.1,0,0.3,0,0.3-0.1c0.1,0,0.2-0.1,0.2-0.2c0.1-0.1,0.1-0.2,0.2-0.4c0.1-0.2,0.1-0.5,0.1-0.9c0-0.3,0.1-0.7,0.1-1c0-0.3,0-0.7,0-1
		c0-0.3,0-0.6,0-0.8c0-0.2-0.1-0.3-0.1-0.3c-0.1,0-0.2,0-0.4,0h-2.3c-0.1,0.8-0.2,1.4-0.3,2c-0.2,0.6-0.4,1.1-0.6,1.6
		c-0.3,0.5-0.6,0.9-0.9,1.3c-0.4,0.4-0.8,0.8-1.2,1.1c-0.3,0.2-0.5,0.3-0.7,0.3c-0.2,0-0.4-0.1-0.5-0.3c-0.1-0.2-0.1-0.4-0.1-0.5
		c0.1-0.2,0.2-0.4,0.5-0.6c0.4-0.3,0.8-0.6,1.1-1c0.3-0.3,0.5-0.6,0.7-1c0.2-0.4,0.4-0.8,0.5-1.2c0.1-0.5,0.2-1,0.2-1.6h-1.9
		c-0.3,0-0.4-0.1-0.5-0.2c-0.1-0.1-0.1-0.3-0.1-0.5c0-0.2,0-0.4,0.1-0.5c0.1-0.1,0.3-0.2,0.5-0.2h2c0-0.1,0-0.2,0-0.4
		c0-0.1,0-0.3,0-0.6c0-0.3,0.1-0.5,0.2-0.6c0.1-0.1,0.3-0.2,0.6-0.2c0.2,0,0.4,0.1,0.5,0.2c0.1,0.1,0.2,0.3,0.2,0.6L51.2,3.9z"/>
</g>
</svg>
