<?xml version="1.0" encoding="utf-8"?>
<!-- Generator: Adobe Illustrator 25.2.1, SVG Export Plug-In . SVG Version: 6.00 Build 0)  -->
<svg version="1.1" id="图层_1" xmlns="http://www.w3.org/2000/svg" xmlns:xlink="http://www.w3.org/1999/xlink" x="0px" y="0px"
	 viewBox="0 0 152 152" style="enable-background:new 0 0 152 152;" xml:space="preserve">
<style type="text/css">
	.st0{fill:#FFFFFF;}
</style>
<path class="st0" d="M33.2,0H38c18.4,0,33.2,14.9,33.3,33.2c0,0,0,0,0,0v38h-38C14.9,71.3,0,56.4,0,38c0,0,0,0,0,0v-4.8
	C0,14.9,14.9,0,33.2,0L33.2,0z M33.2,80.7h38v38c0,18.4-14.9,33.2-33.2,33.3c0,0,0,0,0,0h-4.8C14.9,152,0,137.1,0,118.8V114
	C0,95.6,14.9,80.8,33.2,80.7C33.2,80.7,33.2,80.7,33.2,80.7L33.2,80.7z M114,0h4.8C137.1,0,152,14.9,152,33.2c0,0,0,0,0,0V38
	c0,18.4-14.9,33.2-33.2,33.3c0,0,0,0,0,0h-38v-38C80.7,14.9,95.6,0,114,0C114,0,114,0,114,0L114,0z M80.7,80.7h38
	c18.4,0,33.2,14.9,33.3,33.2c0,0,0,0,0,0v4.8c0,18.4-14.9,33.2-33.2,33.2l0,0H114c-18.4,0-33.2-14.9-33.3-33.2c0,0,0,0,0,0V80.7z"/>
</svg>
