<?xml version="1.0" encoding="utf-8"?>
<!-- Generator: Adobe Illustrator 25.2.1, SVG Export Plug-In . SVG Version: 6.00 Build 0)  -->
<svg version="1.1" id="图层_1" xmlns="http://www.w3.org/2000/svg" xmlns:xlink="http://www.w3.org/1999/xlink" x="0px" y="0px"
	 viewBox="0 0 237.6 227.1" style="enable-background:new 0 0 237.6 227.1;" xml:space="preserve">
<style type="text/css">
	.st0{fill:#F2D76C;}
</style>
<g>
	<path class="st0" d="M129.5,6.7L157,62.3c1.7,3.5,5.1,6,9,6.6l61.3,8.9c9.8,1.4,13.8,13.5,6.6,20.4l-44.4,43.3
		c-2.8,2.8-4.1,6.7-3.4,10.6l10.5,61.1c1.7,9.8-8.6,17.3-17.4,12.6l-54.9-28.8c-3.5-1.8-7.7-1.8-11.2,0l-54.9,28.8
		c-8.8,4.6-19.1-2.8-17.4-12.6L51.5,152c0.7-3.9-0.6-7.9-3.4-10.6L3.6,98.2c-7.1-6.9-3.2-19,6.6-20.4l61.3-8.9c3.9-0.6,7.3-3,9-6.6
		L108,6.7C112.4-2.2,125.1-2.2,129.5,6.7z"/>
</g>
</svg>
