<?xml version="1.0" encoding="utf-8"?>
<!-- Generator: Adobe Illustrator 25.2.1, SVG Export Plug-In . SVG Version: 6.00 Build 0)  -->
<svg version="1.1" id="图层_1" xmlns="http://www.w3.org/2000/svg" xmlns:xlink="http://www.w3.org/1999/xlink" x="0px" y="0px"
	 viewBox="0 0 237.6 227.1" style="enable-background:new 0 0 237.6 227.1;" xml:space="preserve">
<style type="text/css">
	.st0{fill:#FDCD14;}
</style>
<g>
	<path class="st0" d="M133.9,9.2l23.8,48.2c2.4,4.9,7.1,8.3,12.5,9.1l53.2,7.7c13.6,2,19,18.7,9.2,28.3L194.1,140
		c-3.9,3.8-5.7,9.3-4.8,14.7l9.1,53c2.3,13.5-11.9,23.8-24,17.5l-47.6-25c-4.8-2.5-10.6-2.5-15.4,0l-47.6,25
		c-12.2,6.4-26.4-3.9-24-17.5l9.1-53c0.9-5.4-0.9-10.9-4.8-14.7L5.5,102.5c-9.8-9.6-4.4-26.3,9.2-28.3l53.2-7.7
		c5.4-0.8,10.1-4.2,12.5-9.1l23.8-48.2C110.3-3.1,127.8-3.1,133.9,9.2z"/>
</g>
</svg>
