<?xml version="1.0" encoding="utf-8"?>
<!-- Generator: Adobe Illustrator 25.2.1, SVG Export Plug-In . SVG Version: 6.00 Build 0)  -->
<svg version="1.1" id="图层_1" xmlns="http://www.w3.org/2000/svg" xmlns:xlink="http://www.w3.org/1999/xlink" x="0px" y="0px"
	 viewBox="0 0 237.6 227.1" style="enable-background:new 0 0 237.6 227.1;" xml:space="preserve">
<style type="text/css">
	.st0{fill:#F2D76C;}
</style>
<g>
	<path class="st0" d="M118.8,12l27.4,55.5c3.5,7.1,10.2,12,18.1,13.1l61.3,8.9l-44.4,43.2c-5.7,5.5-8.2,13.4-6.9,21.2l10.5,61
		L130,186.3c-3.4-1.8-7.3-2.8-11.2-2.8c-3.9,0-7.7,1-11.2,2.8l-54.8,28.8l10.5-61c1.3-7.8-1.2-15.7-6.9-21.2L12,89.6l61.3-8.9
		c7.8-1.1,14.6-6,18.1-13.1L118.8,12 M118.8,0c-4.3,0-8.5,2.2-10.7,6.7L80.6,62.3c-1.7,3.5-5.1,6-9,6.6l-61.3,8.9
		C0.4,79.1-3.5,91.2,3.6,98.2L48,141.4c2.8,2.8,4.1,6.7,3.4,10.6L41,213.1c-1.3,7.7,4.8,14,11.8,14c1.8,0,3.7-0.4,5.6-1.4l54.9-28.8
		c1.7-0.9,3.7-1.4,5.6-1.4c1.9,0,3.8,0.5,5.6,1.4l54.9,28.8c1.8,1,3.7,1.4,5.6,1.4c7,0,13.1-6.3,11.8-14L186.1,152
		c-0.7-3.9,0.6-7.9,3.4-10.6L234,98.2c7.1-6.9,3.2-19-6.6-20.4L166,68.8c-3.9-0.6-7.3-3-9-6.6L129.5,6.7C127.3,2.2,123.1,0,118.8,0
		L118.8,0z"/>
</g>
</svg>
