<?xml version="1.0" encoding="utf-8"?>
<!-- Generator: Adobe Illustrator 25.2.0, SVG Export Plug-In . SVG Version: 6.00 Build 0)  -->
<svg version="1.1" id="图层_1" xmlns="http://www.w3.org/2000/svg" xmlns:xlink="http://www.w3.org/1999/xlink" x="0px" y="0px"
	 viewBox="0 0 178.3 333.2" style="enable-background:new 0 0 178.3 333.2;" xml:space="preserve">
<style type="text/css">
	.st0{fill:#FFC548;}
	.st1{fill:none;stroke:#492F14;stroke-width:3;stroke-miterlimit:10;}
	.st2{fill:none;stroke:#84470B;stroke-width:3;stroke-miterlimit:10;}
	.st3{fill:#ED9573;stroke:#492F14;stroke-width:2;stroke-miterlimit:10;}
	.st4{fill:none;stroke:#492F14;stroke-width:2;stroke-miterlimit:10;}
	.st5{fill:none;stroke:#FFFFFF;stroke-width:5;stroke-linecap:round;stroke-miterlimit:10;}
	.st6{fill:#EDAF4C;}
	.st7{fill:#492F14;}
	.st8{fill:#94696C;stroke:#492F14;stroke-width:3;stroke-miterlimit:10;}
	.st9{fill:#CEE5C4;}
	.st10{opacity:0.58;}
	.st11{fill:#FFFFFF;}
	.st12{fill:none;stroke:#492F14;stroke-width:2;stroke-linecap:round;stroke-miterlimit:10;}
	.st13{fill:#FFFFFF;stroke:#492F14;stroke-width:0.75;stroke-linecap:round;stroke-miterlimit:10;}
	.st14{fill:none;stroke:#482E14;stroke-width:2;stroke-linecap:round;stroke-miterlimit:10;}
	.st15{fill:none;stroke:#482E14;stroke-width:2;stroke-miterlimit:10;}
	.st16{fill:#E9A039;stroke:#482E14;stroke-width:2;stroke-miterlimit:10;}
	.st17{fill:#702B16;}
	.st18{fill:none;stroke:#FFFFFF;stroke-linecap:round;stroke-miterlimit:10;}
	.st19{fill:#E83A3A;}
	.st20{fill:#482E14;}
	.st21{display:none;fill:none;stroke:#FFFFFF;stroke-linecap:round;stroke-miterlimit:10;}
	.st22{fill:#6D2A1A;stroke:#482E14;stroke-miterlimit:10;}
	.st23{fill:#6B2919;stroke:#482E14;stroke-miterlimit:10;}
	.st24{fill:#ED9573;stroke:#492F14;stroke-miterlimit:10;}
	.st25{fill:#6D2A1A;stroke:#482E14;stroke-width:0.75;stroke-miterlimit:10;}
	.st26{fill:#6B2919;stroke:#482E14;stroke-width:0.75;stroke-miterlimit:10;}
	.st27{fill:#692818;stroke:#482E14;stroke-width:0.75;stroke-miterlimit:10;}
	.st28{fill:#672717;stroke:#482E14;stroke-width:0.75;stroke-miterlimit:10;}
	.st29{fill:#652617;stroke:#482E14;stroke-width:0.75;stroke-miterlimit:10;}
	.st30{fill:#632516;stroke:#482E14;stroke-width:0.75;stroke-miterlimit:10;}
	.st31{fill:#FFC548;stroke:#492F14;stroke-width:3;stroke-miterlimit:10;}
	.st32{fill:none;stroke:#FFFFFF;stroke-width:0.75;stroke-miterlimit:10;}
</style>
<image style="overflow:visible;" width="400" height="300" xlink:href="Unknown.jpeg"  transform="matrix(0.6584 0 0 0.7487 -474.9355 -83.1574)">
</image>
<g>
	<g>
		<g>
			<path class="st0" d="M150.2,331.3H9.7c-4.2,0-7.6-3.4-7.6-7.6V9.2c0-4.2,3.4-7.6,7.6-7.6h159.1c4.2,0,7.6,3.4,7.6,7.6v295.9
				C176.5,319.6,164.7,331.3,150.2,331.3z"/>
			<g>
				<line class="st1" x1="15.3" y1="15.7" x2="15.3" y2="2.7"/>
				<line class="st1" x1="162.8" y1="15.7" x2="162.8" y2="2.2"/>
				<line class="st2" x1="3.6" y1="16.4" x2="175" y2="16.4"/>
				<path class="st3" d="M45.8,10.6h-23c-1.2,0-2.1-1-2.1-2.1v0c0-1.2,1-2.1,2.1-2.1h23c1.2,0,2.1,1,2.1,2.1v0
					C47.9,9.7,46.9,10.6,45.8,10.6z"/>
				<line class="st4" x1="24.7" y1="2.3" x2="24.7" y2="6.1"/>
				<line class="st4" x1="28.3" y1="2.3" x2="28.3" y2="6.1"/>
				<line class="st4" x1="31.9" y1="2.3" x2="31.9" y2="6.1"/>
			</g>
			<path class="st5" d="M13.6,3c0,0-10-2.5-10,11.9s0,308.5,0,308.5s-0.4,6.3,5,6.3"/>
			<polygon class="st6" points="117.1,330.2 177.3,287.1 176.5,311.6 168.6,325.2 158.6,330.4 			"/>
			<path class="st7" d="M150.2,332.8H9.7c-5,0-9.1-4.1-9.1-9.1V9.2c0-5,4.1-9.1,9.1-9.1h159.1c5,0,9.1,4.1,9.1,9.1v295.9
				C178,320.4,165.5,332.8,150.2,332.8z M9.7,3C6.4,3,3.6,5.8,3.6,9.2v314.5c0,3.4,2.8,6.1,6.1,6.1h140.5
				c13.7,0,24.8-11.1,24.8-24.8V9.2c0-3.4-2.8-6.1-6.1-6.1H9.7z"/>
		</g>
	</g>
	<path class="st8" d="M146.3,202.8H20.6c-2.9,0-5.3-2.4-5.3-5.3v-169c0-2.9,2.4-5.3,5.3-5.3h136.9c2.9,0,5.3,2.4,5.3,5.3v157.8
		C162.8,195.4,155.5,202.8,146.3,202.8z"/>
	<g>
		<g>
			<rect x="34.3" y="42.3" class="st9" width="111.7" height="143.2"/>
			<g class="st10">
				<polygon class="st11" points="81.8,42.3 34.3,98 34.3,71.8 59.5,42.3 				"/>
			</g>
			<g class="st10">
				<polygon class="st11" points="146,74.4 146,133.1 97.1,185.5 42.4,185.5 				"/>
			</g>
			<g class="st10">
				<polygon class="st11" points="146,141.8 146,149.1 112.1,185.5 105.2,185.5 				"/>
			</g>
			<path class="st7" d="M147,186.5H33.3V41.3H147V186.5z M35.3,184.5H145V43.3H35.3V184.5z"/>
		</g>
		<line class="st4" x1="105.3" y1="30.7" x2="105.3" y2="33.9"/>
		<line class="st4" x1="109.3" y1="30.7" x2="109.3" y2="33.9"/>
		<line class="st4" x1="113.3" y1="30.7" x2="113.3" y2="33.9"/>
		<line class="st4" x1="117.2" y1="30.7" x2="117.2" y2="33.9"/>
		<line class="st4" x1="121.2" y1="30.7" x2="121.2" y2="33.9"/>
		<line class="st4" x1="125.2" y1="30.7" x2="125.2" y2="33.9"/>
		<line class="st12" x1="140.8" y1="31.9" x2="158.7" y2="31.9"/>
		<circle class="st13" cx="24.7" cy="105.8" r="2.1"/>
		<line class="st12" x1="20" y1="111" x2="29.5" y2="111"/>
		<line class="st12" x1="20" y1="115.2" x2="29.5" y2="115.2"/>
		<line class="st14" x1="21" y1="213.7" x2="46.8" y2="213.7"/>
		<line class="st14" x1="91.5" y1="214.2" x2="158.7" y2="214.2"/>
		<line class="st15" x1="59.5" y1="212.2" x2="59.5" y2="215.3"/>
		<line class="st15" x1="63.8" y1="212.2" x2="63.8" y2="215.3"/>
		<line class="st15" x1="68" y1="212.2" x2="68" y2="215.3"/>
		<line class="st15" x1="72.3" y1="212.2" x2="72.3" y2="215.3"/>
		<line class="st15" x1="76.5" y1="212.2" x2="76.5" y2="215.3"/>
		<line class="st15" x1="80.8" y1="212.2" x2="80.8" y2="215.3"/>
		<line class="st12" x1="21" y1="32.3" x2="90.5" y2="32.3"/>
	</g>
	<g>
		<g>
			<circle class="st16" cx="40.3" cy="251.5" r="24.3"/>
			<g>
				<polygon class="st17" points="57.4,245.6 46.2,245.6 46.2,234.5 34.4,234.5 34.4,245.6 23.2,245.6 23.2,257.4 34.4,257.4 
					34.4,268.6 46.2,268.6 46.2,257.4 57.4,257.4 				"/>
				<polyline class="st18" points="46.3,246.8 56.3,246.8 56.3,248.4 				"/>
				<polyline class="st18" points="24.1,248 24.1,246.8 34.7,246.8 				"/>
				<polyline class="st18" points="35.3,236.6 35.3,235.7 45.3,235.7 45.3,236.9 				"/>
				<path class="st7" d="M47.2,269.6H33.4v-11.2H22.2v-13.8h11.2v-11.2h13.8v11.2h11.2v13.8H47.2V269.6z M35.4,267.6h9.8v-11.2h11.2
					v-9.8H45.2v-11.2h-9.8v11.2H24.2v9.8h11.2V267.6z"/>
			</g>
		</g>
		<g>
			<path class="st16" d="M146.2,233.7l-28.6,14.4c-5.3,2.7-7.4,9.2-4.8,14.5l1,2c2.7,5.3,9.2,7.4,14.5,4.8l28.6-14.4
				c5.3-2.7,7.4-9.2,4.8-14.5l-1-2C158,233.2,151.5,231,146.2,233.7z"/>
			<g>
				<circle class="st19" cx="125.6" cy="257.3" r="6.8"/>
				<path class="st18" d="M120.6,259.3c0,0-2.4-6.4,5.3-7.8"/>
				<path class="st20" d="M125.6,265.1c-4.3,0-7.8-3.5-7.8-7.8s3.5-7.8,7.8-7.8s7.8,3.5,7.8,7.8S129.9,265.1,125.6,265.1z
					 M125.6,251.5c-3.2,0-5.8,2.6-5.8,5.8c0,3.2,2.6,5.8,5.8,5.8c3.2,0,5.8-2.6,5.8-5.8C131.4,254.1,128.8,251.5,125.6,251.5z"/>
			</g>
			<g>
				<circle class="st19" cx="147.3" cy="246.5" r="6.8"/>
				<path class="st18" d="M142.3,248.5c0,0-2.4-6.4,5.3-7.8"/>
				<polyline class="st21" points="24.2,247.8 24.2,246.6 34.7,246.6 				"/>
				<path class="st20" d="M147.3,254.3c-4.3,0-7.8-3.5-7.8-7.8s3.5-7.8,7.8-7.8s7.8,3.5,7.8,7.8S151.6,254.3,147.3,254.3z
					 M147.3,240.7c-3.2,0-5.8,2.6-5.8,5.8c0,3.2,2.6,5.8,5.8,5.8c3.2,0,5.8-2.6,5.8-5.8C153.1,243.3,150.5,240.7,147.3,240.7z"/>
			</g>
		</g>
	</g>
	<g>
		<path class="st22" d="M70.7,287.5l-14.9,8.6c-1.7,1-2.3,3.2-1.3,4.8h0c1,1.7,3.2,2.3,4.8,1.3l14.9-8.6c1.7-1,2.3-3.2,1.3-4.8l0,0
			C74.6,287.2,72.4,286.6,70.7,287.5z"/>
		<path class="st23" d="M97.4,285.1l-14.9,8.6c-1.7,1-2.3,3.2-1.3,4.8h0c1,1.7,3.2,2.3,4.8,1.3l14.9-8.6c1.7-1,2.3-3.2,1.3-4.8l0,0
			C101.3,284.8,99.1,284.2,97.4,285.1z"/>
		<path class="st24" d="M89.2,325.8H70.8c-1.4,0-2.5-1.1-2.5-2.5l0,0c0-1.4,1.1-2.5,2.5-2.5h18.4c1.4,0,2.5,1.1,2.5,2.5l0,0
			C91.7,324.7,90.6,325.8,89.2,325.8z"/>
		<path class="st25" d="M167.4,304.8L167.4,304.8c-0.4,0.3-1,0.2-1.3-0.2l-8.7-12.5c-0.3-0.4-0.2-1,0.2-1.3l0,0
			c0.4-0.3,1-0.2,1.3,0.2l8.7,12.5C167.9,303.9,167.8,304.5,167.4,304.8z"/>
		<path class="st26" d="M161.3,308.6L161.3,308.6c-0.4,0.3-1,0.2-1.3-0.2l-8.7-12.5c-0.3-0.4-0.2-1,0.2-1.3l0,0
			c0.4-0.3,1-0.2,1.3,0.2l8.7,12.5C161.8,307.7,161.7,308.3,161.3,308.6z"/>
		<path class="st27" d="M155.2,312.4L155.2,312.4c-0.4,0.3-1,0.2-1.3-0.2l-8.7-12.5c-0.3-0.4-0.2-1,0.2-1.3l0,0
			c0.4-0.3,1-0.2,1.3,0.2l8.7,12.5C155.7,311.6,155.6,312.1,155.2,312.4z"/>
		<path class="st28" d="M149.1,316.3L149.1,316.3c-0.4,0.3-1,0.2-1.3-0.2l-8.7-12.5c-0.3-0.4-0.2-1,0.2-1.3v0c0.4-0.3,1-0.2,1.3,0.2
			l8.7,12.5C149.6,315.4,149.5,316,149.1,316.3z"/>
		<path class="st29" d="M143,320.1L143,320.1c-0.4,0.3-1,0.2-1.3-0.2l-8.7-12.5c-0.3-0.4-0.2-1,0.2-1.3l0,0c0.4-0.3,1-0.2,1.3,0.2
			l8.7,12.5C143.5,319.2,143.4,319.8,143,320.1z"/>
		<path class="st30" d="M136.9,323.9L136.9,323.9c-0.4,0.3-1,0.2-1.3-0.2l-8.7-12.5c-0.3-0.4-0.2-1,0.2-1.3l0,0
			c0.4-0.3,1-0.2,1.3,0.2l8.7,12.5C137.4,323.1,137.3,323.7,136.9,323.9z"/>
		<line class="st14" x1="61.6" y1="305.4" x2="73.6" y2="299.2"/>
		<line class="st14" x1="88.8" y1="303.4" x2="100.8" y2="297.1"/>
	</g>
	<circle class="st11" cx="135.1" cy="273.7" r="1.1"/>
	<circle class="st11" cx="155.2" cy="261.9" r="1.1"/>
</g>
<path class="st31" d="M11.7,4.2"/>
<line class="st32" x1="161.3" y1="3" x2="161.3" y2="14.9"/>
</svg>
