<svg xmlns="http://www.w3.org/2000/svg" viewBox="0 0 29.08 28"><defs><style>.cls-1{fill:#1da1f2;}.cls-2{fill:#fff;}</style></defs><g id="レイヤー_2" data-name="レイヤー 2"><g id="UI"><path class="cls-1" d="M15.13,12A7.57,7.57,0,1,1,7.57,4.45,7.56,7.56,0,0,1,15.13,12Z"/><path class="cls-1" d="M17.21,20.43a7.57,7.57,0,1,1-7.56-7.57A7.57,7.57,0,0,1,17.21,20.43Z"/><path class="cls-1" d="M26.41,19.73a7.57,7.57,0,1,1-7.56-7.56A7.56,7.56,0,0,1,26.41,19.73Z"/><path class="cls-1" d="M29.08,11.92a7.57,7.57,0,1,1-7.56-7.56A7.56,7.56,0,0,1,29.08,11.92Z"/><path class="cls-1" d="M21.66,7.57A7.57,7.57,0,1,1,14.1,0,7.55,7.55,0,0,1,21.66,7.57Z"/><path class="cls-2" d="M12.56,20.43a8.11,8.11,0,0,0,8.18-8.17c0-.12,0-.24,0-.37a5.75,5.75,0,0,0,1.43-1.48,5.67,5.67,0,0,1-1.65.45,2.89,2.89,0,0,0,1.26-1.59A5.74,5.74,0,0,1,20,10a2.87,2.87,0,0,0-4.89,2.62,8.2,8.2,0,0,1-5.93-3A2.9,2.9,0,0,0,10,13.42a3,3,0,0,1-1.3-.36v0A2.86,2.86,0,0,0,11,15.91a3.17,3.17,0,0,1-.76.1A3.1,3.1,0,0,1,9.73,16a2.88,2.88,0,0,0,2.68,2,5.75,5.75,0,0,1-3.56,1.23,5.22,5.22,0,0,1-.69,0,8.16,8.16,0,0,0,4.4,1.29"/></g></g></svg>