<svg xmlns="http://www.w3.org/2000/svg" viewBox="0 0 20 17.49"><defs><style>.cls-1{fill:#f29600;}</style></defs><g id="レイヤー_2" data-name="レイヤー 2"><g id="レイアウト"><path class="cls-1" d="M19.67,6c.22.13.33.28.33.44a2.71,2.71,0,0,1-.22,1c-.19.47-.41.7-.67.7A3.23,3.23,0,0,1,18,9a3.14,3.14,0,0,0-.95.57c-.4.48-.7.85-.89,1.11s-.44.38-.44.51a1.12,1.12,0,0,0,.25.58,1.12,1.12,0,0,1,.25.59,4.61,4.61,0,0,0,.64,1.91A4.73,4.73,0,0,1,17.49,16a1.72,1.72,0,0,1-.32,1,.91.91,0,0,1-.79.49A.68.68,0,0,1,16,17.3a.67.67,0,0,0-.31-.16q-.11,0-.21.15a.34.34,0,0,1-.24.14c-.15,0-.38-.19-.68-.57a1.3,1.3,0,0,0-1-.57h-.13c-.3-.32-.52-.48-.67-.48l-.19.06s-.06-.14-.06-.41a4.9,4.9,0,0,1-1.33-.57,3.24,3.24,0,0,0-1.4-.42,1.06,1.06,0,0,0-1,.7c-.12.32-.44.49-1,.53s-.82.18-.93.44a1.6,1.6,0,0,1-.37.57,5.21,5.21,0,0,1-.6.46,5,5,0,0,0-.59.18,2.4,2.4,0,0,1-.68.14c-.17,0-.37-.14-.6-.41-.43-.17-.64-.33-.64-.48a10.66,10.66,0,0,1,1.21-3.14,1.28,1.28,0,0,0,0-.13.32.32,0,0,0-.06-.13c.47-.46.7-.8.7-1,0-.68-.85-1.47-2.54-2.38A1.37,1.37,0,0,1,1.4,8.94,1.25,1.25,0,0,0,.44,8a.58.58,0,0,1-.09-.3c0-.16-.06-.25-.13-.27L0,7.15A1.65,1.65,0,0,1,.59,6a1.71,1.71,0,0,1,1.16-.65.89.89,0,0,1,.38.15.94.94,0,0,0,.41.14A1.36,1.36,0,0,0,3,5.52a1.6,1.6,0,0,1,.45-.09.94.94,0,0,1,.31.09.39.39,0,0,0,.36,0A5.07,5.07,0,0,1,5.4,5.27a3.09,3.09,0,0,1,.66.1,3.79,3.79,0,0,0,.7.09c.64,0,1-.21,1-.64a6.08,6.08,0,0,1,.64-1.9C8.77,2,9,1.52,9,1.49L9,.92A5.66,5.66,0,0,0,10.19.1a.26.26,0,0,1,.19-.1c.61,0,1.1.81,1.46,2.44.28-.16.41-.09.41.23a1.56,1.56,0,0,0,1.18,1.65l.06.66a.52.52,0,0,0,.32.07l.28,0a2.78,2.78,0,0,1,.7.35,2.07,2.07,0,0,0,1.05.31c.21,0,.51,0,.9,0s.67-.06.82-.09a1.39,1.39,0,0,1,.6.24,1.71,1.71,0,0,0,.57.27L19,5.87h.06A1,1,0,0,1,19.67,6Z"/></g></g></svg>