<svg xmlns="http://www.w3.org/2000/svg" xmlns:xlink="http://www.w3.org/1999/xlink" width="273" height="273" viewBox="0 0 273 273">
  <defs>
    <clipPath id="clip-path">
      <path id="路径_457" data-name="路径 457" d="M0-273H273V0H0Z" fill="none"/>
    </clipPath>
    <clipPath id="clip-path-2">
      <path id="路径_456" data-name="路径 456" d="M136-262.865,261.865-137,136-11.135,10.135-137Z" fill="none" clip-rule="evenodd"/>
    </clipPath>
    <clipPath id="clip-path-4">
      <path id="路径_459" data-name="路径 459" d="M136-272.764,271.764-137,136-1.235.235-137Z" fill="none" clip-rule="evenodd"/>
    </clipPath>
    <clipPath id="clip-path-5">
      <path id="路径_464" data-name="路径 464" d="M0-273H273V0H0Z" fill="#ff8e00"/>
    </clipPath>
    <clipPath id="clip-path-6">
      <path id="路径_463" data-name="路径 463" d="M95.28-127.351v9H64.29v-9.44l20.42-23.73a6.293,6.293,0,0,0,1.53-4.13A6.359,6.359,0,0,0,79.89-162a6.359,6.359,0,0,0-6.35,6.35h-9A15.373,15.373,0,0,1,79.89-171a15.366,15.366,0,0,1,15.35,15.35,15.331,15.331,0,0,1-3.7,9.99l-.01.01-15.75,18.3Z" fill="#ff8e00" clip-rule="evenodd"/>
    </clipPath>
    <clipPath id="clip-path-7">
      <path id="路径_462" data-name="路径 462" d="M64.29-118.351H95.28V-171H64.29Z" fill="#ff8e00"/>
    </clipPath>
    <clipPath id="clip-path-9">
      <path id="路径_466" data-name="路径 466" d="M142.58-124.292v5.946h31v-9H154.071l15.758-18.308,0,0a15.347,15.347,0,0,0,3.706-9.99A15.369,15.369,0,0,0,158.186-171a15.368,15.368,0,0,0-15.35,15.351h9a6.357,6.357,0,0,1,6.35-6.351,6.359,6.359,0,0,1,6.352,6.351,6.267,6.267,0,0,1-1.531,4.123L142.58-127.792Z" fill="#ff8e00" clip-rule="evenodd"/>
    </clipPath>
    <clipPath id="clip-path-11">
      <path id="路径_469" data-name="路径 469" d="M134.01-157.99l-9.09,10.46v14.23a7.1,7.1,0,0,1-1.72,5.07,5.852,5.852,0,0,1-4.47,1.84,5.963,5.963,0,0,1-4.5-1.84,6.961,6.961,0,0,1-1.76-4.98l-7.17,8.26a13.241,13.241,0,0,0,2.49,3.02,14.86,14.86,0,0,0,4.97,2.96,17.564,17.564,0,0,0,5.97,1,17.642,17.642,0,0,0,5.94-1,14.475,14.475,0,0,0,4.97-2.96,14.219,14.219,0,0,0,3.38-4.78,15.967,15.967,0,0,0,1.26-6.52v-21.6a17.794,17.794,0,0,0-.27-3.16Zm-1.41-4.22a13.824,13.824,0,0,0-2.96-3.92,14.475,14.475,0,0,0-4.97-2.96,17.642,17.642,0,0,0-5.94-1,17.564,17.564,0,0,0-5.97,1,14.86,14.86,0,0,0-4.97,2.96,13.909,13.909,0,0,0-3.42,4.78,15.967,15.967,0,0,0-1.26,6.52v21.6a17.676,17.676,0,0,0,.51,4.36l8.85-10.18v-15.64a7.132,7.132,0,0,1,1.76-5.11,5.915,5.915,0,0,1,4.5-1.87,5.806,5.806,0,0,1,4.47,1.87,7.249,7.249,0,0,1,1.72,5.11v1.32Z" fill="#ff8e00" clip-rule="evenodd"/>
    </clipPath>
    <clipPath id="clip-path-13">
      <path id="路径_472" data-name="路径 472" d="M195.2-169.661l-10.8,7.28,3.9,7.51,6.9-3.71v40.18h9.35v-51.26Z" fill="#ff8e00" clip-rule="evenodd"/>
    </clipPath>
    <clipPath id="clip-path-14">
      <path id="路径_474" data-name="路径 474" d="M0-273H273V0H0Z" fill="#5d5d5d"/>
    </clipPath>
  </defs>
  <g id="组_4854" data-name="组 4854" transform="translate(0 273)">
    <g id="组_4832" data-name="组 4832" clip-path="url(#clip-path)">
      <g id="组_4831" data-name="组 4831" clip-path="url(#clip-path-2)">
        <g id="组_4830" data-name="组 4830" transform="translate(136 -262.865) rotate(45)">
          <path id="路径_455" data-name="路径 455" d="M0,0H178V178H0Z" fill="none" stroke="#ff8e00" stroke-width="6"/>
        </g>
      </g>
    </g>
    <g id="组_4835" data-name="组 4835" clip-path="url(#clip-path)">
      <g id="组_4834" data-name="组 4834" clip-path="url(#clip-path-4)">
        <g id="组_4833" data-name="组 4833" transform="translate(136 -272.764) rotate(45)">
          <path id="路径_458" data-name="路径 458" d="M0,0H192V192H0Z" fill="none" stroke="#ff8e00" stroke-width="2"/>
        </g>
      </g>
    </g>
    <g id="组_4838" data-name="组 4838" clip-path="url(#clip-path-5)">
      <g id="组_4837" data-name="组 4837" clip-path="url(#clip-path-6)">
        <g id="组_4836" data-name="组 4836" clip-path="url(#clip-path-7)">
          <path id="路径_461" data-name="路径 461" d="M63.29-172H96.28v54.649H63.29Z" fill="#ff8e00"/>
        </g>
      </g>
    </g>
    <g id="组_4840" data-name="组 4840" clip-path="url(#clip-path-5)">
      <g id="组_4839" data-name="组 4839" clip-path="url(#clip-path-9)">
        <path id="路径_465" data-name="路径 465" d="M141.58-172h33v54.653h-33Z" fill="#ff8e00"/>
      </g>
    </g>
    <g id="组_4842" data-name="组 4842" clip-path="url(#clip-path-5)">
      <g id="组_4841" data-name="组 4841" clip-path="url(#clip-path-11)">
        <path id="路径_468" data-name="路径 468" d="M102.11-171.09h33.17v54.12H102.11Z" fill="#ff8e00"/>
      </g>
    </g>
    <g id="组_4844" data-name="组 4844" clip-path="url(#clip-path-5)">
      <g id="组_4843" data-name="组 4843" clip-path="url(#clip-path-13)">
        <path id="路径_471" data-name="路径 471" d="M183.4-170.661h22.15v53.26H183.4Z" fill="#ff8e00"/>
      </g>
    </g>
    <g id="组_4847" data-name="组 4847" clip-path="url(#clip-path-14)">
      <g id="组_4845" data-name="组 4845" transform="translate(64 -112)">
        <g id="组">
          <path id="路径_568" data-name="路径 568" d="M5.317,0H3.946V-4.087L3.3,0H2.329L1.67-4V0H.3V-6.047H2.408q.1.686.149,1.072.167,1.178.255,1.749.079-.457.176-1.187.062-.457.132-1.125l.053-.51H5.317Zm7.5-6.047L11.677-2.188V0H10.209V-2.188L9.11-6.047h1.45q.211,1.151.229,1.283.1.633.149,1.1.114-.8.246-1.485.088-.448.185-.9Z" transform="translate(0 7)" fill="#5d5d5d"/>
          <path id="路径_567" data-name="路径 567" d="M3.964-1.775q0,.624-.009.729a1.148,1.148,0,0,1-.277.721,1.11,1.11,0,0,1-.6.308,4.939,4.939,0,0,1-.782.044H.316V-6.021H1.494a11.132,11.132,0,0,1,1.358.057,1.275,1.275,0,0,1,.7.321,1.059,1.059,0,0,1,.36.6,4.309,4.309,0,0,1,.053.817ZM2.382-1.881V-4.526q0-.308-.11-.382a.715.715,0,0,0-.382-.075V-1.02q.413,0,.466-.272A4.046,4.046,0,0,0,2.382-1.881ZM10.684,0H7.968V-6.047h2.619v1.2H9.541v1.151h.984V-2.54H9.541V-1.2h1.143Zm7.071-1.494a2.6,2.6,0,0,1-.075.743,1.168,1.168,0,0,1-.25.417.985.985,0,0,1-.492.277,2.992,2.992,0,0,1-.756.083A2.908,2.908,0,0,1,15.4-.062a.974.974,0,0,1-.488-.3,1.327,1.327,0,0,1-.264-.5,3.554,3.554,0,0,1-.083-.91V-2h1.318v.563a1.494,1.494,0,0,0,.04.422q.04.114.207.114.281,0,.281-.492a2.364,2.364,0,0,0-.035-.475.717.717,0,0,0-.211-.334,12.47,12.47,0,0,1-1.125-.879A1.853,1.853,0,0,1,14.521-4.5a3.706,3.706,0,0,1,.04-.58,1.4,1.4,0,0,1,.163-.466.888.888,0,0,1,.492-.4,2.744,2.744,0,0,1,.844-.105,4.122,4.122,0,0,1,.8.062.891.891,0,0,1,.488.272,1.068,1.068,0,0,1,.255.536,4.718,4.718,0,0,1,.035.712v.079h-1.31v-.272a2.636,2.636,0,0,0-.009-.29.209.209,0,0,0-.22-.2q-.255,0-.255.475a.9.9,0,0,0,.119.527,3.539,3.539,0,0,0,.734.554,2.208,2.208,0,0,1,.888.914A3.125,3.125,0,0,1,17.755-1.494ZM23.235,0H21.662V-6.047h1.573Zm7.6-1.608a1.731,1.731,0,0,1-.325,1.187,2.138,2.138,0,0,1-1.573.448A2.571,2.571,0,0,1,28-.132a1.082,1.082,0,0,1-.589-.51,1.478,1.478,0,0,1-.171-.51,4.679,4.679,0,0,1-.04-.659V-3.867q0-.316,0-.62a2.166,2.166,0,0,1,.057-.505,1.2,1.2,0,0,1,.567-.8,2.2,2.2,0,0,1,1.138-.264,2.117,2.117,0,0,1,1.38.4,1.468,1.468,0,0,1,.492,1.2v.624H29.358v-.545a1.731,1.731,0,0,0-.075-.593.275.275,0,0,0-.277-.189.187.187,0,0,0-.2.158,2.442,2.442,0,0,0-.04.527v3.111q0,.457.255.457a.316.316,0,0,0,.3-.189,1.14,1.14,0,0,0,.1-.514V-2.32h-.413v-.932h1.828ZM38.635,0H37.29L36.13-2.839V0h-1.31V-6.047h1.336l1.169,2.813V-6.047h1.31Z" transform="translate(26.182 7)" fill="#5d5d5d"/>
        </g>
      </g>
      <g id="组_4846" data-name="组 4846" transform="translate(142 -111.891)">
        <path id="路径_569" data-name="路径 569" d="M3.7-3.832a1.7,1.7,0,0,1-.229,1.02,1.406,1.406,0,0,1-1.16.387H1.89V0H.316V-6.047H1.9a4.969,4.969,0,0,1,.87.057,1.131,1.131,0,0,1,.527.25,1.034,1.034,0,0,1,.316.435,3.279,3.279,0,0,1,.088.945ZM2.382-4.025v-.483a.614.614,0,0,0-.092-.409.6.6,0,0,0-.4-.092v1.538H2a.333.333,0,0,0,.3-.119A.886.886,0,0,0,2.382-4.025Zm8.9,1.512q0,.826-.026,1.165a1.665,1.665,0,0,1-.132.567,1.2,1.2,0,0,1-.611.611A2.527,2.527,0,0,1,9.475.018,2.527,2.527,0,0,1,8.434-.171a1.234,1.234,0,0,1-.62-.611,1.746,1.746,0,0,1-.127-.593q-.031-.391-.031-1.138V-3.542q0-.826.026-1.165a1.665,1.665,0,0,1,.132-.567,1.187,1.187,0,0,1,.606-.589,2.674,2.674,0,0,1,1.055-.176,2.7,2.7,0,0,1,1.05.171,1.165,1.165,0,0,1,.6.593,1.841,1.841,0,0,1,.127.6q.031.391.031,1.129ZM9.712-1.494V-4.632a1.46,1.46,0,0,0-.04-.4.182.182,0,0,0-.2-.123.19.19,0,0,0-.2.136,2.069,2.069,0,0,0-.044.532v3.1a1.217,1.217,0,0,0,.044.369.184.184,0,0,0,.193.132Q9.712-.888,9.712-1.494ZM18.871,0H17.412V-2.188a.723.723,0,0,0-.088-.431.508.508,0,0,0-.387-.105V0H15.364V-6.047H16.48a5.087,5.087,0,0,1,1.767.185q.624.308.624,1.459a1.969,1.969,0,0,1-.141.914.914.914,0,0,1-.721.334,1.115,1.115,0,0,1,.729.448,2.063,2.063,0,0,1,.132.9ZM17.412-4.21v-.334a.659.659,0,0,0-.062-.334.384.384,0,0,0-.343-.132h-.07v1.336q.308,0,.391-.1A.752.752,0,0,0,17.412-4.21Zm8.658-.633h-.923V0H23.574V-4.843h-.94v-1.2H26.07Zm6.478,0h-1.09v1.151h.976V-2.54h-.976V0H29.884V-6.047h2.663Zm7.629,2.329q0,.826-.026,1.165a1.665,1.665,0,0,1-.132.567,1.2,1.2,0,0,1-.611.611,2.527,2.527,0,0,1-1.042.189,2.527,2.527,0,0,1-1.042-.189,1.234,1.234,0,0,1-.62-.611,1.746,1.746,0,0,1-.127-.593q-.031-.391-.031-1.138V-3.542q0-.826.026-1.165a1.665,1.665,0,0,1,.132-.567,1.187,1.187,0,0,1,.606-.589,2.674,2.674,0,0,1,1.055-.176,2.7,2.7,0,0,1,1.05.171,1.165,1.165,0,0,1,.6.593,1.841,1.841,0,0,1,.127.6q.031.391.031,1.129ZM38.6-1.494V-4.632a1.46,1.46,0,0,0-.04-.4.182.182,0,0,0-.2-.123.19.19,0,0,0-.2.136,2.069,2.069,0,0,0-.044.532v3.1a1.217,1.217,0,0,0,.044.369.184.184,0,0,0,.193.132Q38.6-.888,38.6-1.494ZM47.147,0h-3V-6.047h1.573V-1.2h1.424ZM52.57,0H51V-6.047H52.57Zm7.621-2.514q0,.826-.026,1.165a1.665,1.665,0,0,1-.132.567,1.2,1.2,0,0,1-.611.611A2.527,2.527,0,0,1,58.38.018a2.527,2.527,0,0,1-1.042-.189,1.234,1.234,0,0,1-.62-.611,1.746,1.746,0,0,1-.127-.593q-.031-.391-.031-1.138V-3.542q0-.826.026-1.165a1.665,1.665,0,0,1,.132-.567,1.187,1.187,0,0,1,.606-.589,2.674,2.674,0,0,1,1.055-.176,2.7,2.7,0,0,1,1.05.171,1.165,1.165,0,0,1,.6.593,1.841,1.841,0,0,1,.127.6q.031.391.031,1.129Zm-1.573,1.02V-4.632a1.46,1.46,0,0,0-.04-.4.182.182,0,0,0-.2-.123.19.19,0,0,0-.2.136,2.069,2.069,0,0,0-.044.532v3.1a1.217,1.217,0,0,0,.044.369.184.184,0,0,0,.193.132Q58.618-.888,58.618-1.494Z" transform="translate(2 7)" fill="#5d5d5d"/>
      </g>
    </g>
  </g>
</svg>
