<?xml version="1.0" encoding="UTF-8"?>
<svg width="100px" height="100px" viewBox="0 0 100 100" version="1.1" xmlns="http://www.w3.org/2000/svg" xmlns:xlink="http://www.w3.org/1999/xlink">
    <title>ae</title>
    <g id="ae" stroke="none" stroke-width="1" fill="none" fill-rule="evenodd">
        <g id="AdobeAe" fill-rule="nonzero">
            <path d="M13.3152174,2.44565217 L86.6847826,2.44565217 C93.9311594,2.44565217 97.5543478,6.06884058 97.5543478,13.3152174 L97.5543478,86.6847826 C97.5543478,93.9311594 93.9311594,97.5543478 86.6847826,97.5543478 L13.3152174,97.5543478 C6.06884058,97.5543478 2.44565217,93.9311594 2.44565217,86.6847826 L2.44565217,13.3152174 C2.44565217,6.06884058 6.06884058,2.44565217 13.3152174,2.44565217 Z" id="路径" fill="#1F0040"></path>
            <path d="M86.6847826,100 L13.3152174,100 C5.96484028,99.9917634 0.00823656337,94.0351597 0,86.6847826 L0,13.3152174 C0.00823656337,5.96484028 5.96484028,0.00823656337 13.3152174,0 L86.6847826,0 C94.0351597,0.00823656337 99.9917634,5.96484028 100,13.3152174 L100,86.6847826 C99.9917634,94.0351597 94.0351597,99.9917634 86.6847826,100 L86.6847826,100 Z M13.3152174,4.89130435 C8.66499147,4.89654573 4.89654573,8.66499147 4.89130435,13.3152174 L4.89130435,86.6847826 C4.89654573,91.3350085 8.66499147,95.1034543 13.3152174,95.1086957 L86.6847826,95.1086957 C91.3350085,95.1034543 95.1034543,91.3350085 95.1086957,86.6847826 L95.1086957,13.3152174 C95.1034543,8.66499147 91.3350085,4.89654573 86.6847826,4.89130435 L13.3152174,4.89130435 Z" id="形状" fill="#D291FF"></path>
            <path d="M32.138587,30.2173913 L39.3668478,30.2173913 L54.3125,69.0217391 L47.0298913,69.0217391 L43.388587,58.75 L27.8994565,58.75 L24.2581522,69.0217391 L17.2472826,69.0217391 L32.138587,30.2173913 Z M29.7472826,53.5869565 L41.5951087,53.5869565 L35.7798913,36.9021739 L35.6168478,36.9021739 L29.7472826,53.5869565 Z M61.9755435,56.576087 C61.9755435,60.9782609 64.3668478,64.8913043 69.5298913,64.8913043 C73.1168478,64.8913043 75.2907609,63.3152174 76.3777174,60.2173913 L82.2472826,60.2173913 C80.888587,66.3586957 75.6711957,69.7826087 69.5298913,69.7826087 C60.7255435,69.7826087 55.7798913,63.6413043 55.7798913,55 C55.7798913,47.0108696 60.9972826,40.1630435 69.3668478,40.1630435 C78.2255435,40.1630435 83.6603261,48.1521739 82.6277174,56.576087 L61.9755435,56.576087 Z M76.4320652,52.5 C76.2146739,48.5869565 73.5516304,45.0543478 69.3668478,45.0543478 C65.0733696,45.0543478 62.138587,48.3152174 61.9755435,52.5 L76.4320652,52.5 Z" id="形状" fill="#D291FF"></path>
        </g>
    </g>
</svg>