<?xml version="1.0" encoding="UTF-8"?>
<svg width="100px" height="100px" viewBox="0 0 100 100" version="1.1" xmlns="http://www.w3.org/2000/svg" xmlns:xlink="http://www.w3.org/1999/xlink">
    <title>Axure</title>
    <g id="Axure" stroke="none" stroke-width="1" fill="none" fill-rule="evenodd">
        <g id="AxureRP" transform="translate(0.000000, 0.006189)" fill="#A400B3" fill-rule="nonzero">
            <path d="M25.0501519,99.96656 L25.0501519,98.4169512 C25.0613002,85.3511843 25.0613002,72.2854175 25.0724484,59.2196507 C25.094745,40.0334863 25.1281898,20.8473219 25.1504863,1.66115744 C25.1504863,0.0669555153 25.1504863,0.0669555153 26.7669848,0.0669555153 C48.8739947,0.0558072501 70.9810046,0.0781037805 93.0880145,3.28643239e-05 C96.978759,-0.0110823411 100.011087,2.79828049 99.9999695,6.93428688 C99.8884562,35.7971455 99.9330493,64.6488558 99.9330493,93.5117145 C99.9330493,97.4470521 97.4358379,99.9554118 93.5116485,99.96656 C71.1705251,99.9777083 48.8182533,99.9777083 26.4771299,99.9777083 C26.0757923,99.96656 25.685603,99.96656 25.0501519,99.96656 Z M61.7725375,91.5273233 C58.5841337,86.2096008 55.5072125,81.092547 52.4302913,75.964345 C53.2664111,75.6633419 54.0244932,75.4403766 54.7491304,75.1282251 C61.9063167,72.0736005 61.4938309,63.4671397 58.1270548,59.9331397 C55.9196983,57.6254488 53.1437802,56.544067 50.0891556,56.3879913 C45.484922,56.1538778 40.858392,56.2430639 36.2430102,56.1315812 C35.2062215,56.1092847 35.016701,56.499474 35.016701,57.4359283 C35.0501458,68.3723764 35.0389975,79.3088246 35.0389975,90.2452728 C35.0389975,90.6243138 35.0835906,91.0145031 35.1058871,91.4269889 L41.5161396,91.4269889 L41.5161396,76.5997961 C42.6644109,76.5997961 43.6900513,76.6666857 44.7045435,76.5774996 C45.6298495,76.4883135 46.1092249,76.8562062 46.532859,77.6588813 C48.8628464,82.0067048 51.2374269,86.3210834 53.6231556,90.635462 C53.8126761,90.9810583 54.1805689,91.4604337 54.4704238,91.4715819 C56.8115595,91.5607681 59.1638434,91.5273233 61.7725375,91.5273233 Z M70.4012948,77.012282 C72.2742033,77.012282 73.9687396,77.056875 75.6632759,77.0011337 C78.6398628,76.9007993 81.5272634,76.4548687 84.2251436,75.0278908 C90.5350617,71.6834112 90.2786516,61.460452 84.8160017,58.2497516 C82.8985001,57.1237768 80.836071,56.4548809 78.651011,56.3768431 C74.236298,56.2207674 69.8104367,56.2542121 65.3957237,56.1427295 C64.2808972,56.1092847 63.9130044,56.3991396 63.9130044,57.5697074 C63.9575975,68.4281178 63.9464492,79.2753798 63.9464492,90.1337901 C63.9464492,90.5574242 63.979894,90.9810583 64.0021905,91.4492854 L70.3901465,91.4492854 C70.4012948,86.6332348 70.4012948,81.9063704 70.4012948,77.012282 Z M18.539565,0.0335107197 L18.539565,99.921967 C18.1382275,99.9442635 17.7591865,99.9888565 17.3801455,99.9888565 C13.7123662,99.9888565 10.0334387,100.000005 6.36565943,99.9888565 C2.5306562,99.9777083 0,97.4359038 0,93.5786041 C0.0111482652,64.5596697 0.0222965304,35.5407354 0.0445930608,6.5106528 C0.0445930608,2.63105651 2.63099059,0.0558072501 6.49943861,0.0446589849 C10.08918,0.0335107197 13.6900697,0.0335107197 17.2798111,0.0335107197 L18.539565,0.0335107197 Z" id="形状"></path>
            <path d="M41.5161396,71.1482945 L41.5161396,61.6053794 C44.7156917,61.7837517 47.9040956,61.1705971 51.0033133,62.2296823 C52.9542597,62.8985782 53.9464553,64.3144079 53.9799001,66.1984647 C54.0133449,68.3612282 53.0991872,69.8105026 51.1036477,70.6131777 C50.4904931,70.8584396 49.8215972,71.1037014 49.1749978,71.1259979 C46.6666381,71.1817393 44.1582785,71.1482945 41.5161396,71.1482945 Z M70.4570361,71.7503008 L70.4570361,61.5161933 C73.2218059,61.672269 75.9419826,61.6499725 78.5952697,62.0290135 C81.0701846,62.385758 82.3522351,64.0579978 82.3968281,66.2876508 C82.4525695,68.7402692 81.3265947,70.5239916 78.818235,70.9922187 C76.1203548,71.4827424 73.3221403,71.5050389 70.4570361,71.7503008 Z" id="形状"></path>
        </g>
    </g>
</svg>