<?xml version="1.0" encoding="UTF-8"?>
<svg width="22px" height="22px" viewBox="0 0 22 22" version="1.1" xmlns="http://www.w3.org/2000/svg" xmlns:xlink="http://www.w3.org/1999/xlink">
    <title>自定义预设</title>
    <defs>
        <filter color-interpolation-filters="auto" id="filter-1">
            <feColorMatrix in="SourceGraphic" type="matrix" values="0 0 0 0 0.984314 0 0 0 0 0.458824 0 0 0 0 0.611765 0 0 0 1.000000 0"></feColorMatrix>
        </filter>
    </defs>
    <g id="自定义预设" stroke="none" stroke-width="1" fill="none" fill-rule="evenodd">
        <g filter="url(#filter-1)" id="bilibili">
            <g>
                <path d="M17.845303,0.456999496 C18.1032406,0.738965504 18.248154,1.12143723 18.248154,1.52024894 C18.248154,1.91906064 18.1032406,2.30153237 17.845303,2.58349838 L16.588004,3.95706545 L17.875003,3.95706545 C18.9692122,3.9570654 20.0185893,4.43243651 20.7922082,5.27856852 C21.565827,6.12470053 22.0002938,7.27225764 22,8.46870822 L22,17.4895694 C22,19.9806114 20.1531758,22 17.875003,22 L4.12499672,22 C1.84682394,22 0,19.9806114 0,17.4895694 L0,8.46870822 C0,5.97766619 1.84682394,3.95827762 4.12499672,3.95827762 L5.40761289,3.95827762 L4.15250529,2.58471056 C3.79525742,2.20726942 3.65198231,1.64847282 3.77771641,1.12297203 C3.90345052,0.597471242 4.27864006,0.18699053 4.75916299,0.0492083928 C5.23968592,-0.088573744 5.75081279,0.0677701485 6.09620375,0.458183484 L9.01340143,3.64796 C9.10028417,3.74296094 9.1729099,3.84641895 9.23120126,3.95706545 L12.7654984,3.95706545 C12.8254402,3.84338918 12.8990577,3.73901918 12.9843811,3.64674782 L15.900496,0.456999496 C16.1583679,0.174951965 16.5081615,0.016492553 16.8728995,0.016492553 C17.2376375,0.016492553 17.587431,0.174951965 17.845303,0.456999496 Z M17.875003,6.97606568 L4.12499672,6.97606568 C3.40510011,6.97577333 2.806867,7.58269345 2.75330641,8.36767457 L2.75000641,8.48071724 L2.75000641,17.5015784 C2.75000641,18.2942302 3.31100596,18.9437322 4.0226968,19.0002536 L4.12499672,19.0050742 L17.875003,19.0050742 C18.5948996,19.0053665 19.1931327,18.3984464 19.2466933,17.6134653 L19.2499933,17.5016066 L19.2499933,8.48074543 C19.2499933,7.6508262 18.6340024,6.97724977 17.875003,6.97724977 L17.875003,6.97606568 Z M6.87500313,9.98300072 C7.63400253,9.98300072 8.24999344,10.6565771 8.24999344,11.4864964 L8.24999344,12.9899638 C8.24999344,13.820306 7.63438931,14.4934313 6.87500313,14.4934313 C6.11561695,14.4934313 5.50001282,13.820306 5.50001282,12.9899638 L5.50001282,11.4864964 C5.50001282,10.6565771 6.11600373,9.98300072 6.87500313,9.98300072 Z M15.1249966,9.98300072 C15.883996,9.98300072 16.4999869,10.6565771 16.4999869,11.4864964 L16.4999869,12.9899638 C16.4999869,13.820306 15.8843828,14.4934313 15.1249966,14.4934313 C14.3656104,14.4934313 13.7500063,13.820306 13.7500063,12.9899638 L13.7500063,11.4864964 C13.7500063,10.6565771 14.3659972,9.98300072 15.1249966,9.98300072 L15.1249966,9.98300072 Z" id="形状" fill="#1296DB" fill-rule="nonzero"></path>
            </g>
        </g>
    </g>
</svg>