<?xml version="1.0" encoding="UTF-8"?>
<svg width="100px" height="100px" viewBox="0 0 100 100" version="1.1" xmlns="http://www.w3.org/2000/svg" xmlns:xlink="http://www.w3.org/1999/xlink">
    <title>csp</title>
    <g id="csp" stroke="none" stroke-width="1" fill="none" fill-rule="evenodd">
        <g id="Clip" fill="#000000" fill-rule="nonzero">
            <path d="M91.66625,3.46944695e-15 L8.33375,3.46944695e-15 C3.75125,3.46944695e-15 3.46944695e-15,3.75125 3.46944695e-15,8.3325 L3.46944695e-15,91.66625 C3.46944695e-15,96.2475 3.75125,100 8.33375,100 L91.66625,100 C96.24875,100 100,96.2475 100,91.66625 L100,8.3325 C100,3.75125 96.24875,3.46944695e-15 91.66625,3.46944695e-15 Z M81.405,48.0625 L75.5125,42.17 C77.8560742,39.8261159 79.1722233,36.6470335 79.17125,33.3325 C79.17125,26.43125 73.5725,20.8325 66.67125,20.8325 C63.3539254,20.8285735 60.1717595,22.1466038 57.82875,24.495 L24.49625,57.82875 C22.1461106,60.1721273 20.8278561,63.3561843 20.83375,66.675 C20.83375,73.5675 26.42875,79.16625 33.33375,79.16625 C36.78375,79.16625 39.90875,77.76625 42.17125,75.50375 L42.175,75.5125 L60.77875,56.90875 C62.3200679,55.2666278 62.2789911,52.6973523 60.6859667,51.1053411 C59.0929424,49.51333 56.5236413,49.4738877 54.8825,51.01625 L36.27875,69.62 L30.38625,63.7275 L48.99,45.125 C53.8725,40.2425 61.79125,40.2425 66.67125,45.125 C69.0159396,47.4686592 70.3332592,50.6479617 70.3332592,53.963125 C70.3332592,57.2782883 69.0159396,60.4575908 66.67125,62.80125 L48.0675,81.40375 L48.0625,81.39625 C44.1629072,85.3129458 38.8607044,87.5102347 33.33375,87.5000356 C21.82625,87.5000356 12.4999855,78.17375 12.4999855,66.675 C12.4934736,61.1458439 14.6899923,55.8419011 18.60375,51.93625 L51.9375,18.60375 C55.8399999,14.6913961 61.1403118,12.4948907 66.66625,12.4999911 C78.17375,12.4999911 87.5037571,21.82625 87.5037571,33.3325 C87.5083086,38.8577138 85.3139559,44.157622 81.405,48.0625 Z" id="形状"></path>
        </g>
    </g>
</svg>