<svg xmlns="http://www.w3.org/2000/svg" xmlns:xlink="http://www.w3.org/1999/xlink" width="24" height="36.872" viewBox="0 0 24 36.872">
  <defs>
    <clipPath id="clip-path">
      <path id="路径_476" data-name="路径 476" d="M148-59a12,12,0,0,1-12,12,12,12,0,0,1-12-12,12.005,12.005,0,0,1,9-11.622v4.2A8,8,0,0,0,128-59a8,8,0,0,0,8,8,8,8,0,0,0,8-8,8,8,0,0,0-5-7.418v-4.2A12.005,12.005,0,0,1,148-59Z" fill="#5d5d5d"/>
    </clipPath>
    <clipPath id="clip-path-2">
      <path id="路径_479" data-name="路径 479" d="M136-72a2,2,0,0,1,2,2v9a2,2,0,0,1-2,2,2,2,0,0,1-2-2v-9A2,2,0,0,1,136-72Z" fill="#5d5d5d" clip-rule="evenodd"/>
    </clipPath>
  </defs>
  <g id="组_4933" data-name="组 4933" transform="translate(-124 72)">
    <g id="组_4934" data-name="组 4934">
      <g id="组_4848" data-name="组 4848" clip-path="url(#clip-path)">
        <path id="路径_475" data-name="路径 475" d="M123-71.622h26V-46H123Z" fill="#5d5d5d"/>
      </g>
    </g>
    <g id="组_4935" data-name="组 4935">
      <g id="组_4850" data-name="组 4850" clip-path="url(#clip-path-2)">
        <path id="路径_478" data-name="路径 478" d="M133-73h6v15h-6Z" fill="#5d5d5d"/>
      </g>
    </g>
    <g id="组_4936" data-name="组 4936">
      <g id="组_4852" data-name="组 4852" transform="translate(127 -44)">
        <path id="路径_570" data-name="路径 570" d="M1.12-6.5.544-5.96a7.826,7.826,0,0,1,1.32,1.3l.6-.592A10.3,10.3,0,0,0,1.12-6.5ZM5.672.7H7.5L7.7-.12Q7.38-.1,6.768-.072c-.416,0-.816.008-1.216.008-.608,0-1.144-.008-1.6-.016a2.535,2.535,0,0,1-1.04-.2,2.071,2.071,0,0,1-.544-.472l-.08-.08V-3.88H.456v.768H1.512V-.92A3.52,3.52,0,0,0,.44.3l.616.568C1.456.152,1.728-.2,1.88-.2c.1,0,.192.064.3.2A1.716,1.716,0,0,0,3,.552,5.918,5.918,0,0,0,4.264.688C4.768.7,5.24.7,5.672.7ZM2.9-5.392v.776h.848v.544a6.455,6.455,0,0,1-.048.808H2.624v.784h.92a2.464,2.464,0,0,1-.888,1.352l.5.664A3.452,3.452,0,0,0,4.368-2.48h1.2V-.352h.816V-2.48H7.56v-.784H6.384V-4.616H7.3v-.776h-.92V-6.568H5.568v1.176H4.56V-6.584H3.752v1.192Zm1.656.776H5.568v1.352H4.5a9.78,9.78,0,0,0,.056-1Zm8-.016A7.677,7.677,0,0,1,9.275.016l.512.72A7.552,7.552,0,0,0,13-3.672l.024.072A8.463,8.463,0,0,0,16.163.728l.52-.664a8.134,8.134,0,0,1-2.936-3.936,5.932,5.932,0,0,0-1.776-2.7l-.7.448A4.413,4.413,0,0,1,12.555-4.632Z" transform="translate(0 8)" fill="#5d5d5d"/>
      </g>
    </g>
  </g>
</svg>
