<?xml version="1.0" encoding="UTF-8"?>
<svg width="22px" height="22px" viewBox="0 0 22 22" version="1.1" xmlns="http://www.w3.org/2000/svg" xmlns:xlink="http://www.w3.org/1999/xlink">
    <title>2</title>
    <defs>
        <filter color-interpolation-filters="auto" id="filter-1">
            <feColorMatrix in="SourceGraphic" type="matrix" values="0 0 0 0 0.330756 0 0 0 0 0.681979 0 0 0 0 0.063682 0 0 0 1.000000 0"></feColorMatrix>
        </filter>
    </defs>
    <g id="2" stroke="none" stroke-width="1" fill="none" fill-rule="evenodd">
        <g filter="url(#filter-1)" id="资源-3">
            <g>
                <path d="M21.9994688,11.2732491 C22.0226789,13.6501988 21.2847871,15.9722238 19.8937061,17.8997408 C18.5716431,19.8019264 16.6744663,21.2300564 14.4808084,21.9743854 C14.2861368,22.0298664 14.0767169,21.9909677 13.9149534,21.8692806 C13.7968063,21.7532902 13.7340644,21.5922081 13.7426304,21.4268626 L13.7426304,18.3323815 C13.8047359,17.5645831 13.5325667,16.80732 12.9958974,16.2547283 C13.4904292,16.2055487 13.980633,16.119763 14.4624762,15.998077 C14.9351362,15.8672421 15.3875124,15.6718978 15.80684,15.4175562 C16.2484407,15.1702472 16.6401002,14.8428282 16.9617708,14.4520586 C17.3169835,13.9896953 17.58343,13.4655042 17.7476126,12.9060401 C17.9553288,12.1865335 18.055811,11.4403293 18.0458169,10.6915062 C18.0723303,9.57520662 17.6638887,8.49231073 16.9067741,7.67157618 C17.2607865,6.69672862 17.2213355,5.6223479 16.7967807,4.6760891 C16.4044943,4.6032613 15.9991651,4.65987871 15.6418499,4.83741276 C15.1814115,5.00734566 14.7392161,5.22312064 14.321929,5.48148526 L13.7792949,5.82857556 C11.9823816,5.31257329 10.0765379,5.31257329 8.27962462,5.82857556 C8.1219674,5.71491571 7.92520142,5.59392296 7.66855014,5.43382145 C7.27911088,5.200179 6.87020623,5.00063353 6.44640119,4.83741276 C6.06747764,4.64009918 5.63529025,4.56942434 5.21325289,4.63575818 C4.78897835,5.59106244 4.7521722,6.6737768 5.11059238,7.65568825 C4.36433312,8.48889381 3.96014823,9.57312195 3.97888245,10.6915062 C3.96775898,11.435665 4.0686983,12.17726 4.27830894,12.8913744 C4.44740044,13.4486429 4.71296742,13.9719174 5.06292857,14.4373928 C5.37765598,14.8382118 5.77059181,15.1708559 6.21785933,15.4151119 C6.64259653,15.6588132 7.09359907,15.8535643 7.56222318,15.9956327 C8.04401534,16.1175574 8.53423705,16.2033462 9.02880193,16.252284 C8.61544172,16.6533374 8.36364728,17.1921514 8.32117768,17.7665265 C8.11506578,17.8667622 7.89572822,17.9371313 7.66977229,17.975514 C7.41084137,18.0255131 7.14764175,18.0500729 6.88393051,18.0488429 C6.5216102,18.0504312 6.1685936,17.9341888 5.87810192,17.7176406 C5.55083736,17.4742866 5.28230318,17.1606487 5.09226015,16.7998067 C4.92030784,16.4963225 4.68424545,16.2339846 4.40052384,16.031075 C4.1915306,15.8665204 3.95116137,15.7463358 3.69412175,15.677874 L3.41180534,15.677874 C3.26996498,15.6695291 3.12795886,15.6911839 2.99505254,15.7414257 C2.91683501,15.7903117 2.89239203,15.8465305 2.9241679,15.9113044 C2.96072318,15.9827294 3.00498393,16.0499402 3.05615999,16.1117369 C3.11278028,16.179979 3.17625746,16.2422276 3.24559308,16.2975035 L3.34703144,16.3622774 C3.59463949,16.4988429 3.80911806,16.6882851 3.975216,16.917133 C4.15125919,17.1469306 4.30166159,17.3952789 4.42374467,17.6577553 L4.5642918,17.9962905 C4.67526972,18.3573919 4.89509472,18.6753912 5.19369851,18.9067915 C5.47535758,19.1155372 5.80029383,19.2583755 6.1445304,19.3247665 C6.46948069,19.394532 6.80089381,19.4297625 7.1332489,19.4298713 C7.39634435,19.4344482 7.65932605,19.4156346 7.91909068,19.3736524 L8.24907089,19.3174336 L8.24907089,21.4268626 C8.25415309,21.5935402 8.18791213,21.7544746 8.0669707,21.8692806 C7.90188925,21.9897888 7.69088123,22.0284811 7.49378284,21.9743854 C5.30842831,21.2194328 3.42335754,19.7824947 2.11632745,17.8752978 C0.714748778,15.9618072 -0.0276512886,13.6449701 0.000787608773,11.2732491 C-0.0119404455,9.2970266 0.497793025,7.35253465 1.47836569,5.63669818 C2.43022469,3.93056621 3.81826406,2.50794184 5.5004579,1.51438976 C7.15969684,0.513838401 9.0625854,-0.0100902494 11.0001282,0 C12.937671,-0.0100902494 14.8405595,0.513838401 16.4997985,1.51438976 C18.1819923,2.50794184 19.5700317,3.93056621 20.5218907,5.63669818 C21.5029508,7.3523355 22.0127193,9.296961 21.9994688,11.2732491 L21.9994688,11.2732491 Z" id="路径" fill="#333333" fill-rule="nonzero"></path>
            </g>
        </g>
    </g>
</svg>