<?xml version="1.0" encoding="UTF-8"?>
<svg width="22px" height="22px" viewBox="0 0 22 22" version="1.1" xmlns="http://www.w3.org/2000/svg" xmlns:xlink="http://www.w3.org/1999/xlink">
    <title>3</title>
    <g id="3" stroke="none" stroke-width="1" fill="none" fill-rule="evenodd">
        <g id="资源-2" fill-rule="nonzero">
            <path d="M4.4,0 L17.6,0 C20.0297638,0.000697907198 21.9993021,1.97023624 22,4.4 L22,17.6 C21.9993021,20.0297638 20.0297638,21.9993021 17.6,22 L4.4,22 C1.97023624,21.9993021 0.000697907198,20.0297638 0,17.6 L0,4.4 C0.000697907198,1.97023624 1.97023624,0.000697907198 4.4,0 Z" id="路径" fill="#0A66C2"></path>
            <path d="M5.10692115,4.51166756 C4.47285969,4.87638886 4.16300494,5.62193614 4.35166835,6.32889537 C4.54033176,7.03585459 5.18039722,7.52767236 5.9117904,7.52767236 C6.64318359,7.52767236 7.28324904,7.03585459 7.47191245,6.32889537 C7.66057586,5.62193614 7.35072111,4.87638886 6.71665966,4.51166756 C6.21825975,4.22527748 5.60532105,4.22527748 5.10692115,4.51166756 L5.10692115,4.51166756 Z M7.28635618,8.73787334 L4.51961811,8.73787334 L4.51961811,17.5048284 L7.28635618,17.5048284 L7.28635618,8.73787334 Z M11.8615349,9.74441238 L11.8615349,8.73787334 L9.10611526,8.73787334 L9.10611526,17.5048284 L11.8728533,17.5048284 L11.8728533,12.3249268 C11.8728533,12.3249268 12.1130565,10.7824058 13.4121658,10.7824058 C14.7112751,10.7824058 14.9363869,12.1890441 14.9363869,12.5929179 L14.9363869,17.53125 L17.703125,17.53125 L17.703125,12.3249268 C17.6855185,10.6691701 17.0592296,8.40697363 14.7578066,8.40697363 C13.6263084,8.31608118 12.5290759,8.82085398 11.8615349,9.73937968 L11.8615349,9.74441238 Z" id="形状" fill="#FFFFFF"></path>
        </g>
    </g>
</svg>