<svg xmlns="http://www.w3.org/2000/svg" xmlns:xlink="http://www.w3.org/1999/xlink" width="65.106" height="24" viewBox="0 0 65.106 24">
  <defs>
    <filter id="矩形_4193" x="0" y="0" width="25" height="24" filterUnits="userSpaceOnUse">
      <feOffset dy="1" input="SourceAlpha"/>
      <feGaussianBlur stdDeviation="1" result="blur"/>
      <feFlood flood-opacity="0.161"/>
      <feComposite operator="in" in2="blur"/>
      <feComposite in="SourceGraphic"/>
    </filter>
    <filter id="减去_1" x="3" y="2.001" width="19.001" height="17.999" filterUnits="userSpaceOnUse">
      <feOffset dy="3" input="SourceAlpha"/>
      <feGaussianBlur stdDeviation="3" result="blur-2"/>
      <feFlood flood-color="red" flood-opacity="0.161" result="color"/>
      <feComposite operator="out" in="SourceGraphic" in2="blur-2"/>
      <feComposite operator="in" in="color"/>
      <feComposite operator="in" in2="SourceGraphic"/>
    </filter>
  </defs>
  <g id="组_4930" data-name="组 4930" transform="translate(-269 -265)">
    <g id="组_4820" data-name="组 4820" transform="translate(296.456 267)">
      <path id="路径_560" data-name="路径 560" d="M1.582,0,.269-7.148h1.9L2.72-3.291q.049.347.071.6t.032.486q.088-.352.171-.642T3.14-3.33l1.27-3.818H6.172l.518,3.857q.049.337.071.6t.032.493a4.433,4.433,0,0,1,.115-.447q.076-.247.232-.681l1.44-3.818h1.982L7.568,0H5.61L5.122-3.325q-.049-.337-.073-.6t-.029-.5q-.083.322-.164.608t-.154.52L3.618,0ZM14.051-3.682a1.081,1.081,0,0,0-.862.427,1.58,1.58,0,0,0-.354,1.042,1,1,0,0,0,.259.723.912.912,0,0,0,.688.269,1.116,1.116,0,0,0,.891-.413,1.58,1.58,0,0,0,.349-1.057.99.99,0,0,0-.261-.725A.95.95,0,0,0,14.051-3.682Zm-2.886,1.45a2.764,2.764,0,0,1,.82-2.061,2.871,2.871,0,0,1,2.1-.806,2.639,2.639,0,0,1,1.89.669,2.343,2.343,0,0,1,.708,1.787A2.713,2.713,0,0,1,15.853-.6a2.953,2.953,0,0,1-2.139.8,2.572,2.572,0,0,1-1.853-.664A2.33,2.33,0,0,1,11.165-2.231ZM18.6,0l.781-4.932h1.67l-.122.84a1.7,1.7,0,0,1,.615-.713,1.644,1.644,0,0,1,.9-.244,1.159,1.159,0,0,1,.122.007q.068.007.215.032l-.347,1.548q-.171-.039-.308-.059a1.865,1.865,0,0,0-.264-.02,1.026,1.026,0,0,0-.793.315,1.86,1.86,0,0,0-.4.974L20.319,0Zm7.811-2.842,1.87-2.09h2.192l-2.412,2.4L29.673,0h-2.08l-1.25-2.329L25.972,0H24.243L25.43-7.568h1.743ZM35.7-4.57l-.508,1.108a2.924,2.924,0,0,0-.62-.349,1.544,1.544,0,0,0-.562-.11.662.662,0,0,0-.388.107.315.315,0,0,0-.154.264q0,.225.508.42.225.083.352.142a2.769,2.769,0,0,1,.991.637,1.218,1.218,0,0,1,.283.823A1.507,1.507,0,0,1,35-.281,2.524,2.524,0,0,1,33.4.19,3.875,3.875,0,0,1,32.32.042a3.938,3.938,0,0,1-1-.452L31.9-1.592a5.1,5.1,0,0,0,.835.435,1.8,1.8,0,0,0,.635.127.685.685,0,0,0,.415-.115.352.352,0,0,0,.156-.3q0-.278-.718-.571l-.332-.137a2.148,2.148,0,0,1-.811-.552,1.147,1.147,0,0,1-.239-.742,1.443,1.443,0,0,1,.591-1.177,2.369,2.369,0,0,1,1.519-.469,3.193,3.193,0,0,1,.913.132A3.189,3.189,0,0,1,35.7-4.57Zm1.981,3.76a.949.949,0,0,1,.286-.693.943.943,0,0,1,.7-.288.957.957,0,0,1,.7.283.945.945,0,0,1,.286.7.963.963,0,0,1-.283.706.939.939,0,0,1-.693.286.951.951,0,0,1-.7-.293A.957.957,0,0,1,37.682-.811Z" transform="translate(-2 13)" fill="#815b40"/>
    </g>
    <g id="组_4929" data-name="组 4929" transform="translate(60.416 -56.27)">
      <g transform="matrix(1, 0, 0, 1, 208.58, 321.27)" filter="url(#矩形_4193)">
        <rect id="矩形_4193-2" data-name="矩形 4193" width="19" height="18" rx="2" transform="translate(3 2)" fill="#fff"/>
      </g>
      <g data-type="innerShadowGroup">
        <path id="减去_1-2" data-name="减去 1" d="M-7969.415-2808.73h-15a2,2,0,0,1-2-2v-14a2,2,0,0,1,2-2h15a2,2,0,0,1,2,2v3.253l-.086-.043-.012-.006c-.2-.1-.411-.217-.629-.343a6.113,6.113,0,0,0,.174-.784,4.746,4.746,0,0,0,.05-.684,2.756,2.756,0,0,0-.477-1.7,1.531,1.531,0,0,0-1.287-.631,1.5,1.5,0,0,0-1.2.549,2.165,2.165,0,0,0-.463,1.441,2.829,2.829,0,0,0,.272,1.277,4.016,4.016,0,0,0,.928,1.122,29.417,29.417,0,0,1-2.666,6.52c-.988,1.675-1.851,2.523-2.563,2.523a1.337,1.337,0,0,1-1.185-.723,3.7,3.7,0,0,1-.445-1.942v-.359a6.6,6.6,0,0,0,1.794-2.046,4.7,4.7,0,0,0,.675-2.281,1.56,1.56,0,0,0-.363-1.086,1.288,1.288,0,0,0-1-.4,1.879,1.879,0,0,0-1.179.487,4.9,4.9,0,0,0-1.108,1.4,9.4,9.4,0,0,0-.862,2.046,7.712,7.712,0,0,0-.3,2.076c0,.223.027.586.082,1.108v.06a9.179,9.179,0,0,1-1.481,1.59,2.061,2.061,0,0,1-1.185.553.805.805,0,0,1-.77-.471,3.916,3.916,0,0,1-.234-1.6,15.126,15.126,0,0,1,.557-3.722,21.961,21.961,0,0,1,1.523-4.113,17.006,17.006,0,0,1,1.2-2.1,5.016,5.016,0,0,0,.665-1.138c0-.163-.189-.333-.563-.507a2.708,2.708,0,0,0-1.139-.262,1.6,1.6,0,0,0-1.04.645,10.435,10.435,0,0,0-1.309,1.96,20.775,20.775,0,0,0-1.866,4.578,17.11,17.11,0,0,0-.675,4.528,5.8,5.8,0,0,0,.773,3.291,2.6,2.6,0,0,0,2.271,1.116,3.717,3.717,0,0,0,1.948-.563,7.473,7.473,0,0,0,1.876-1.744,4.159,4.159,0,0,0,1.138,1.738,2.484,2.484,0,0,0,1.632.569c1.369,0,2.721-.921,4.019-2.738a27.348,27.348,0,0,0,3.5-7.8c.1.055.214.111.347.17.1.044.228.1.411.168l.247-.525v9.542A2,2,0,0,1-7969.415-2808.73Z" transform="translate(8198 3150)" fill="#ff9d00"/>
        <g transform="matrix(1, 0, 0, 1, 208.58, 321.27)" filter="url(#减去_1)">
          <path id="减去_1-3" data-name="减去 1" d="M-7969.415-2808.73h-15a2,2,0,0,1-2-2v-14a2,2,0,0,1,2-2h15a2,2,0,0,1,2,2v3.253l-.086-.043-.012-.006c-.2-.1-.411-.217-.629-.343a6.113,6.113,0,0,0,.174-.784,4.746,4.746,0,0,0,.05-.684,2.756,2.756,0,0,0-.477-1.7,1.531,1.531,0,0,0-1.287-.631,1.5,1.5,0,0,0-1.2.549,2.165,2.165,0,0,0-.463,1.441,2.829,2.829,0,0,0,.272,1.277,4.016,4.016,0,0,0,.928,1.122,29.417,29.417,0,0,1-2.666,6.52c-.988,1.675-1.851,2.523-2.563,2.523a1.337,1.337,0,0,1-1.185-.723,3.7,3.7,0,0,1-.445-1.942v-.359a6.6,6.6,0,0,0,1.794-2.046,4.7,4.7,0,0,0,.675-2.281,1.56,1.56,0,0,0-.363-1.086,1.288,1.288,0,0,0-1-.4,1.879,1.879,0,0,0-1.179.487,4.9,4.9,0,0,0-1.108,1.4,9.4,9.4,0,0,0-.862,2.046,7.712,7.712,0,0,0-.3,2.076c0,.223.027.586.082,1.108v.06a9.179,9.179,0,0,1-1.481,1.59,2.061,2.061,0,0,1-1.185.553.805.805,0,0,1-.77-.471,3.916,3.916,0,0,1-.234-1.6,15.126,15.126,0,0,1,.557-3.722,21.961,21.961,0,0,1,1.523-4.113,17.006,17.006,0,0,1,1.2-2.1,5.016,5.016,0,0,0,.665-1.138c0-.163-.189-.333-.563-.507a2.708,2.708,0,0,0-1.139-.262,1.6,1.6,0,0,0-1.04.645,10.435,10.435,0,0,0-1.309,1.96,20.775,20.775,0,0,0-1.866,4.578,17.11,17.11,0,0,0-.675,4.528,5.8,5.8,0,0,0,.773,3.291,2.6,2.6,0,0,0,2.271,1.116,3.717,3.717,0,0,0,1.948-.563,7.473,7.473,0,0,0,1.876-1.744,4.159,4.159,0,0,0,1.138,1.738,2.484,2.484,0,0,0,1.632.569c1.369,0,2.721-.921,4.019-2.738a27.348,27.348,0,0,0,3.5-7.8c.1.055.214.111.347.17.1.044.228.1.411.168l.247-.525v9.542A2,2,0,0,1-7969.415-2808.73Z" transform="translate(7989.42 2828.73)" fill="#fff"/>
        </g>
      </g>
    </g>
  </g>
</svg>
