<svg xmlns="http://www.w3.org/2000/svg" xmlns:xlink="http://www.w3.org/1999/xlink" width="91.456" height="24" viewBox="0 0 91.456 24">
  <defs>
    <filter id="矩形_4193" x="0" y="0" width="25" height="24" filterUnits="userSpaceOnUse">
      <feOffset dy="1" input="SourceAlpha"/>
      <feGaussianBlur stdDeviation="1" result="blur"/>
      <feFlood flood-opacity="0.161"/>
      <feComposite operator="in" in2="blur"/>
      <feComposite in="SourceGraphic"/>
    </filter>
    <filter id="减去_1" x="3" y="2.001" width="19.001" height="17.999" filterUnits="userSpaceOnUse">
      <feOffset dy="3" input="SourceAlpha"/>
      <feGaussianBlur stdDeviation="3" result="blur-2"/>
      <feFlood flood-color="red" flood-opacity="0.161" result="color"/>
      <feComposite operator="out" in="SourceGraphic" in2="blur-2"/>
      <feComposite operator="in" in="color"/>
      <feComposite operator="in" in2="SourceGraphic"/>
    </filter>
  </defs>
  <g id="组_4930" data-name="组 4930" transform="translate(-269 -265)">
    <g id="组_4820" data-name="组 4820" transform="translate(296.456 267)">
      <text id="PORTFOLIO" transform="translate(-3 13)" fill="#ff7900" font-size="10" font-family="Futura-Medium, Futura" font-weight="500" letter-spacing="0.139em"><tspan x="0" y="0">PORTFOLIO</tspan></text>
    </g>
    <g id="组_4929" data-name="组 4929" transform="translate(60.416 -56.27)">
      <g transform="matrix(1, 0, 0, 1, 208.58, 321.27)" filter="url(#矩形_4193)">
        <rect id="矩形_4193-2" data-name="矩形 4193" width="19" height="18" rx="2" transform="translate(3 2)" fill="#fff"/>
      </g>
      <g data-type="innerShadowGroup">
        <path id="减去_1-2" data-name="减去 1" d="M-7969.415-2808.73h-12.056v-6.5h4.43a5.7,5.7,0,0,0,4.508-1.9,5.859,5.859,0,0,0,1.5-3.888,5.988,5.988,0,0,0-.593-2.742,4.63,4.63,0,0,0-1.477-1.846,5.944,5.944,0,0,0-2.09-1.123h5.776a2,2,0,0,1,2,2v14A2,2,0,0,1-7969.415-2808.73Zm-14.97,0h-.03a2,2,0,0,1-2-2v-14a2,2,0,0,1,2-2h.03v18Zm7.226-9.256h-4.312v-6.209h4.312a3.639,3.639,0,0,1,1.976.541,2.434,2.434,0,0,1,.924.936,3.757,3.757,0,0,1,.317,1.621,3.263,3.263,0,0,1-.78,2.111A3.08,3.08,0,0,1-7977.16-2817.986Z" transform="translate(8198 3150)" fill="#ff9d00"/>
        <g transform="matrix(1, 0, 0, 1, 208.58, 321.27)" filter="url(#减去_1)">
          <path id="减去_1-3" data-name="减去 1" d="M-7969.415-2808.73h-12.056v-6.5h4.43a5.7,5.7,0,0,0,4.508-1.9,5.859,5.859,0,0,0,1.5-3.888,5.988,5.988,0,0,0-.593-2.742,4.63,4.63,0,0,0-1.477-1.846,5.944,5.944,0,0,0-2.09-1.123h5.776a2,2,0,0,1,2,2v14A2,2,0,0,1-7969.415-2808.73Zm-14.97,0h-.03a2,2,0,0,1-2-2v-14a2,2,0,0,1,2-2h.03v18Zm7.226-9.256h-4.312v-6.209h4.312a3.639,3.639,0,0,1,1.976.541,2.434,2.434,0,0,1,.924.936,3.757,3.757,0,0,1,.317,1.621,3.263,3.263,0,0,1-.78,2.111A3.08,3.08,0,0,1-7977.16-2817.986Z" transform="translate(7989.42 2828.73)" fill="#fff"/>
        </g>
      </g>
    </g>
  </g>
</svg>
